/* XPM */
static char *result[] = {
/* columns rows colors chars-per-pixel */
"64 64 239 2 ",
"   c #26590F",
".  c #295A11",
"X  c #1F7204",
"o  c #29670B",
"O  c #297906",
"+  c #357505",
"@  c #336612",
"#  c #535603",
"$  c #72500D",
"%  c #4C6F0D",
"&  c #597A03",
"*  c #5D661B",
"=  c #676B03",
"-  c #766B00",
";  c #637402",
":  c #697801",
">  c #787701",
",  c #726A18",
"<  c #6F5126",
"1  c #72562B",
"2  c #4E6E2E",
"3  c #4B6B32",
"4  c #706723",
"5  c #5E6D47",
"6  c #6B734C",
"7  c #73745C",
"8  c #7A7566",
"9  c #8A5214",
"0  c #AC5D00",
"q  c #AA5809",
"w  c #B65600",
"e  c #BC5403",
"r  c #B35C01",
"t  c #BA5B00",
"y  c #B65709",
"u  c #BC5409",
"i  c #B05911",
"p  c #866903",
"a  c #976800",
"s  c #867601",
"d  c #997701",
"f  c #907317",
"g  c #A96604",
"h  c #BB6403",
"j  c #B46B00",
"k  c #BD6A01",
"l  c #B56608",
"z  c #BC650A",
"x  c #A77703",
"c  c #BA7901",
"v  c #AC6C18",
"b  c #BA6714",
"n  c #AA7417",
"m  c #8A5A25",
"M  c #966C2D",
"N  c #A66626",
"B  c #BA7726",
"V  c #AF6F30",
"C  c #C75802",
"Z  c #CC6502",
"A  c #C46A02",
"S  c #C96A07",
"D  c #CD6609",
"F  c #D76900",
"G  c #C77605",
"H  c #CC7100",
"J  c #CC7A01",
"K  c #CC7C09",
"L  c #D57606",
"P  c #DE7900",
"I  c #C6671C",
"U  c #C5741B",
"Y  c #EC7905",
"T  c #C87326",
"R  c #C77030",
"E  c #8A6945",
"W  c #957D4C",
"Q  c #A07749",
"!  c #1E8401",
"~  c #1E9701",
"^  c #258C01",
"/  c #298A02",
"(  c #3A8B06",
")  c #259701",
"_  c #2C9402",
"`  c #259B01",
"'  c #2B9D01",
"]  c #339502",
"[  c #3B9403",
"{  c #349B02",
"}  c #3A9C02",
"|  c #3D9609",
" . c #26A101",
".. c #2CA101",
"X. c #32A202",
"o. c #3BA103",
"O. c #33A902",
"+. c #448D02",
"@. c #4C8D03",
"#. c #4A8708",
"$. c #548402",
"%. c #5A8404",
"&. c #548B02",
"*. c #5B8C03",
"=. c #578809",
"-. c #449403",
";. c #4B9203",
":. c #439A03",
">. c #4B9A03",
",. c #429309",
"<. c #4B970A",
"1. c #539303",
"2. c #5C9304",
"3. c #569807",
"4. c #428C12",
"5. c #648403",
"6. c #6D8703",
"7. c #648C04",
"8. c #6A8B04",
"9. c #748702",
"0. c #659304",
"q. c #6B9404",
"w. c #669807",
"e. c #739304",
"r. c #789904",
"t. c #42A302",
"y. c #788564",
"u. c #868802",
"i. c #998802",
"p. c #869805",
"a. c #969604",
"s. c #A98901",
"d. c #B78704",
"f. c #A89805",
"g. c #B99905",
"h. c #B68914",
"j. c #87A305",
"k. c #99A205",
"l. c #ACA505",
"z. c #B6A706",
"x. c #9B862F",
"c. c #B18A2E",
"v. c #C78506",
"b. c #CD8500",
"n. c #CD8A01",
"m. c #D78704",
"M. c #DC8B01",
"N. c #CA9707",
"B. c #CD9A09",
"V. c #D69805",
"C. c #DE9A02",
"Z. c #DD9B09",
"A. c #EE8303",
"S. c #E78805",
"D. c #ED8409",
"F. c #EE8A09",
"G. c #F38909",
"H. c #FC8A09",
"J. c #E89607",
"K. c #E39A02",
"L. c #EC9B03",
"P. c #EE9A09",
"I. c #F99806",
"U. c #FF9A09",
"Y. c #C6A806",
"T. c #D8A608",
"R. c #DDAA09",
"E. c #D1B307",
"W. c #EAA707",
"Q. c #EDAB02",
"!. c #E4AA08",
"~. c #F3A701",
"^. c #FDA301",
"/. c #FEAB00",
"(. c #FFA309",
"). c #F4AA08",
"_. c #FFAB09",
"`. c #EAB807",
"'. c #FFB309",
"]. c #EEC607",
"[. c #9A8448",
"{. c #9F8B5A",
"}. c #A18B53",
"|. c #AA9957",
" X c #908D6C",
".X c #979575",
"XX c #AE9463",
"oX c #A99664",
"OX c #AB9A66",
"+X c #AB9B6A",
"@X c #AB9B74",
"#X c #AB9B78",
"$X c #ACA479",
"%X c #ACAB79",
"&X c #B4A87B",
"*X c #C58744",
"=X c #999580",
"-X c #ABA786",
";X c #B5AB84",
":X c #BAAC85",
">X c #BBAC89",
",X c #B5B588",
"<X c #BBB38C",
"1X c #B1AD93",
"2X c #BAB697",
"3X c #C6B488",
"4X c #C8BB97",
"5X c #C5BC9B",
"6X c #C8BDA5",
"7X c #CEC59C",
"8X c #D0CC9C",
"9X c #CAC5A7",
"0X c #CDCCAB",
"qX c #D7CBA8",
"wX c #D3CCAC",
"eX c #D2D1AE",
"rX c #D8CDB5",
"tX c #DBD5B9",
"yX c #DCD4BC",
"uX c #E1D0AE",
"iX c #DCD9C2",
"pX c #E1DCC4",
"aX c #E5E2C9",
"sX c #E7E2CA",
"dX c #E6E5D3",
"fX c #EBE6D2",
"gX c #EDEAD5",
"hX c #EEEEDD",
"jX c #F4EEDE",
"kX c #FEEEDE",
"lX c #F8F0DF",
"zX c #F3EEE3",
"xX c #FDEEE3",
"cX c #F2EEE8",
"vX c #FCEEEB",
"bX c #FDF3E3",
"nX c #F9F4E2",
"mX c #FFF4ED",
"MX c #FFFEEE",
/* pixels */
"X.X.' ..` ' ....` _ .. ...X.O.O.....' ' ..' { ..` ..X.` ` _ ~ ` ' ' o.O.' ` ..` _ ' ' ..' .. .....' ' o.X.......X.' ' ' _ ......",
"' .._ ' ` '  .` .. .' ' ' ' ' ....' ' ' X...' ..~ ..X.` _ {  .` ' ' X.X.' ` ' ' ' ` ` ` ....` ' ' ' ..X.X.' _ ' { X.O.' _ ` .. .",
") ' _ ` X.X...' X.X.X.} { ] ] { ] } } ] X.o.{ { ] ] :.} t.t.} } [ [ [ :.} ] } } } { } { X.o.o.{ { { ' { { { ` ` ..........' ' ' ",
"` X... ...X.X.X.X.{ t.} { [ ] } ] } o.{ { } } [ ] -.:.>.>.>.-.-.-.-.;.-.+.[ [ } } } } ] ] ] } } { X.{ { ] { ` ......' X...X.X.` ",
"..O.......` { { o.} } } _ ] } { | } o.} ] [ ,.:.:.>.<.2.3.3.;.@.&.@.@.@.+.+.@.-.[ ] } { } ] } } { { { ] } o.{ { ..........{ X.' ",
"....X...' _ { { } { { [ { ] } } { { { | [ ,.<.#.1.1.<.3.2.1.1.1.&.&.&.&.&.@.-.+.-.-.[ [ t.t.} } { { { { { o.{ } ' ..X...` ..X...",
"....X...' { } { } { { { { ] ] [ { { | ,.+.<.3.<.3.3.2.7.2.*.*.*.*.*.&.&.$.$.$.$.#.+.+.+.:.} } { ] } } { X.{ ] } { _ .... ._ ..' ",
"X.' ' { ' { } { { ] { { { } ' { X.[ ,.,.,.#.3.w.w.w.2.0.q.0.0.*.*.*.*.*.$.$.$.$.$.#.@.-.-.} } { ] [ } ] { { ] ] _ { _ ' ` ` ' ' ",
".._ ' { ] ] ] { ] ] _ _ { X.' ' _ ,.<.<.#.*.q.w.w.r.w.e.e.q.q.8.8.7.7.5.7.$.& & $.+.$.+.:.-.} { ] _ ] { ] ] } _ _ ] { { ` ` ....",
"` ` ....} ] ' } { ] ] ' | ` _ _ ( ,.3.2.2.q.q.w.r.r.r.p.r.e.e.q.8.6.6.5.5.5.& & & $.&.;.-.-.:.} ] { { } { { [ { _ { ] ] ' ......",
"~ ..' ' } { _ { { o.o.X.' | _ ( 4.=.=.8.q.e.9.r.r.j.p.j.p.j.r.r.r.e.9.6.: : : ; & $.&.@.;.-.} :.{ { { } } _ ] } o.{ [ } X.X.X.` ",
"` ..' ' :.o.{ { { } { | '  .| | 3.=.q.e.e.p.p.p.j.j.j.p.k.p.p.p.p.u.9.> > : : ; = ; $.&.@.-.-.[ } } } } { ' { } } { o.o.{ ..X.' ",
"..` ' _ o.o.o.{ | _ { X._ ) | 4.3.w.e.e.p.p.p.j.k.k.k.k.a.l.a.a.i.a.u.> - > : = > ; 5.*.@.;.,.-.[ [ } } _ { { { ] { o.o.{ ) ' X.",
" .` ` { X.| o.o.o.{ { { _ 4.| <.2.7.e.p.u.a.i.f.k.l.z.z.z.z.l.f.f.i.i.d p p p - - : 5.8.7.1.;.;.[ [ ] { { { { { ' { X.o.{ ......",
" .' ..{ X.X.O.| |  .' | | :.<.<.w.e.p.p.a.f.l.g.l.z.z.z.z.z.g.f.f.s.i.x a a p p - - ; 6.8.*.2.1.,.| [ ] ] } ] } { { { | o.X.X.` ",
"' ` ' ' X.| o...| X._ { } t.3.w.e.9.i.f.f.h.g.z.Y.Y.Y.E.Y.Y.Y.N.g.d.x x x a a a a p p > 5.7.q.&.@.( ( [ ] { { _ { } X.O.| ' X...",
"` _ ' _ { o.o.} o.o.X.] | <.w.w.r.a.s.g.g.B.Y.V.E.E.T.R.T.Y.Y.Y.N.g.d.c j g a a a a s s : 6.0.&.*.,.4.( ( ] { { ] { { { X.{ ' ..",
"`  .` _ ' X.X.o.X.} | | <.3.w.r.p.s.g.N.B.B.Z.T.R.!.!.!.!.R.T.Z.B.n.v.k j j r g a a d d s 9.6.5.*.=.#.4.| [ ] _ { { _ ] ] | { ' ",
"..~  . .' { { } { ( [ -.3.w.r.r.i.g.N.V.Z.Z.K.!.!.!.W.W.W.!.!.T.C.N.b.H k j h r 0 g a d i.u.6.8.7.=.=.,.4.,.( } ] } { { X.} X...",
"` ~ ` ..' { { { -.| ( +.2.q.r.p.g.N.B.T.Z.J.W.W.).).).).).).!.W.J.M.m.L A A k h 0 g x s.d s.i.> 5.%.=.=.#.,.( ;.-.:.o.{ } _ ..{ ",
"` ) ' X.` _ { [ -.;.>.@.0.e.p.l.Y.V.Z.K.W.I.I.)._._._._._._.).L.P.S.m.F F Z A h h j x x s.s.f.s : & =.=.4.#.( ,.<.:.} | | ] ` { ",
"` ' ..X...{ ] -.;.1.0.0.0.e.k.z.Y.Z.J.L.L.I.I.U._.'._._._._.).I.P.J.Y F F F Z Z A A k c d.s.s.s.> : : =.=.#.#.<.;.,.<.t.X.X.....",
"` ....' ..X.} >.1.2.w.w.e.a.z.E.E.J.L.^.^.U.U.(._.'.'._._._._._.L.F.Y Y P F Z Z Z Z A G c d.d.s.i.> ; %.=.=.#.#.<.3.<.t.| X.....",
"........{ { -.>.>.w.w.r.u.l.Y.E.R.P.I././.^.I._._._._._._._._._.P.S.A.Y P P P H Z Z H J G d.c x x x p & & %.=.=.2.3.<.<.' X.X.' ",
"' ' _ ..o.:.>.;.>.2.0.9.i.Y.E.E.!.L./././././._._._._._._._.(.U.I.F.A.Y Y P P P H H H J J G c j j x n - & 5.*.7.3.=.3.<._ X. .' ",
"X.X...X.t.:.>.;.@.2.8.u.z.Y.E.R.~.^./././././._._._._._._._.U.U.I.F.A.Y M.P P P L J J J J J G j j l g n p ; =.7.7.3.<.| _ X.` X.",
"X.X.X.{ :.:.;.1.1.2.6.s.g.T.T.L./././././././._._._._._._.(.U.U.H.G.D.A.A.m.P P P H J J J J A h h r r g v p = 5.=.2.3.,._ ' _ ` ",
"' _ { } >.;.@.&.*.: s.g.N.V.K.~./././././././._._._.U.U.U.U.U.U.I.G.D.A.S.S.M.M.S.m.b.b.J J H A C t r r v v - = =.=.<.4.| X.X._ ",
"' ` ' [ ;.1.;.&.: x d.v.n.C.L.~././././././././._.U.U.U.U.U.U.H.G.G.Y A.F.K.M.C.C.S.m.n.b.J F Z C w r 0 l g v f , =.<.<.| ` ' ..",
"X...{ -.>.3.$.; d d.c v.m.K.L.Q././././././././._.U.U.U.U.U.H.H.G.G.Y A.L.K.C.K.C.M.m.n.n.b.H C C e r r 0 r v v N 4 =.<.| ` ' ` ",
"X.X.[ :.;.: p x d.d.v.n.M.K.~.Q.Q././././././.^.I.U.U.U.U.H.H.H.G.D.Y A.L.K.C.C.C.M.M.m.n.n.J Z C C w w 0 0 g l n c.9.4.| ) ..' ",
"' ' ] ;.: f.N.v.d.K v.V.C.!.Q.Q.Q.Q.Q.Q.Q.Q./.^.I.U.U.U.I.H.H.H.D.Y Y A.L.K.C.C.C.C.C.M.m.n.L C C C w w r r r l b c.c.* / ' ....",
"_ ' ) & f.Y.n.v.K v.m.m.Z.J.).!.Q.`.].].].].`.).P.P.P.U.H.H.H.F.Y Y Y G.P.K.Z.C.C.C.C.M.n.n.b.Z C C C C w w w e y B c.x.+ ..X._ ",
"..' / : Y.N.v.K K K L m.m.J.P.P.`.].].].].].].`.P.P.P.P.J.F.D.F.G.Y Y F.W.!.T.Z.Z.J.C.C.V.n.J H C C C u e w w e t z c.c.% { X.` ",
"` ' O u.z.J A A S S H J L S.F.P.`.].].`.].].].`.).P.P.P.P.F.F.F.G.D.D.P.W.R.!.R.!.Z.Z.Z.V.N.b.H C C e u u e w w C z B c.* _ ..` ",
" .' % f.d.j j h r r t h S U L Z.R.!.`.R.`.`.`.`.).P.F.F.F.F.D.D.G.F.D.P.!.!.R.R.Z.Z.Z.Z.B.N.K C C u u u u u w w u z B c.* _ ....",
"..` = f.j 0 g r r w e h k A G v.B.Y.B.Z.B.T.T.T.T.Z.D.S.S.S.S.D.D.D.D.F.!.R.R.T.Z.B.B.B.B.v.b u u u u u u u u w t z B R * _ X.' ",
"X...= s.g 0 0 y b z S z b b D K B.B.B.B.B.N.B.B.B.m.L U L K U L L L L L m.B.V.B.B.B.v.v.G z u u u u y i q u u u S G B |.* / ....",
"` X.# j r 0 b R N 9 9 < m m N v h.g.h.B.N.N.V.B.B.N.D D D D D D I D D K K K K K K S z z z z u u u u u u u I I I b N B *X* ) ` _ ",
") _ o a t w T N 9 $ < < 1 m |.|.[.}.x.x.h.x.h.h.B.B.v.D D D D D D D D D D K D S A z z z z z z C u u i R R V N i N V *XV o .. ...",
"` ` ^ # e t U B m < < 1 < E |.|.|.|.|.|.|.|.[.x.x.n n b b z A D D D D D D D D z z z z z h l h i i N N M m V i N T R *X4 _ ' ....",
"..` ] ( $ 0 A U b N m < 1 {.OXOX|.OXOX|.|.|.OXOX|.|.}.x.x.[.M N N N N b l i b q g i q v M m m M Q W Q XXQ I T R R *X4 ( ] _ ..` ",
"....{ { ( # $ 0 t S G n E +XOXOX+X+XOXOX+XOXOXOXOXOXOXOXOX|.OXOXOXXXXXW [.[.[.[.W [.[.W oXoXoX+X#XoXXX;X&XV R R V * / o._ { ' ) ",
"' ` ' X.' { + # # $ x f .X@XOXOX+XOXOXOXOXOXOXOXOXOXOXOX+XOXOXOXOXOXOX+X+X+X+X+X+XOX+X+XOXOXOX+X@XoXXX;X3XXXm # + | { } { ' ' ) ",
"' .._ { { } { ] [ 4.% 6 #X#XOXoXOXOXOX+X+XOXOXOXOXOXOXOXOXOXOXOXOX+XXXXX+X+X+XoX+XOXOXOXOXOXoXoXXX@X#X#X3X;X% / | { X.| X. .' ' ",
"X.X._ _ { } { { } 4.3 #X-X&X$X$X+X+X$X+X+XOX+X+X+X+X+XOXOXOXOXOXOX@X#X@X+X+X+XXX+X+XOXoXOX+X+X@X#X#X#X3X4X3X3 / X.' o.' ' ) ....",
"O.....X.{ o.{ } o.+ 6 >X:X:X;X;X;X>X:X,X:X,X<X:X&X&X&X@X@X+X+X+X+X#X#X#X#X#X#X#X@X@X@X@X@X#X#X#X#X#X&X:X4X4X7 / ..' _ ` ` ` ..o.",
"..' ..O...' ..{ [ @ .X>X>X2X4X9X0XrXtXyXyXyXtXtXrXwX9X4X4X<X>X&X&X$X#X#X#X#X#X#X#X#X#X#X#X#X#X$X%X&X:X>X4X7X7 / ` ' ..' ` ` ` ' ",
"_ ` ' ..' ..' _ ^ 2 -X>X2X0XyXsXgXhXhXhXhXhXhXhXhXgXgXdXaXpXtXwX9X4X:X;X$X#X#X#X%X$X$X$X$X%X$X$X&X>X>X>X3X7X,Xo _ ..' X...` ' ` ",
" ... .' _ ` ` ` / 5 <X5XyXdXhXhXzXvXcXvXvXcXcXcXzXhXzXhXhXhXgXgXfXsXyXwX5X<X;X$X%X%X&X&X&X&X;X;X>X>X>X>X4X8X,X@ ' ` ..{ ..` ' ..",
"O.....' ....` ..O  X5XyXgXhXhXcXvXmXmXMXMXmXMXmXmXvXmXcXcXzXhXhXhXhXhXhXsXyX0X5X;X;X:X>X:X>X>X3X<X<X3X2X5X8X,Xo ....X.' _ ' X.O.",
"...._ ` ..X.' ..  #XrXdXhXjXcXvXmXMXMXMXMXMXMXMXMXMXMXMXmXvXvXxXhXhXhXhXhXhXgXpX0X5X<X<X<X<X<X2X4X2X2X5X7XwX<Xo ` ..{ ....' X.X.",
" .X.' ` ` X...' o 1XyXgXhXxXvXmXMXMXMXMXMXMXMXMXMXMXMXMXMXMXmXvXjXhXhXhXhXhXhXhXgXyXwX7X5X5X5X4X5X5X4X7XqXqX XO ` { X.X.X...X.X.",
"..X.' ` ` X.` ' o -XpXhXzXxXvXMXMXMXMXMXMXMXMXMXMXMXMXMXMXMXmXvXlXjXhXhXhXhXhXhXhXhXsXrXwX9X0X9X6X5X5X9XqXuX7 / ` X.O.X.' ' ....",
"' X... .' { ' ` ^ 7 pXgXjXxXmXMXMXMXMXMXMXMXMXMXMXMXMXMXMXMXMXvXbXjXzXhXhXhXhXhXhXhXhXfXpXwXwXwXwX9X0X0XwXqX2 ' ' X.O.' ..X.' ` ",
"` ....' ` ..X...` 3 0XfXhXkXbXmXMXMXMXMXMXMXMXMXMXMXMXMXMXMXMXmXxXkXkXkXkXkXzXkXjXzXhXhXfXiXrXwX0X0X0XwXuX.XO ' X...X.' ' X...` ",
"....' ' ` ' ..`  .X =XsXgXzXlXmXMXMXMXMXMXMXMXMXMXMXMXMXMXMXMXvXxXxXkXkXkXkXkXkXkXjXjXjXgXiXyXrXeX0X0XeX4X2 X. ._ ' X.' ' ' ....",
"` ' ....' ..'  .` ' 3 9XpXfXhXjXnXMXMXMXMXMXMXMXMXMXMXMXMXmXmXvXxXkXkXkXkXkXkXkXkXkXkXzXgXaXyXyXwX0XeX5X2 ) .... .........` X.' ",
"' .... .' o.' `  ...` 2 9XaXaXgXjXjXzXnXbXbXmXmXbXMXmXMXmXmXvXvXkXkXkXkXkXkXkXkXkXjXzXcXfXyXyXuXeX0X.X2 ` ' ......X.O.X._ ....' ",
"X....._ ..X.` ` ..' ` ` 3 .XwXpXsXfXhXhXhXlXjXlXlXzXjXxXbXxXbXkXkXkXkXjXjXjXjXjXgXgXfXiXyXtXtXwX1X6 O _ ` ......` { X.{ ' ....X.",
"X.' ' ` ....` ' ' _ ...._ O 3 8 2XiXiXdXdXdXdXhXgXgXgXhXgXgXgXgXgXgXdXdXsXaXaXpXpXtXrXeX0X2X.X5 @ ) ..' ` ~ ..` ` ' ' ' ....' ..",
"X.' ' _ .._ ' X.X.X...' ....` ! o 3 8 y.2X6X6X9X9XiXaXpXaXaXaXaXpXpXyXyXtX9X2X1X1X1X X6 5 @ O _  . .{ ' _ ~ ....` ' ' ..' { ..' ",
"..' ` ..~ ` ..X...X.' ) ` ' ' ' ' ' ^ ^   . . . . 8 8 8 8 8 8 8 8 8 7 7 8 3     . . o ^ ) ..X...' ..' ' ..` ..X.......X.O.X.' ..",
"X... ... . ._ ` ' X.' ' ' X... .....' ` ` ` X.' ..' _ ' { ' ` ' ' X.....` ..` ' ` ......_ ) ' ..' { ' O.X.......X.' ' X.X.X.' ' "
};
