/* XPM */
static char *result[] = {
/* columns rows colors chars-per-pixel */
"64 64 215 2 ",
"   c #723E00",
".  c #3B5500",
"X  c #286B01",
"o  c #386C04",
"O  c #2C7B03",
"+  c #3A7D01",
"@  c #4D5100",
"#  c #705101",
"$  c #477A03",
"%  c #587B01",
"&  c #6E6D13",
"*  c #983A00",
"=  c #AF3D00",
"-  c #9A4300",
";  c #975702",
":  c #A34F00",
">  c #BD4300",
",  c #B14A00",
"<  c #BD4C00",
"1  c #A85801",
"2  c #9B740D",
"3  c #AC6B03",
"4  c #B87800",
"5  c #986425",
"6  c #C34D00",
"7  c #CC5400",
"8  c #C55900",
"9  c #CE5B00",
"0  c #D15C02",
"q  c #C75F10",
"w  c #C86501",
"e  c #D66302",
"r  c #DD6600",
"t  c #D76903",
"y  c #CC7901",
"u  c #DD7804",
"i  c #D26E17",
"p  c #E56B00",
"a  c #ED7601",
"s  c #E57800",
"d  c #EE7804",
"f  c #EE7809",
"g  c #F67E07",
"h  c #F27B09",
"j  c #DA6B26",
"k  c #DB7427",
"l  c #C77039",
"z  c #AA7A5E",
"x  c #1D8001",
"c  c #1F9701",
"v  c #1E9800",
"b  c #2C8601",
"n  c #248A01",
"m  c #298D02",
"M  c #348403",
"N  c #3A8401",
"B  c #249701",
"V  c #299401",
"C  c #259B01",
"Z  c #2B9D01",
"A  c #2D9D08",
"S  c #339203",
"D  c #319E02",
"F  c #339D0C",
"G  c #26A101",
"H  c #2CA201",
"J  c #2DA801",
"K  c #32A302",
"L  c #38A604",
"P  c #33A802",
"I  c #33A20B",
"U  c #3BA809",
"Y  c #3AA314",
"T  c #3FA31A",
"R  c #439F1F",
"E  c #41A116",
"W  c #42A31C",
"Q  c #439F20",
"!  c #45A323",
"~  c #4BA625",
"^  c #51A72D",
"/  c #4DA432",
"(  c #55A836",
")  c #59A53D",
"_  c #6A9756",
"`  c #5CA843",
"'  c #69A94E",
"]  c #70AE54",
"[  c #72AE5C",
"{  c #7BB365",
"}  c #7DB16D",
"|  c #8C8401",
" . c #9A8805",
".. c #B08A00",
"X. c #B79A00",
"o. c #869525",
"O. c #C38800",
"+. c #D58C00",
"@. c #CE9700",
"#. c #DB9304",
"$. c #E98904",
"%. c #F98707",
"&. c #FB8309",
"*. c #FF8A09",
"=. c #E89500",
"-. c #FE9404",
";. c #F49806",
":. c #FF9B02",
">. c #FE9309",
",. c #FF9B09",
"<. c #FC8A10",
"1. c #F99916",
"2. c #D6A601",
"3. c #DCA502",
"4. c #DEAB00",
"5. c #EEA104",
"6. c #E4AD00",
"7. c #FFA401",
"8. c #FFAA00",
"9. c #FAA708",
"0. c #FFAB09",
"q. c #E5B403",
"w. c #EDB503",
"e. c #EDBB02",
"r. c #EDBA09",
"t. c #FFB300",
"y. c #F0BC00",
"u. c #FFBB00",
"i. c #FFB509",
"p. c #F1B614",
"a. c #DD8425",
"s. c #D88937",
"d. c #C89133",
"f. c #ED9334",
"g. c #DDBD3C",
"h. c #FFC300",
"j. c #FFC900",
"k. c #F5C109",
"l. c #F9C409",
"z. c #FFCD09",
"x. c #FAD803",
"c. c #FFD309",
"v. c #FFDB09",
"b. c #F6D016",
"n. c #FFE205",
"m. c #FFF600",
"M. c #EBC32D",
"N. c #BE845D",
"B. c #A68A76",
"V. c #83B66E",
"C. c #85AC74",
"Z. c #88B577",
"A. c #91B77F",
"S. c #E69D4E",
"D. c #D3B053",
"F. c #E9A747",
"G. c #E4B647",
"H. c #E5A255",
"J. c #C68C64",
"K. c #CA9D7E",
"L. c #CFAE7D",
"P. c #E3D34D",
"I. c #DAC366",
"U. c #DDC774",
"Y. c #92B583",
"T. c #98B889",
"R. c #BFA194",
"E. c #AABDA1",
"W. c #C39E85",
"Q. c #D6B18C",
"!. c #C9AA97",
"~. c #CBBCAE",
"^. c #9DC28E",
"/. c #A7C598",
"(. c #B5C5AB",
"). c #B5CCA9",
"_. c #B6CAAD",
"`. c #B6D7A9",
"'. c #BAC9B2",
"]. c #D5C487",
"[. c #D8C29D",
"{. c #E4C098",
"}. c #C6CABB",
"|. c #D4C7B9",
" X c #C5D4BA",
".X c #DDD4B1",
"XX c #EBD5B9",
"oX c #CBC4C2",
"OX c #C9CCC2",
"+X c #D7CCC6",
"@X c #CAD3C4",
"#X c #DDD4C5",
"$X c #D4DBCC",
"%X c #D5D5D1",
"&X c #DAD6D4",
"*X c #D6DED2",
"=X c #DADED4",
"-X c #DDDAD9",
";X c #E2DAC5",
":X c #D2E1CB",
">X c #DCE1D4",
",X c #DCE0DB",
"<X c #E3E1DE",
"1X c #EAE6DA",
"2X c #E6E5E3",
"3X c #E9E4E4",
"4X c #E9E8E5",
"5X c #EDECEB",
"6X c #F0ECE0",
"7X c #F1EEEE",
"8X c #F1F1EF",
"9X c #F5F4F4",
"0X c #F9F6F6",
"qX c #F6F6F8",
"wX c #FEFEFE",
/* pixels */
"K K Z Z C H C G B Z H C H K K P H H Z Z H Z K H C Z K Z B Z c Z Z Z L L Z B H B Z Z Z Z Z H G H H Z Z K K Z H H K D H Z V Z Z H ",
"Z H Z D Z Z H C H H Z Z Z H Z H H H Z Z K H Z H v Z K C Z Z C B Z Z K K Z C Z H Z B V C H H H C Z Z H K K Z Z Z D K K H Z Z Z G ",
"B Z B Z H K H C H Z H H Z Z Z Z Z D K C H K H Z C B K C H K Z H Z C K K K B H D K Z H H H K H Z Z H Z H Z H C C Z H K K H Z Z Z ",
"B K Z C H K K H G C K P Z Z Z D Z D K K Z Z Z Z B Z H K P P C H Z Z K K H Z K H H H D Z C Z K Z Z H H B Z H C H H Z Z Z H K K C ",
"H P Z H H C Z Z K H K K B Z Z Z K Z K K V B Z H H H H H K K C B Z Z D K Z Z K K H H H Z K Z Z K Z Z Z Z D K H Z H H H H H K D Z ",
"H H K H H B B Z D Z Z Z H Z D K Z Z Z Z Z Z Z C H H H K Z K Z H K Z K H K H H Z K H H Z L L K H C H Z Z K K H D Z H K H B H K K ",
"J H D D Z H H H K Z H H Z Z Z D H K H Z Z H K H H H H Z D V Z Z K K P K Z K K D D K Z D L K K K Z H D D H H Z K G Z H H Z Z H Z ",
"K Z Z K Z Z H H Z Z H Z Z D Z Z J K H C G C Z P H H H Z D D D Z H H K L K K K Z Z Z K H K K K Z V D K Z C Z Z Z c Z B Z C B Z Z ",
"H Z Z Z Z Z Z Z Z Z B B C H J H H K H H v C K P K K Z D H Z Z H D Z D H L H H Z K Z D K H H K Z Z Z Z Z B Z K B c Z Z D B Z H H ",
"C B H H H Z B H Z Z Z Z Z Z Z B V Z H H H Z H H D K D K K C C B Z B D K K Z H Z Z K D D Z Z D D Z Z H K H Z D Z C Z Z D H H H H ",
"v Z H H K Z C H C K K K H Z B Z Z Z Z K Z D D C Z Z Z D H Z C C Z H Z K H Z H H D K D Z Z Z Z K C H H K K Z Z P K H Z H H K Z Z ",
"C H Z Z K K C H Z K H K H H K K K Z Z D Z H K H H Z Z Z Z K Z Z H H Z Z Z H Z B K Z Z Z Z G C Z H H Z K H C Z H K Z K H H H K Z ",
"Z C Z Z H K P H D Z Z K Z B K K P H H H H Z Z Z Z C H H K K K H H H Z Z G K G B K Z K H C C Z H A D D D C G H H Z G P K H Z Z K ",
"G G Z H H K H H K H D Z C Z B Z D G H G Z H B Z Z B K K K H H H H H Z Z C Z Z C H H G K H C B D Z Z Z H H H Z H H H H H H H K Z ",
"H C Z H Z Z K K D H Z K K H H H C C Z C Z C H H C Z K L K Z Z Z Z Z Z D Z B Z Z Z H C K H Z K D H C H H Z Z Z H C H C H K H H G ",
"C Z Z Z Z Z K Z Z Z Z H P P P Z C Z Z H G C C Z C K Z D H H C B Z Z D Z Z Z H K H B H H C H K H H C C Z H Z Z Z G H H J H H K H ",
"C Z Z Z Z H K D K P K H H P K Z Z Z Z H Z C H Z Z B Z Z H H C C K K P H H K K K Z Z Z Z B D K C D Z B Z Z Z H C Z H H H C Z D H ",
"B Z B Z Z H H Z K K K K K K H K Z K K Z D B H H H B C H Z C v Z P K K Z H K K Z B Z K Z H K Z Z K K Z C Z Z Z C C H B B B K D D ",
"G G C H H Z Z Z Z Z Z Z K K K H V K H Z K G Z Z H A C G Z B C Z K K Z Z Z Z Z Z H H K H Z H C H K Z Z B Z Z Z K C K H H H K K Z ",
"C v B G C Z H C Z Z Z C K K K K H H H H P H Z H Z P C v Z B C G Z D K Z Z Z B G J H Z H B J H Z K G H Z Z H Z D H K H C H Z Z D ",
"B C Z K C Z Z Z H H Z C Z Z Z D K Z H H K K K D v P C G H Z Z Z K Z Z Z K Z C H H B C Z Z H K D Z Z Z C C K Z D D K H Z D D B D ",
"B B K K H H Z Z Z Z D Z Z B D Z Z Z H Z D K K Z x o # ; 1 : - * - @ . X m Z H H H Z C C B Z D D B Z H C Z Z Z H Z D D K Z K H H ",
"H H H Z H H H K H Z H P C C Z H Z B Z B D S m % 3 u %.*.g h p p 0 6 , *   @ m Z Z Z Z C C C Z Z H C H G H Z H Z H K P K H K H H ",
"H H H H D Z Z L P K H P G C C D K H D B Z E 2 $.*.>.>.>.,.*.$.s r 9 7 6 > = # o H H H Z C C H Z Z C Z Z C K K Z H P P H H K K D ",
"Z Z Z Z K Z D D Z K Z K Z Z C K Z K D Z $ y >.-.:.0.z.c.z.z.r.w.=.t 0 7 < = 6 1 $ A H H H K G Z Z H H C B H H K K Z K Z Z K Z H ",
"H K H H H Z Z Z B B Z D Z H H K K D Z b 3 >.-.:.9.c.v.v.z.z.z.k.e.#.e 7 7 6 4 O...$ K H H H Z H H H Z Z H C G H K Z H B B D Z Z ",
"K K H H Z Z B Z C C Z Z H K D K P H m | *.>.:.:.0.v.v.v.c.z.z.l.e.=.r 0 7 7 y ..@...$ I H H C K K H Z B Z Z C B Z Z D Z Z Z V Z ",
"Z Z Z Z Z Z C Z C Z Z V B Z H L K Z $ q.9.-.8.7.9.z.n.v.z.z.z.l.r.$.r e 9 7 9 O.@.2. .b Z Z B Z K H Z Z B Z Z Z Z Z D Z K H D Z ",
"Z Z Z B Z Z C Z C B Z Z B Z H K A N X.z.9.:.8.7.,.0.z.v.z.z.z.l.;.a p r 9 7 7 8 O.@.3. .M K P K D Z K Z Z Z C Z H Z Z Z Z D Z Z ",
"K Z K Z C K H H H H Z K K Z H D m | e.l.:.7.8.7.-.,.,.0.i.i.i.,.f a p r e 9 7 7 9 w +.#.2 M Z D Z H P K Z H H H C Z H D K Z Z Z ",
"K D K H Z K H H J H K K K L Z H % 4.e.0.-.8.8.:.:.:.>.*.*.*.*.&.f d p r r e 7 7 7 7 9 e j 5 O Z Z Z Z D H Z H Z C C D Z Z Z Z H ",
"D Z D D C H H K H C Z K Z D H N X.e.9.>.:.8.8.7.:.,.>.*.*.*.*.&.f d a r r t 9 7 7 7 7 7 e k 5 N H Z Z H H Z H Z Z C Z Z Z Z H H ",
"Z Z Z D Z H H H Z B Z Z Z C + ..5.;.>.:.8.8.8.8.,.,.>.*.*.*.<.g f d a s #.#.+.y w 7 7 7 7 0 j 5 o b A A Z B H Z K K H H H H D Z ",
"Z H G C Z Z Z Z H K H K Z + 3 d %.-.7.u.u.8.8.8.:.,.,.>.*.*.*.g f f ;.6.4.4.4.6.#.w 7 7 6 7 q j l & n Z C G H Z D H K Z H D D Z ",
"C Z Z C H Z D K K K K S & w &.*.7.t.u.h.u.t.8.8.7.:.,.:.-.>.*.*.f $.r.y.6.4.4.4.4.+.9 8 6 > 6 7 k s.& A K Z H Z D Z K K H D Z Z ",
"Z Z D Z H Z A D D L m o.G.f.1.7.t.u.h.h.j.j.j.h.t.7.7.:.1.1.<.*.%.$.r.r.w.6.4.4.4.3.t 9 7 < < 7 0 k d.$ D D Z Z D Z D D Z H H H ",
"H C Z Z I ( ~ H D R C.XX6X#XQ.f.;.7.7.p.b.m.m.m.n.u.7.F.[.XX{.S.<.:.r.w.r.r.q.q.4.2.u 9 q N.W.K.J.l a. .b A Z Z K Z I D H H H H ",
"K H F ) T.=X'.` ~ /.4XwXwXwX3XQ.k a.H..X.XP.v.x.n.x.G.;X9XwXqX#XH.1.M.P.].].G.q.4.2.i i N.oX5X9X5X+XK.z O I H H W ] Y.A.` F H H ",
"C K Z.=X9XwX<XY.)  XqXwXwX9X-X!.!.|.3XwX9X.XI.g.I.U.[.7XwXwXqX<XQ.Q.#X1X9X4X}.D.D.L.!.!.R.&X0XwXwX9X|.z O C B Z ' }.5X5XOXC.C A ",
"v Z Y.=XwXwX3XT.( Z.,XwXwX0X0X1X7XwXwXwXwXwX5X<X4X4X3XqXwXwX<X~.|.&XqXwXwXwX9X$XoX3X0X7X<X-X9XwXwXqXoXB._ } ` ' (.5XwX5X%XT.H Z ",
"C C R C.@X8XqX2X(.T.OX7XwXwXwXwXwXwXwXwXwXwXwXwXwXwXwXwXwXwX7X5X5X8XwXwXwXwXwXwX5XqXwXwXwXwXwXwXwX7X-X+X*X%X@X<X5X4X X/.{ ! K H ",
"K C Z I ( { V.^.(. X$X*X4X9XwXwX0X7X5X7X0XwXwXwXwXwXwXwXwXwXwXwX0XwXwXwXwXwXwXwX9XqXwXwXwXwXwXwXwX7X5X5X5X,X@X'.^.] Y I Z B Z C ",
"H G K H H C B H T ~ ~ ^ [ C././.E.C._ T._. X$X*X*X*X@X X'.:X:X X'.@X>X>X=X=XOX'./.).`. X,X4X:X`.)./.Y.} [ ` ~ Y I Z H H D Z Z B ",
"Z C Z H Z Z C Z H H K H Z A K F Z A C F R ^ ) ) ) ( ! R Q ! ~ ! W ( ( ^ ( ( / ^ T Y I T [ { / U E I A A Z B H C H C Z H Z K V B ",
"Z Z Z Z Z K C Z K H Z H H H H H B Z C H K K P Z Z Z B Z C Z Z Z K K Z Z K Z B Z Z Z Z Z Z K C H K H C H H H C C Z C H H K H Z Z ",
"K K V B A P Z G K K B B Z Z H B C Z B Z D K H Z Z Z B Z Z C K K K H H C Z Z D D D C Z H Z Z Z C H P H H J H G C H Z Z Z Z B H Z ",
"J K H K H K Z H K D B G Z C H Z H C K H Z K Z Z K H H Z Z Z Z K K Z K Z Z Z D K D Z H H Z Z H C Z Z K Z H H G G G K Z B C C H K ",
"H Z K K H D H H D K Z H H H Z H H C K Z Z D Z Z K H K C C H Z Z Z Z Z Z Z H K K K A K H Z G Z Z Z B D Z C H C H C Z H Z Z C Z Z ",
"Z Z Z Z Z Z Z Z V H C H H K H K H Z Z Z Z Z C K H Z D Z H K K Z Z Z Z C Z Z K K K D K Z C Z Z H K H H Z H H Z D Z Z D K H G Z B ",
"C H G Z Z B B Z D Z C G G K K Z Z H H Z K Z C K H H H Z K K K Z Z Z Z Z H K H C Z D L H C Z Z Z K H C H H Z Z L Z V Z D H B D H ",
"J H Z Z H H G H K Z Z B Z H K Z Z H Z G H H Z Z Z H C H K Z C H H H H H Z Z Z C Z K K P H G H H C V C K Z Z Z D H H K Z V Z L H ",
"H Z Z G H K Z Z D Z H Z Z B K Z H Z B C Z K H C Z C B Z Z Z C H H H Z Z Z Z Z D H H K K Z Z Z Z C K Z Z Z D Z Z Z Z K Z H H K K ",
"H K B C C K H Z G Z C H Z Z Z H K H Z Z H H Z Z Z C Z K Z Z Z C K K B Z D K H K Z Z Z K K H H Z v K K H J G H G V D K K K H K K ",
"D K Z C Z K C Z B H C B G Z Z Z K K Z Z H Z C K K C Z K Z H H K K K Z D Z K Z Z Z Z H K H C Z Z C C J H G H Z Z B K L H Z Z H Z ",
"Z K H H Z D Z Z H K K H H G C Z Z Z K Z Z D C G Z Z K H Z Z C H K H K D H J Z Z H J H Z B B H K K Z H H H K K H K K P H H K Z Z ",
"C H H C C H K Z Z H H Z Z C B Z Z H K Z Z Z V Z H Z Z H Z Z C Z Z H K Z G C Z Z G G C Z Z C H H K Z Z H K K P H H H K Z Z K Z C ",
"G K Z Z B H H C C C C Z K Z v Z H K D Z Z H K Z B K H v G H H K Z Z Z Z B B Z Z C Z C C C H B C H H Z Z Z H P G Z Z K Z C Z Z H ",
"B Z H H Z Z Z G Z H Z C Z Z v G D Z Z Z Z K K C Z K H C K H H H K H H K Z H H K K H C Z H Z D B H C B Z B C H H H Z K H H Z K Z ",
"Z H Z C D K H C H H H G B C C H K H H H K L D C H Z H C H H Z H H K Z H Z H B Z K H G H H Z Z Z Z C H Z H H H H Z K P K B H H D ",
"K H H Z K K B B G Z C H H C Z D Z C C B K K K Z K H H H Z K Z Z D K K Z Z B C G P H C Z Z H Z H H J H Z Z G H C B K K D Z H Z K ",
"K Z Z Z H H C Z Z Z Z H H H Z Z Z B Z C K H Z H H H Z Z Z Z Z Z Z Z K Z H G Z H K Z Z C Z Z H H H H K K B c Z H B Z Z Z H K Z Z ",
"K Z Z B Z Z Z L D K H Z Z Z C C C H H v Z Z B Z Z Z H K K K B B Z Z Z Z H K D B D K Z H Z K K H G C Z Z Z v H Z Z Z H Z Z D Z Z ",
"H Z Z H C B H K H K Z B B Z Z Z Z H H C H Z Z B Z Z Z K K Z B Z H Z C C H Z Z B Z D V Z Z H K Z Z K Z Z H C H H H H H K K K H H ",
"K Z G H G C B Z D D Z G Z K H H H K H C Z Z K Z Z D Z Z K Z C H K K H H Z H G H B K K Z Z B Z Z D Z Z L K K H H K Z D K K K Z Z "
};
