/* XPM */
static char *result[] = {
/* columns rows colors chars-per-pixel */
"64 64 213 2 ",
"   c #2F6E08",
".  c #346A04",
"X  c #2D7A03",
"o  c #3A7B04",
"O  c #387510",
"+  c #544D00",
"@  c #74550B",
"#  c #4A6301",
"$  c #45750A",
"%  c #587801",
"&  c #437E17",
"*  c #686A01",
"=  c #667A01",
"-  c #7D6511",
";  c #797A4C",
":  c #853B00",
">  c #903F00",
",  c #A33E00",
"<  c #994300",
"1  c #BC4700",
"2  c #AE5602",
"3  c #807B02",
"4  c #BA6C09",
"5  c #B86928",
"6  c #C34E00",
"7  c #C55100",
"8  c #CC5500",
"9  c #CE5C00",
"0  c #D15C00",
"q  c #C96B00",
"w  c #D56200",
"e  c #DC6500",
"r  c #D46C00",
"t  c #DE6C00",
"y  c #C47604",
"u  c #DA7A04",
"i  c #C7671C",
"p  c #D96A1B",
"a  c #E06700",
"s  c #E26900",
"d  c #E27300",
"f  c #EC7300",
"g  c #EE7904",
"h  c #EE7708",
"j  c #F67B07",
"k  c #F27A09",
"l  c #C56E31",
"z  c #BF7641",
"x  c #1F8C01",
"c  c #1F9701",
"v  c #1E9800",
"b  c #278601",
"n  c #348605",
"m  c #249601",
"M  c #2A9501",
"N  c #259B01",
"B  c #2B9D01",
"V  c #319E02",
"C  c #329D0B",
"Z  c #399D15",
"A  c #26A101",
"S  c #2CA201",
"D  c #2DA801",
"F  c #32A302",
"G  c #38A703",
"H  c #33A802",
"J  c #3AA903",
"K  c #34A20B",
"L  c #3BA40D",
"P  c #3AA11C",
"I  c #488006",
"U  c #798301",
"Y  c #42A41B",
"T  c #488429",
"R  c #459727",
"E  c #559536",
"W  c #62983D",
"Q  c #43A222",
"!  c #48A529",
"~  c #52A72E",
"^  c #4CA632",
"/  c #55A937",
"(  c #5DAB3C",
")  c #5DB03F",
"_  c #5A9842",
"`  c #66984A",
"'  c #5DA841",
"]  c #65AC4B",
"[  c #6BA555",
"{  c #6DAC55",
"}  c #73B15A",
"|  c #7C9569",
" . c #7BB666",
".. c #BD8D00",
"X. c #B39302",
"o. c #B5900F",
"O. c #C78901",
"+. c #D88400",
"@. c #CB9500",
"#. c #EC8403",
"$. c #FA8A06",
"%. c #FD850A",
"&. c #FF8A09",
"*. c #EA9504",
"=. c #FF9407",
"-. c #FF9B02",
";. c #FE9409",
":. c #F49A09",
">. c #FF9B09",
",. c #EC9117",
"<. c #D6A401",
"1. c #DCA300",
"2. c #DEAB00",
"3. c #DAAD10",
"4. c #E8A901",
"5. c #FFA301",
"6. c #F1A803",
"7. c #FFAB00",
"8. c #FFA209",
"9. c #ECB601",
"0. c #EDBB02",
"q. c #F7B507",
"w. c #FFB200",
"e. c #FEBB01",
"r. c #F1BE08",
"t. c #FDB90A",
"y. c #EBB918",
"u. c #ED9E35",
"i. c #DBB328",
"p. c #D8B433",
"a. c #EAAB36",
"s. c #F5C504",
"d. c #FEC302",
"f. c #FCC40A",
"g. c #FECC09",
"h. c #FFD209",
"j. c #FFDD09",
"k. c #EFDC29",
"l. c #908E53",
"z. c #BC8357",
"x. c #9A8263",
"c. c #B58D71",
"v. c #81AE6F",
"b. c #81B26E",
"n. c #85B96F",
"m. c #85AB74",
"M. c #8FB67E",
"N. c #CF9043",
"B. c #DC964E",
"V. c #E08953",
"C. c #C7A558",
"Z. c #D0B151",
"A. c #EBA942",
"S. c #E19C70",
"D. c #D2AE72",
"F. c #D0BC7D",
"G. c #E3D24F",
"H. c #D3C17C",
"J. c #AD9F88",
"K. c #B59483",
"L. c #BC9D89",
"P. c #94B789",
"I. c #96B988",
"U. c #B0A88B",
"Y. c #B3A497",
"T. c #A4BC95",
"R. c #B4ACA3",
"E. c #AEBFA8",
"W. c #BCB8AC",
"Q. c #B9BFB1",
"!. c #C89E88",
"~. c #C9A983",
"^. c #D9BA8B",
"/. c #C3A793",
"(. c #C4AC98",
"). c #C9B8A8",
"_. c #D0B1A0",
"`. c #A8C49D",
"'. c #B6C9AF",
"]. c #BCC5B5",
"[. c #BFC9BD",
"{. c #D5CB8B",
"}. c #D6C1A6",
"|. c #CAC6B8",
" X c #D2C5BC",
".X c #CDD1B7",
"XX c #E4D7AA",
"oX c #E6CDBB",
"OX c #D5CDC6",
"+X c #D1CAC8",
"@X c #CBD0C9",
"#X c #DAD2CC",
"$X c #DAD5CC",
"%X c #D6D6D2",
"&X c #DDDBD5",
"*X c #DBDBDA",
"=X c #E3DAD3",
"-X c #E2DEDB",
";X c #DFE3DD",
":X c #E9E3DC",
">X c #F6E5DC",
",X c #DFE0E3",
"<X c #E4E4E2",
"1X c #E8E6E4",
"2X c #E9E9E5",
"3X c #ECEBEA",
"4X c #F1EEEE",
"5X c #FAEEE9",
"6X c #F4F0EF",
"7X c #EEEFF1",
"8X c #F5F4F4",
"9X c #F8F7F7",
"0X c #FDFDFD",
/* pixels */
"F F B B N S A S N B S A S H H D B S B B S B F S N S F N M M v N B B G G M N B N B M B S B S A S S B B F F V B D F B B B M B S S ",
"B S M V M B A N A B B M B S B B D S B B H S B S v B F N m B A N B B V F S N B B M N B N D S S N B B B H H B M B V F H S M B B A ",
"N M N B F F S N S S S V S M M B M F F N S H B B N M F B H F N S B N F H H M F B F B S S S H D M M S B S S B N N B S S S S N B B ",
"N H B N S V F D S N D F S B B F B V F F M S B M N B S S H H N B B B F F S B F S S S V B N M V B B S B N B B N A F S M F S H F N ",
"S H B S S B M B F S F F N B S B V B F F M N B B S S S S F G N B B B V F M B F H S B S B F B B V B A B M F H S B B S S S S F V B ",
"S S F S B N N N V B B B B M V F S B S B B M B N B S S S V B B S F B F B H S S M S H S B J J F F B S V B F S H B B B H S M S H F ",
"D S F S B S S S F B S S S M M V B F B S B S H B S S D B B B M B F H H F V S H B V F B V F F H B N F V B S S B H A N S S S M B B ",
"F M B V B B S S B B B B S F B S D H S N A N B H S S B B V V V B S S F G F F F B B B V B F H F B M V F B M S B M N M N B N m B B ",
"S M B B B M B B B M m m B D D S S F S A v N V H F F B V S N B B B M F S J D B B F B V F S F F B B M B B B B F N v B B V M B S D ",
"N N S S S B N B B B N M S M M N M B S S S B D S V F V F F A N N B M V S F B S B B V V V B B V F B B S F S B B B A B B B S S S B ",
"v B S S H B N S S F H H S B N N B V M V B V V N B B B V F B N N B S S H S B S N F V V B B B B F S S F S F N V F H B B V S H B M ",
"N S S M F H N S N F S F B S F H F S S B B S F S S B N V B S B B S S M B B B B N F B B S N S N B B S S F B N B S B B H S S S H B ",
"S N B B S D F B F B B F B N H F H D S B S B S A B N S S V F F B S D M S A F B N V S F B N N N B B B V V N S S B B S H F B M B F ",
"A N B S S H F S F B F B m M N B S N F A B B N M M B F F H S S S B B B S N B B N B S N H S A N V B S B S B S N D A A S S S D S S ",
"B A S S B B F H V B S F F D B S B N B N B N S S N B F G F B B B V B B B B N M B S S N H B B H V S N S S B S B S N S N B V D H N ",
"N N S M B B V B B B M B H H H B N B B S A N B B N F B B F S N m B B B V B B D F B N B S N S F B S N B B B S B N S S S D D B F S ",
"B M B B B D F V G F F D S F V B B B B S B N B B M B N B S B v N S H H D S H F F S B B M c V F N V B m B B B S N B S S S N B V B ",
"N A N N M S B B F F H S H F S F B F F B V N S S S M N D N N N N H F F B B S F B M B F B B F B B F F B m S B B N N S M m N V V F ",
"S v N S S B B B B B M B F F F B B S B B F N B B S B N B S N N B V F V M M B B B A D F S S D N B H S B N M S B D N S B B S F F B ",
"N v N S N N B S S S N B V V F H B H S S H D B S N H N v B M N N B V H S B B N S A S B B N S D V F A B B B B B F S H D N S B B V ",
"N m B F A M S S D S B N M B B V F S S S F G S V m S B N S B B V F H B V F S N A H N N B B F F V M N N N B F M V V F S B V V m V ",
"N N F F B S B B B M V B N M V B B M B N V V F S m B F N N B B F G B M M V S B S B B N N N N V B N M S N N B B F B V V F B H S S ",
"N S S B B D S F B M S D A A B S B N B N B V F S N m n # @ 2 2 < < < + + . b S B B B M B N m B B D N S S S B S B S F F F S F S S ",
"D S S B V B B J H H D H S N N V F S F v B F B B n 3 y g &.&.j f s w 8 7 , : + X B S S S B N A B B N B B N F F B S H H F S F F B ",
"B V M B H M F F B B B F B N B B S V V M B S m = y ;.;.;.>.8.8.:.#.d w 8 6 6 , > # m S S S S S B M B S A m H S F F B F B N V B S ",
"B F D S H B B M m N B F S S B H F V B B N m * #.;.>.8.f.h.h.g.g.s.4.+.0 8 6 6 7 4 % B H H B B S S D B B B N A S S B S N N V B B ",
"F F S B B M N B N A M M S F V F H S S S v o u =.-.-.t.j.j.j.g.g.f.0.4.t 0 8 6 y @...% M B S m F H D M N B N N N M B V B B B M M ",
"B B B B B N M B N B B B N M F F F S N B b X.;.=.5.-.t.j.j.h.g.g.g.r.4.t 0 8 7 q O.@.@.% N B N B V B B B N M B M B F V B F F F B ",
"B M B M N B N N N N M F N N S G B B S M U s.8.-.5.5.8.h.j.h.g.g.g.r.*.a e 9 8 8 y @.<.X.$ F F F V B F S S B N S S B S B B B B B ",
"F S F B M H S B S B B F S B S V B B F % 2.f.8.5.7.5.-.8.f.g.g.g.f.:.f s a w 8 8 7 r O.<.o.I S V B S H F B A S B A N S F F B B B ",
"F V F S A F B S D D V F F G B S S M X X.s.q.=.5.5.-.-.>.;.;.>.>.;.j g f e e 0 8 8 8 9 r +.5 $ M M S B V S B S B N N V B B M B S ",
"V B S V B D D F S N B V B V S F F M U 0.9.>.-.7.7.-.-.>.&.&.&.%.&.k g f a t e 8 8 8 8 8 0 p 5 $ D F M B B S S B B M B B B B F S ",
"B B B B B F S S B N B S S N F F M = 1.6.;.-.5.7.7.5.>.>.&.&.&.&.%.k g f d u #.u q 8 8 8 8 0 p 5 $ b M C N N S B F F S S S B V B ",
"B S A S B B B B B F S F S S S m * u $.$.-.w.w.7.7.5.-.>.>.&.&.&.%.h k g *.2.2.<.1.O.0 8 8 7 8 p l - X B N A S B V S H M S F V B ",
"B B B m S B V F F F F F B H I - h $.-.7.e.d.e.7.7.7.-.-.>.>.;.&.%.j k :.0.2.2.2.2.1.u 8 8 6 1 i V.S.l.n F B S B V B V F S V B B ",
"N B V N S B B S V G H S ~ ` L.).^.A.w.e.d.s.f.t.e.w.7.-.-.-.8.u.^.~.B.y.0.9.9.2.2.2.1.w 8 i !.oX>X5X>XT./ C B B V B F V B S S S ",
"S N B C K K K K V V V Q T.+X8X0X7X Xa.-.a.{.XXXX{.G.h.q.5.A._.=X8X8X#XF.y.s.p.p.3.1.1.u i /.3X0X0X0X0X9X@X) B S F V F B S S F S ",
"F S Q v.P.M.I.} L F F ( [.9X0X9X9X%X!.,.~.*X9X0X;X}.k.d.5.D.*X0X0X0X4X.XZ.H.OX;X{.i.1.e l W.&X0X9X3X9X0X3X .S S S B Y Q Q Z S S ",
"N S ( Q.;X2X6X$X] G B / Q.6X9X3X=X+XL.5 z.#X0X7X*X{.p.9.*.D.%X9X0X<X|.F.F.|.9X0X&XC.y i z z.!. X*X*X9X0X;X .D S V B { E.[.E.m B ",
"v B L { `.@X:X3X`.} ^ P m. X6X0X6X$X_./.c. X9X8X3X@XC.C.~.).2X0X0X-XR.N.C.}.2X0X#X(./.(./.!._.-X6X9X0X2X'.} L K L Y  .@X,X`.A S ",
"m N B B Z ^ ] n.`.`.M.v.m.U.).#X-X-X1X3X+X,X7X0X0X6X:X$X$X&X8X0X0X9X<X#X#X4X8X9X2X3X9X2X2X4X6X0X0X8X-XW.m. .} b.I.I.E.[.I.^ H S ",
"F N B S B S B S C V B Z Q R & ; x.c.K.L.Y.R.Y.|.].Q.Q.[.&X2X;X&X2X3X<X=X<X7X8X4X:X&X X|.@X%X%X+X).J.| [ { / ~ ' ( ~ / / Z M B N ",
"S N F B S B N B D S H B B S S M X       O T & R Q ! Q Q ] } ] [ m.v.` ; l.| | m.| W E E ' _ E E &   x m N N F B B B S D B V B m ",
"S A S S N M N B F B S F M B V V B B m N B C B C S S B B v S S B V B S S F N M S S D S N B S N H J S m B B B S N F N B S F S M m ",
"B S B B S F B N F S B M S S S B N B N B F H F B B B m M N M S M V F B B H B N B B B M B S F N D F S N F D S N N S N D D V N S B ",
"F F M M B H B S F F N N B B S N N M N S B J S N B B N M B N H F H S B N M B V V V B B B B B B N B H B S S S A N S M B B B N S B ",
"D F B F F F B D F V N S B N S N S N F B B F B B F S S N B B B H B S F B B B V F V B S S M S S N B B F B S S A A A S M m B N S F ",
"S B S F S B S B B V B S S S B B D N F V B B B B H S V N N H S S B B B B S S F F F B H S S S S N M B B B N S N S N V S B N N B B ",
"M N B B B B B B M S A D B G B H D B M B F B A D B B V B B H F M B B B N B V H F F V V B N B B F F S S B B S S V B B C F D v B M ",
"A S A B M N N M F B N N N F B B M D S B F B N H V S S B F F V B B B B B S S S B B F F B N B N B F S N S S B B G B M B V B N B D ",
"D D S B S S N S F S B N M B F S B S S A S B N M B S N S F B N S S S S S M S B c B F H H S A S S N B N F B B B V S S F B M B H H ",
"S B B N S F B B F M S N B N F B B N N N B H S N M N m B B N N S S S B B B B V B B S F G B B S S m V B B B V B B B B V S S B F V ",
"B F M N N H S B A M N S S N B S V B M B S S M B S N B F S S N B H V m B V F S F B B B F F B S B v F F S D A A S M V F F F S F F ",
"V F B N N F N S N S N N S B M B H F S B S S N H F N M F B S B H H V M V B V B B B B B H S N B M m N D S A S B B N F H F B B V B ",
"M F S A B V M B S H H B A A N B B B S S M F A A S M D S B B B D H F H F D D S B S S S B N N B F F B S S S F F B B F F B S F B N ",
"N D S B N S H B S M S B S N B B B H F M B B M B B S B S B B N M M B S B A N B N S A N S M N A S H B B S F H H S V S H B B F S N ",
"A S V B N S B A N N N B V S v S F F V M D D F M N F B N S B B S B B B B N N B B N M N N N B N N S S S S M B H A B B F B N B B S ",
"B B B S B B B N S B B N B M v A B B B M B F F N N F S N D S D H S D S V B B B S F B N S S S F M B N N M N N D S S S F S S B H B ",
"B S S A V F B N S S S A N N N S F S S S V G V N B F S N S S B S B F F S B B N B F D A S D N B N B N B B S S S S B F H F N S B V ",
"F S S M V F N N N S N S B N S B B N N N F F F B S S S B B F B B V F F B B N N S H D N B M S B F S D D S N N S S N V V V M S B F ",
"F B B N S S B B B M S S S S B B B B N N B S B S S B V B M F N N B S F S S N B S F B M A B M S S S S F V N N S N N M B B S V B B ",
"F B B M B N B F F F S B B B M N M S B v B B N B B B B H S F N M B M B M S D V m V F B S S F F S A N B B M c S B B S B B B F S B ",
"D B B S N N S F S F M N N B B S B S S A S B B N B F B F F B N B S S N N B S B N M F M B B S F S B S B B S N S S S S S F F F B S ",
"F B A A A N M B B V B B B F S A B D S N S M V B S B M B V B N S F F S S S S N B m F V B B N B B V V B G F S B S H B F F F F B B "
};
