/* XPM */
static char *result[] = {
/* columns rows colors chars-per-pixel */
"64 64 217 2 ",
"   c #3E5D01",
".  c #366904",
"X  c #337B02",
"o  c #3C7A05",
"O  c #337A0A",
"+  c #444E04",
"@  c #594B02",
"#  c #5F5002",
"$  c #604500",
"%  c #744400",
"&  c #635407",
"*  c #705700",
"=  c #665815",
"-  c #486907",
";  c #477A04",
":  c #567800",
">  c #547310",
",  c #6C6D0A",
"<  c #7A7133",
"1  c #8C3B00",
"2  c #994301",
"3  c #99550E",
"4  c #A64600",
"5  c #BC4400",
"6  c #B74A02",
"7  c #A75107",
"8  c #BA5603",
"9  c #AD5411",
"0  c #836F03",
"q  c #837302",
"w  c #AE7606",
"e  c #955D31",
"r  c #926B35",
"t  c #AB6528",
"y  c #B9642B",
"u  c #A56837",
"i  c #BA6D38",
"p  c #BE753D",
"a  c #C14600",
"s  c #C24D00",
"d  c #C55100",
"f  c #CD5500",
"g  c #CD5C01",
"h  c #C35B09",
"j  c #D25D00",
"k  c #C65D11",
"l  c #C76800",
"z  c #D36400",
"x  c #DC6500",
"c  c #D87902",
"v  c #C86418",
"b  c #D86B1F",
"n  c #E46B00",
"m  c #E47200",
"M  c #EE7603",
"N  c #EE7905",
"B  c #EE7808",
"V  c #F67D09",
"C  c #C76922",
"Z  c #D96B21",
"A  c #C37539",
"S  c #B6754D",
"D  c #AE7D5A",
"F  c #C97F49",
"G  c #C07F54",
"H  c #1F9701",
"J  c #1E9800",
"K  c #298701",
"L  c #2C8C01",
"P  c #358502",
"I  c #249601",
"U  c #2A9401",
"Y  c #259B01",
"T  c #2B9D01",
"R  c #2D980B",
"E  c #349507",
"W  c #319E02",
"Q  c #349D0C",
"!  c #398511",
"~  c #3C9A18",
"^  c #26A101",
"/  c #2CA201",
"(  c #2EA306",
")  c #32A302",
"_  c #38A703",
"`  c #39A705",
"'  c #33A802",
"]  c #32A30A",
"[  c #3BA412",
"{  c #418607",
"}  c #44A51A",
"|  c #45A425",
" . c #4BA62A",
".. c #52A636",
"X. c #53A934",
"o. c #5BAA3C",
"O. c #5DAA43",
"+. c #5EA64A",
"@. c #5FB245",
"#. c #63AB47",
"$. c #66AC49",
"%. c #7AB266",
"&. c #8F8C01",
"*. c #AC8B0B",
"=. c #BB8E00",
"-. c #C88B00",
";. c #D88D00",
":. c #C99A02",
">. c #DB9902",
",. c #E68408",
"<. c #FA8509",
"1. c #FF8A09",
"2. c #E99702",
"3. c #FE9505",
"4. c #F59A05",
"5. c #FF9B02",
"6. c #FF9509",
"7. c #FE9B09",
"8. c #E78319",
"9. c #F99B11",
"0. c #D8A400",
"q. c #DEAC00",
"w. c #D7A915",
"e. c #FFA400",
"r. c #FFAA00",
"t. c #FEA309",
"y. c #F6AC08",
"u. c #FDAB09",
"i. c #E6B400",
"p. c #EBB401",
"a. c #ECBB06",
"s. c #FFB900",
"d. c #FFBD09",
"f. c #E9B213",
"g. c #D1892D",
"h. c #E68C2C",
"j. c #D8B133",
"k. c #EDB02D",
"l. c #F8C201",
"z. c #F5C20B",
"x. c #FDC309",
"c. c #FFCD09",
"v. c #FFD409",
"b. c #FFDB09",
"n. c #FFE009",
"m. c #AD8E50",
"M. c #BA875C",
"N. c #9C976A",
"B. c #BD8D67",
"V. c #AF9277",
"C. c #89BA75",
"Z. c #A7A778",
"A. c #C4844F",
"S. c #C78848",
"D. c #CC9949",
"F. c #C38255",
"G. c #C5885B",
"H. c #D59553",
"J. c #E49B4F",
"K. c #D1AA55",
"L. c #E5A245",
"P. c #E7BB53",
"I. c #C28F69",
"U. c #D99D62",
"Y. c #C69874",
"T. c #CEB767",
"R. c #D7AB78",
"E. c #D0B274",
"W. c #D8B474",
"Q. c #E4BC79",
"!. c #DEC654",
"~. c #E3C34E",
"^. c #E5C16B",
"/. c #A49886",
"(. c #98B68A",
"). c #B1AC97",
"_. c #A6B79B",
"`. c #B3B4A6",
"'. c #C39C82",
"]. c #C09E88",
"[. c #CAA38A",
"{. c #CABB86",
"}. c #CAAC97",
"|. c #CBBB99",
" X c #D4B89C",
".X c #C6B2A3",
"XX c #CBB4A4",
"oX c #C8B9A9",
"OX c #D1B8A8",
"+X c #98C08A",
"@X c #A6C19C",
"#X c #AFC5A7",
"$X c #B2CBA9",
"%X c #B6D4AD",
"&X c #B7CCB1",
"*X c #D6C28F",
"=X c #CCC2A9",
"-X c #DBC9AA",
";X c #C8C7BA",
":X c #D5C9B6",
">X c #D4D3B0",
",X c #E5D2AF",
"<X c #E1D4B0",
"1X c #CBCAC4",
"2X c #D9CDC5",
"3X c #D9D3C7",
"4X c #D5D3CC",
"5X c #DBD5CE",
"6X c #DAD8D2",
"7X c #E2DCD4",
"8X c #D6E5CF",
"9X c #DFE4DD",
"0X c #E5E0D8",
"qX c #E7E8E4",
"wX c #ECECEC",
"eX c #F3F3F3",
"rX c #FAFAFB",
/* pixels */
") ) T T Y / Y ^ I T / Y / ) ) ' / / T T ) T W / Y / ) Y T T H Y T ) _ ) T I / Y T T T T T / ^ / / T T ) ) T / / ) W / T T T / / ",
"T / T W T T / Y / / T T T / T / / T T T ) / T / J T ) Y I / Y I T Y _ ) T Y T T T Y U Y / / / Y T T / ) ) / T T W W ) T U T / Y ",
"I T I T ) ) / Y / T / / T T I T T W ) Y / ) / T I I W T / ) Y / T I ) ) ) T ) T W T / / / ) / T T / T T / T Y Y T / / / / T T T ",
"I ) T Y / / ) / ^ Y ) ' / T T ) T W ) ) Y / T T Y / / ) ' _ Y T T T ) ) T T ) / / / ) I Y T ) T T ^ T T T / Y / ) / T W ) / ) Y ",
"/ ' / / / T T T ) / ) ) I T T T W T ) ) Y U T T / / / ) ) ) I T T T ) W T T ) ) / / / T ) T T ) T T T T W ) / T / / / / / W ) T ",
"/ / ) T T I T I W T W T / T ) W / T / T T I T T / / / T T ) / / ) T ) / ) / / T ) ) / / ` _ ) ) T / W T ) / / W T / ) / I / ) ) ",
"' / ) / T / / / ) T / / T T T W / / / T T / ' / T / / T T T U T ) ) ' ) T / ) T W ) T W _ ) ) / I W ) T / Y T ) Y T / / T T T / ",
"/ T T W T T / / T T T T T W T T ' ) / Y ^ Y T ' / / / / W W W T ) / ) _ ) ) ) W T T ) T ) / ) T T W W T T / T T Y Y I T Y I T T ",
"/ T T T T T T T T I I I / / / / T ) / ^ J T ) ' ) _ T W / Y T T T T / / _ / / T ) T ) ) / ) ) T T T W T Y T ) I H T T W T T / / ",
"Y I / / / T Y T T T I T / T / I U T / / Y / / / T ) ) ) ) Y Y Y T U W ) ) / / T T W W W T T W W T Y / ) / T W T Y T T T T / / / ",
"J T / / ) T Y / / ) ) ) / T I I T T T ) T T ) I T T T W ) T Y Y T / T ) T T / Y ) W W T T / T ) T / / / ) T T ) ) / T ) / ) T T ",
"Y / T T ) ) Y / T ) / ) / / ) ' ' T T W T ) ) / T T I W / / T T / / T T T ) T Y ) T T T I / Y T T / / ) T Y / / / T ) / / / ) T ",
"T Y T T / ) ' / W T T ) T I ) ) _ / / / T T T / T I / / ) ) ) T / / T T ^ ) Y Y ) T ) T Y Y I / T T W W Y ^ / T T ^ ) ' T T T ) ",
"^ ^ T / / ) / / ) / W T Y T I T T ^ / ^ / / I T T T ) ) ) / / / T / T T Y T / I / / ^ ' / ^ T T T ) T / T / / / / / / / / / / / ",
"/ Y T / T T ) ) W / T ) ) / / / T Y Y Y Y Y / T I T ) _ ) / T / / T T W T I T T T / Y ) / T ) ) T ^ / / T / T / ^ ^ ^ T ) / ) ^ ",
"Y T T T T T ) T T T T / ' ' ' T Y T T / / Y Y / T ) T T ) / Y I T T W T T T / ) T I / / Y T _ Y / Y I T T T / T T / ^ ' / T ) / ",
"I T T T T / ) W _ ) ) / / _ ) W T T T ) T I / / T T I / / T J I / ) ' / / ) ) ) T T T T I ) / Y ) T I T T T / Y Y / / / Y T W T ",
"I / Y I T / / T ) ) ) ) / ' / / T ) / T W I / / T I Y / / Y H T ' ) ) T / / ) T I T ) T T ) T T ) ) T Y T T T Y / / T I I W ) W ",
"^ Y Y / / / T T T T T / ) ) ) / U ) / T ) ^ T T / / I I T I Y / ) ) W T T T T T / / ) / / / Y / _ Y T I T T T ) Y ) / ^ / ) ) T ",
"Y J Y ^ Y I / T / T I T ) ) ) ) / / / / _ / T / T ' Y Y T I Y Y W ) ) T T T I / ^ / / T Y / ) T ) / T T T / T W T ) / Y T T T W ",
"I I T ) T T T T / T / I U T T W ) T / / ) ) ) T J ) Y ^ / T T T ) ) / W ) / Y ^ ' Y Y T T ) / W I T T Y Y ) T W W ) / T W W I W ",
"Y T ) / / / T T T T T T Y T W T T T T Y T ) ) ) I I ) Y Y T T ) ) T U T W T / / T T Y Y I T W W Y T / Y T T T / T W W ) / ) / / ",
"Y / / T / / / ) / T / ' / Y / / T I T Y / ) / / K X , 3 8 7 4 2 % @ . X W / / T T T T Y Y I T T / Y / T / T / T / ) ' ) / ) / / ",
"/ / / ) T T T _ ' ) / ' ^ Y I T ) ) ) J Y ) U ; w c <.<.<.M n x f s 4 1 # X T T / / / T T Y ^ / T Y T ^ Y ) ) T / ' _ / / ) ) W ",
"T T T T ) T W W T T ) ) T T Y ) / W W T T U 0 ,.7.7.7.t.u.7.2.,.z g d a 5 2 - L T ) / ) / / Y T T T / Y Y / / ) / / ) T T / / T ",
") ) / / ) T T T I I T T T / / ) ) T T T U 0 <.3.5.u.v.b.c.c.z.p.2.x f s 5 8 w : T / ) / / / T / / / / I / Y ^ / T T / I I W T W ",
") ) / / T T Y T I Y T T / ) W / ' / T T : ,.3.5.5.c.n.b.c.c.c.a.i.c j f d w -.=.: Y ) T / / Y ) ' / T T T I I T T W W T T T T U ",
"T T T T T I T Y / T U T I T ) _ ) T T P :.7.5.e.7.c.b.b.c.c.c.z.p.x x j f l -.:.:.; T ( T T Y T ) T T T I T T I T T W T W ) / T ",
"T T T T I T Y T Y Y T W I T / ) W T E &.x.5.5.r.5.u.v.b.c.c.c.z.4.n x j f f l -.0.*.{ ( T ) ) ) W T ) T / I T / / Y / T T T W T ",
"W T ) T T ) / / / ^ T / / T / W T Y { i.x.5.e.r.e.3.u.d.d.x.d.t.N m x x f f f z -.0.*.o W ) / W T ) ' ) T / / / ^ T T W ) T T T ",
") ) ) / Y ) / / / / ) ) ) _ T / / X :.l.u.3.r.e.5.3.7.1.1.6.1.V B M x x j f f f f z m t { T I T T T T T / T / T Y T W T T T T / ",
"W T T W T / / ) / Y W ) T W / ) L &.a.y.6.e.r.r.5.7.6.1.1.1.1.V B M n n x j f d f f g Z t o T W / W T / T / / T T I T T T T / / ",
"T T T T T ) / T T I T / T ^ ) W q 2.4.6.t.r.r.r.e.7.7.1.1.1.1.V M M ,.;.2.;.c l f f f j Z t - E R ] Y ( Y Y T T ) ) / T / T W T ",
"T / Y / T T T / / ) / / [ o.C./.U.h.3.r.s.s.y.y.e.3.7.6.1.1.1.8.h.h.q.q.q.q.0.-.j f d s f b G (.$X$XC.#.Q ^ / T ) / ) T ) ) W T ",
"T T T Y / T W ) ) ) ) ` C.9XrXrXeX*Xf.x.d.^.,X,XQ.k.3.5.3.6.J.-X7X3X{.f.q.q.w.K.D.v f a a C OXwXrXwXeX9XC.] / T W T W ) / T T T ",
"Y T ) I / T / ] ) _ ) [ @XeXeXrXrXwXP.s.P.6XeXrXqXW.t.5.3.9.R.3X0X6X6X~.p.q.T.7X0X[.g s 5 i OXeXwX`.#XeX8X .T T W T ) W T / / / ",
"/ Y W ~ | [ / / W W W } _.2X X-X5X3XL.4.W.;X4X5X:X*Xr.r.r.5.L.R.=X5X<Xk.a.a.T.=X7X Xj s a 6 I.2X6X_.%.6XqXo.T T ) T _ / ( ] / / ",
") /  .(.$X+X..R ) ) T X Z.XXF G ].I.S.Z D.).6X>X!.!.k.5.e.5.U.|. X>X!.z.p.p.j.:X2XF d a 5 5 f F }.`.&X9X%X ./ / T T } #.%.O./ / ",
"Y ) [ $.$X1X_.%.o.| ) P w I.Y.F.y S oX.Xg.j.|.6X*XE.|.H.Z 8.g. X:X|.^.w.>.w.{..XG s 5 4 9 S I.OX7X1X#X#X@.( / T Q [ $.#X(.| I T ",
"J T ] ( } X.O.o.#.#...R * s F D u u M.V.m.m.`.1X=X|.:XoX}.[.Y.}.OXY.S.m.A.Y.).M.D G.B.B.F G '..X].N.+.~ ( ] [ X.#.o.#.O. ./ / / ",
"Y Y T T T / / / W Q R T K & t y C k h h 8 6 u V./.N.N.m.B.i p A C C A F.Y.}.XX}.).[.I.D S t t S r P T T ] |  .} [ _ / / / Y ) / ",
"/ Y T T T / T / ) / T T / U O - = = = = & #   . O ! } { : - # @ $ 2 3 3 e e u < = > + + @ & # . K T T Y T ( _ / W W Y / T T T Y ",
"/ / / / / Y T T / / ) T T T T ) ^ ^ Y T ) T I T / / / T Y ) / T ) ) R / / ' / / / ) T T / T / ) / Y I Y I T ) T T T / / T W T I ",
"/ Y T / T T I T / / / ) T T W W T T Y I W ) T T T / Y T I / T T W T / / ) / T T / / / T / T ^ ' _ / Y T T I T ^ / / T / W T T I ",
"T / T T T / / Y ) / T T / T / / Y T Y / ) ) ) / T T I T Y T T / T ) T T / / T T T / T T T W Y / / / Y / / ^ ^ Y T Y / ) ) / T T ",
") ) U I T _ Y / ) ) I I T / / I Y T I T T _ / T T / I T T T ) ) _ T T T T T W W W T T / T T T Y / ) / / ' / Y Y / T T T T I / T ",
"/ ) T ) / ) T / ) ) I / T Y / Y Y T W / T ) T T ) ) / / T T T ) / T ) T T T W ) ) T / / T T / Y T T ) T ^ / ^ / ^ / T I Y Y / ) ",
"/ / ) ) / W / / T W / / / / T / / Y ) ) T T T T ) T / I Y / T T T T T T T / ) ) ) T ) / T / / T T I W T Y / Y / Y T / T Y Y T T ",
"T I T / T T T T T W ^ / / _ / ) / T T W T T T / / T W T T _ ) T T T T Y W T ) ) ) W ) T T I T ) ) / / T / / T W T T T ) ) ^ T I ",
"Y / / T T I I T W T Y Y Y ) / T T / / Y ) T Y ) / ) T T ) ) T T T T T T / / / T T ) ) / Y T T T ) / Y / / T T _ T T T W T I ) / ",
"/ / / T / / Y / ) T T I T / ) T T / T ^ / / Y T T / Y / ) / I / / / / / T T T Y T ) ) _ / ^ / / Y U Y ) T T T W / / ) T T T _ / ",
"/ / Y Y / ) T T T T / T T I ) T / T I Y / ) / Y T I Y T T Y Y / ) Y T T T T T T / / ) ) T T / T Y ) T T T W T T T T W T T T ) ) ",
"/ ) T Y Y ) / T Y T ^ / T Y / T ) / T T / / T / T Y T ) T / Y / ' ) I T / / ) ) T T T ) / T / T J ) ) / / ^ ^ T I W ) ) / ) ) ) ",
"T _ T I T ) Y T I / Y I / T T T ) ) T T T T Y ) / Y T ) T / / ) ) ) T T T ) T T T T / ) / Y T T Y Y ' / ^ ^ T / I ) _ / T T T T ",
"T ) / ^ T T T T / ) ) / ^ ^ I T T T / T T W Y / / T ) T T T T / ) / ) W / ' / T / / / T I Y / ) ) T / / ' ) ) / ) ) _ T / ) T T ",
"Y / / T Y / ) / T / / T T Y T T T ) ) T T T I T T / T / T T I T T / ) T Y Y T / ^ ^ Y T T Y / / ) T T / / ) _ ^ / / ) T T ) T ^ ",
"/ / W T T T / Y / I Y T T T Y T ) ) W T T / ) T I ) / J ^ / / ) W T T T I I T / Y T Y Y Y / I Y / / T T T Y ' ^ T T ) T Y T T / ",
"Y T T / T / Y ^ Y / T T / T J J T W T T T ) ) I T ) / Y ) / / / / / T ) T / / / ) / Y T / T W I / Y I T I Y ' / / T ) / / T ) T ",
"T / / Y T ) T Y / / / ^ I Y / ^ / / / / ) _ W Y / T / Y / / T / T ) ) / T T I T ) / ^ / / T T T Y Y / T / / / / T ) ' ) I / / W ",
") / T T ) ) Y I ^ T Y / / Y T W T Y Y I ) ) ) T ) / / / T ) T T W ) ) T T Y Y / ' / Y T T / T / / ' / T T ^ / T I ) ) W T / T ) ",
") / T I / / Y T T T / / / / / T I T T Y ) / T / / / T T T T T T T / W T / ^ T / ) T T Y T T / / / / / ) I Y T Y I T T T / W T / ",
"W T T T T T T _ W ) / T T T I Y T / / J T T I T T T / ) ) ) I I T I T T / / W I W W T / T ) ) / ^ Y T T T J / / T T / T T W T T ",
"/ / T T Y I T ) / ) T I I T T T T / / Y / T T I T T T ) ) T Y T ) / T Y / T T I T ) U T T ) ) T T / T W / I / / / / / ) ) ) / / ",
") T ^ / ^ Y I T W W T Y / ) / / / / / / T I ) T T W T T T T Y / ) ) / / T / ^ / I / ) T T I T T W W / ) ) / / / ) T W ) ) ) T T "
};
