/* XPM */
static char *result[] = {
/* columns rows colors chars-per-pixel */
"64 64 240 2 ",
"   c #4C3A00",
".  c #732E00",
"X  c #673600",
"o  c #793900",
"O  c #195201",
"+  c #264600",
"@  c #2D4B00",
"#  c #324C01",
"$  c #2F5C02",
"%  c #335105",
"&  c #385704",
"*  c #2C6904",
"=  c #396C01",
"-  c #247301",
";  c #277C01",
":  c #357501",
">  c #4F5005",
",  c #4A5A02",
"<  c #695C01",
"1  c #715902",
"2  c #77571A",
"3  c #446701",
"4  c #5C6500",
"5  c #5D7001",
"6  c #696802",
"7  c #6D7701",
"8  c #797307",
"9  c #6D5024",
"0  c #6F6726",
"q  c #853904",
"w  c #8D3D03",
"e  c #953E01",
"r  c #AE3D00",
"t  c #8B4202",
"y  c #924801",
"u  c #945701",
"i  c #974C18",
"p  c #A74700",
"a  c #AB4200",
"s  c #B34300",
"d  c #BC4400",
"f  c #B24C01",
"g  c #BD4B00",
"h  c #A8540D",
"j  c #BC5401",
"k  c #BB5508",
"l  c #BA5A14",
"z  c #986401",
"x  c #837500",
"c  c #8E6A1F",
"v  c #BC6701",
"b  c #B4690C",
"n  c #A97700",
"m  c #845327",
"M  c #8D542C",
"N  c #AB5B27",
"B  c #B45A22",
"V  c #856428",
"C  c #BE6328",
"Z  c #B86A36",
"A  c #C24F01",
"S  c #C35401",
"D  c #CD5400",
"F  c #CD5B01",
"G  c #C85C08",
"H  c #D25E01",
"J  c #D05D0C",
"K  c #C76604",
"L  c #CD6301",
"P  c #D46401",
"I  c #DD6600",
"U  c #DC6B00",
"Y  c #D36A08",
"T  c #C97701",
"R  c #DE7202",
"E  c #DD760C",
"W  c #C96416",
"Q  c #D96817",
"!  c #DE7611",
"~  c #E06700",
"^  c #E36A00",
"/  c #EC7501",
"(  c #E87705",
")  c #EE7902",
"_  c #EE7A09",
"`  c #F47C08",
"'  c #C96A27",
"]  c #D06F2B",
"[  c #CE732B",
"{  c #D97529",
"}  c #C76A32",
"|  c #D57635",
" . c #E27F28",
".. c #CA7944",
"X. c #D67C45",
"o. c #E17D45",
"O. c #1F9701",
"+. c #1E9800",
"@. c #258401",
"#. c #2B8702",
"$. c #258C01",
"%. c #318D04",
"&. c #249601",
"*. c #299602",
"=. c #259B01",
"-. c #2B9D01",
";. c #319E02",
":. c #329908",
">. c #26A101",
",. c #2CA201",
"<. c #2DA801",
"1. c #32A302",
"2. c #37A607",
"3. c #33A802",
"4. c #3DA518",
"5. c #6E862F",
"6. c #49A827",
"7. c #57AE34",
"8. c #66B249",
"9. c #73B658",
"0. c #76BA63",
"q. c #9B8403",
"w. c #AA8900",
"e. c #BB8300",
"r. c #B98B00",
"t. c #B89401",
"y. c #C78701",
"u. c #CB8C00",
"i. c #D68901",
"p. c #CD9201",
"a. c #CE9A00",
"s. c #D39803",
"d. c #DB9C00",
"f. c #EA8704",
"g. c #F88706",
"h. c #FC8509",
"j. c #FF8A09",
"k. c #E79606",
"l. c #F19206",
"z. c #FE9404",
"x. c #FF9B02",
"c. c #FE9409",
"v. c #FF9B09",
"b. c #FC8C17",
"n. c #F38E19",
"m. c #D7A704",
"M. c #DCA501",
"N. c #DEAB01",
"B. c #D6A614",
"V. c #E9A702",
"C. c #E2AD00",
"Z. c #FFA400",
"A. c #F9A407",
"S. c #FFAB00",
"D. c #FEAB09",
"F. c #E5B301",
"G. c #E8B704",
"H. c #EEBC02",
"J. c #EEBC09",
"K. c #FAB806",
"L. c #E2A710",
"P. c #EEBB12",
"I. c #DA8426",
"U. c #EA8A2D",
"Y. c #FC9425",
"T. c #EE9B38",
"R. c #FA9B36",
"E. c #D5AD30",
"W. c #EEAC23",
"Q. c #FEA521",
"!. c #FCA32C",
"~. c #E8BC23",
"^. c #FCA936",
"/. c #FCB539",
"(. c #F8C704",
"). c #FDC409",
"_. c #FECD09",
"`. c #FDD303",
"'. c #FEDC00",
"]. c #FED309",
"[. c #FFDE09",
"{. c #F2CD12",
"}. c #FFE803",
"|. c #FFF901",
" X c #FBE91C",
".X c #EECD24",
"XX c #FDC423",
"oX c #EEC43E",
"OX c #FCC63A",
"+X c #F8E838",
"@X c #878A5C",
"#X c #A08944",
"$X c #88BC75",
"%X c #D78248",
"&X c #D68D51",
"*X c #E4944C",
"=X c #D8A94D",
"-X c #FCAB47",
";X c #F9B74A",
":X c #E7A25B",
">X c #FBAA54",
",X c #F0B250",
"<X c #CD9063",
"1X c #D99767",
"2X c #DAAA78",
"3X c #F7BB66",
"4X c #EAAF74",
"5X c #F9BA78",
"6X c #8BC873",
"7X c #DFC04C",
"8X c #F3CC4C",
"9X c #EBCA57",
"0X c #FBC257",
"qX c #ECD075",
"wX c #EED775",
"eX c #9ABE88",
"rX c #AFA983",
"tX c #CD9F80",
"yX c #C7A287",
"uX c #D9B399",
"iX c #F1BB8B",
"pX c #E3B497",
"aX c #C4BDA7",
"sX c #9BC988",
"dX c #A7D097",
"fX c #B7D2A5",
"gX c #D5CC94",
"hX c #EBC985",
"jX c #F6D193",
"kX c #FBD79A",
"lX c #EACFAE",
"zX c #FAD5A9",
"xX c #F7D6B7",
"cX c #F9E3A8",
"vX c #EFE2B2",
"bX c #F5D6C4",
"nX c #D8E6D2",
"mX c #F8EBCF",
"MX c #F8F7EC",
"NX c #FEFDF3",
/* pixels */
"1.1.-.-.=.>.>.>.=.-.,.>.,.3.3.3.-.,.-.-.-.-.1.-.=.1.,.-.*.*.+.=.-.-.1.2.-.-.-.=.-.*.-.-.-.>.>.,.,.;.-.3.1.-.-.1.1.-.-.-.*.,.>.,.",
"-.,.*.;.*.-.,.-.>.-.-.*.-.-.-.-.<.,.-.-.3.,.,.,.+.-.1.=.*.-.>.=.-.-.1.1.;.&.-.-.*.=.-.=.<.<.>.>.-.-.-.1.3.-.-.-.;.1.3.,.*.*.-.>.",
"=.*.*.=.1.1.>.=.,.-.>.;.,.*.*.-.*.;.1.-.<.3.-.-.=.*.;.-.1.3.-.,.*.*.1.3.1.=.,.-.1.-.3.>.-.3.,.*.-.,.-.-.-.,.=.-.-.,.,.,.1.-.-.-.",
"=.3.-.>.,.;.1.<.>.-.3.3.,.-.-.1.-.;.3.-.*.-.-.*.=.-.-.<.3.3.=.>.>.,.1.1.,.-.1.1.,.,.;.*.*.-.;.-.-.>.-.=.-.-.=.>.1.-.-.;.,.1.1.>.",
",.3.,.>.>.-.-.-.,.1.1.;.=.-.,.-.1.-.3.1.*.*.-.>.>.>.,.1.1.1.=.*.,.*.;.;.-.-.1.3.-.-.,.-.1.;.-.;.-.-.,.*.1.3.,.-.,.>.-.1.-.;.;.-.",
",.,.1.-.-.*.=.*.;.-.-.-.-.*.;.1.-.-.-.-.-.-.-.*.,.1.>.,.-.1.>.,.1.;.1.;.1.-.<.-.1.<.,.,.2.3.1.1.-.,.;.-.1.,.<.;.-.-.3.>.*.<.3.,.",
"<.,.1.1.-.,.>.-.1.-.,.<.,.-.*.;.-.1.,.-.-.>.3.-.-.,.<.;.;.*.-.-.3.3.3.1.-.,.;.-.;.1.-.;.1.3.1.,.*.1.1.-.-.,.-.1.-.*.>.1.>.*.-.;.",
"1.*.-.;.-.-.3.,.-.-.-.-.-.1.-.-.<.3.,.-.>.=.-.3.,.,.-.-.;.;.;.*.,.-.1.3.1.1.1.;.;.-.;.-.1.1.3.-.*.;.;.-.=.>.;.*.+.-.-.-.=.&.-.-.",
",.-.-.;.-.*.-.-.-.*.&.=.-.<.,.>.-.1.>.>.=.*.;.3.3.3.-.;.,.=.-.-.-.*.1.,.3.,.-.;.,.-.1.1.,.1.;.-.-.*.-.;.-.>.1.=.+.-.-.;.*.-.,.<.",
"=.*.>.,.,.-.=.-.-.-.*.*.,.-.*.=.*.-.,.,.-.>.<.-.;.;.1.1.1.=.=.=.-.*.;.,.1.1.,.-.;.-.;.;.-.-.1.;.-.-.,.1.,.*.;.*.=.>.-.-.,.,.-.-.",
"+.-.,.>.1.-.=.,.>.1.3.3.,.-.*.-.-.;.*.1.-.-.;.=.*.-.-.;.1.-.>.=.*.,.-.3.,.-.,.>.1.-.;.-.-.-.-.1.=.<.<.-.1.*.;.3.3.>.;.;.1.3.,.*.",
"=.>.-.-.1.3.>.-.-.1.-.1.,.,.,.3.3.,.-.-.-.1.1.<.,.*.=.;.-.,.,.*.,.<.*.-.-.-.-.=.1.-.;.-.-.>.=.-.,.-.1.1.>.=.>.,.;.-.3.,.,.>.3.-.",
"-.=.-.;.,.3.3.-.;.-.-.1.-.-.3.,.3.<.,.-.-.;.-.>.-.=.>.-.;.1.1.-.<.,.-.-.>.3.-.*.1.-.1.,.=.=.=.-.;.-.;.;.=.>.,.-.-.>.3.3.-.*.,.1.",
">.>.*.,.,.3.,.,.1.,.;.1.&.*.=.-.,.=.1.>.>.,.*.-.-.-.1.3.3.,.,.,.,.-.-.,.=.*.>.=.,.,.=.3.,.=.=.;.-.-.,.,.-.3.-.,.-.>.,.,.,.,.1.-.",
">.=.,.,.-.-.1.,.;.,.>.1.1.1.-.-.-.=.>.=.-.=.>.-.=.-.1.1.1.-.-.-.-.-.*.-.-.=.*.*.-.,.=.1.>.*.3.;.>.=.-.,.-.-.-.,.>.>.=.-.1.,.<.=.",
"-.-.-.-.-.-.;.-.-.;.*.-.3.3.3.>.>.*.-.-.,.=.-.-.-.1.-.;.1.,.=.&.-.;.1.-.-.-.<.1.-.=.,.,.=.1.3.-.1.=.-.-.-.-.-.-.-.<.,.<.,.1.1.>.",
"-.*.-.-.-.,.;.;.1.1.1.<.,.3.;.-.-.-.-.-.-.=.>.>.-.*.-.-.>.-.+.=.-.3.3.,.,.3.1.,.>.*.;.-.&.;.3.=.;.*.=.*.*.>.<.=.-.,.>.,.-.-.;.-.",
"=.>.-.*.*.<.,.-.3.3.1.1.1.1.,.1.-.1.1.-.;.*.,.1.>.*.=.<.-.=.=.*.3.3.;.-.-.1.1.-.-.-.1.-.-.1.-.*.1.1.>.=.>.,.-.=.-.-.*.&.=.;.1.;.",
">.+.=.>.,.>.-.-.-.-.*.-.;.1.3.-.-.,.-.-.1.=.-.-.-.-.&.- & > y y w q q . X @ @ ; $.<.1.-.>.<.=.-.3.,.-.*.*.-.-.<.=.1.-.-.,.1.1.-.",
"=.=.=.>.>.*.>.-.,.-.=.-.1.;.1.1.-.3.,.,.3.<.-.1.#.= 1 h ( _ ` ` ) ~ ~ P D f p o X # - *.*.<.,.-.1.>.>.-.-.;.-.;.-.3.<.=.-.-.-.;.",
"&.=.-.1.-.*.,.-.<.,.-.=.-.-.-.;.1.-.,.,.1.3.*.= 8 k.g.j.j.j.h.h.) / U I H D D S r r e   * 1.1.;.*.*.-.-.=.3.-.;.;.1.,.-.;.;.=.;.",
"=.*.1.,.-.1.>.-.-.*.;.-.=.*.;.-.-.-.-.=.-.%.6 y.c.j.c.c.c.c.v.v.c.l.f.^ I L D S A r A r 1 $ ;.;.-.-.>.=.-.*.-.,.,.;.;.;.,.1.,.,.",
"=.>.,.-.-.,.,.3.*.-.,.3.>.=.-.-.-.=.=.=.*.6 f.j.c.x.v.D.).]._._._.).J.V.f.P H D A A r d j h 3 *.,.=.>.-.>.-.-.-.-.3.1.1.>.3.,.-.",
"<.3.1.-.;.-.;.3.3.3.<.3.>.=.=.;.;.,.1.O., _ j.v.x.c.D.].[.}.]._._._.(.(.F.f.I D D D A A v y.n = -.+.1.-.=.3.1.;.,.3.3.3.-.1.1.;.",
"*.-.-.-.1.*.1.1.-.-.;.1.-.=.-.1.,.;.;.: v j.c.x.x.v.).[.[.[.]._._._.).J.J.M.U P D D D v r.y.a.w.3 -.,.=.=.3.,.1.;.-.1.-.*.,.,.-.",
"-.1.,.<.3.-.-.*.&.=.-.-.-.,.>.1.1.;.; q.A.j.v.Z.Z.v.).[.[.[.].]._._._.J.J.V.I I F D D G e.r.p.m.t.= ,.=.-.=.>.,.,.-.-.=.=.1.-.-.",
"1.1.,.-.-.*.-.-.=.>.-.-.<.1.;.1.3.-.5 J.D.c.x.S.Z.v.D.'.[.[.]._._._._.J.H.l.~ I P D D D K y.p.a.m.x ; =.*.=.=.=.*.-.;.-.-.-.*.-.",
"-.-.-.-.-.=.=.*.>.-.*.*.*.*.1.3.1.: t.{.K.c.x.S.Z.v.v.K.[.[._._._._._.(.V.) ~ I I F D D S v y.a.m.m.8 @.=.-.*.-.-.1.;.-.1.1.;.-.",
"-.-.-.*.=.-.-.=.-.=.-.-.&.*.,.1.; w.(.(.D.v.Z.S.S.x.x.v.K._._._._._._.D.l./ ^ ~ I P D D D S F i.a.m.B.8 $.-.*.,.>.-.>.-.-.-.;.,.",
";.;.3.*.*.3.>.-.>.-.-.1.3.,.,.;.4 F.H.(.v.x.Z.S.Z.x.x.v.v.c.A.D.D.D.A.h._ _ / I I I F D D D D D K i.i.I.2 @.,.-.>.-.-.3.;.-.-.-.",
"1.;.1.,.>.1.-.<.<.>.;.1.1.1.-.: t.(.(.D.c.x.S.S.x.x.x.v.c.j.j.h.j.j.h.` _ ) / ~ I ~ P D D D D D D F P Q ] 2 $.-.-.*.1.*.-.-.-.-.",
";.-.-.1.-.<.,.1.-.-.;.1.-.;.$.x H.H.V.c.z.Z.S.S.Z.x.v.v.c.j.j.j.j.j.h.` _ _ / ~ I ~ ~ H D D D D D D D Y  .X.0 @.-.-.-.*.-.-.,.,.",
"-.-.=.=.=.2.4.6.2.-.-.-.-.*.7 F.H.A.c.z.Z.S.S.S.S.x.v.c.c.j.b.Y.b.j.h.` _ _ / / U U ^ U L F D D D D D | 4XpXpX@X7.4.2.-.,.-.;.-.",
"-.,.=.2.6.6XdXdX6X7.2.1.*.< i.l.l.Y.^./.S.S.S.S.S.x.v.v.v.-XkXzXiX>XY.` _ _ ) / k.L.L.m.d.p.T F D H %X1XxXbXbXbXaXeX9.4.;.1.;.*.",
"-.-.6.0.dXnXnXnXnXfX8.%.< U _ n.5XzXmXkX8XOXK.S.S.x.x.v.Q.kXmXzXzXzX5XU._ _ f.W.7XqXgX7XN.N.s.T D D %XpXlXpX%X1XpXpXrX7.,.,.,.-.",
"=.-.9.6X8.9.eXfXfXMXfXc R g.Y.3XmXNXMXMXvXjXQ.S.S.S.x.v.Q.jXkX3X>X5XlX:X_ _ W.wXwX9XhX9XL.N.N.d.U D H %XuX1X| [ | &X1X0 $.,.,.,.",
",.=.4.6.4.9.$XsXdXnXkXY.j.c.3XlXcXcXkX8XwXlX0XS.S.S.Z.x.v./.3X/./.>XiX:X` _ P.9XqXoXqX7XN.N.C.N.i.P Y 1XuXuXyX} J %X*X=X3 2.>.,.",
"2.,.=.=.4.9.9.$XeXmXkXR.h.c.;XhXqXOXXX_.XX8X[.'.`.).S.Z.Z.A.x.x.Q.>X!.b.h.` P.P.P.P.9XE.N.N.N.N.d.I L | 2XuXtX<X[ J { =X#X* ,.,.",
"=.1.1.,.-.:.4.8.gXvXqX:XR.j.^.4XhX;XS.S.`.|.|.|.|.|.'.S.D.,X^.;X;X3X!.j.j.j.K.P.{.9XhX;XG.F.N.N.M.( F D G ' ' ' J D Y 1XyX0 =.:.",
"&.-.1.-.;.=.*.5.9X,XU.U.I.^ R n.*X,Xz.D.'. X+X}.}.}.}.`.D.,X0X;X;X^.v.c.j.c.).(..X9XoXJ.H.H.N.F.d.U F D S ] <XX.W ' ' 1X:XV >.>.",
"&.=.-.*.-.,.-.6 F.R F S S S S G P Y R d.F.7XqX{.{.[.].].A.Q.qX-XA.v.z.z.j.z.K.(..X9X{.F.C.C.N.m.i.F F S l %X..} G Y J Q o.m :.,.",
",.=.-.,.,.,.*.4 i.S d d d d d d g W ' &XB.E.E.a.E.E.N.~.k.n.T.*XR.f.f.g.R.Y.A.(.G.F.N.m.m.M.s.T S S W k f f a s d D H Q o.M :.=.",
",.=.1.-.,.,.*., K g g G W W b G j f k T u.u.t.y.u.p.p.p.p.{ Y Y Y P I I I.! E =Xm.p.p.u.y.T K g d d d a a a a s A H Q { %X9 =.O.",
",.>.,.,.-.*.=.- e S G | Z i w w w w w y z z n r.r.y.y.y.y.L D D D D D F W L D F F L L S d d d d s s a s g k A W ] ' l } ..& &.&.",
"1.,.*.-.-.1.=.-.= q l X.B k A A S j g g p p p y y u z n n T H D D D D D D D D D D S j g g g g g d d d S ' ' C N N N } ..0 @.:.*.",
"3.1.*.&.-.3.-.>.3.; & 2 M } } } C l l k f f o X o X   , 4 6 u y y p f f f A D D D D S j j j f f f e t w q q i N B C m , #.*.,.,.",
">.1.-.1.,.1.-.,.3.;.*.$.- % % % % % % # # % ; @.#.$.$.-.>.*.#.%.%.* # @ +   w e e q . . q t > , , : %.O + @ # # @ $ ; &.=.=.,.2.",
">.-.,.2.,.;.,.,.;.;.-.<.>.-.-.,.,.=.1.3.*.;.-.-.3.-.1.=.=.<.;.>.>.-.*.-.;.,.3.1.1.-.1.1.>.>.1.-.-.=.,.:.-.>.>.>.=.>.,.-.=.>.=.*.",
"-.*.>.,.-.>.-.*.-.1.>.<.-.1.-.3.3.=.-.;.;.*.-.<.-.-.;.*.-.3.1.*.;.-.-.=.;.-.3.3.1.1.;.-.-.*.-.1.2.,.,.-.,.,.-.;.*.;.-.1.<.=.*.-.",
"-.-.>.-.*.*.*.-.;.-.=.=.=.3.;.-.*.<.>.-.1.-.=.3.-.1.,.,.1.1.;.;.-.-.-.-.-.1.-.=.-.;.1.-.=.-.-.-.1.-.=.,.>.1.;.3.,.*.;.;.-.=.-.,.",
"<.,.-.-.-.,.>.>.1.,.-.&.*.-.1.-.-.,.>.>.<.-.=.-.-.,.=.>.1.-.*.,.,.>.,.,.-.-.-.=.-.1.3.3.>.>.>.,.=.*.=.1.*.-.;.;.,.,.3.-.*.-.3.3.",
"<.;.-.>.,.3.-.-.-.-.,.-.-.=.1.-.-.>.*.=.-.3.>.*.-.&.=.-.-.>.=.>.1.>.=.-.-.-.-.-.-.,.1.3.;.-.1.-.=.;.-.-.-.;.-.-.=.-.;.-.>.-.;.1.",
"-.;.-.=.=.1.,.-.=.-.=.>.>.-.-.;.;.-.*.-.>.1.=.-.,.=.*.3.-.,.=.>.3.1.*.-.;.;.,.1.-.-.-.3.1.-.-.-.=.,.3.,.,.>.>.>.*.;.1.1.1.1.1.1.",
";.3.-.=.*.1.=.-.=.,.*.=.>.,.*.-.3.1.,.-.,.-.=.3.;.=.-.1.-.>.-.1.1.;.-.-.-.1.-.;.-.-.-.1.>.=.-.-.&.=.3.,.>.>.-.*.*.;.3.1.-.-.-.-.",
"*.1.,.>.>.;.*.-.,.3.3.-.>.>.=.-.-.-.,.,.-.;.=.>.,.-.1.1.;.*.-.<.1.1.1.;.<.<.,.-.>.,.>.;.=.=.*.3.1.-.>.,.<.3.;.1.,.1.3.-.>.1.-.-.",
"=.,.,.=.=.1.3.-.-.-.,.;.>.=.-.-.-.1.1.*.-.;.-.-.-.-.-.>.-.-.=.-.-.>.1.-.=.=.-.-.,.>.>.-.-.=.>.,.2.-.>.;.1.1.3.>.1.,.3.-.-.1.,.=.",
">.1.;.-.=.,.-.>.=.=.-.*.,.-.=.>.-.1.;.*.,.<.;.*.=.1.-.=.>.>.,.1.;.-.-.-.=.=.-.-.*.=.=.=.-.>.=.=.,.,.,.,.-.*.3.>.*.-.1.*.=.-.,.>.",
"-.-.-.,.-.-.-.=.>.-.,.*.-.-.+.=.-.;.;.*.-.3.3.*.*.1.,.=.3.,.,.3.,.,.-.1.-.-.>.,.1.-.-.=.<.-.;.*.>.=.*.*.=.=.<.,.,.>.1.1.,.-.3.-.",
"*.>.>.-.-.1.-.=.>.,.,.>.=.&.-.>.3.,.>.>.,.;.1.-.,.,.,.=.,.,.-.>.-.1.1.,.-.-.*.-.1.<.>.,.,.*.-.=.-.=.-.-.>.>.3.-.-.1.3.1.*.>.-.;.",
"1.<.-.-.1.1.=.=.,.-.-.>.-.-.>.;.-.*.=.=.1.1.1.-.3.,.,.-.-.1.-.-.;.1.1.-.-.=.-.>.<.3.=.-.-.-.,.1.,.<.<.-.-.-.,.>.=.1.;.;.-.,.-.1.",
"1.;.-.=.1.,.*.-.;.-.>.,.>.1.-.*.=.*.-.=.-.,.-.,.,.-.-.-.-.;.-.*.*.,.1.,.>.=.-.,.1.-.=.>.-.-.-.,.,.,.1.;.=.=.=.-.*.-.-.-.1.1.*.,.",
";.-.-.*.>.*.-.3.;.1.,.-.,.-.-.=.-.,.>.=.-.-.=.-.-.-.-.1.-.1.&.=.>.*.-.*.<.1.;.&.;.1.*.,.-.;.3.<.>.=.-.-.*.O.,.-.-.>.-.*.-.;.,.-.",
"<.-.-.>.=.=.>.3.,.1.-.*.=.-.-.-.*.,.,.>.,.-.-.=.-.1.-.3.1.-.=.,.1.,.-.=.-.,.-.=.*.1.*.-.*.3.1.-.-.,.-.;.-.=.-.,.,.,.,.3.3.1.-.,.",
"1.;.>.>.>.=.*.*.-.;.-.=.-.1.,.>.-.3.,.>.-.*.;.-.-.-.*.-.;.-.=.-.;.3.,.,.>.,.=.-.=.;.3.-.*.&.-.-.;.;.-.3.3.1.>.,.3.-.;.1.1.1.-.-."
};
