/* XPM */
static char *result[] = {
/* columns rows colors chars-per-pixel */
"64 64 230 2 ",
"   c #4C3A00",
".  c #732E00",
"X  c #673600",
"o  c #793900",
"O  c #195201",
"+  c #264600",
"@  c #2D4B00",
"#  c #324C01",
"$  c #2F5C02",
"%  c #335105",
"&  c #385704",
"*  c #2B6802",
"=  c #386803",
"-  c #247301",
";  c #277C02",
":  c #357501",
">  c #4F5005",
",  c #4A5A02",
"<  c #685B01",
"1  c #765602",
"2  c #625D14",
"3  c #77571B",
"4  c #446701",
"5  c #586800",
"6  c #5A7202",
"7  c #696601",
"8  c #697802",
"9  c #797307",
"0  c #667117",
"q  c #6D5024",
"w  c #756327",
"e  c #7D7846",
"r  c #853904",
"t  c #8D3D03",
"y  c #953E01",
"u  c #AE3D00",
"i  c #8B4202",
"p  c #924801",
"a  c #945701",
"s  c #974C18",
"d  c #A74700",
"f  c #AC4200",
"g  c #B34200",
"h  c #BC4400",
"j  c #B24C00",
"k  c #BD4B00",
"l  c #A8540D",
"z  c #BE5401",
"x  c #B95305",
"c  c #BA5A14",
"v  c #986401",
"b  c #837500",
"n  c #BC6801",
"m  c #B4690C",
"M  c #A97700",
"N  c #845328",
"B  c #8D542C",
"V  c #AB5B27",
"C  c #B45A22",
"Z  c #856424",
"A  c #BE6328",
"S  c #BA6836",
"D  c #C14500",
"F  c #C24E01",
"G  c #C45301",
"H  c #CD5400",
"J  c #CD5B01",
"K  c #C85B08",
"L  c #D15D01",
"P  c #C25F12",
"I  c #C66602",
"U  c #CD6301",
"Y  c #D36301",
"T  c #DD6600",
"R  c #DC6B00",
"E  c #D46709",
"W  c #C97700",
"Q  c #CB7B00",
"!  c #DD7100",
"~  c #C96418",
"^  c #D7691A",
"/  c #E06700",
"(  c #E36A00",
")  c #E57504",
"_  c #EC7502",
"`  c #EE7A02",
"'  c #EE7A09",
"]  c #F47B08",
"[  c #C76728",
"{  c #D36923",
"}  c #C9722E",
"|  c #D97327",
" . c #C66933",
".. c #CE7435",
"X. c #D67837",
"o. c #E17733",
"O. c #CB7744",
"+. c #D87B44",
"@. c #E17E45",
"#. c #1F9701",
"$. c #1E9800",
"%. c #258401",
"&. c #298402",
"*. c #258C01",
"=. c #2C8B03",
"-. c #318D04",
";. c #249601",
":. c #2B9402",
">. c #259B01",
",. c #2B9D01",
"<. c #319E02",
"1. c #359508",
"2. c #26A101",
"3. c #2CA201",
"4. c #2EA605",
"5. c #32A302",
"6. c #33A802",
"7. c #39A608",
"8. c #3AA413",
"9. c #46A722",
"0. c #54AD38",
"q. c #59B335",
"w. c #5EB541",
"e. c #66BA47",
"r. c #6DBA52",
"t. c #78BE58",
"y. c #9B8403",
"u. c #AA8900",
"i. c #BB8300",
"p. c #B98B00",
"a. c #AD9203",
"s. c #B89401",
"d. c #9F8129",
"f. c #C48700",
"g. c #CC8402",
"h. c #C38B00",
"j. c #CC8B00",
"k. c #D28B01",
"l. c #D98901",
"z. c #CD9300",
"x. c #CE9A00",
"c. c #D29300",
"v. c #D39B00",
"b. c #DC9C00",
"n. c #EF8301",
"m. c #E98805",
"M. c #FB8503",
"N. c #FD8B03",
"B. c #FC850A",
"V. c #FF8A09",
"C. c #E59403",
"Z. c #FF9502",
"A. c #FF9B02",
"S. c #F09108",
"D. c #FE9409",
"F. c #FF9B09",
"G. c #F88B11",
"H. c #FE9718",
"J. c #D6A501",
"K. c #DDA500",
"L. c #DEAB00",
"P. c #DBAD09",
"I. c #E1AD00",
"U. c #E9A902",
"Y. c #F7A506",
"T. c #FFA401",
"R. c #FFAB00",
"E. c #FFAB09",
"W. c #E5B301",
"Q. c #E7B802",
"!. c #EDBC01",
"~. c #EDBC09",
"^. c #FFB302",
"/. c #FABA07",
"(. c #FFA213",
"). c #FEAE11",
"_. c #E6BA13",
"`. c #FEB918",
"'. c #D08F2C",
"]. c #D4843C",
"[. c #DB9833",
"{. c #EF8E2B",
"}. c #FF9824",
"|. c #E09138",
" X c #FEA926",
".X c #EEBD23",
"XX c #FCAA3A",
"oX c #EDB232",
"OX c #F8BB37",
"+X c #EDC301",
"@X c #F5C404",
"#X c #FDCC00",
"$X c #FDC40A",
"%X c #FECC09",
"&X c #FED500",
"*X c #FFDC00",
"=X c #FFD309",
"-X c #FFDE09",
";X c #FBC113",
":X c #FEE702",
">X c #FFF600",
",X c #FFFD00",
"<X c #EFCA20",
"1X c #FFC925",
"2X c #EDC333",
"3X c #FDC836",
"4X c #D98647",
"5X c #DE8F58",
"6X c #E28A51",
"7X c #FFA745",
"8X c #FEB446",
"9X c #EFA85A",
"0X c #FCA856",
"qX c #FEB352",
"wX c #FFBB52",
"eX c #D88E63",
"rX c #E29E6B",
"tX c #F7B86E",
"yX c #EAAC76",
"uX c #FABA74",
"iX c #87C670",
"pX c #91CB7A",
"aX c #F2C64D",
"sX c #F1CA50",
"dX c #F9C676",
"fX c #F5D17A",
"gX c #E8B087",
"hX c #9DCE89",
"jX c #AAD699",
"kX c #FBC78B",
/* pixels */
"5.5.,.,.>.3.2.3.>.:.3.2.3.6.6.3.3.3.,.:.3.3.3.3.>.,.5.,.>.:.$.>.,.,.5.7.,.>.,.>.,.,.:.,.,.3.2.3.3.,.<.5.5.,.3.3.5.,.,.,.:.,.3.3.",
",.3.:.<.:.,.2.2.3.2.,.:.,.3.,.3.3.3.,.,.6.3.3.3.>.>.5.>.:.,.2.>.,.,.<.5.<.>.,.,.:.>.>.2.3.3.2.2.,.,.,.6.6.,.:.,.<.5.6.,.,.:.3.2.",
">.:.>.,.5.<.3.2.3.3.3.3.3.:.:.,.:.5.5.>.3.6.,.,.>.:.5.,.6.3.3.3.,.>.5.6.6.:.5.,.5.,.6.2.3.6.3.:.:.3.,.,.3.,.>.>.5.3.3.3.3.>.,.,.",
">.6.,.>.3.<.6.3.2.>.6.5.3.,.,.5.<.<.5.,.>.3.,.:.>.,.3.3.6.5.>.>.,.,.5.5.3.,.5.3.3.3.<.:.>.,.5.,.,.3.,.>.,.,.2.3.3.,.,.5.3.6.5.>.",
"3.6.,.3.3.,.:.,.3.3.5.5.>.:.5.,.<.3.6.5.:.;.,.3.2.3.3.5.5.5.>.>.3.:.5.<.:.:.6.3.,.,.3.,.5.5.<.<.3.2.3.:.5.6.3.,.3.,.3.3.,.5.5.,.",
"3.3.5.3.,.>.>.>.<.,.<.3.3.>.,.5.,.3.,.,.,.>.,.:.3.3.3.,.,.5.3.3.5.,.5.5.6.3.3.3.6.3.3.3.6.5.5.3.,.3.,.,.5.3.3.<.>.,.6.3.:.3.5.3.",
"3.3.3.3.,.3.3.3.5.,.3.3.3.:.:.<.3.3.3.,.,.3.6.3.,.3.3.,.<.,.:.3.5.6.5.5.,.5.6.,.<.5.,.<.5.5.6.3.>.5.<.3.3.3.,.6.3.>.3.3.2.:.,.5.",
"6.:.3.<.,.,.3.3.,.,.>.,.3.5.,.3.6.5.3.>.2.>.,.6.3.3.3.3.<.<.<.:.3.3.5.6.5.5.5.,.,.,.5.<.<.6.5.,.:.<.5.:.>.,.,.:.$.:.,.,.>.;.,.,.",
"3.:.,.,.:.>.,.,.,.:.;.;.>.6.3.3.,.5.3.2.>.>.5.6.5.6.,.<.3.>.,.,.,.:.3.3.5.3.,.<.5.,.<.5.3.3.5.,.,.:.,.,.,.3.5.>.$.3.,.<.>.,.3.3.",
">.>.3.3.3.,.>.,.,.,.;.,.3.,.>.>.:.,.3.3.2.,.3.3.<.5.<.5.5.>.>.>.,.:.<.5.6.<.3.,.,.3.<.<.3.:.5.<.,.,.,.6.3.:.<.,.>.,.,.<.,.3.3.3.",
"$.2.3.3.5.,.>.3.3.5.6.5.3.,.>.:.,.,.:.5.,.,.<.>.,.,.,.<.5.,.>.2.,.3.3.6.3.,.3.>.5.,.<.,.,.3.3.5.2.3.3.5.5.>.,.5.6.3.,.,.3.6.,.:.",
">.3.3.:.6.6.3.>.,.5.3.5.3.3.3.6.6.,.3.,.,.5.5.3.3.:.>.<.,.3.,.,.3.3.,.:.,.3.,.>.5.,.5.,.,.>.>.,.3.3.3.5.,.>.3.3.<.,.6.3.3.3.6.3.",
",.>.:.3.3.6.6.,.<.,.,.5.,.>.6.5.6.3.3.,.,.,.3.3.,.2.3.3.5.5.5.,.3.3.,.,.3.3.>.>.<.3.5.3.>.>.:.3.,.<.<.<.>.3.3.,.:.2.6.6.,.:.3.5.",
"3.2.>.3.3.5.5.3.5.5.,.<.;.:.>.,.3.>.6.2.3.3.>.:.,.:.5.5.5.3.3.3.3.3.,.,.,.,.3.>.,.3.>.6.3.2.>.<.,.3.,.,.3.3.>.3.3.3.3.3.3.3.3.3.",
"2.>.3.3.,.,.5.3.<.,.,.5.6.3.,.,.,.>.,.>.>.>.3.,.>.,.5.5.5.,.3.:.3.,.,.,.:.>.:.,.,.3.>.5.,.,.6.<.3.>.3.3.,.3.,.3.2.2.2.,.5.3.3.>.",
",.,.,.,.,.,.5.3.,.,.>.,.6.6.6.3.>.,.,.3.2.>.>.3.>.5.,.<.3.3.>.;.,.,.,.<.3.3.3.3.3.>.,.3.>.3.5.,.3.>.>.,.,.,.3.>.3.3.2.6.3.,.6.3.",
">.,.:.,.3.3.6.<.6.5.5.3.3.6.5.,.,.,.,.3.,.>.3.2.:.>.,.3.3.3.>.>.5.5.5.3.3.6.5.5.3.:.,.,.#.5.6.>.<.:.>.,.:.3.3.2.,.3.3.3.>.,.,.,.",
">.,.>.>.:.3.3.,.5.5.5.5.6.5.,.5.,.5.3.,.<.:.3.3.3.:.>.3.>.>.;.,.6.6.5.,.,.5.5.,.>.,.5.,.,.5.:.,.5.5.,.>.3.,.>.>.3.,.:.>.>.<.5.<.",
"2.>.>.3.3.,.:.3.3.,.,.,.5.5.5.,.,.5.,.,.5.2.,.,.,.,.%.- & > i p r r r . X @ @ ; ;.3.6.,.3.3.>.,.5.,.3.>.>.,.,.3.>.3.,.,.,.5.5.,.",
">.#.>.2.2.>.,.2.,.,.>.,.5.<.5.6.,.3.3.5.6.3.,.3.*.= < m ) n.] ] ` ( / Y H j d o X # - :.>.4.3.<.6.3.,.>.,.5.,.<.,.6.3.2.3.,.<.<.",
">.;.,.5.>.:.3.,.3.3.3.>.:.,.,.<.5.3.3.3.5.5.,.: 9 C.B.V.V.V.B.B.` _ T T L H H z u u r   ; 5.5.<.:.>.,.>.>.6.,.<.<.5.3.,.<.<.>.<.",
">.>.5.5.3.3.,.3.,.:.,.,.2.:.<.,.,.:.3.>.<.-.7 Q D.V.D.D.D.Z.F.F.D.S.m.) T U H G F D D u o * <.,.>.,.3.>.>.:.,.3.3.<.<.<.3.5.3.3.",
">.,.3.,.,.3.3.5.,.,.3.6.2.2.,.,.,.>.>.>.:.7 m.D.D.F.F.E.$X=X%X%X%X$X!.U.m.R L H H F h u G l , ,.3.>.,.3.3.,.,.,.,.6.5.5.3.5.3.,.",
"3.3.3.,.5.,.<.6.6.6.3.6.2.>.>.<.<.3.5.$., ' V.D.A.Z.E.=X-X:X=X%X%X%X@X~.Q.l.T H H H D F n h.M = ,.>.,.2.>.6.5.<.3.6.6.6.3.5.5.,.",
"3.,.:.3.6.,.<.<.,.,.<.5.,.>.>.5.3.<.<.: m V.D.A.A.Z.$X-X-X-X=X%X%X%X$X~.~.U.R L H H H n p.h.x.u.4 :.3.2.>.3.3.6.,.5.6.,.>.<.,.3.",
"<.5.3.4.3.,.,.,.;.>.:.<.3.3.3.5.5.<.%.y.T.V.F.T.T.F.$X-X-X-X=X%X%X%X%X~.~.U.R T J H H K M h.z.J.s.: 3.:.,.>.2.3.3.:.3.>.>.<.,.,.",
"5.5.3.3.,.,.>.,.>.2.,.,.3.5.<.6.6.>.6 ~.E.D.A.R.T.F.E.-X-X-X=X%X%X%X%X@X~.C.T T Y H H H I p.z.x.L.9 %.;.,.>.>.>.,.,.5.,.,.,.:.:.",
":.,.,.,.,.:.>.,.3.>.,.:.>.:.5.6.5.: s.$X/.D.A.R.T.F.F./.-X-X=X%X%X%X%X@XY.` ( T T L H H J I g.x.J.L.9 %.,.:.:.>.,.,.<.:.5.3.5.3.",
",.,.,.:.,.,.>.>.>.>.,.<.;.:.3.5.; u.+X%XE.A.T.R.R.A.A.F.^.%X%X%X%X%X%XE.m.` ( / T L H H H H Y g.x.L.P.9 %.3.>.3.3.,.3.,.,.<.,.,.",
"5.3.5.,.>.6.3.,.3.>.,.3.3.3.3.,.5 W.!.$XF.A.T.R.T.A.A.F.F.F.(.E.E.E.T.B.' ` _ T T T J H H H H H I g.l.'.3 %.3.3.>.,.3.3.5.,.,.,.",
"5.5.5.3.>.6.3.3.6.3.,.5.6.5.,.: s.!.@XY.D.A.R.R.A.A.A.F.D.V.V.B.V.V.B.] ' _ _ / / T Y H H H H H H L L ^ | 3 *.3.>.>.5.,.3.:.,.3.",
",.,.,.<.,.3.3.5.3.>.<.5.,.<.=.b !.!./.D.Z.T.R.R.T.A.F.F.D.V.V.V.V.V.B.] ' ] _ / T / T L H H H H H H L Y { X.w =.,.:.:.,.,.,.3.3.",
",.>.,.7.w.r.8.,.,.:.,.,.,.*.8 I.~..XH.F.T.R.R.R.T.A.F.(.D.}.qX}.G.V.B.] ' ' _ _ E ( ! R U J H H ^ X.6X^ L @.gXe =.,.3.,.3.,.<.,.",
",.3.r.jXpXiXe.0.4.3.5.<.:.< oXqXdXkXwX8X^.R.R.R.R.T.H.8X X}.7X0X0X}.B.' ' ' ' ' C.b.I.b.b.k.W J 4XrXrX~ H ^ 6XeX3 $ :.,.5.5.5.:.",
",.,.9.pXe.t.pXhXq.5.5.:.< | uXtX0XwXdXfX`.R.R.R.R.T.(.qX8X0XXX0XuX0XB.' |.9X9XOXsXW.L.L.L.K.v.Q U 4XyX5X .K { 4X@.S 2 =.3.,.,.3.",
">.,.5.,.4.8.iXjXt.1.= 1 ) 0XuX XR.^.;X$X/.^.R.R.R.R.E.XX8XuX7X7X7XH.B.B.yXkXoX.X2XW.L.L.L.L.L.b.U K ..yXgXX.H { o.o.].0 *.3.3.3.",
"4.>.8.8.>.4.0.e.1.8 k.G.B.H.uXaX/.3X#X#X#X^.^.R.R.R.T.A.(. X X XF.V.V.B.{.{..X`..X~.I.L.L.L.L.L.l.Y K +.4XX.} H L ^ [.[.= 4.5.,.",
"6.,.0.0.<.8.r.0.6 _.1XV.V.F. X.X3XaX$X/.@X#X*X*X&X$XR.T.A.A.E. XF.A.V.B.] G.aX2X~.!.W.U.L.L.L.I.b.R J H G c [ H H K { [.d.* 3.3.",
">.5.7.7.<.<.<.&.a.1XXXG.N.B.N.Z.T.T.R.).3X>X,X,X,X,X*X^.R.T.T.T.A.A.Z.V.B.D.;X<X~.~.!.!.W.W.L.L.K.! Y K ~ z k h H H K | [.2 >.:.",
"$.,.5.,.4.>.4.4 +XY.` ( ( ! ) ` ` n.N. XsX-X:X:X:X:X:X#XR.T.R.R.T.A.A.D.V.D.%X+X~.~.~.!.!.!.L.L.C.R J U ..G h h H H H { [.Z 3.3.",
">.>.,.;.,.,.,.7 W.R J G G G G K L Y T C.Q.Q.+X+X@X#X#X&XY.Z.A.A.Z.Z.Z.Z.N.N./.+X+X+X!.W.I.I.L.J.g.J H G k h h h D H H { @.B <.,.",
"5.>.,.4.,.4.:.5 l.G h h k h h k k z G Q x.x.v.v.J.I.L.W.C.) ` ` n.n.n.M.M.M.Y.+X+XQ.I.K.L.J.v.Q G k h h g u f u D H L ^ @.B ,.>.",
"3.2.5.3.3.2.:., I k k K ~ ~ I K z x x n j.j.j.j.j.k.j.x.j.Y L L Y Y Y R T T R l.v.c.k.k.g.W K k h h g f f f u h F L E | @.q ,.#.",
",.>.,.3.,.:.,.- i G K X.S s r t t r t i a v M i.i.f.j.j.j.U H H H H H H H H H J U U U G k h h h h u g f k k K P {  .C X.O.% ,.;.",
",.3.,.:.,.6.>.,.= r c +.C x G k G z F k d d d p p a v M i.W J H H H H H H H H H H G z k k k k k D h h H [  .A V V V  .O.w %.,.,.",
"5.6.:.;.,.6.,.2.6.&.& 3 B  . . .A c c x x j r X o X   & 4 7 a p p d j j j k H H H H G z z z j j j y i r o i s V l A N > %.>.4.,.",
"3.6.3.5.3.5.,.3.6.<.:.*.; # % % % % % # @ % ; %.=.%.*.,.,.:.=.-.-.* # @ @   t y y r . . r r , , , : -.O + @ @ # % * ; ;.>.>.,.4.",
"3.,.5.5.3.<.3.,.,.<.,.3.4.,.,.3.3.>.5.5.,.,.,.,.6.3.5.>.>.3.,.3.3.,.:.,.,.5.5.5.5.,.5.5.2.3.5.,.<.:.,.4.>.3.2.3.>.,.4.,.>.>.,.,.",
":.:.3.3.,.,.3.:.,.3.2.3.3.5.,.6.6.2.,.,.<.,.2.3.3.,.<.,.3.5.5.:.,.,.,.>.<.,.5.5.5.5.5.,.>.,.,.3.7.3.3.,.3.3.,.5.:.,.,.5.6.>.>.:.",
"2.2.3.>.:.>.>.:.5.,.>.>.>.6.<.,.:.3.3.>.5.,.>.6.5.3.3.,.5.<.5.,.,.,.3.3.3.3.3.,.<.<.5.3.>.,.,.,.4.>.>.4.3.,.<.5.,.,.,.<.,.>.3.3.",
"6.3.3.,.3.3.>.3.5.3.,.;.,.,.5.,.,.3.2.2.3.,.>.:.,.,.>.3.5.,.>.3.3.2.3.3.,.,.,.>.:.3.5.6.3.>.3.3.>.:.>.5.,.,.,.<.3.3.6.,.:.,.5.6.",
"3.3.>.>.3.5.,.3.,.,.3.,.,.>.5.,.3.:.>.3.,.6.3.>.,.>.;.,.,.,.>.2.3.3.:.,.,.,.,.,.3.3.5.6.,.,.3.3.>.<.,.,.,.<.,.>.,.,.<.,.3.,.5.5.",
"3.5.:.$.2.5.3.>.>.,.>.3.,.>.3.,.5.<.:.>.3.3.:.,.3.>.,.5.,.3.>.3.5.5.:.,.,.5.3.5.3.,.,.6.3.3.3.,.$.5.6.3.4.2.3.3.:.<.5.5.5.3.5.5.",
",.5.,.>.,.5.>.,.,.3.>.>.3.,.:.,.5.5.3.,.3.3.>.6.,.>.,.<.,.3.3.6.5.5.,.,.,.6.,.,.,.,.,.5.3.>.:.,.;.>.6.3.2.2.,.,.:.5.6.3.,.,.3.,.",
",.5.3.3.,.<.:.,.3.6.5.,.2.2.>.3.,.,.3.3.,.<.2.2.5.,.3.3.,.,.,.3.5.3.5.5.3.6.3.,.3.4.3.,.:.>.,.5.5.,.3.3.3.6.,.3.3.6.5.,.,.5.,.,.",
">.3.3.>.>.3.6.3.3.:.3.3.,.>.>.,.,.3.5.,.,.,.:.:.,.3.,.3.,.,.>.:.,.,.5.,.>.>.,.>.3.2.>.,.>.>.3.3.6.,.,.,.6.5.5.3.3.3.6.,.,.6.,.>.",
"3.3.<.>.>.,.3.2.>.>.>.,.5.2.>.3.,.5.<.,.3.3.5.,.>.5.,.>.2.3.,.6.,.,.,.,.>.;.,.,.,.>.>.>.:.3.>.>.3.2.3.,.:.>.6.2.,.:.5.:.>.,.,.2.",
">.,.,.3.,.,.,.>.>.3.,.>.,.:.$.>.,.<.<.:.,.6.3.,.:.5.3.>.3.3.3.3.,.6.3.3.,.3.3.3.3.3.>.,.3.2.5.>.3.>.>.:.>.>.6.3.3.3.5.5.3.3.5.3.",
",.3.3.2.<.5.,.>.3.3.3.2.>.>.>.3.5.3.3.2.3.5.<.,.3.3.3.>.3.6.,.3.3.5.<.3.3.:.>.,.6.3.2.3.3.,.,.:.,.>.3.3.3.2.3.3.3.6.6.5.>.3.,.<.",
"5.3.3.:.5.5.>.>.2.,.>.3.,.>.3.,.,.>.>.>.5.5.5.,.3.3.3.3.,.3.3.:.<.5.6.:.,.>.>.3.6.3.>.,.,.3.,.3.3.3.3.3.>.3.3.,.>.<.,.<.,.3.,.5.",
"5.,.,.>.3.,.,.,.,.,.3.3.3.3.,.,.:.>.,.>.,.3.3.3.3.3.<.,.:.6.>.,.,.3.5.3.2.>.,.3.3.,.:.2.3.:.3.3.3.3.3.5.>.>.2.,.>.,.,.,.,.5.,.,.",
"<.,.,.:.,.>.,.5.<.5.3.:.,.,.:.>.>.3.3.$.,.,.>.,.,.,.3.5.,.5.>.;.3.>.:.:.3.6.,.>.<.5.3.3.3.5.5.3.3.>.,.,.:.#.3.,.:.,.,.,.,.<.3.,.",
"3.,.,.3.>.>.3.5.3.5.,.>.>.,.,.2.,.3.3.2.3.,.:.>.,.3.,.5.5.,.>.,.3.3.>.>.,.,.,.:.:.5.:.,.:.3.5.,.,.3.,.<.3.>.,.3.3.3.3.5.5.5.,.3.",
"6.3.3.2.2.2.:.>.<.<.,.>.,.5.3.3.,.6.3.>.3.:.5.,.3.,.:.,.<.,.>.3.5.5.3.3.3.3.2.3.>.5.5.,.,.>.,.,.<.<.3.5.5.3.3.3.6.3.,.5.6.5.<.,."
};
