/* XPM */
static char *result[] = {
/* columns rows colors chars-per-pixel */
"64 64 227 2 ",
"   c #020202",
".  c #0A0908",
"X  c #110F07",
"o  c #081703",
"O  c #121213",
"+  c #191815",
"@  c #1A1B1B",
"#  c #2A1903",
"$  c #0B2302",
"%  c #0D2C02",
"&  c #162705",
"*  c #0F3A00",
"=  c #133406",
"-  c #143C02",
";  c #182915",
":  c #173313",
">  c #2F2A0D",
",  c #1B2525",
"<  c #232724",
"1  c #2A2C2B",
"2  c #293329",
"3  c #343333",
"4  c #323831",
"5  c #303E3E",
"6  c #3C3B3C",
"7  c #513410",
"8  c #433D2D",
"9  c #174606",
"0  c #154A01",
"q  c #185503",
"w  c #1B5B02",
"e  c #1C4614",
"r  c #2C4D11",
"t  c #275614",
"y  c #1B6301",
"u  c #1C6B01",
"i  c #1D7401",
"p  c #1B7D02",
"a  c #25680A",
"s  c #237401",
"d  c #247C01",
"f  c #294928",
"g  c #365030",
"h  c #395437",
"j  c #356828",
"k  c #504E15",
"l  c #495216",
"z  c #704C14",
"x  c #4D493C",
"c  c #6D5328",
"v  c #5C7620",
"b  c #557032",
"n  c #353F47",
"m  c #403F40",
"M  c #3E4E55",
"N  c #434242",
"B  c #4A4B4B",
"V  c #494C48",
"C  c #544E45",
"Z  c #485749",
"A  c #50514F",
"S  c #495658",
"D  c #535454",
"F  c #545B59",
"G  c #5D5C5D",
"H  c #625B4D",
"J  c #556656",
"K  c #736149",
"L  c #6F6A52",
"P  c #515B62",
"I  c #5B6368",
"U  c #5B6C73",
"Y  c #686867",
"T  c #6E6D6D",
"R  c #697378",
"E  c #77797A",
"W  c #B63234",
"Q  c #8F580F",
"!  c #B47317",
"~  c #865D2C",
"^  c #946B2C",
"/  c #AC7B33",
"(  c #C67C28",
")  c #8C714F",
"_  c #867D72",
"`  c #DD6660",
"'  c #1E9701",
"]  c #248401",
"[  c #298202",
"{  c #258901",
"}  c #298C02",
"|  c #249601",
" . c #2B9402",
".. c #259B01",
"X. c #2B9D01",
"o. c #319702",
"O. c #319E02",
"+. c #368C12",
"@. c #26A101",
"#. c #2CA201",
"$. c #2DA801",
"%. c #32A302",
"&. c #33A802",
"*. c #39A803",
"=. c #3DA71A",
"-. c #46A51D",
";. c #4D902F",
":. c #4CA72E",
">. c #73AA37",
",. c #508C4C",
"<. c #6BB552",
"1. c #6F8A71",
"2. c #76BA69",
"3. c #76C25B",
"4. c #B1812E",
"5. c #D08E35",
"6. c #FFA023",
"7. c #AE8957",
"8. c #91BE4F",
"9. c #99886E",
"0. c #BB9569",
"q. c #D0954D",
"w. c #E78A58",
"e. c #D9B058",
"r. c #F0AD5C",
"t. c #FB9A78",
"y. c #CCA469",
"u. c #ECB369",
"i. c #89C875",
"p. c #FCC16E",
"a. c #003DBD",
"s. c #0143BF",
"d. c #6B7A86",
"f. c #727B85",
"g. c #0448C1",
"h. c #0A51C5",
"j. c #185AC7",
"k. c #2765CA",
"l. c #336FCF",
"z. c #3D75CE",
"x. c #4A7CD3",
"c. c #807E80",
"v. c #6D858A",
"b. c #788689",
"n. c #7A8795",
"m. c #5585D6",
"M. c #628ED9",
"N. c #6B98DB",
"B. c #75A2D9",
"V. c #719AE2",
"C. c #7BA4E2",
"Z. c #838585",
"A. c #8B8C8C",
"S. c #81958D",
"D. c #90908A",
"F. c #848A93",
"G. c #8A9497",
"H. c #9A9998",
"J. c #8797A4",
"K. c #919EA8",
"L. c #8FA4AD",
"P. c #97A5AB",
"I. c #98A8B8",
"U. c #A8AAAA",
"Y. c #ADB0B2",
"T. c #A5B3B9",
"R. c #B4B5B5",
"E. c #DCB886",
"W. c #DAA79F",
"Q. c #D4B691",
"!. c #F6B48B",
"~. c #F6B1A9",
"^. c #98CF87",
"/. c #B4D6B5",
"(. c #B7E1A6",
"). c #DCC39D",
"_. c #FCC98A",
"`. c #F8CD8F",
"'. c #FFD797",
"]. c #D7CCB4",
"[. c #FDDAA8",
"{. c #F5D3B6",
"}. c #FFE1AD",
"|. c #FEE4B9",
" X c #9EAFC1",
".X c #A7B7C3",
"XX c #B6BEC3",
"oX c #91B1E4",
"OX c #B6C5C9",
"+X c #B7C8CB",
"@X c #BBCCCD",
"#X c #BBCDD2",
"$X c #BFD1D1",
"%X c #B2C9EF",
"&X c #B4CDEE",
"*X c #C3C3C5",
"=X c #C2D3D4",
"-X c #CFD5D9",
";X c #CBDCDC",
":X c #D7D4D0",
">X c #C7E4C9",
",X c #CEE2DA",
"<X c #DCEFD5",
"1X c #FBE3C1",
"2X c #FEE9C6",
"3X c #FFEBCA",
"4X c #E4ECDC",
"5X c #FFEED3",
"6X c #FFEFDC",
"7X c #FFF1DB",
"8X c #C6D8EC",
"9X c #D3E4E4",
"0X c #D9E7E8",
"qX c #DCECEC",
"wX c #CBE2F2",
"eX c #D8E7F5",
"rX c #E2EBEB",
"tX c #F6EFEA",
"yX c #FFF1E2",
"uX c #E3F1F1",
"iX c #E7F2F1",
"pX c #EDF6F6",
"aX c #EFF8F7",
"sX c #EEF7FA",
"dX c #F4F7F7",
"fX c #F4FAFB",
"gX c #FEFFFF",
/* pixels */
"%.%.X.X.| #.@.@.| X.#...$.&.%.$.X.#.X.X.X.X.%.#...#.%...X.X.' ..X.#.*.*.X.| #.| X.X.X.X.X.X...#.$.X.X.&.%.X.#.#.O.X.X.X.X.X.#.#.",
"X.#.X.O.X.X.#...#.#...X.X.X.X.#.$.X.X.X.%.#.X.X.' X.%.| | X...| X.X.%.&.X.| X.#.X.| X...$.#.#...X.X.X.%.%.%.X.X.o.%.&.X. .X.#...",
"| X.| X.%.%.#...#.X.#.%.X.X.X.X.X.O.O.X.$.%.X.X.| | %.X.%.%...#.X.| %.%.&.| #.O.O.X.#.X.#.%.$.X.X.#.X.X.#.X.' ..#.#.$.X.#.X.X.X.",
"| %.X...#.#.%.#...@.%.%.X.X.X.O.X.O.&.#.X.X.#.X.| #.#.%.&.&...#.X.X.%.%.X.X.%.#.#.#.%.X.| X.O.X.X.#.#.| X.X.@.#.%.#.X.O.#.%.%...",
"$.&.#.X.#.X.X.X.%.#.%.O.| X.O.X.%.X.&.%. .| X.X.#.#.#.#.%.*.| ..X.X.%.O.X.X.%.&.#...$.X.%.X.O.O.X.X.X.X.O.%.#.X.#.#.#.#.#.%.O.X.",
"#.#.#.#.#.| X.| O.X.O.X.#.X.%.O.X.X.X.X.X.X.X.X.] s i d s { #.#.%.O.%.#.%.#.$.X.%.%.X.#.*.*.%.X...#.O.X.%.#.#.O.X.X.%.#.| #.%.%.",
"$.X.O.O.X.#.#.X.%.X.#.$.X.X.X.X.X.%.#.| X.y w w e h F S F h q w w w } &.o.X.O.o.O.%.X.O.*.%.%.#.X.#.O.X.#.#.X.%.@.X.#.#.X.X.X.#.",
"%.X.X.%.X.X.$.#.X.X.X.X.X.O.X.X.$.#.] * 9 q u j 2.>XqX0XqX@XG.G.A.b.g - - s %.X.X.X.%.X.O.$.&.X. .O.%.X.X.X.X.X.| | ..#.| | X.X.",
"#.X.X.X.X.| X.X.X.| | | #.$.#.#.{ - 0 ] p :.<.(.iXfXgXgXgXgXgXgXpXuX=XR.U.U = 9 {  .O.X.X.#.%.X.X.X.X.X.| X.%.| ' X.X.O.X.X.#.$.",
"..| #.#.#.X...X.X.X.| X.#.X...] 0 ;.<.3.2.<XdXgXgXgXgXgXgXgXgXgXgXgXgXgXaXqX=XT.h r d O.X.X.O.%.X...#.*.$.X.O.X...#.X.X.X.X.#.X.",
"' X.#.#.%.X...#.#.%.%.%.%.X.] 9 ;.^.4XgXgXgXgXgXgXgXgXgXgXgXgXgXgXgXgXgXgXdXaXuX9XG.F 9 s X.@.%.X.#.$.X.%.X.X.&.&.X.X.O.#.%.#.X.",
"..#.X.X.%.&.X.#.X.%.#.%.X.$.s t i.<XfXfXgXgXgXfXdXgXgXgXfXfXgXgXgXgXgXgXgXgXgXfXpXuX9XG.J p | X.X.X.#.%.X.| #.#.X.#.%.$.#.#.%.X.",
"#...X.X.#.%.%.X.%.X.X.%.....a j (.iXV.x.%XgX%Xx.m.&XgX&Xm.oXsXgXgXgXgXgXgXgXgXgXgXpXuXqX+XZ : } X. .*.O...@.#.X.X...&.&.X.X.X.O.",
"@...X.#.$.%.$.#.%.X.%.X.| X.$ 2.<XsXM.a.N.dXV.a.s.C.gXN.a.M.fXgXgXgXgXgXgXgXgXgXgXgXuXqX0X$XP.f } X.X.#.#.#.X.#.#.#.#.#.#.$.%.X.",
"@.#.#.#.X.X.%.#.O.X.X.%.%.#.$ ^.dXgXoXa.l.eXm.a.a.x.fXz.s.oXgXgXgXgXgXgXgXgXgXgXgXgXfXuXuX;X$XL.f { #.#.#.X.X.#...@...X.O.$.$...",
"X.| X.X.X.X.O.#.X.O.X.X.&.&.; /.gXgX8Xh.h.%Xl.h.s.l.&Xk.j.wXgXgXgXgXgXgXgXgXgXgXgXgXgXqXqXqX$X+XS u | X.X.X.X.X.X.$.#.$.$.X.%.#.",
"| X.X.X.X.#.%.O.&.%.%.#.#.&.2 >XfXgXeXl.g.C.g.x.j.k.N.g.l.fXgXgXgXgXgXgXgXgXgXgXgXsXuXqXuXeX$X+XL., ..X.X.#.#...X.#.#.X...X.X.X.",
"| #...| X.#.#.X.&.%.%.%.%.&.< >XfXgXfXM.a.k.a.oXm.h.j.g.B.gXgXgXgXgXgXgXgXfXaXaXpXuXuXqX9X$X#X.XL., X.| #.X.....@.X.X.| ..O.*.O.",
"@.....#.#.#.X.X.X.X.X.#.O.%.q A.pXgXgXoXa.a.g.%XoXa.a.a.&XgXgXgXgXgXgXaXpXuXqXuX9X;X;X;X$XOX XI.P q X...X.X. .$...%.X.X.#.%.O.X.",
"..' ..@...| #.X.X.X.X...%.O.d F 9XfXgX&Xk.h.z.8XwXj.h.k.uXgXgXgXgXfXuX0X=X=X$X#X$X+X+X X XI.n.P q X.#...X.#.X.%.X.&.$...X.X.X.O.",
"| | X.%...X.X.X.#.X.#.| X.X.s S ;XpXgXgXeXwXeXfXfXwXwXeXgXgXgXsXuXpXuX,X;X+X.X.XI. XL.n.U P : q | ..X.....&.X.o.O.%.#.X.X. .X.X.",
"| X.#.%.#.#.X.X.X.X.O.X.....s Y aXaXaXaXsXsXsXsXsXdXdXdXpXdXsXsXaXaXsXuXqXqX=X#XOX XK.d.5 * ' @.....#...X.X.#.#.X.O.O.O.#.*.#.$.",
"#.#.#.X.X.#.$.&.#.X.#.$.@...s h /.#X$X$X=X#X=X=X=X=X=X=X=X=X=X=X@X@X=X=X$X=X$X$X#X#X+X Xn.f { ' #...#.#...X.%.#.#.&.&.%.#.&.#.X.",
"$.#.#.#.O.X.o.&.&.%.%.&.@...| q , 5 D Y c._ T I G Y S S f.R I T R S 5 5 Z d.J.J.J..X#XOXI.v.e { #.| #.....%.%. .#.&.&.%.X.%.%.O.",
"X.X.X.X.%.X.O.O.X.#.X.&.X.X...y   c 0.) E.u.5.T 1 / #   E R.T F Y.Y.<   G A.V I S P d.b.d.1.,.e ] X.#.@.| #.#.%.X.O.%.X.X.#.X.#.",
"X.%.X.$.%.X.X.X.| | X.O.X.#.{ l > q.~ X > 7 5.e.C K 5.# . A.A.@ B U.1   O U.A.f.U.+ ~ c % e 2 ; w #.#.X.#.@...#.#.X.#...| O.X.O.",
"%.%.#.X.X.X...X.| ..X.X.X.%.s k r c X   .   7 5.q.L _.5.  . D 3 O Y @     T ].n c.. q.`.c y i d  .#. ...X...| X.X. .%.X.X.X.|  .",
"X.X.X.X.X.| X.X.@.X.X. .X. .s q =   . E H.X o 7.`.u.E.r.x +   1 X 3 O @   1 Y.1 h   ! '.L i ' ..%.X. .X...X...X.X.X.O.X.%.%.%.X.",
"X.X.X. .| X...| ..| X.X.| X.s r > @ A.1 < v T }.[.}.[._.4XG.      @ + A.    E < @ # ! e.j a $.*.O.X.%.X.#.X...#.#.X.#.X.X.#.#.X.",
"%.X.&.X.X.&.#.X.#.#.X.%.#.#.X.r x 3 :XB & v ].|.2X3X3X}.5X4Xx #       E F   B @   Q 6.q.9  .X.X.X.%.&.%.X.#.#.X.@.X.X.O.%. .X.X.",
"%.%.&.#...%.#.#.$.#.O.%.%.*.X.y Y G K 0.8 ) {.5XyX7XyX6X3X{.0.4 +     x 7.  <     Q p./ w o.X. . .X.X.X.#.X.#.X.....O.X.X.X.X.#.",
"o.X.X.O.X.#.$.%.#...X.%.X.O.X.%.r Y C yXtXyX3X1X2X5X3X2X5X6XyXtX{.7.. + u.z     O ~ / r O.O.X.#.$.O.X.#.X.#.X.X.X...X.X.X.X.#.#.",
"X.X.X.#.X.%.#.X.X.| X.X.X...#.%.u 2 C 7X7XyX2Xw.t.!.!.` `.7XyX7X5X'./ > u.z     Z Y o X.&.X.X.$...#...#.....#.X.&.%.#.X.#.X.O.X.",
"X.#...#.X.X.X.#.#.%.#.%.#.$.#.#.X.o X H.7X5X2X` W ` W W !.7X5X3X|.[.r.7 ! ) 2   : b % | %.| #.@.X.| | X.....#.X.O.X.%.X.#.%.O.X.",
"X.X.X.| #.X.O.O.%.&.%.%.X.&.%.X...] o   9.).3X{.W.` W.~.{.|.}.[._.p.4.> 9 -.& % w % d #.#.X.#.#.%.X...#.%.#.#.X.O.X.%.%.%.#.X.X.",
"..X.%.| #.X.O.%.*.O.%.$.#.%.X.#.X.#.] o = r 9.E.!.!.!.[.'.'.u.5.5.z 9  .O.] 0 { O.O.#.| X.%.O...#.X.X.&.%.o.X.X.o.X.%.%.X.#.#.#.",
"#...X.X.X.#.#.X.O.O.o.O.#...| $.#.@...d q } w l ~ / / / / ! ! c H ; q o.O.s { X.%.%.#.| #.#.#.| X.X.%.#.%.X.#.X.%.X.&.%...$.%.X.",
"%.#.....#.X.X.X.%.%.#.*.X.| ....X.X...X.]  .O.} q # L D.C y./ G.J.S F.f } X.X.X.X.#.X.X.#.#.X.X.X.X.%.#.X.#.X.X.O. .*.X.....#.#.",
"..%.&.#.%.X.X.X.%.&.X.#.X.| X.| X.X.#.#.X.X.O.O.= f.P.b.Q.Q.*XuXT.d.$XI.f o.#.X.#.&.%.X.%.X.O.X.| @.X.#.#.#.X.X.o.X.&.X.| ..| X.",
"' O.%.X.X.X.#.#.#.%.....#.X.$...#.X.X.#.X.X.O.s h f.dXG.H.OXdX9XJ.d.#X9XE q *.&.%.O.O.O.O.*.%.X.#.#.| X.X...#.%.%.%.X.#.#.#.#.#.",
"| | X.X.X.#.$.#.X.X.| X.X.X.%.#.....X.O.%.X.#.* S G.T.1.R.OXF.F.J.n.n.rXT.h { *.X.X.X.o.O.%.O.%.X.X.#.#.X.X.#.&.$.%.X.#.#...%.#.",
"%.@.X.X.X.#.X.X.O.X.X.X.X.X.%.O.{ { | %.%.} y j Z =XR n.F.n.I.T.OXL.M *X;XI w #...%.#.#.X.X.O.%.O.X.X...#.#.%.#.O.O.@.#.X.X.X.@.",
"#.@.%.#.#.X.| X.$.$.&.X.X.X. .t x Z g u y = q :.1.,Xn.M I.=XrXdXeXK.S S XXOX2  .$.&.#.X.#.X.#.%.%.| | | | ..%.X.X.X.X.#.o.X.X.| ",
"#...X.#.X.X.| X.X.X.%.#.X.X.} r 7.}.].x 9  .:.<.n.v.H.G.9XdXgXfX9XR H.H.U.9XR w X.#.#.X.#.#.@.&.*.%.| X.X.X.X.@.$.X.X.#.%.X.X.| ",
"X.#.X.X.#.%.@.X.%.X.X.X.#.X.d b y.|.5X!.L =.:.,.f S K.I.;XfXsX;X#XI H.T + B S.:  .X.X.X.#.%...#.%.#...$.$.#.....#...#.#.%.@.X.X.",
"&.%. .| X.%.X.@.&.%.| ..X.#.4 {.7X5X}.u.L ,.j % q D P.T.0XdXuX-XT.n.D ].].Q.K M 9 ..| X.X.X.X...#.%.X.X.#.#.....#.X.X.X.X.| #.X.",
"#.%.X.%.X.%.X.$.%.O.| @.X.X.8 5X3X'.r.^ r - y X.= i.P.OXuXdXgXuX#X_ y.u.6X2X`.7 9 X.#.%.X.#.#...X.X.%.X.#.#.@.@.@.X.X.| X...#.%.",
"#.X.%.&.#.O.#.X.O.O.#.#.#.#.t K c c k w [ X.X. .= :.1.*XgXdXgXrX#X_ ~ ^ 3X|._.( - X.#.$.X.X.X.X.X.| O.X...#.@.#.| %.#.X.....X.X.",
"X.| X.#.X.X.X.X.X.O...$.X.&.X.d d i ] X.#.X.X.$.s : 1.J.F.A.b.U P m L x Q.u.r./ - o.O.X.| X.X.#.%.#.#.X.#.#.#.%.X. .X.%.&.' #.X.",
"..X.@.#.X.| | X.O.X...@...%.%.X.X.#.#.X.%.X...%.} = ^.;X$X.XI.J.d.c.D R.G C C z x u *.X...X.X.X.%.#...#.#.#.X.%.X.X.#.%.X.| O.#.",
"$.#.X.X.#.X...#.%.X.X.| X.#.%.X.X.#.#.@.#.X...X.] * =.>XuX#XF.P n 3 @ E H.D.Z.@ < - w s #.@.#.#...X...%.X. . .O.$.#.%. .| X.%.$.",
"$.X.X.@.#.&.X.X.X.X.#.X.X.| %.X.X.X.| #.X.&.#...' q f 9.f.S Y D E D 3 1 1 1 1 3 1 3 3 ; u X.#.#.| O.X.X.X.%.#.X.X.X.O.X.#.X.%.%.",
"X.O.X.| ..%.#.X...X...#.X.| #.#.O.#.X.| #.&.| #.@.i k e./ . E Z.Y.D m B G D N B G B N @ 0 @.#.X...#.&.#.$.@.#.....o.*.*.%.#.*.O.",
"X.*.#.| X.%...X.| $...| X.#.X.X.%.%.X.X.X.#.| %...u e 8.q.  A A E 8 m G tXH.G T dXA.3 O 0 ..X.X.| ..$.#.@.#.X.X...O.%.#.X.O.X.X.",
"X.%.$...X.X.X.X.#.%.%.#.@.@.| X.X.#.#.X.X.O...#.#.u 9 8.q.  3 3 A m m G gXH.R.Z.gXA.3 O 0 | X.%.%.X.#.#.$.#.%.#.X.%.%.#.X.%.X...",
"| #.#.X...#.%.#.X.#.#.X.X...X.X.X.%.%.X.X.X.| X.| 9 +.>.k - 1 1 m m m G dXU.R.Z.gXA.6 O 0 | #.$.%.#.X.X.O.*.%.#.%.#.&.X.X.&.X...",
"@.#.O.X.| X.#.@.X.| ..X.X.X...X.X.%.O.X.X.$.#.X.s - *.8.& y < 3 B m m m A.-Xc.*XY.N 6 O 0 X...| $.#.X.X.X.X.&.@.X.X.%...X.X.X.@.",
"X.X.X.#.%.X.X...@.#.X.X.X.X.' @.X.O.O.X.X. .y y 0 -.;.c & y < 3 m 3 3 3 3 6 3 3 3 3 3 O 0 X.O.| X...| X.| ..$.#.@.X.%.X.#.X.%.X.",
"X.#.#...X.%.#...#.#.#.@.| | ..@.$.#.#.@.O.q r O = r &   o } = . O   .     . . .   . . o d X.X.X.X...#.X.#.X.$.X.X.&.%.*.| #.#.O.",
"%.#.X.X.%.%...| @.X...#.#...#.O.X.X.| ..o.o &     o s $ o %.{ u .       $ u u i d d i ] X.X.X.#.#.$.#.X.X.@.#.#...O.%.O.X.#.| *.",
"%.X.X.| #.#.| X.X.X.X.#.#.#.X.X.| X.X...#.#.#.#.#.#.X.X.X.X.X.X.X.#.%.#.@...#.#.%.X.....#. .#.#.#.#.#.%.| | #...| X. .X.#.*.| X.",
"%.X.X.X.X.X.X.&.O.%.#.X.#.X...| X.#.X.' #.X.| X.X.X.#.%.#.%.| | X.| X.X.#.$.O.| O.O.X.#.#.%.%.#.@...X. .X.' #.X.X.X.$.X.X.O.#.X.",
"$.X.| #.| ..#.%.#.%.X.| X.X.X.#.X.#.#...X.X.X.| X.X.X.&.%.X.| X.%.X...| X.X.X.X.X.O.X.X.X.#.%.#.X.#.X.%.#...#.#.#.#.#.%.%.%.X.#.",
"%.#.@.#.@...| X.O.O.X...X.%.#.@.X.$.#.X.X.X.O.X.#.X. .X.%.X...#.O.&.#.#.#.#.#.....O.%.X. .| X.X.O.X.X.*.%.#.X.#.&.X.%.%.%.%.X.X."
};
