/* XPM */
static char *result[] = {
/* columns rows colors chars-per-pixel */
"64 64 220 2 ",
"   c #0E4100",
".  c #1D6E00",
"X  c #267900",
"o  c #5D5000",
"O  c #5B5500",
"+  c #644800",
"@  c #6D5F00",
"#  c #775500",
"$  c #785400",
"%  c #715B00",
"&  c #886600",
"*  c #896600",
"=  c #996600",
"-  c #9A6600",
";  c #997700",
":  c #9A7800",
">  c #AA7700",
",  c #AB7700",
"<  c #AB7800",
"1  c #1D9600",
"2  c #1D9700",
"3  c #1D9800",
"4  c #1D9900",
"5  c #238000",
"6  c #238100",
"7  c #248200",
"8  c #298500",
"9  c #258800",
"0  c #288E00",
"q  c #269300",
"w  c #229500",
"e  c #229600",
"r  c #229700",
"t  c #279600",
"y  c #279700",
"u  c #2F9700",
"i  c #229800",
"p  c #229900",
"a  c #229A00",
"s  c #229B00",
"d  c #279800",
"f  c #279900",
"g  c #279A00",
"h  c #279B00",
"j  c #229C00",
"k  c #229D00",
"l  c #229E00",
"z  c #229F00",
"x  c #279C00",
"c  c #279D00",
"v  c #279E00",
"b  c #279F00",
"n  c #299900",
"m  c #2B9800",
"M  c #2B9900",
"N  c #2A9A00",
"B  c #2B9A00",
"V  c #2B9B00",
"C  c #2F9A00",
"Z  c #2F9B00",
"A  c #2B9C00",
"S  c #2B9D00",
"D  c #2B9E00",
"F  c #2B9F00",
"G  c #2F9C00",
"H  c #2F9D00",
"J  c #2D9F01",
"K  c #2F9E00",
"L  c #2E9F00",
"P  c #2F9F00",
"I  c #329B00",
"U  c #329C00",
"Y  c #329D00",
"T  c #329E00",
"R  c #339E00",
"E  c #329F00",
"W  c #339F02",
"Q  c #359F00",
"!  c #22A000",
"~  c #22A200",
"^  c #27A000",
"/  c #27A200",
"(  c #27A300",
")  c #27A500",
"_  c #27A600",
"`  c #2BA000",
"'  c #2BA200",
"]  c #2BA300",
"[  c #2FA000",
"{  c #2EA100",
"}  c #2FA200",
"|  c #2FA300",
" . c #2BA400",
".. c #2BA500",
"X. c #2BA600",
"o. c #2FA400",
"O. c #2FA500",
"+. c #2FA600",
"@. c #2FA700",
"#. c #2FA800",
"$. c #2FA900",
"%. c #32A000",
"&. c #32A200",
"*. c #32A300",
"=. c #35A000",
"-. c #35A200",
";. c #35A300",
":. c #32A400",
">. c #32A500",
",. c #32A600",
"<. c #32A700",
"1. c #35A400",
"2. c #35A500",
"3. c #37A500",
"4. c #35A600",
"5. c #35A700",
"6. c #38A200",
"7. c #38A300",
"8. c #3EA000",
"9. c #38A400",
"0. c #38A600",
"q. c #38A700",
"w. c #39A503",
"e. c #32A800",
"r. c #32A900",
"t. c #35A800",
"y. c #35A900",
"u. c #38A800",
"i. c #3CAA00",
"p. c #4E9900",
"a. c #5A9905",
"s. c #659900",
"d. c #669907",
"f. c #729A00",
"g. c #8B8F00",
"h. c #889B00",
"j. c #8B9B00",
"k. c #979B00",
"l. c #909C00",
"z. c #939C00",
"x. c #9B9900",
"c. c #999C00",
"v. c #9A9C00",
"b. c #9C9C00",
"n. c #919C0C",
"m. c #A28900",
"M. c #AA8800",
"N. c #AB8900",
"B. c #B28900",
"V. c #B08A00",
"C. c #B68800",
"Z. c #B78800",
"A. c #BB8800",
"S. c #BC8900",
"D. c #A59C00",
"F. c #B49A00",
"G. c #B59B00",
"H. c #BB9900",
"J. c #BC9A00",
"K. c #8DAF00",
"L. c #92A200",
"P. c #96A400",
"I. c #94A700",
"U. c #9AA600",
"Y. c #91A800",
"T. c #85B100",
"R. c #80AB19",
"E. c #95A517",
"W. c #A5A700",
"Q. c #AFA800",
"!. c #B7B100",
"~. c #9DAF20",
"^. c #9FB320",
"/. c #CC9900",
"(. c #CD9A00",
"). c #CD9A09",
"_. c #CCAA00",
"`. c #DBAB00",
"'. c #DDAA00",
"]. c #DDAB00",
"[. c #DEAB00",
"{. c #DEAC00",
"}. c #DDBB00",
"|. c #DDBC00",
" X c #DEBD00",
".X c #EEBB00",
"XX c #EFBD09",
"oX c #EFBC0A",
"OX c #EEBC0C",
"+X c #EEBB11",
"@X c #EEBC10",
"#X c #DDAA22",
"$X c #DEBC30",
"%X c #D9C400",
"&X c #EFCD00",
"*X c #EECC11",
"=X c #FFCC11",
"-X c #EECC22",
";X c #EECC33",
":X c #D2D547",
">X c #EFCD42",
",X c #EFDE42",
"<X c #EEDD55",
"1X c #EFDE54",
"2X c #EBE85C",
"3X c #EEE85F",
"4X c #FFEF54",
"5X c #EFDE66",
"6X c #EEDD77",
"7X c #EFDE78",
"8X c #FFEF66",
"9X c #9FD38E",
"0X c #EEDD88",
"qX c #FFEF89",
"wX c #FFFFBD",
"eX c #DDDDDD",
"rX c #FFFFCD",
"tX c #FFFFDE",
"yX c #FFFFEF",
"uX c white",
/* pixels */
";.} D ` s ' ` b a A | b | >.,.+.} [ A B | F [ ' v P | v g M 2 h A K 7.5.c x ` h B B Z S G ` z ] | V K 2.1.K ` | ;.S K M f S ] ' ",
"F P f G g F / v ` F c f H F D ' ..` G D +.' D } p A %.a f H l h A c ;.;.K p D K A a g v O.../ v H S F | | P g B G *.@.P M h F ` ",
"r B g h } &.' v ' D ' [ [ h B G h P [ c ..>.K V e f &.F | | F ` h h E <.>.g } K [ F | ^ ] O.o.h V ' c F F P j c ` | | } } S A D ",
"g >.S b | P *.] ` b >.2.F A A E Z Y 5.} h H K h p F ' | e.q.s F S F &.*.[ S E } | } E B f V T S A ` F g A H j ( o.^ h E | | &.v ",
"| $.} ' ' S S A [ ' *.%.a V P D E P :.*.g t V F ' ] ' | ;.;.a x P x %.P V A *.+.' F | v | K H E D b ` f [ :.] S ' ' ` | ` K Q S ",
"| | } ` D f g g Y D P H ` h [ E F F D H V B A h } } ` P K | ` | &.K ;.[ *.} ..D | O.` [ i.u.| } D ` H D | | o.%.v F :.' g ' >.} ",
"..[ [ [ S } ' F *.` [ ..[ V B U P | F S A ] +.' ` | O.K H V B F 2.O.,.*.G } *.G P :.S G ;.:.*.} g [ %.P ' ` A *.b f ` | c x F P ",
"&.V K P S D o.| D c v S F } S D +.,.| D z c K <.] ` D F U C H A } ' o.5.*.>.;.G G S } K } O.4.F m U %.V c F G B a A h K s i V S ",
"[ V K H V f A S G f w d v +...' ` *.] ' j h %.e.<.2.V K P x A c K g [ } 5.| F K [ H %.} ] } &.S B B G H A D &.r 1 S D T h c | ..",
"s h ^ ] } S j K A Z d S [ A S d y A ] ` v D O.' H *.*.;.;.c c a B d H } :.[ ' S H [ E E A V %.%.A v ] *.| S K D v F V Z F [ [ F ",
"a S F ' *.S h ' ^ :.,.>.} A d f B G V %.K K [ h V B V %.[ c v c x } ' O.` A [ v %.K P D H F ` &.b o.O.} &.g H :.2.F G P | >.[ g ",
"v F P A *.<.F F S &.} &.` ..*.>.<.F K Y C } | ] ] v f G P | F h ' | V H D [ A p ;.S K D x F c A [ P } &.` s F } K D >.O.| ] >.A ",
"D s V G ] O.>.F [ G K &.x x *.| e...' D D K F ` S c ` P E &.*.` | | c F / :.v g [ ` &.[ z k h K H Z E K k ] ..D B D ,.,.S g D &.",
"( v h |  .,.:.| ;.[ [ P r B g G K k | ~ b F g B V V *.1.,.] | ] F F V ` x S D h [ ' b ,.] k g K D P F ' b | V [ ` ] ..} } | | ` ",
"^ b [ | S S *.] K [ F %.*.| ` b c c F a x j ' P k S &.;.&.[ D A P D B P B d V x P ] j :.K V >.P F c ` ' D F B } b ] j S &.| O.v ",
"x x D V S A E F S K B F e.e.r.F v A Z H ] l c D v | D D &.' x d V G P H S F | | F p F ' x P 4.S [ j x D D F F S S O...#...[ *.` ",
"h B A A H | %.H 2.>.*...] ,.%.H D S K P A s ^ D B V h D ` F a a | >.<.O.O.<.*.[ ` h H A e E :.s E B f V x F ] c A ] ] ' v H P F ",
"f b x g V ' ' D >.:.*.| | 1.' } B &.| D U s ] } D g x | ' i r c O.4.%.S D } *.H h D &.A ` &.A S *.*.D s ` D V j F D y y y Y E K ",
"( l s ` ] D A D P G B P &.-.,.[ V | D S *.l A H ` P d A F r i F &.;.K S V G V D ( | >.F [ ..s F 5.F D f g K A o.c *.` S ` *.;.` ",
"s i f ] v h F F F S h S &.%.*.o.' +.` | t...D [ F 4.a i S B s v P E *.' S g f ` _ ` D S f X.O.K *.` F x S } S &.S >...c ` S K H ",
"d e F | c g K b ] } ` p B A V T %.F [ ] *.2.| H i *.v v n 5 5 6 8 8 N P *.` l ..O.h h S D | | Y g g S x v >.x I E *.} A K H f H ",
"a h | } P [ D D A B T S c g T V A g P x G -.>.} i M u   8X4X(.{.{.{.`.Q.U.` b ` G V a a h B T K h V ` x h V F ` F K =.%.` *.] | ",
"v ' | S D | | 2.K A } @.( k F [ S x S j ` &.[ | b . 8X8X(.(.{.S.< < * $ % l.Y.S S D V S p i S S ] c F F ` S [ ` ` ,.4.;.] >.| F ",
"+.| [ [ P A G 5.<.>.o.y.b k s H [ [ *.3 x *.S H 9 qXqX(.{.(.(.(.(.(.(.(.A.# + f.F ] ` P V c / D D p K F x *.%.G ' e.<.*.` o.*.G ",
"A S f ` :.A T E S K K *.S v x [ } -.P x c F g X tXrX(.{.(.{. X X{.{.{.].'.H.H.o j.&.] | } | ^ S A D ] b i *.] *.[ P | H g } [ F ",
"K *.} X.O.S S V w h A P F | F *.} Z V c ` v q uXuX(. X).{. X X X XS. X].'._.H.# h.| ,.o.O.` ` ] ` | P h F b ! ] [ V ` h g P B K ",
"&.;.| K H h g S a b V B } | K | <.' P ` p i 7 uXuX(. X{. X X|.|., [.J.'.'._./.H.@ b.:.D ` F i *.<.o.B d A g a h g H P x S S f B ",
"B S H x A f f x b S g B g A } t.*.D v F a h 9XuX{. X{. X X|.}.; H./.6XH.'._._./.# x.S ' x S p H %.S S V h V B V S P T A &.} [ A ",
"S A A g f S c g x p x P r g ' -.K S F [ S h yXyX(. X{.< H.H.}.; H./._.H.'.> A.H./.O F.| A *.<.:.Y S 2.D F A h [ ' S ` F P P K F ",
"} [ >.V h <.] S ] F D | | ` ' E D J K Y g j wXwXS.&XXX- /.=XH.M.H./././.A./..XA./.# /.[ P *.[ K K | e.} F b } F ^ S ` } %.A A D ",
";.&.:.] v :.[ o.@.] T } *.7.F ' K y Z &.c 4 qXqXN.,XXX- M./._.M./././.M./.H.H.> /.# /.M 9.S f m V P S K ` F | S h h E A H h D F ",
"G S P P x | | | F c K %.Z E | >.%.x ' #.v r 3X8XN.1XoX}.= M.H./././././././.> _./.& /.g ;.H A [ ] P B F ` [ F S V g V A A S | [ ",
"V S v K x | | [ V d V P D l | :.` | o.' S ` 2X8X< 5XOX}.}.= H././././././.A.'._./.= /.o.1.` D O.^ D h F x h K S :.| ] ' | [ E V ",
"S ' v ' F B G ` ' O.| | | ] | F V A H V | o.:X>X: 7X@X}.; H.H././././././.-XH._./.; /.P %.h ` ^ c p f F c ~ ' H Q [ *.x } %.K f ",
"c S V s ..H H [ *.1.:.>.K :.>.c v K P [ e...^.$X: 0X+X; H.H.H./././././.H.H.*XH./.> G.D [ H ] ( >.g h [ &.' ` S Y V *.*.} P ` b ",
"v A E h ^ S P &.-.-.*.O.] | D ] b | ` L 0...R.#X& 0X+X= = = ; H.H./.H.H.> = = > H.m.D.p S &.P h } D [ *.E Z A H G S } %.D | ] ' ",
"` c M A S ` | | =.Q T H ` x r | | ^ a F | { d.n.# 0X+X}.}.}.= = > /.M.= ; '.'.'.M.z.` A ` | ' a S F 1.[ } K F F } K 2.[ ^ | | [ ",
">.` h c F K V V *.*.| ;.d i x h B v l S F 0 T p.M.# 0X+X}.}.}.}.= /.A.}.'.'.'./.V.v.A A ` } ` h B S | P F ` F ` [ V ;.} v h ' ' ",
"k | >.| [ H V S :.5.' ] S g x i G S ' F K A R s.g.# eX+X}.}.}.}.= H.A.}.}.'.'.A.k.2.} F &.H T A g b F ` ` ] A C Z K *.S r h a V ",
"2 K *.S E / ' ` ` [ k v ] F } b ] D F } S A K K a.E.A.eX+X}.}.}.= = > }.}.'.'.Z.I.T P P ;.1.*.D ' / d S ` v P %.P &.K P ' X.` ` ",
"a p S f B | o.] P B i S F A &.' h c h E :.F ] ( F W ~.A.0X+X+X}.}.}.}.}.'.A.B.W.' D K Z T ;.E %.| D K P F D } ,.O.*.S ] ..F *.| ",
"*.c A [ ` | K v P S B V ` x | | V b ' E *.} b ( ..} &.O.c.<X;X+X+X+X'.'.C.P.L.[ A %.' ` S K K *.G M V k b ` :.[ K K D ] A y H v ",
"} v %.` ` c d S O.O.:.K S S [ } v b l Z P K f A ` O.| ` v 3.8.A w.%X!.K.T.O.} ] O.*.` v ' D F ;.*.g r i g h &.F ` D ` ..H Z B 1 ",
"F v ` ' A V h S [ F } } h G T H A S p d %.&.S V P ' x A p D S G U D } } >.` c ' ] @.] V [ ` / ,.q.| k S f f P b O.b S } } [ M y ",
"K } V A F *.v c &.` x S ' F } F a A a F *.:.>.S B A p x x V D D P | D D | D c H V F V V [ &.c ] &.' c o.O.' c a K j ..| [ b K B ",
">.=.d t K 5.S / <.&.f a S ` ` g a V x ` P 5.o.x A S p d V x o.*.>.} P x V S H E Y V h F A H V x ` 1.S ` @.' v s [ S F S D a ] ` ",
"X.[ P | [ *.H | ,.T h F D c ` S ` A &.[ f =.G S >.| ` D D D D :.} F [ S x c Y &.%.A ] | h F ] k g K *.v ^ ' / / ( P d e h j ' *.",
"' D [ <.| K } F G E S ] ] [ A ` | x :.| A K H S >.[ %.g j | P F F D v x [ } ;.;.*.P *.o./ ^ P S V d H H c ' b ` s P } A c l A A ",
"V f S P A D D M B [ v ..D 9.F o.O.c A H K S F O.P V H A ' t.;.g Z H A x H P 5.7.;.%.%.H h A D } t.] F K ' ] P P B G S *.+.l A B ",
"b ` / F B d f M T S c b v *.[ K B ..] V &.S k *.P [ } ' *.%.K V A D D b ` } F b F %.;.F x D S A | ` l | ] P G 2.K g P K D p H | ",
"@.] F D F [ b ` ;.F A e h F *.F A ` ` ! ] F x B G } z F &.D h ` ' / ] | x S D 3 x | >.e.' b ] ' s d f | A G C E ] ] *.B d V 2.+.",
"o.P B l / 4.S D [ c ' v A p ;.S K S f b F >.' x A i r S A S k ` | ^ x S A S D D F ] | t.H A [ ` k P G H A P D V h K Q [ ' b -.*.",
"F =.V s j ;.P c v h k ] F V P P E [ h g ' | g P ' k A ;.D ` v v ,.&.y A P [ | ;.D A S 0.&.` ` A s | >.....^ ' F d U ;.*.} | *.*.",
"P 1.S s h ;.v F g ' x a ^ F g F :.*.[ A ` P a *.P x c %.D ] ` O.>.E B G S -.K Z A x ` | ] s A V e g +.) ( ` S S a %.t.| D H K D ",
"h &.| ^ D T B A ` >.:.D ' ! p S F D } [ V K k ' [ A | [ Z M c | 1.} *.| o.+.` A ` ..] K g p S *.&.D / | O.>.*.} [ | q.D ` *.A x ",
"j | | x a | *.` D S | K D k x G S | *.h S K B V F F P ' F D x B V ` | F v k S S ` ( l D V s ` ..4.P D K %.;.5.' [ ] 4.S S | D b ",
"( | Y V d P P D v f x B P b j D P &.T g ] +.%.V g *.D a ' b F | K D D Z p d H F x g s i A ` h p o.] F H B S e.^ A A &.S c A P ( ",
"h H F ' K K S l b F S g K g 4 z K K H h D *.| x g E } j +.] ] @.} | ' } D ` ` } *.F x D O.F T f D s g B g a o...' ` | | ' S *.D ",
"V ` ' b K =.v k ( | ] ^ h r A ` | ' ' / %.6.&.l } [ ` b | [ A ' [ *.} ' P S g D :.O./ ' | h Z h S x F F ' ` | ' F :.5.;.g ' [ H ",
"*.| ] V } *.a a b D x ] D c F Y H h a x -.;.*.v o.] | ` D } S A U *.:.S A i h / +.o.j S A D F | | O...F h b ] D d %.%.Y A ' v ;.",
";.D S a } ` x G G V F ] ' | D V g V g a P ' F } | F D S B [ v x V [ %.} ] x S [ | D g v D B F ] ` F | %.g i F v d V Z C P %.A ` ",
"%.F G d S B S 0.[ &.} A F D V s x } ` 4 P S a S S A ` *.} | y f F x B B  .o.H d Q %.x  .F &.:.] / v Z Z V 3 | D x b ` x A E F D ",
"| F x ` a g ` ,.] *.V y g S V F S ] ] b F F A p K [ D :.;.A a F | F c r F K A g A =.d A h | :.` H [ S P D p P [ } | ] >.5.*.F | ",
"1.K ( ] ! j g h H T S v D &.} / S O.` S A g P D F H y A T A k [ } 2.' ] ` } b / f } *.Z M d S D G K F 5.4.| b ..>.v H *.:.*.K V "
};
