/* XPM */
static char *result[] = {
/* columns rows colors chars-per-pixel */
"64 64 80 1 ",
"  c #000000",
". c #301C00",
"X c #421C00",
"o c #423000",
"O c #543000",
"+ c #544200",
"@ c #664200",
"# c #664209",
"$ c #784200",
"% c #784209",
"& c #665409",
"* c #785400",
"= c #785409",
"- c #895400",
"; c #896600",
": c #896609",
"> c #9A6600",
", c #9A6609",
"< c #9A7800",
"1 c #9A7809",
"2 c #89661C",
"3 c #9A781C",
"4 c #AB7800",
"5 c #9A7830",
"6 c #1F9701",
"7 c #1E9800",
"8 c #249701",
"9 c #299701",
"0 c #259B01",
"q c #2B9D01",
"w c #319E02",
"e c #26A201",
"r c #2CA201",
"t c #2EA801",
"y c #32A302",
"u c #38A703",
"i c #33A802",
"p c #3AA903",
"a c #AB8900",
"s c #AB8909",
"d c #BC8900",
"f c #BC8909",
"g c #BC9A00",
"h c #BC9A09",
"j c #AB891C",
"k c #AB8930",
"l c #CD9A00",
"z c #CD9A09",
"x c #CDAC00",
"c c #CDAC09",
"v c #DEAC00",
"b c #DEAC09",
"n c #DEBD00",
"m c #CDAC1C",
"M c #DEAC1C",
"N c #DEBD1C",
"B c #EFBD00",
"V c #EFBD09",
"C c #EFCD00",
"Z c #FFCD00",
"A c #FFDE00",
"S c #FFDE09",
"D c #EFCD1C",
"F c #FFCD1C",
"G c #FFDE1C",
"H c #EFCD30",
"J c #FFDE30",
"K c #BCAC78",
"L c #FFDE42",
"P c #FFEF54",
"I c #FFEF66",
"U c #FFEF78",
"Y c #BCAC89",
"T c #BCBD89",
"R c #BCBD9A",
"E c #FFEF89",
"W c #FFEF9A",
"Q c #CDCDBD",
"! c #FFFFAC",
"~ c white",
/* pixels */
"yyqq0rrr0qt0ryyiqrqqrqwr0ry09q69qruu90r0q9q0qr0rtqquyqryyqq99qrr",
"qr9w9qe0r0q9qrqrtrqqirqt00y08q00qqyyq0qq909rtreqqqqyyq9qwyiwq9er",
"899qyyrqrqrqr99q9wrqriq980yqty0r90wiy0rwwqyerit9qrqqqy70qrtrrq9r",
"0tqerqyre0iiqqqyqwur9qqq8qryiu0qqryyrqwrtrw909wqq0r0qqeriq0wrryq",
"rirrr0qqwryy0qyqwqiy99qqrrryyy00r9ywqqyirqrqyqwwqrr9yyrqrrqrrwwq",
"rtyrq000wqwqr9rwrqqqq9q9rrrqqyqyywyqyrrqyrrrppyrqqwqyrrwqqir9tyr",
"tqyqqrrqyqqtr99wqyrqqrtrrrtqqq9qyiiyqrywwyqwyyyy0ywqrrqi00rtq9qy",
"wqwwqqtrqqrqqyqqrit0e0wtrrqqwwwqrryuyyyqwqyqytyq9wwqqq9q0q0q08qq",
"rqqqq99qq088qttrqyrr70wiuyqwr0q0q9wryiqqrwyyrryqqqwq0qy86qqw0qrt",
"00rrtq0qqq8qr9q89qrrrqtrqyyyuq00q9wyywrqwqwwqqwyqqryrqwq00qqqwrq",
"7qqryq0tqyiyyq09qq9wqww0qqqwqq009yrtrqr0yqwqqrry0rrryqqiyrqwriq9",
"0qr9yi0qqyryqrriiqrwqryrr98wqtr9rr9qqrq0yqqq0q0qrqryq0rryqirrriq",
"r0qqritqwqqy0qyrirrqqqrrq0rrwyyrtr9reyq0yqyr009qqqww0rrqq0tiq9ry",
"e0qrriyryryq099qy0terq09q9yyirrrrqqr0qq0rr0ir00wqwqrrr0rrrrrrrrr",
"rerrqqyrwqrwirrq00r000rr0qyuyrq9qq9q9099qr0yr9iyr0rrqrqr0e0qyri0",
"09qqqqwrqw9qiiireq9qr00qqyqqyr00qwrwqrirq0rr0ryqr00qqqqqqtrttqiq",
"9qqqqrywuyitrywqqqqqq0qq9q0qqe70riyttiyyrqw98qy0wq9qqqr0qrrr0qqr",
"0000qrrqyyyryyryqyiqw0rrq9qtr800iuwq9yyq0qyqqi9qyyq0rqq00r980www",
"r70rrq9qqqqryyyqqy9qy0qqqr0qq00qwyqqqq9qeryrrt0qiqq09qqy0yqrqiyq",
"070re0qrrq99ywyirtrrytqr0i00q900qwirq90eerqq0rtwyrq0qrqwrir0qqww",
"88qy09qrrrr0qqqwyrrryyiq7y00         r0ri00qqyyw00q00iqwwyrqqq9w",
"00irrrqqqqwqq9w999q0wyyy09  BBBZZZb$%  r9q0000wq0qr0qqrqrwwwrurr",
"0ryqqrryq9rte0qrqqq0ryqiq Bz=;;sszBAb25 qq9q08qqq0qqqqrrquyyrurr",
"irrqyqqpiytie00wyri79y9q z&=lvBBBvcmBDYR rrrq0rqq0qr0ywqriitqyyq",
"9q9ri9wyqqwyq0qqrwwq0q0 v&zxBZZZZZACmBPQQ trrreq9qre8tryrqyqqyqq",
"qyrtiqq980qqqrriyqqqr00 z=xBCZZxZZAACMAPTK yirqrriq9q0ety9q00qqw",
"yyrqq90q0rqqrywiitqr70 v=zBBZZvZdZZAACAHjk qqq0iirq0q0009qyqqqq9",
"qqqqq90q0q9909yyyq0q00 z=cBBZvWBvaZAAACAN33 0q09yqq99q99qrwqyrwq",
"qqqq0qq000qq89ruqqqwq v=cxldZvCnv4ZvxdCAc>, 9yiiwquqrq0rrqqqqwqr",
"ywy90ir9rqqyirrwqqqw0 v=clFnxbnnngxJn4DGz:: yyqwqrirqqrq0qrywqqq",
"yyyrqiqttrwyyyqrq8qyq v:cdvvBgnnnlBng4DIf%= u999qqqqqrrq00wqqqqq",
"qqww0rryr0qyqwryyqri0 v:cBdBnnnnnnnl4ADUf## uqqwrwqrrrqqq0qqqqrr",
"q9qq9rrr909qq0riqtyrq v1cBBxBnnnnnv4AADEs## yrqt0q0r00qqyyrrrqwq",
"qt0rrqqqrriytrrrq9wqr vscBvLnnnnnnnvdAD!<O+ y9qeq00q0etqwwi9ryw9",
"qqq0tqwwyyyiqyyqqqqri nscxJvvnnnnnnvvaD!<oO rqrri90qyqrqw9yyrqrq",
"0qy9qqwyyuytryqrrrqtu vfcd44dvnnnva444D!;.. qyw0rqrywwqqwqyyqtrr",
"r09qqrrtwwwwq00rrr0rty cfVBZa4gnd44AAAD!;.. ryr0qqyqyqrqwwyyrriq",
"iq0qqwq9yyyu98009q00wq nhcCCZZxn4AAAAD!lXo qqrq0qqiqqrqqwqur00rr",
"0yirqqqqyiqrq000qqrrqqy chVZZZxv4AAAAD~fO+ qyqwq00rrrrqqwqyq0009",
"6qiqwrrrrr00tqr0rqrrqqq BhVVZZd44AAAD~f@@ yquyyqrr09r0qyqyqqrrrr",
"00q9qrtrqq8qr9yr009yyqrr BhhVZZAAADD!f*- qqqwuwwiqqrqqruiyqrrrrt",
"y0qqrrqqwq9qrqyr0rrwyreer CVhVBDDDPUb>> qwrrqqwyqq90eqirqw0rq9q0",
"r0yrrq8qtryqqqryq0eqyq9qrt  ZZSGPPb**  rryrqrqqyy90800yqqqrtwqq8",
"q0rrq90qyqrr9qwwq008wyqqqrqq         rqrrtt9rqeiur0q99qei0qrrw98",
"wrq9ri0qyqqqrqrq0q0qyyiq9q090qq9wyrqyq0qqq9qry0tyr0ttq00q0trwqqq",
"yy98qyqeyy00qrr0090rqut9qq09q9iyirqqqqwww9qqqqq0quqqtr00rqqqq0tq",
"ryqyqyqtiw0eq0rqr0yqqyqqyrqqqqqirqyq0qwwyqrr9qt0qqyqrreeeq9000ry",
"rqyytwrqwwqrrr9rr0ywqqqqurr00trqqqq0rryuywirreqqq0wq0req0yrqq09q",
"q0qqqqq9qyetquqii09wqqrtqqwqrui9qqq0qriyuywqq0qyirrqrrrqqwqut0q0",
"eqer9809wq000yqqqet9yq0yqyrqywqqqqqrqyq0qwyq0qqqwq0rrqquq9qwq8qr",
"trqqrr0ryrq89ryqqrr0rq0qqr0ryq0rrrrrqqq0qriir0rr090iqqqwrryq9qui",
"rrq0riqqqqrqq9yqqq00qir0q08qqq0erqqqqqqqqrtuqqrq0wqqqwqqqqwqrqyy",
"rw900irq000rrqqrwrqqrrqrq0qyqq0qyy8qwwryqqqurqrq0rietreq8wyirryy",
"wyq00y0qqr00eq9qyiqqrq8ir0qyqrqiiy9wqyqwq9qtr0qq80ieeqqq0wurqqwq",
"qyrqqw9qriyqee0qqqyqqw0rqqyrqqqryyyyttrqrrrqq0qyyqertyyrqyuqqyqq",
"0rt00riqq9tqq0qqqryqqq99rqqrqq0qqrrq00q0reeq900tuqqqyyueyriqqiq0",
"eyq99rr00009yr0ryyw9ttqq9yq0rqqrqqqq00qqq0009r00trrq99ieqqyq0qqe",
"0qrrqqq0qrq0q977qwq9qyi09qt0trttrrryqqqryq0qrqy9q009q0trrqyyrqiq",
"qrrqqy00rrre00rerrrrwuw0trr0rrqrwyrrqq0qyrert0q9q0qqrrrr0yuy0rqw",
"yrt9yy00eq0rq0qwq000yyyqyrrqqyqqwyyqq00rtt0qqqqrrttr00t00yqwqrqy",
"yqqqrr0qq9rrrtq9qq00qrqrrqqq9y0q9rwtr0qqiq0rr9rrqryy06qq09qqqyqq",
"wqq0q0quyyrqqq009rq7qq0qqqrury89rq99rtw0ww9rqqire0qq07rqqqq0qwrq",
"rr9r00qiryq80qqqqrrerqq0qqqyyq0qtqq8qq90qw9qqyuqqqqqq0qrrrruyyqr",
"yqere099wwq0qyrrqtrqq9wqrw8qwq0ryyrrrrer8yyq90qqwwquuyrriqqyiywq"
};
