/* XPM */
static char *result[] = {
/* columns rows colors chars-per-pixel */
"32 30 31 1 ",
"  c black",
". c #445566",
"X c #446666",
"o c #447777",
"O c #557777",
"+ c #999933",
"@ c #BBBB55",
"# c #CCBB55",
"$ c #CCBB66",
"% c #CCCC77",
"& c #DDCC77",
"* c #668888",
"= c #779988",
"- c #779999",
"; c #77AA99",
": c #88AA99",
"> c #88AAAA",
", c #99AAAA",
"< c #99BBAA",
"1 c #99BBBB",
"2 c #AABBBB",
"3 c #AACCBB",
"4 c #DDCC88",
"5 c #DDDD88",
"6 c #AACCCC",
"7 c #BBDDCC",
"8 c #CCDDDD",
"9 c #DDEEEE",
"0 c #EEFFFF",
"q c white",
"w c None",
/* pixels */
"wwwwwwwwwwwwwwwww  wwwwwwwwwwwww",
"wwwwwwwwwwwwwwwww 8  wwwwwwwwwww",
"wwwwwwwwwwwwwwww 8:88  wwwwwwwww",
"wwwwwwwwwwwwwwww 8:::88  wwwwwww",
"wwwwwwwwwwwwwww 8::*:::88  wwwww",
"wwwwwwwwwwwwwww 8>:OO::::88  www",
"wwwwwwwwwwwwww 8<>>-*OO*>>>88  w",
"wwwwwwwwwwww  811*->-*-OO**>>8 w",
"wwwwwwwwwww 5511**OO**-<-*,>,8 w",
"wwwwwwwwww 5555411-**11111118. w",
"wwwwwwwww  5554&%%32-O**28118. w",
"wwwwwwww 97>554%%%%%3-*6--38.o w",
"wwwww   91*<>>&%%%%%$@66668.oo w",
"w    00921**11>>%%%$#@@@668.o ww",
"w qq066211*O,O11>>$@@@@@@8.oo ww",
"ww q6>3**1**OO1133>>@@@@@+.o www",
"w  q6662*****OOO2666>>@@++o wwww",
" 66=q6661******O*32-668+++. wwww",
" *6;=qq3-******23<<-69,+++ wwwww",
" **6;==q332-1-166-669,.+++ wwwww",
"w O*66;=qq6362-3>699,.o++ wwwwww",
"w *O**6;==qq663660=,.o.+ wwwwwww",
"w O*OO*66;==qq600=,.o.o+ wwwwwww",
"ww  **O**666==0=,,.o.o  wwwwwwww",
"wwww O*OO***66,,..o.o wwwwwwwwww",
"wwwww  O*OOO**..oo.  wwwwwwwwwww",
"wwwwwww  O**OOXo.. wwwwwwwwwwwww",
"wwwwwwwww  O**..o wwwwwwwwwwwwww",
"wwwwwwwwwww  OX  wwwwwwwwwwwwwww",
"wwwwwwwwwwwww  wwwwwwwwwwwwwwwww"
};
