/* XPM */
static char *result[] = {
/* columns rows colors chars-per-pixel */
"64 64 201 2 ",
"   c #775511",
".  c #776E0E",
"X  c #6B770C",
"o  c #66780B",
"O  c #886611",
"+  c #AA7700",
"@  c #1D9600",
"#  c #1D9700",
"$  c #1D9800",
"%  c #1D9900",
"&  c #229500",
"*  c #229600",
"=  c #229700",
"-  c #279600",
";  c #279700",
":  c #229800",
">  c #229900",
",  c #229A00",
"<  c #229B00",
"1  c #279800",
"2  c #279900",
"3  c #279A00",
"4  c #279B00",
"5  c #229C00",
"6  c #229D00",
"7  c #229E00",
"8  c #229F00",
"9  c #279C00",
"0  c #279D00",
"q  c #279E00",
"w  c #279F00",
"e  c #2B9800",
"r  c #2B9900",
"t  c #2B9A00",
"y  c #2B9B00",
"u  c #2F9A00",
"i  c #2F9B00",
"p  c #2B9C00",
"a  c #2B9D00",
"s  c #2B9E00",
"d  c #2B9F00",
"f  c #2F9C00",
"g  c #2F9D00",
"h  c #2F9E00",
"j  c #2F9F00",
"k  c #329B00",
"l  c #329C00",
"z  c #329D00",
"x  c #329E00",
"c  c #329F00",
"v  c #309D02",
"b  c #359F00",
"n  c #319805",
"m  c #319B05",
"M  c #369B06",
"N  c #349C04",
"B  c #3A9C06",
"V  c #3A9E06",
"C  c #22A000",
"Z  c #22A200",
"A  c #27A000",
"S  c #27A200",
"D  c #27A300",
"F  c #27A500",
"G  c #27A600",
"H  c #2BA000",
"J  c #2BA200",
"K  c #2BA300",
"L  c #2FA000",
"P  c #2FA200",
"I  c #2FA300",
"U  c #2BA400",
"Y  c #2BA500",
"T  c #2BA600",
"R  c #2FA400",
"E  c #2FA500",
"W  c #2FA600",
"Q  c #2FA700",
"!  c #2FA800",
"~  c #2FA900",
"^  c #31A000",
"/  c #32A000",
"(  c #32A200",
")  c #32A300",
"_  c #35A000",
"`  c #35A200",
"'  c #35A300",
"]  c #32A400",
"[  c #32A500",
"{  c #32A600",
"}  c #32A700",
"|  c #35A400",
" . c #35A500",
".. c #35A600",
"X. c #35A700",
"o. c #34A005",
"O. c #38A200",
"+. c #38A300",
"@. c #38A400",
"#. c #38A600",
"$. c #38A700",
"%. c #3BA005",
"&. c #32A800",
"*. c #32A900",
"=. c #35A800",
"-. c #35A900",
";. c #38A800",
":. c #3CAA00",
">. c #3BA00A",
",. c #3DA10E",
"<. c #AA8800",
"1. c #BB8800",
"2. c #A09C0E",
"3. c #BB9900",
"4. c #AF9910",
"5. c #BB9911",
"6. c #90B600",
"7. c #93B700",
"8. c #BFA900",
"9. c #AEBE00",
"0. c #B4B100",
"q. c #B7B300",
"w. c #B5BE00",
"e. c #CC9900",
"r. c #C6A900",
"t. c #CCAA00",
"y. c #DDAA00",
"u. c #CAB700",
"i. c #D1B800",
"p. c #DCB900",
"a. c #DDBB00",
"s. c #DDAA11",
"d. c #D2B910",
"f. c #DDBB11",
"g. c #EEBB00",
"h. c #BEC000",
"j. c #BAC20C",
"k. c #C0C300",
"l. c #C5C30D",
"z. c #D5C700",
"x. c #DFC900",
"c. c #C5C21B",
"v. c #E1C900",
"b. c #E5C900",
"n. c #EECC00",
"m. c #FFCC00",
"M. c #FFDD00",
"N. c #FFCC11",
"B. c #FFDD11",
"V. c #D2DD35",
"C. c #DED439",
"Z. c #E0C820",
"A. c #E0C920",
"S. c #E8CB21",
"D. c #EBCB21",
"F. c #EECC22",
"G. c #FFCC22",
"H. c #FCDC21",
"J. c #FFDD22",
"K. c #FFDD33",
"L. c #E7E53C",
"P. c #F6EA31",
"I. c #FFEE33",
"U. c #A2D766",
"Y. c #E5E44A",
"T. c #E7E54B",
"R. c #EAE64C",
"E. c #EDE74E",
"W. c #FFEE44",
"Q. c #F2E950",
"!. c #F3E950",
"~. c #F4EA51",
"^. c #F6EA51",
"/. c #F7EB52",
"(. c #FCED54",
"). c #FDED54",
"_. c #FFEE55",
"`. c #E9D76A",
"'. c #ECD76D",
"]. c #DAE061",
"[. c #DDE263",
"{. c #EDE76D",
"}. c #F4EA61",
"|. c #F6EB62",
" X c #F7EB62",
".X c #F0E86E",
"XX c #EDE77D",
"oX c #EEE77D",
"OX c #EFE87E",
"+X c #F8EC73",
"@X c #EAE78A",
"#X c #F4EA81",
"$X c #F5EA82",
"%X c #F6EA82",
"&X c #FFEE99",
"*X c #C7E6AE",
"=X c #CDE7B7",
"-X c #D0E9BC",
";X c #D9EDC2",
":X c #E8F5D4",
">X c #ECF6D9",
/* pixels */
"' P s H < J H w , p I w I [ { W P L p t I d L J q j I q 3 r # 4 p h +.X.0 9 H 4 t t i a f H 8 K I y h  .| h H I ' a h r 2 a K J ",
"d j 2 f 3 d S q H d 0 2 g d s J Y H f s W J s P > p / , 2 g 7 4 p 0 ' ' h > s h p , 3 q E Y S q g a d I I j 3 t f ) Q j r 4 d H ",
"= t 3 4 P ( J q J s J L L 4 t f 4 j L 0 Y [ h y * 2 ( d I I d H 4 4 c } [ 3 P h L d I A K E R 4 y J 0 d d j 5 0 H I I P P a p s ",
"3 [ a w I j ) K H w [  .d p p c i z X.P 4 g h 4 > d J I &.$.< d a d ( ) L a c P I P c t 2 y x a p H d 3 p g 5 D R A 4 c I I ( q ",
"I ~ P J J a a p L J ) / , y j s c j ] ) 3 - y d J K J I ' ' , 9 j 9 / j y p ) W J d I q I h g c s w H 2 L ] K a J J H I H h b a ",
"I I P H s 2 3 3 z s j g H 4 L c d d s g y t p 4 P P H j h I H I ( h ' L ) P Y s I E H L :.;.I P s H g s I I R / q d ] J 3 J [ P ",
"Y L L L a P J d ) H L Y L y t l j I d a p K W J H I E h g y t d  .E { ) f P ) f j ] a f ' ] ) P 3 L / j J H p ) w 2 H I 0 9 d j ",
"( y h j a s R I s 0 q a d P a s W { I s 8 0 h } K H s d l u g p P J R X.) [ ' f f a P h P E ..d e l / y 0 d f t , p 4 h < : y a ",
"L y h g y 2 p a f 2 & 1 q W Y J H ) K J 5 4 / &.}  .y h j 9 p 0 h 3 L P X.I d h L g / P K P ( a t t f g p s ( = @ a s x 4 0 I Y ",
"< 4 A K P a 5 h p i 1 a L p a 1 ; p K H q s E J g ) ) ' ' 0 0 , t 1 g P ] L J a g L c c p y / / p q K ) I a h s q d y i d L L d ",
", a d J ) a 4 J A ] { [ P p 1 2 t f y / h h L 4 y t y / L 0 q 0 9 P J E H p L q / h j s g d H ( w R E P ( 3 g ]  .d f j I [ L 3 ",
"q d j p ) } d d a ( P ( H Y ) [ } d h z u P I K K q 2 f j I d 4 J I y g s L p > ' a h s 9 d 0 p L j P ( H < d P h s [ E I K [ p ",
"s < y f K E [ d L f h ( 9 9 ) I &.Y J s s h d H a 0 H j c ( ) H I I 0 d S ] q 3 L H ( L 8 6 4 h g i c h 6 K Y s t s { { a 3 s ( ",
"D q 4 I U { ] I ' L L j = t 3 f h 6 I Z w d 3 t y y ) | { K I K d d y H 9 a s 4 L J w { K 6 3 h s j d J w I y L H K Y P P I I H ",
"A w L I a a ) K h L d / ) I H w 0 0 d , 9 5 J j 6 a ( ' ( L s p j s t j t 1 y 9 j K 5 ] h y [ j d 0 H J s d t P w K 5 a ( I E q ",
"9 9 s y a p c d a h t d &.&.*.d q p i g K 7 0 s q I v N %.o.m n M B V >.,.d I I d > d J 9 j ..a L 5 9 s s d d a a E Y ! Y L ) H ",
"4 t p p g I / g  .[ ) Y K { / g s a h j p < A s t y 4 s H d , , I [ } E E } ) L H 4 g p * c ] < c t 2 y 9 d K 0 p K K J q g j d ",
"2 w 9 3 y J J s [ ] ) I I | J P t ( I s l < K P s 3 9 I J : = 0 E ../ a s P ) g 4 s ( p H ( p a ) ) s < H s y 5 d s ; ; ; z c h ",
"D 7 < H K s p s j f t j ( ` { L y I s a ) 7 p g H j 1 p d = : d ( ' h a y f y s D I [ d L Y < d X.d s 2 3 h p R 0 ) H a H ) ' H ",
"< : 2 K q 4 d d d a 4 a ( / ) R J W H I =.Y s L d .., : a t < q j c ) J a 3 2 H G H s a 2 T E h ) H d 9 a P a ( a [ Y 0 H a h g ",
"1 * d I 0 3 h w K P H > t p y x / d L K )  .I g : ) q q J a a s ) ] d j ) H 7 Y E 4 4 a s I I z 3 3 a 9 q [ 9 k c ) P p h g 2 g ",
", 4 I P j L s s p t x a 0 3 x y p 3 j 9 f ` [ P : r ( 8 m.m.m.m.M.M.M.t h H w H f y , , 4 t x h 4 y H 9 4 y d H d h _ / H ) K I ",
"q J I a s I I  .h p P Q D 6 d L a 9 a 5 H ( L I w d OXN.. O 5.5.5.5.4.B.J.E K a a s y a > : a a K 0 d d H a L H H { ..' K [ I d ",
"W I L L j p f X.} [ R -.w 6 < g L L ) $ 9 ) a g *XXXX O a.a.a.a.a.a.a.t.r.H.P.p d K H j y 0 S s s > h d 9 ) / f J &.} ) H R ) f ",
"p a 2 H ] p x c a h h ) a q 9 L P ` j 9 0 d 3 ;X%X  a.a.m.m.m.t.M.M.B.J.J.t.I.!.s ( K I P I A a p s K w : ) K ) L j I g 3 P L d ",
"h ) P T E a a y & 4 p j d I d ) P f y 0 H q =X$X  a.m.m.m.m.a.t.a.M.B.J.J.J.t.(.Q.I { R E H H K H I j 4 d w C K L y H 4 3 j t h ",
"( ' I h g 4 3 a , w y t P I h I } K j H > -X#X  a.m.m.m.m.a.a.m.1.a.B.J.J.J.I.f.).~.] s H d : ) } R t 1 p 3 , 4 3 g j 9 a a 2 t ",
"t a g 9 p 2 2 9 w a 3 t 3 p P =.) s q d , oXO a.t.t.a.m.m.y.&Xg.y.<.B.J.J.t.1.W.F.^.a J 4 a > g / a a y 4 y t y a j x p ( P L p ",
"a p p 3 2 a 0 3 9 > 9 j = 3 J ` h a d L a `.O a.t.G.e.1.m.y.n.a.y.+ B.y.t.a.+ W.F./.^ I p ) } ] z a  .s d p 4 L J a H d j j h d ",
"P L [ y 4 } K a K d s I I H J c s s h z `.o t.g.a.e.G.a.t.s.a.a.a.3.t.K.a.+ m.W._.D.|.L h ) L h h I &.P d w P d A a H P / p p s ",
"' ( ] K q ] L R Q K x P ) +.d J h ; i ( '.O t.n.n.1.y.y.g.3.a.a.a.e.g.a.3.+ I.W._.F. Xr @.a 2 e y j a h H d I a 4 4 c p g 4 s d ",
"f a j j 9 I I I d 0 h / i c I [ / 9 J ! M.5.t.n.n.m.1.g.a.a.a.a.a.a.a.e.+ m.K.W._.F.).3 ' g p L K j t d H L d a y 3 y p p a I L ",
"y a q h 9 I I L y 1 y j s 7 I ] H I R J M.5.t.n.n.n.t.K.g.a.a.a.a.a.y.3.1.m.I.W._.F. XR | H s E A s 4 d 9 4 h a ] I K J I L c y ",
"a J q J d t f H J E I I I K I d y p g y v.5.t.g.n.t.K.a.a.a.a.a.a.a.a.y.3.1.m.W._.F.}.j / 4 H A 0 > 2 d 0 Z J g b L ) 9 P / h 2 ",
"0 a y < Y g g L ) | ] [ h ] [ 0 q h j L z.2.t.g.t.K.a.a.y.a.a.a.a.a.a.y.y.3.1.m._.S.{.s j g K D [ 3 4 L ( J H a z y ) ) P j H w ",
"q p c 4 A a j ( ` ` ) E K I s K w I H I #.i.5.1.+ + + + 1.y.a.a.a.y.<.+ + + + 1.F..XI > a ( j 4 P s L ) c i p g f a P / s I K J ",
"H 0 r p a H I I _ b x g H 9 = I I A 5 H I u.5.g.n.n.n.y.<.+ 3.a.1.+ + m.J.J.K.W.F.@XH p H I J , a d | L P h d d P h  .L A I I L ",
"[ H 4 0 d h y y ) ) I ' 1 : 9 4 t q 7 a d 0.p.5.g.n.n.n.m.y.t.a.+ m.M.B.J.J.K.F.:X[.p p H P H 4 t a I j d H d H L y ' P q 4 J J ",
"6 I [ I L g y a ] X.J K a 3 9 : f a J d h p q.x.5.g.n.n.n.m.t.y.+ m.M.B.J.J.F.>X]. .P d ( g x p 3 w d H H K p u i h ) a = 4 , y ",
"# h ) a c S J H H L 6 q K d P w K s d P a p h w.b.t.g.g.n.n.1.+ + m.M.B.J.F.+XU.E x j j ' | ) s J S 1 a H q j / j ( h j J T H H ",
", > a 2 t I R K j t : a d p ( J 4 0 4 c ] d K D 7.h.8.f.g.n.M.M.M.M.M.F.A.E.Y.' J s h i x ' c / I s h j d s P { E ) a K Y d ) I ",
") 0 p L H I h q j a t y H 9 I I y w J c ) P w D Y P 9.k.d.f.f.f.F.F.Z.T.R.f r L p / J H a h h ) f r y 6 w H ] L h h s K p ; g q ",
"P q / H H 0 1 a E E ] h a a L P q w 7 i j h 2 p H E I H 6.j.l.c.C.L.V.H W E P K E ) H q J s d ' ) 3 = : 3 4 ( d H s H Y g i t @ ",
"d q H J p y 4 a L d P P 4 f x g p a > 1 / ( a y j J 9 p > s a f l s P P [ H 0 J K Q K y L H S { $.I 6 a 2 2 j w E w a P P L r ; ",
"h P y p d ) q 0 ( H 9 a J d P d , p , d ) ] [ a t p > 9 9 y s s j I s s I s 0 g y d y y L ( 0 K ( J 0 R E J 0 , h 5 Y I L w h t ",
"[ _ 1 - h X.a S } ( 2 , a H H 3 , y 9 H j X.R 9 p a > 1 y 9 R ) [ P j 9 y a g c z y 4 d p g y 9 H | a H Q J q < L a d a s , K H ",
"T L j I L ) g I { x 4 d s 0 H a H p ( L 2 _ f a [ I H s s s s ] P d L a 9 0 z ( / p K I 4 d K 6 3 h ) q A J S S D j 1 * 4 5 J ) ",
"J s L } I h P d f c a K K L p H I 9 ] I p h g a [ L / 3 5 I j d d s q 9 L P ' ' ) j ) R S A j a y 1 g g 0 J w H < j P p 0 7 p p ",
"y 2 a j p s s r t L q Y s @.d R E 0 p g h a d E j y g p J =.' 3 i g p 9 g j X.+.' / / g 4 p s P =.K d h J K j j t f a ) W 7 p t ",
"w H S d t 1 2 r x a 0 w q ) L h t Y K y ( a 6 ) j L P J ) / h y p s s w H P d w d / ' d 9 s a p I H 7 I K j f  .h 3 j h s > g I ",
"Q K d s d L w H ' d p * 4 d ) d p H H C K d 9 t f P 8 d ( s 4 H J S K I 9 a s $ 9 I [ &.J w K J < 1 2 I p f u c K K ) t 1 y  .W ",
"R j t 7 S ..a s L 0 J q p > ' a h a 2 w d [ J 9 p : = a p a 6 H I A 9 a p a s s d K I =.g p L H 6 j f g p j s y 4 h b L J w ` ) ",
"d _ y < 5 ' j 0 q 4 6 K d y j j c L 4 3 J I 3 j J 6 p ' s H q q { ( ; p j L I ' s p a #.( H H p < I [ Y Y A J d 1 l ' ) P I ) ) ",
"j | a < 4 ' q d 3 J 9 , A d 3 d ] ) L p H j , ) j 9 0 / s K H E [ c t f a ` h i p 9 H I K < p y * 3 W F D H a a , / =.I s g h s ",
"4 ( I A s x t p H [ ] s J C > a d s P L y h 6 J L p I L i r 0 I | P ) I R W H p H Y K h 3 > a ) ( s S I E [ ) P L I $.s H ) p 9 ",
"5 I I 9 , I ) H s a I h s 6 9 f a I ) 4 a h t y d d j J d s 9 t y H I d q 6 a a H D 7 s y < H Y ..j s h / ' X.J L K ..a a I s w ",
"D I z y 1 j j s q 2 9 t j w 5 s j ( x 3 K W / y 3 ) s , J w d I h s s i > 1 g d 9 3 < : p H 4 > R K d g t a &.A p p ( a 0 p j D ",
"4 g d J h h a 7 w d a 3 h 3 % 8 h h g 4 s ) I 9 3 c P 5 W K K Q P I J P s H H P ) d 9 s E d x 2 s < 3 t 3 , R Y J H I I J a ) s ",
"y H J w h _ q 6 D I K A 4 = p H I J J S / O.( 7 P L H w I L p J L ) P J j a 3 s ] E S J I 4 i 4 a 9 d d J H I J d ] X.' 3 J L g ",
") I K y P ) , , w s 9 K s 0 d z g 4 , 9 ` ' ) q R K I H s P a p l ) ] a p : 4 S W R 5 a p s d I I E Y d 4 w K s 1 / / z p J q ' ",
"' s a , P H 9 f f y d K J I s y 3 y 3 , j J d P I d s a t L q 9 y L / P K 9 a L I s 3 q s t d K H d I / 3 : d q 1 y i u j / p H ",
"/ d f 1 a t a #.L ( P p d s y < 9 P H % j a , a a p H ) P I ; 2 d 9 t t U R g 1 b / 9 U d ( ] K S q i i y $ I s 9 w H 9 p c d s ",
"I d 9 H , 3 H { K ) y ; 3 a y d a K K w d d p > h L s ] ' p , d I d 0 = d h p 3 p _ 1 p 4 I ] H g L a j s > j L P I K [ X.) d I ",
"| h D K C 5 3 4 g x a q s ( P S a E H a p 3 j s d g ; p x p 6 L P  .J K H P w S 2 P ) i r 1 a s f h d X...I w Y [ q g ) ] ) h y "
};
