/* XPM */
static char *_362a23dc6fb47d7f881bab066b454bfqNm3gIqk6ChonINk[] = {
/* columns rows colors chars-per-pixel */
"35 32 69 1 ",
"  c magenta",
". c black",
"X c #999977",
"o c #BBBB99",
"O c #333322",
"+ c #444433",
"@ c #555544",
"# c #444422",
"$ c #777755",
"% c #EEEEEE",
"& c #666644",
"* c #887755",
"= c #665544",
"- c #BBBB88",
"; c #AAAA88",
": c #CCCCBB",
"> c #CCBBAA",
", c #FFDD00",
"< c #EEBB22",
"1 c #FFFFEE",
"2 c #887766",
"3 c #554433",
"4 c #DDBB11",
"5 c #FFFF99",
"6 c #DDBB22",
"7 c #EECC44",
"8 c #FFFFBB",
"9 c #DDDD77",
"0 c #CCAA44",
"q c #DDBB00",
"w c #EECC33",
"e c #BB9933",
"r c #BB9922",
"t c #AA8811",
"y c #CCCCAA",
"u c #BBAA88",
"i c #EEBB00",
"p c #BB9911",
"a c #EECC22",
"s c #FFDD22",
"d c #885511",
"f c #AA7722",
"g c #DDAA55",
"h c #886611",
"j c #CC9944",
"k c #996622",
"l c #BB8833",
"z c #CC9955",
"x c #774411",
"c c #AA7733",
"v c #DDCCBB",
"b c #886622",
"n c #885522",
"m c #998877",
"M c #BBAA99",
"N c #997755",
"B c #AA8855",
"V c #AA8866",
"C c #BB8866",
"Z c #BB9966",
"A c #AA7755",
"S c #886644",
"D c #AA9988",
"F c #775544",
"G c #775533",
"H c #AA9977",
"J c #664433",
"K c #998866",
"L c white",
/* pixels */
"                                   ",
"              ........             ",
"       .......Xooooooo..           ",
"      .ooooooooOO+@+OOoo.          ",
"     .oOOOOOOOO##$%&OOo*.          ",
"      .oOOOOO##=$-%;:>ooo.         ",
"      .XoooOO#,<1%%%%2&&3o.        ",
"       .*X&O456578190$&&&o.        ",
"        .*o&515q,71woooooX.        ",
"         .Xo$erqtry>uuXX*.         ",
"         .*Xo&ipauuXX*X*.          ",
"        ..&&u&psuuX**X*. ..        ",
"        .dfdu&&uuXfghjkl.zh.       ",
"       .uXdduuuuXxchfhxx.hxx.      ",
"      .vouX*&XXXxbxnxn&....h.      ",
"     .vo>uuX*&&&&&*&&&&&&.xh.      ",
"    .v>>ouXXum****X*****&&..   ..  ",
"   .v>>MouXuuNmXXXXX**XX**&....x.  ",
"   .v>MBMXuuNN;XXXXXX*XXXX*&.zzx.  ",
"  .v>oMNNNuNNNN;;NVuXXXXXX***...   ",
"  .v>>oBBBBBBBBBBBMuXXXXXXX***.    ",
" .v>>ooBBVCZCCCCVVoouXXXuXX***.    ",
" .v>>>MuNAVCCCCCCMouuuXuuuXX**.    ",
" .v>>M**NNNBBVVVuMMuuuXuuXXX**.    ",
" .v>oouSS*NNNNNNNNN;uuuuuXXX**.    ",
"  .>oooMM;SSSSSSSSDuuuuuuXXX*.     ",
"  .ooooooFGFHFFFD;uuuuXXXXX**.     ",
"   .uooooM;JHFH;uuXXXXXXXX**.      ",
"    .uuuuu;GKmuuuXXXXXXX***.       ",
"     ..XXXXKSmXXXXXX*****..        ",
"       ...XXmXXX******...          ",
"          ............             "
};
