/* XPM */
static char *result[] = {
/* columns rows colors chars-per-pixel */
"64 64 148 2 ",
"   c #1D9600",
".  c #1D9700",
"X  c #1D9800",
"o  c #1D9900",
"O  c #229500",
"+  c #229600",
"@  c #229700",
"#  c #279600",
"$  c #279700",
"%  c #229800",
"&  c #229900",
"*  c #219B00",
"=  c #229A00",
"-  c #229B00",
";  c #279800",
":  c #279900",
">  c #279A00",
",  c #279B00",
"<  c #219C00",
"1  c #229C00",
"2  c #229D00",
"3  c #229E00",
"4  c #229F00",
"5  c #279C00",
"6  c #279D00",
"7  c #279E00",
"8  c #279F00",
"9  c #2B9800",
"0  c #2B9900",
"q  c #2B9A00",
"w  c #2A9B00",
"e  c #2B9B00",
"r  c #2F9A00",
"t  c #2F9B00",
"y  c #2B9C00",
"u  c #2B9D00",
"i  c #2B9E00",
"p  c #2B9F00",
"a  c #2F9C00",
"s  c #2F9D00",
"d  c #2F9E00",
"f  c #2F9F00",
"g  c #329B00",
"h  c #319C00",
"j  c #329C00",
"k  c #329D00",
"l  c #329E00",
"z  c #329F00",
"x  c #359F00",
"c  c #22A000",
"v  c #22A200",
"b  c #27A000",
"n  c #27A200",
"m  c #27A300",
"M  c #27A500",
"N  c #27A600",
"B  c #2BA000",
"V  c #2AA100",
"C  c #2BA100",
"Z  c #2BA200",
"A  c #2BA300",
"S  c #2FA000",
"D  c #2FA200",
"F  c #2FA300",
"G  c #2BA400",
"H  c #2BA500",
"J  c #2BA600",
"K  c #2FA400",
"L  c #2FA500",
"P  c #2FA600",
"I  c #2FA700",
"U  c #2FA800",
"Y  c #2FA900",
"T  c #31A000",
"R  c #32A000",
"E  c #32A200",
"W  c #32A300",
"Q  c #35A000",
"!  c #35A200",
"~  c #35A300",
"^  c #32A400",
"/  c #32A500",
"(  c #32A600",
")  c #32A700",
"_  c #35A400",
"`  c #35A500",
"'  c #35A600",
"]  c #35A700",
"[  c #38A200",
"{  c #38A300",
"}  c #38A400",
"|  c #38A600",
" . c #38A700",
".. c #32A800",
"X. c #32A900",
"o. c #35A800",
"O. c #35A900",
"+. c #38A800",
"@. c #39AB00",
"#. c #3CAA00",
"$. c #8A8E00",
"%. c #8E8E00",
"&. c #908D00",
"*. c #A58B00",
"=. c #A78B00",
"-. c #AA8800",
";. c #A98B00",
":. c #AC8B00",
">. c #B18900",
",. c #BB8800",
"<. c #A29A0E",
"1. c #BA9900",
"2. c #BB9900",
"3. c #BB9911",
"4. c #CC9900",
"5. c #CCAA00",
"6. c #DDBB00",
"7. c #C3A910",
"8. c #DDBB11",
"9. c #CAB82D",
"0. c #CCB92E",
"q. c #DDBB33",
"w. c #DDCC11",
"e. c #EECC22",
"r. c #EECC33",
"t. c #E5C941",
"y. c #EACB43",
"u. c #EECC44",
"i. c #EEDD44",
"p. c #DDD76D",
"a. c #DED77C",
"s. c #EEDD77",
"d. c #E8DB84",
"f. c #FFDD88",
"g. c #F5EA92",
"h. c #FFEE99",
"j. c #F3E9A1",
"k. c #F9ECA5",
"l. c #FFEEAA",
"z. c #F5FAD3",
"x. c #F7FBD4",
"c. c #F8FCD5",
"v. c #FFFFDD",
"b. c #F6FBE4",
"n. c #FFFFEE",
"m. c #FBFDFA",
"M. c #FDFEFC",
"N. c white",
/* pixels */
"~ D i B - Z B 8 = y F 8 F / ( P D S y q F p S Z 7 f F 7 > 0 . , y d { ] 6 5 B , q q t u a B 4 A F e d ` _ d B F ~ u d 0 : u A Z ",
"p f : a > p n 7 B p 6 : s p i Z H B a i P Z i D & y R = : s 3 , y 6 ~ ~ d & i d y = > 7 L H n 7 s u p F F f > q a W I f 0 , p B ",
"@ q > , D E Z 7 Z i Z S S , q a , f S 6 H / d e + : E p F F p B , , z ) / > D d S p F b A L K , e Z 6 p p f 1 6 B F F D D u y i ",
"> / u 8 F f W A B 8 / ` p y y z t k ] D , s d , & p Z F .. .- p u p E W S u z D F D z q : e l u y B p > y s 1 m K b , z F F E 7 ",
"F Y D Z Z u u y S Z W R = e f i z f ^ W > # e p Z A Z F ~ ~ = 5 f 5 R f e y W P Z p F 7 F d s z i 8 B : S ^ A u Z Z B F B d x u ",
"F F D B i : > > k i f s B , S z p p i s e q y , D D B f d F B F E d ~ S W D H i F L B S #.+.F D i B s i F F K R 7 p ^ Z > Z / D ",
"H S S S u D Z p W B S H S e q j f F p u y A P Z B F L d s e q p ` L ( W a D W a f ^ u a ~ ^ W D > S R f Z B y W 8 : B F 6 5 p f ",
"E e d f u i K F i 6 7 u p D u i P ( F i 4 6 d ) A B i p j r s y D Z K ] W / ~ a a u D d D L ' p 9 j R e 6 p a q = y , d - % e u ",
"S e d s e : y u a : O ; 7 P H Z B W A Z 1 , R ..) ` e d f 5 y 6 d > S D ] F p d S s R D A D E u q q a s y i E @   u i l , 6 F H ",
"- , b A D u 1 d y t ; u S y u ; $ y A B 7 i L Z s W W ~ ~ 6 6 = q ; s D ^ S Z u s S z z y e R R y 7 A W F u d i 7 p e t p S S p ",
"= u p Z W u , Z b ^ ( / D y ; : q a e R d d S , e q e R S 6 7 6 5 D Z L B y S 7 R d f i s p B E 8 K L D E > s ^ ` p a f F / S > ",
"7 p f y W ) p p u E D E B H W / ) p d k r D F A A 7 : a f F p , Z F e s i S y & ~ u d i 5 p 6 y S f D E B - p D d i / L F A / y ",
"i - e a A L / p S a d E 5 5 W F ..H Z i i d p B u 6 B f z E W B F F 6 p n ^ 7 > S B E S 4 2 , d s t z d 2 A H i q i ( ( u > i E ",
"m 7 , F G ( ^ F ~ S S f @ q > a d 2 F v 8 p > q e e W _ ( A F A p p e B 5 u i , S Z 8 ( A 2 > d i f p Z 8 F e S B A H D D F F B ",
"b 8 S F u u W A d S p R W F B 8 6 6 p = 5 1 Z f 2 u E ~ E S i y f i q f q ; e 5 f A 1 ^ d e / f p 6 B Z i p q D 8 A 1 u E F L 7 ",
"5 5 i e u y z p u d q p ....X.p 7 y t s A 3 6 i 7 F i i E Z 5 ; e a f s u p F F p & p Z 5 f ' u S 1 5 i i p p u u L H U H S W B ",
", q y y s F R s ` / W H A ( R s i u d f y - b i q e , i B p = = F / ) L L ) W S B , s y + z ^ - z q : e 5 p A 6 y A A Z 7 s f p ",
": 8 5 > e Z Z i / ^ W F F _ Z D q E F i j - A D i > 5 F Z % @ 6 L ' R u i D W s , i E y B E y u W W i - B i e 1 p i $ $ $ k z d ",
"m 3 - B A i y i f a q f E ! ( S e F i u W 3 y s B f ; y p @ % p E ~ d u e a e i m F / p S H - p ] p i : > d y K 6 W B u B W ~ B ",
"- % : A 7 , p p p u , u E R W K Z P B F o.H i S p ' = % u q - 7 f z W Z u > : B N B i u : J L d W B p 5 u D u E u / H 6 B u d s ",
"; + p F 6 > d 8 A D B & q y e l R p S A W ` F s % W 7 7 Z u u i E W p f W B 3 H L , , u i F F k > > u 5 7 / 5 g z W D y d s : s ",
"= , F D f S i i y q l u 6 > l e y > f 5 a ! / D % 0 E 4 6 u y 6.6.6.; q d B 8 B a e = = , q l d , e B 5 , e p B p d Q R B W A F ",
"7 Z F u i F F ` d y D I m 2 p S u 5 u 1 B E S F 8 p S % & > p e.e.e.S S W L A u u i e u & % u u A 6 p p B u S B B ( ' ~ A / F p ",
"P F S S f y a ] ) / K O.8 2 - s S S W X 5 W u s p Z 6 y u y B s.s.a.~ E E f y y p A B f e 6 n i i & d p 5 W R a Z ..) W B K W a ",
"y u : B ^ y l z u d d W u 7 5 S D ! f 5 6 p > z x y , A f f 6 h.h.g.` F z t q > i E A F D F b u y i A 8 % W A W S f F s > D S p ",
"d W D J L u u e O , y f p F p W D a e 6 B 7 : t a 5 H P F f > c.n.b.^ Z R Q s = 8 F ( K L B B A B F f , p 8 c A S e B , > f q d ",
"E ~ F d s , > u = 8 e q D F d F ) A f B & % i B F 7 5 , e i $ M.N.m.a p A W y i B A ^ i B p % W ) K q ; y > = , > s f 5 u u : q ",
"q u s 5 y : : 5 8 u > q > y D o.W i 7 p = , 5 7 p 5 5 , d ) Z M.N.m.q t Z F B u e q u Z 5 u & s R u u e , e q e u f l y E D S y ",
"u y y > : u 6 > 5 & 5 f @ > Z ! d u p S u , = q f A A T f W V x.v.z.B F 7 8 H S i t E F y W ) ^ k u ` i p y , S Z u B p f f d p ",
"D S / e , ) A u A p i F F B Z z i i d k > 1 p ^ K F > h > s E k.l.j.P L ,   5 F L e S S f W S d d F ..D p 8 D p b u B D R y y i ",
"~ E ^ A 7 ^ S K I A l D W { p Z d $ t E 6 o y F p t 0 w = y g d.f.p.8 Z , u q z f i e 0 } u : 9 e f u d B p F u , , z y s , i p ",
"a u f f 5 F F F p 6 d R t z F / R 5 Z U 7 @ @ q i : u * 1 L f u.u.r.1 A B E k f i S d > ~ s y S A f q p B S p u e > e y y u F S ",
"e u 7 d 5 F F S e ; e f i 3 F ^ B F K Z u B H ..b i F < 5 6 p 8.w.8.% e D R W Z A B p K _ B i L b i , p 5 , d u ^ F A Z F S z e ",
"u Z 7 Z p q a B Z L F F F A F p e y s e F K ) @.Z 6 D w S p C 6.6.5.5 u D E A b 8 8 , f R , B b 6 & : p 6 v Z s x S W 5 D R d : ",
"6 u e - H s s S W _ ^ / d ^ / 6 7 d f S ..H L ( A Z b t 0 S E 5.5.4.3 B ^ W u > e ^ B i S s A m / > , S E Z B u k e W W D f B 8 ",
"7 y z , b u f E ! ! W L A F i A 8 F B F | H 2 / Z u , s i E s 1.2.=.= ^ z s d 0 z ~ F & u E f , D i S W z t y s a u D R i F A Z ",
"B 6 0 y u B F F Q x l s B 5 @ F F b 1 B F F q ! A u 0 D / A K >.,.*.= W d > i y F L B y B F Z = u p _ S D d p p D d ` S b F F S ",
"/ B , 6 p d e e W W F ~ ; % 5 , q 7 3 u p y z S f f 1 p { e s &.-.$.d e a > 7 s d F y y B D B , q u F f p B p B S e ~ D 7 , Z Z ",
"2 F / F S s e u ^ ] Z A u > 5 % a u Z p d y ~ L i a 1 Z } D s %.-.;.W F ) O.S d f ` D p E s l y > 8 p B B A y r t d W u @ , = e ",
". d W u z n Z B B S 2 7 A p D 8 A i p D u y d f , , 5 y t i D <.3.:.f A ] o.~ / L l f f ~ _ W i Z n ; u B 7 f R f E d f Z J B B ",
"= & u : q F K A f q % u p y E Z , 6 , z ^ p A m B u a d e q D 0.q.7., ; k e j ~ Z i d t l ~ z R F i d f p i D ( L W u A H p W F ",
"W 6 y S B F d 7 f u q e B 5 F F e 8 Z z W D 8 m H D E L F S Z t.u.9.% , f a 0 S y R Z B u d d W a 0 e 2 8 B ^ S d d i A y $ s 7 ",
"D 7 R B B 6 ; u L L ^ d u u S D 7 8 3 t f d : y B L F B 7 L Z i.i.y.y B P L D A L W B 7 Z i p ~ W > @ % > , E p B i B H s t q   ",
"p 7 B Z y e , u S p D D , a l s y u & ; R E u e f Z 5 y & i u a j i D D / B 6 Z A I A e S B n (  .F 2 u : : f 8 L 8 u D D S 0 $ ",
"d D e y p W 7 6 E B 5 u Z p D p = y = p W ^ / u q y & 5 5 e i i f F i i F i 6 s e p e e S E 6 A E Z 6 K L Z 6 = d 1 H F S 8 d q ",
"/ Q ; # d ] u n ) E : = u B B > = e 5 B f ] K 5 y u & ; e 5 K W / D f 5 e u s z k e , p y s e 5 B _ u B I Z 7 - S u p u i = A B ",
"J S f F S W s F ( l , p i 6 B u B y E S : Q a u / F B i i i i ^ D p S u 5 6 k E R y A F , p A 2 > d W 7 b Z n n m f ; + , 1 Z W ",
"Z i S ) F d D p a z u A A S y B F 5 ^ F y d s u / S R > 1 F f p p i 7 5 S D ~ ~ W f W K n b f u e ; s s 6 Z 8 B - f D y 6 3 y y ",
"e : u f y i i 0 q S 7 H i } p K L 6 y s d u p L f e s y Z o.~ > t s y 5 s f ] { ~ R R s , y i D o.A p d Z A f f q a u W P 3 y q ",
"8 B n p q ; : 0 l u 6 8 7 W S d q H A e E u 2 W f S D Z W R d e y i i 8 B D p 8 p R ~ p 5 i u y F B 3 F A f a ` d > f d i & s F ",
"I A p i p S 8 B ~ p y + , p W p y B B c A p 5 q a D 4 p E i , B Z n A F 5 u i X 5 F / ..Z 8 A Z - ; : F y a r z A A W q ; e ` P ",
"K f q 3 n ' u i S 6 Z 7 y & ~ u d u : 8 p / Z 5 y % @ u y u 2 B F b 5 u y u i i p A F o.s y S B 2 f a s y f i e , d x S Z 8 ! W ",
"p Q e - 1 ~ f 6 7 , 2 A p e f f z S , > Z F > f Z 2 y ~ i B 7 7 ( E $ y f S F ~ i y u | E B B y - F / H H b Z p ; j ~ W D F W W ",
"f _ u - , ~ 7 p > Z 5 = b p > p ^ W S y B f = W f 5 6 R i A B L / z q a u ! d t y 5 B F A - y e + > P M m B u u = R o.F i s d i ",
", E F b i l q y B / ^ i Z c & u p i D S e d 2 Z S y F S t 0 6 F _ D W F K P B y B H A d > & u W E i n F L / W D S F  .i B W y 5 ",
"1 F F 5 = F W B i u F d i 2 5 a u F W , u d q e p p f Z p i 5 q e B F p 7 2 u u B m 3 i e - B H ' f i d R ~ ] Z S A ' u u F i 8 ",
"m F k e ; f f i 7 : 5 q f 8 1 i f E l > A P R e > W i = Z 8 p F d i i t & ; s p 5 > - % y B , & K A p s q u ..b y y E u 6 y f m ",
", s p Z d d u 3 8 p u > d > o 4 d d s , i W F 5 > z D 1 P A A I D F Z D i B B D W p 5 i L p l : i - > q > = K H Z B F F Z u W i ",
"e B Z 8 d Q 7 2 m F A b , @ y B F Z Z n R [ E 3 D S B 8 F S y Z S W D Z f u > i ^ L n Z F , t , u 5 p p Z B F Z p ^ ] ~ > Z S s ",
"W F A e D W = = 8 i 5 A i 6 p k s , = 5 ! ~ W 7 K A F B i D u y j W ^ u y % , n P K 1 u y i p F F L H p , 8 A i ; R R k y Z 7 ~ ",
"~ i u = D B 5 a a e p A Z F i e > e > = f Z p D F p i u q S 7 5 e S R D A 5 u S F i > 7 i q p A B p F R > % p 7 ; e t r f R y B ",
"R p a ; u q u | S E D y p i e - 5 D B o f u = u u y B W D F $ : p 5 q q G K s ; x R 5 G p E ^ A n 7 t t e X F i 5 8 B 5 y z p i ",
"F p 5 B = > B ( A W e $ > u e p u A A 8 p p y & d S i ^ ~ y = p F p 6 @ p d y > y Q ; y , F ^ B s S u f i & f S D F A / ] W p F ",
"_ d m A c 1 > , s l u 7 i E D n u L B u y > f i p s $ y l y 2 S D ` Z A B D 8 n : D W t 0 ; u i a d p ] ' F 8 H / 7 s W ^ W d e "
};
