/* XPM */
static char *result[] = {
/* columns rows colors chars-per-pixel */
"64 64 254 2 ",
"   c #181717",
".  c #221B19",
"X  c #1C3E0E",
"o  c #193919",
"O  c #3D2809",
"+  c #191C25",
"@  c #0F2120",
"#  c #182325",
"$  c #1E2233",
"%  c #26272B",
"&  c #29312A",
"*  c #222233",
"=  c #282B38",
"-  c #2E373C",
";  c #33363D",
":  c #4B310A",
">  c #6D2E00",
",  c #683200",
"<  c #753100",
"1  c #1D5110",
"2  c #355701",
"3  c #295711",
"4  c #1E6607",
"5  c #366B02",
"6  c #287904",
"7  c #357506",
"8  c #2D6F14",
"9  c #2C7614",
"0  c #2B4629",
"q  c #3A7226",
"w  c #4D4C06",
"e  c #744C02",
"r  c #744B14",
"t  c #4E7007",
"y  c #6E7107",
"u  c #494B35",
"i  c #724F31",
"p  c #4C7031",
"a  c #303345",
"s  c #373944",
"d  c #373D61",
"f  c #423E47",
"g  c #3D4249",
"h  c #3E5D70",
"j  c #4A484A",
"k  c #495443",
"l  c #464A54",
"z  c #495358",
"x  c #535458",
"c  c #6C5D52",
"v  c #576C56",
"b  c #71714B",
"n  c #796D57",
"m  c #4B5067",
"M  c #5B5B64",
"N  c #6E5973",
"B  c #5D6168",
"V  c #5A6C71",
"C  c #6D6F73",
"Z  c #905102",
"A  c #A25800",
"S  c #90700D",
"D  c #A76604",
"F  c #AA6F0B",
"G  c #B97901",
"H  c #8D632F",
"J  c #CF7800",
"K  c #857557",
"L  c #877866",
"P  c #857F71",
"I  c #1F8800",
"U  c #2A8605",
"Y  c #248D00",
"T  c #388B0F",
"R  c #269500",
"E  c #2C9501",
"W  c #269C00",
"Q  c #2B9D00",
"!  c #309F00",
"~  c #359508",
"^  c #26A000",
"/  c #2DA100",
"(  c #31A200",
")  c #36A40A",
"_  c #3BA514",
"`  c #3CA910",
"'  c #518A11",
"]  c #748F15",
"[  c #43A919",
"{  c #4D832F",
"}  c #5A9727",
"|  c #6D9623",
" . c #49AB23",
".. c #51AE2E",
"X. c #5AB337",
"o. c #76B828",
"O. c #6CB536",
"+. c #60944A",
"@. c #69BA49",
"#. c #6CB951",
"$. c #73BE55",
"%. c #758D6F",
"&. c #71B765",
"*. c #78C05A",
"=. c #7EC463",
"-. c #8A9007",
";. c #BA8701",
":. c #AF920A",
">. c #B99915",
",. c #B6A402",
"<. c #B8A615",
"1. c #978F35",
"2. c #AC962D",
"3. c #BBAD2D",
"4. c #C58902",
"5. c #CA9600",
"6. c #D39901",
"7. c #CA9911",
"8. c #C7A702",
"9. c #D3A302",
"0. c #D6A509",
"q. c #D5B00F",
"w. c #E7AB04",
"e. c #E9B702",
"r. c #E6BC18",
"t. c #C58F33",
"y. c #D4AE2F",
"u. c #ECBB2B",
"i. c #D8C716",
"p. c #F4C904",
"a. c #F0CC0D",
"s. c #FBD703",
"d. c #FEE306",
"f. c #FFE31B",
"g. c #F0D633",
"h. c #FFE630",
"j. c #908853",
"k. c #AB964F",
"l. c #A38855",
"z. c #AFA25C",
"x. c #8C8A6E",
"c. c #968A68",
"v. c #AC9968",
"b. c #A69976",
"n. c #B7A56D",
"m. c #B5AA76",
"M. c #B8A978",
"N. c #C1985F",
"B. c #C5A45A",
"V. c #D4AF50",
"C. c #C5A868",
"Z. c #CBB569",
"A. c #CCB370",
"S. c #C7B67B",
"D. c #85C76A",
"F. c #88C577",
"G. c #8BC973",
"H. c #94CD7D",
"J. c #DFD550",
"K. c #ECD055",
"L. c #DBC269",
"P. c #E9CF76",
"I. c #656D8D",
"U. c #7A7C86",
"Y. c #7379AC",
"T. c #3C4DC6",
"R. c #758E8E",
"E. c #798CAE",
"W. c #7797D9",
"Q. c #949491",
"!. c #A29C8A",
"~. c #84B78C",
"^. c #AAA487",
"/. c #B5AA87",
"(. c #BDB389",
"). c #A9A598",
"_. c #B4AD93",
"`. c #B9B397",
"'. c #999BA4",
"]. c #8894BA",
"[. c #B592BC",
"{. c #9AAEAD",
"}. c #ADABA4",
"|. c #A5A5A8",
" X c #A5A6AA",
".X c #AAAAAB",
"XX c #AFB1A8",
"oX c #BBB7A6",
"OX c #A4A5B3",
"+X c #ABABB4",
"@X c #A5A7B8",
"#X c #AAACBB",
"$X c #ABB8BA",
"%X c #B5B7BA",
"&X c #C5B885",
"*X c #D1BD81",
"=X c #C5BA98",
"-X c #C2A1B7",
";X c #97CD85",
":X c #9BD188",
">X c #9BCB94",
",X c #A5CA9E",
"<X c #A9D698",
"1X c #9AC3AF",
"2X c #A5CBA6",
"3X c #ABD5A4",
"4X c #B4DCA8",
"5X c #A8C6B7",
"6X c #B4CCB8",
"7X c #B8D8B6",
"8X c #BBE1AC",
"9X c #BEE1B3",
"0X c #D5C488",
"qX c #D4C999",
"wX c #D9CDA6",
"eX c #C4E4B9",
"rX c #8C9ACD",
"tX c #9DB2C8",
"yX c #A6BAC7",
"uX c #B6BBC7",
"iX c #B2B8D3",
"pX c #99ABF0",
"aX c #B0B3F6",
"sX c #EAB0DC",
"dX c #C6BFFD",
"fX c #E5A2F0",
"gX c #96C1D5",
"hX c #ABC4C7",
"jX c #B7C8CA",
"kX c #B8CECF",
"lX c #B5CBEF",
"zX c #B5C7FC",
"xX c #C6CACA",
"cX c #C4DACA",
"vX c #C8CCD4",
"bX c #C9D8D7",
"nX c #D5DBD9",
"mX c #CAE5C3",
"MX c #CCE6C6",
"NX c #D2E9CA",
"BX c #D4EBCD",
"VX c #D2E6D7",
"CX c #D6E8D6",
"ZX c #DCEDDA",
"AX c #E1EDDD",
"SX c #CDD5F3",
"DX c #E5D0FA",
"FX c #D8E6EF",
"GX c #E9F4E6",
"HX c #EAF2EA",
"JX c #E5EAFD",
"KX c #ECF2FF",
"LX c #F6F8F8",
"PX c #FDFEFD",
/* pixels */
"W Q / W Q / / ( ( ( ( / Q Q Q Q / / Q ( / W Q ! ( Q W W Y %.!.U W Q ! ( ( ( Q Q Q Q W Q E Q W Q Q Q / ^ Q / / Q Q ( ( ( ( Q / / ",
"Q / Q Q Q Q Q / / / / / / Q Q Q ( / / Q / W W Q Q Q W W p nXsX%.Y W Q ) ( ( Q W Q Q Q Q W W Q Q / / / / Q Q Q Q Q Q ( / ( / W Q ",
"/ / / / ! ! Q Q Q Q Q Q ( ( Q Q / ( ! Q W R W W ( Q / U XXPXfXiX{ W W ( ( ( Q Q Q ! ( / Q Q / Q / / / / Q Q Q Q Q Q Q Q Q / W W ",
"^ / / ( ! Q Q Q Q ! ! Q ! ( ( Q Q Q Q Q W W W Q / ( ! %.LXLXsXzX{.U / / ( ( Q Q Q ( / / ! ! ! Q Q Q Q / Q Q Q Q / Q W Q Q Q W Q ",
"/ Q ( ( ! Q W Q ! Q ! Q Q ( ( Q W E W Q ^ ^ ^ ^ / / 8 [.DXsXpXW.W.8 R / ( ! Q Q ( ( / / / / ( Q / / ( ( ( ( Q Q Q Q Q Q ( ( / / ",
"( Q Q Q / Q W Q ! ! ! / Q / ! Q W Q Q Q ^ ^ ) ^ U 5 8 P fX[.P T.h 4 t 5 Q / / ( ( Q / ( / / Q / ( ( ( ( ( ( Q Q ! Q Q ( ( / / ( ",
"( Q Q / / / Q W Q ! / ( / / Q Q Q ^ / / / ^ I T 6 5 y 3 L V.e.2.t S e q } ' t R ! ! ! ! ( / Q ! ( ( ( ( / Q Q ! ( ! Q / Q Q Q ( ",
"Q Q Q Q Q Q / / Q Q / ( ( / / Q ^ W / ) ~ | 3.J.J.1.S >.w.K.s.e.4.F 1.g.i.i.p.-.t E Q ! Q ( ! ! ( ( ( ( / Q Q ! ! ! Q Q Q Q Q Q ",
"Q E W E W Q / / Q / Q / / / / ^ W W W ' 3.i.;.S ,.s.5.8.d.h.s.w.G y.a.F w t ,.s.4.w U ! ! ! ( ( / / / ( ! Q Q W Q ! Q Q Q Q ! W ",
"Q Q W W Q / Q Q W W E W Q / / / Q Q T y.e.F S y w ,.p.F d.h.s.w.F K.5.e ;.,.F r.g.F w ~ Q ~ E E Q Q Q Q ! Q Q Q Q / ( / / Q ! ! ",
"Q ( ( / / / / W W Q Q Q Q R T 6 Y Y 1.s.F t.a.w.A 8.p.A i.u.e.4.Z r.w.A 4.r.q.t.h.y.i 6 E 5 S e 7 Q / Q ! Q / / / / ( / Q Q Q ( ",
"Q ( ( ( ( / / / ! ( ( ( U -.F w I U i.s.D >.a.5.5.s.4.F y.7.6.G A D 8.9.5.q.S >.h.g.y.y 5 U 8.J , Y Q Q Q Q ! Q ( ( ( Q W Q Q Q ",
"Q ! Q ! / Q Q Q ( ( ( / 9 i.7.S ' ,.w.p.4.Z t ] -.y Z ;.7.4.4.J D Z 5 t t t w <.q.H -.q.q.8.p.D w I W W Q ! Q ! Q Q Q / / / / / ",
"( ( ! ! / / Q Q Q Q ( / Y -.s.p.a.G 2 ' ,.D : 8 9 p c L L L L L P n k - o o t 7.r 2 Y t s.d.G : 6 W W Q ! Q Q ! / / / W / ^ Q Q ",
"Q ( / Q ( ( / / / Q Q W W U <.d.6., I R p k.b.Q.!.&XZ./. X.X.XoX0XS.).Q.x.x.b u ; % o X :.s.Z O R Q / / ( Q Q Q Q / / ^ / Q W Q ",
"! ! Q Q ( ( ( ( / / Q W Q Y -.p.G w { j.Z.P.=XOX=Xn.^.J.!..XoXP.^.M.n.|.}.P.K.M.l.n f + w s.G : 4 Q ( ( / Q Q W W Q Q Q Q Q / Q ",
"( ( ( ( / / ( ( ) / W R Q 6 q.q.H z.&X_.}.=X*X`.(.(.S.Z.).XXXX*XS.M.&X`.0XA./.).!.M.v.K u :.p.G , U E E E / ( Q W W W Q Q Q Q W ",
"( ( ( / / ( ( ( ( ~ | ] ' -.7.l.A.`..X`./.}..XM.n.m.x.R.U.Q.U.P P c.v.n.^.).}.).M.^.}./.b.b S 6.8.-.] :.e 5 ( / ! W W Q Q Q Q Q ",
"( Q Q Q ( ( ( ( Q { q.4.5.S v.L._.|.`.(.A.*X/.c.B l s = * * % % % % s x C !.M.L.B.^./.).).L.K u w S 4.5.G : E / Q Q W W Q Q Q / ",
"/ Q Q Q Q ( ( ( W ' q.;.H v.S.S._.|.@X.XS.j.u = s l z l s - ; = & = & - s g v z.M.#X#X}./.A.C.K     S ;.e 2 Q Q Q Q W W ! / Q / ",
"/ Q / ^ Q Q Q Q ! ~ t K /.=X'.|.|.@XXXM.n s l M B x B C I.E.E.E.].E.R.V V v g z L (.@XOXQ.'..Xl.f + . . . 4 Q W Q W W Q / / Q ! ",
"W Q / / Q W W W ! Q q S.}.#X#X#X#XoX^.j l C M s s B rXlXSXSXKXKXJXJXFXlXbX6XR.z f x./.'.U.#XyX}.v.c * * * 1 W W Q / W W Q Q Q Q ",
"Q Q / ( / ^ W Q ( 6 c.=X@X#X#X#XvXwXm M U.l + % m rXaXzXSXJXPXPXPXPXPXPXJXFX7XV l z S.!.'.#XyX@X}.v.j * * % U W W / / W Q Q / / ",
"( ( ( ( ( / W W E p S.)..X.X+X+XqXC a U.B % + = Y.aXzXJXLXPXLXLXLXLXPXPXPXzXlXR.s s L S.OX#X#X#X#X&XK * * * 4 W W / Q Q Q ( ! ! ",
"/ Q Q ( ( Q Q Q U c.&X|..X.X.XoXS.f % = ; m I.W.aXJXPXLXGXNXeX9X9XZXAXGXLXKXFXpXI.g g S._.tX#X#XtX=Xl.a * * 4 Q / / W W Q / / ( ",
"W W Q Q ! Q Q / 8 &X).|..X.X.X0XL % . % m iXSXDXPXPXHXCX9X3X<X:X;X3XMXBXmXGXPXSXpXpXE.x.&X@X#X+X-X_.N.f * $ 4 Q Q Q E Q Q ^ ^ / ",
"W Q W Q Q Q ( / 9 m.b.R.#X%XxX*Xg @ @ $ ].KXPXPXPXGXAXNXMXcXkX3X,X:X3X9X4X4XGXLXSXpXpXU.A.'.OX|.|.|.B.c $ * & U Q W W Q Q W W W ",
"W Q W E Q W W Q T (.=X@X%X.X=XS.- @ @ $ iXPXPXPXLXAX6X2X5X5XhXkXkXhX1X:X<X:X4XHXLXdXaXY.A.).@X+XOX).z.j * * * 3 / Q Q W E Q W W ",
"W W Q Q Q W W Q +.qXXX#X.X.XoXS.- @ @ g SXPXPXPXMXH.F.{.tX5XmXMXBXVXcX5X>X:X=.NXLXLXJXuXb.&XuX%XOX}.M.K a ; * 3 / ( / Q Q Q W Q ",
"/ Q Q Q ( ! / Q { qX}.@X.X.XoXS.g @ # d dXLXPXmXG.~.$XjXMXmX8X8X4XeXMXkX5X1X~.3XAXPXPXnXb.&X#XuX+X#X`.l.a * * 1 ( ( / Q Q Q / Q ",
"/ / / ( ( ( ( ( q 0X).+X.X.X`.S.- @ @ d aXKXAX,XXXbXnXBXmX9X<XH.G.:X<X8XkXhX1X1XcXLXPXLXQ.0XxXvXuX#X_.K = * * 1 / / Q / Q / / Q ",
"/ W Q ! ! Q ! ! q 0XXX.X.X.XoXS.- # # h SXKXcXjXFXAXZXmX<X;XG.D.=.*.D.;X8XbXjXyXxXAXPXPX).wXAXnXxX[.&Xk.= * = 1 Q Q / Q / Q / Q ",
"Q / / / / / / R b *X).'.'.)./.c.- . $ I.JXGXbXSXnXZXmX:X*.@.O.X. .` X.&.G.9XMXbXiXnXLXPX'.=XxXxX#XOX).k.f % * * 4 E / W W Q Q Q ",
"/ / / ( / / / 9 m._.|. X X=Xn.= % * + ].LXGXbXiXbXBX<XH.=.*.X.[ / ^ _ X.#.<XeXBXvXxXGXPX6Xn._.#X+X.X}.B.j * * * o W Q / ^ ^ / Q ",
"( ( ( ( ( / ( 9 M.`..X.X X=Xb.a a f s OXPXHXkXhXSXeX<XG.*.X. ._ / ^ /  .X.G.9XBXvX6XZXPX%Xn./..X.X+X}.B.j * = a 0 ^ / / / Q / Q ",
"( ( ( ( ( / ) 9 m.`.#X.X+X=Xm.l C Q.C uXPXGXhXhXCX9X:X=.X.` ) Q ^ / W _ ..*.<XNXjX5XCXPX#Xn.^.|..X.X}.B.x = f x u ^ ( ( Q Q Q Q ",
"( ( ! ! Q / Q 9 0X_.@X.X.X=Xc.m U.+XQ.jXPXAXhXbXBX4XD.*...` ( Q W W W ) [ O.:XmX$X1XZXPXOXn./..X.X+X-XC.M s x V v ( / / ! Q Q / ",
"( ( ( ( / Q W 9 <X(.OX|.|.).M M N B x +XPXnXiXFXNX:XD.X.[ _ ( Q Q Q Q / ` ..;X7XtXyXCXPXOXn.^..X.X@X+X*XB s j M p / Q Q / Q / Q ",
"( ( ( / / Q Q 6 c.S. X XOX X!.x.m = = C LXSXvXZXeX:X*.X...[ ) / Q Q / ( ` *.:XmXkXiXbXVXQ.v.R..X+X#XoXn.j = = ; 3 ^ / / / / Q Q ",
"( Q Q Q W / Q Y +.P.oX`.+X#XqXc.= * * x LXbXlXcXeX<X*.@.X.[ ) Q Q / / / ` X.<XmXkXiXbXxXb.L.!.`.OX#XqXv.a * * * 4 / Q Q / Q Q ! ",
"/ Q W W Q Q Q Y +.V.(.oX6X=XZ.K = = = M LXVXiXyXeX4X$.$.O.[ ) / Q Q ! _  .*.<XmXmXgXFXxXb.(.`.`.+X=XA.k.= * * * 4 / / / Q Q / ( ",
"! Q W Q Q Q Q Y b Z.).oX0X&XB.K = s s M PXAXjXyXNXeX:XD.@. ._ _ ) ) X.....=.8XMXkXhXGXvXb.0X%X`.*XA.B.l.a * * $ 4 / W W / / ( / ",
"( / ( ( Q Q Q Y b Z.).|.&X_.C.L = * * M LXHXjXhXZXeX<XG.@... . . .[ ..X.*.H.eXBXkXjXHXvXb.M.@X#X=X&XC.L = * * * 4 ^ W W W Q / / ",
"/ / / Q ! Q Q U K n.OXOX'.).C.n * * * M LXLXcXhXAXBX8X:X*.X...X.X...X.&.H.8XNXkXyXVXPXnXb.(. X{.OX'.n.l.a * * * 1 ^ W W W Q Q Q ",
"( / Q W Q Q / 9 C./.#XoX`._.B.x & = # v HXLXnXhXnXAXNX4X:XG.$.$.*.O.*.F.8XmXhXgXhXAXPXPX%XM.^.$X}./.^.V.n a $ $ o W / / Q / W W ",
"( ! W W W Q / 9 C.Z./.&X(.M.B.x = $ $ q eXPXGXxXiXvXnXNXeX4XG.G.G.G.F.8XNXVXkXtXkXHXPXPX#Xn.S.oX=X&X/.V.K = $ $ 1 Q / / / / W W ",
") ! Q Q / ^ / 9 n.n.^._.`.S.n.b $ $ = p D.LXLXCXxXjXuXvXmXeX4X4X4X9X9XBXVXkX5X5XVXPXPXKX].v.m.^.^.oXS.N.n * * * o E Q Q / / ^ ^ ",
"! ! / / ^ ) U t k.1.k.2.1.2.2.H : O : : p GXPXHXcX7X5X%X6XcXBXBXCXVXkXhX1X1X2XMXHXPXKXyXx.k.k.2.2.1.1.:.H : O O O 2 W / ^ ^ ^ / ",
"Q ! Q Q ^ / 7 >.6.0.9.9.9.6.9.9.A < < < c DXPXPXAXcX4X3X2X5XjXkXkXhX5X2X3X3XMXHXPXJXlXR.7.0.0.6.0.6.0.0.6.A , , , : Y / / / Q / ",
"! ! Q W W ^ U 1.y.6.t.y.6.t.V.y.D < < > L DXJXLXPXGXBX9X<X<X<X2X5X9XmX9X7XMXGXPXPXzXzXrXl.u.7.t.V.0.t.V.y.D , , , 2 / / / / Q ( ",
"( / Q W W W I <.s.p.u.f.s.w.s.d.4.< < < N aXdXDXPXLXLXZX7X:X3X;X<X4XCXZXCXHXPXPXPXJXzXW.3.h.g.u.f.f.u.h.s.4., , , 2 W Q Q ! ! ! ",
"Q W Q Q W ^ 6 >.s.p.e.s.p.w.s.s.G < < < c tXaXaXdXKXPXLXZX7X4X7X3X9XBXGXLXPXPXPXJXlXgXR.>.f.a.w.p.p.w.s.s.4.> , , 2 Q Q ! Q Q Q ",
"Q W W ^ / / T 1.t.3.>.>.7.>.>.>.S r r r v &.R.{.tXiXnXGXBXmX9XeXeXMXNXBXCXVXbXgX1X~.=.+.1.y.>.>.7.>.>.>.>.S r r r t / / Q Q / Q ",
"Q / Q Q W W _ O.o.o.o.o.o.o.o.o.o.} } } } `  ...+.&.&.F.G.G.G.D.=.=.G.=.=.&.*.@... ._  .O.O.O.o.o.o.o.o.o.O.} } }  .^ / Q / / Q ",
"/ / / / / / ^ ^ W / Q / / / Q Q Q Q / ^ / / / ! ( ) _ _ _ _ _ _ [ [ _ ` _ _ ) ) _ ^ W W / / ^ / W W W W ~ ( ( / ~ / / ( / ( / / ",
"Q Q / / Q Q W W W Q Q Q ( ( Q Q Q Q Q / ^ / Q Q Q / Q Q W W Q Q ^ ^ / / ^ ^ W W W W ^ W ^ ^ W W Q W W Q Q ( ( / / Q / ( ( ( ( / ",
"W W Q W Q ! W W W W Q Q ( ! Q W Q ( ( Q Q W Q ! / W ^ / / / / ( / / Q / Q W W W Q Q Q Q W W W W W Q Q W W Q / / W Q Q Q Q ! ( / ",
"Q Q Q Q W Q W W W W / Q ! ! Q Q ! ( ( / W Q Q ( / W ^ / / / / ( ( / / Q ( Q Q Q Q Q / / / Q W W / / Q ! W W ^ W W W W W W Q / / ",
"/ / / / Q W W W W Q / / / Q Q Q ( ( ( / Q / / / / Q / / / Q Q Q / ( ( / / Q Q Q W Q / ( / / ^ / / Q Q Q W Q / W Q / / / / / / ^ ",
"/ W Q Q / Q W Q / Q Q Q Q W W Q ! ( ( / Q / ( / / / / Q ( Q Q Q ( ( ( ( / Q Q E W Q / ( / / ^ / Q Q Q Q Q / / / / / Q W Q ^ / / ",
"Q Q Q Q Q / / Q Q W W W Q W W W ! Q Q Q / ( Q Q Q Q Q Q ! Q Q W Q Q ! ( Q / / W W Q ! ( Q Q Q Q Q Q Q Q / / / / / / ! W W W W ^ ",
"/ ( / Q Q Q Q Q Q W W Q Q Q W W Q ! Q Q Q Q Q Q / / ( ( ! W W W Q Q Q W Q Q / / ! W W ! ! Q Q Q / Q ( ( / / / ^ Q / ~ W W W / Q ",
"( ( Q W W W Q Q Q Q Q / / / W ^ Q Q Q W W Q ! Q Q ! ( ! Q W W Q / Q / Q W W / / Q Q W Q ( Q E W Q Q ( ( ! Q ! / Q Q ( / W W / / ",
"Q ! ! Q Q Q Q ! / Q / / / / Q Q Q W Q Q Q Q ! Q W Q ! ! Q W Q / ( ( / Q / / Q / Q Q W W Q ( ! Q Q W Q Q Q Q ! ! Q ( ( ( ( Q / / "
};
