/* XPM */
static char *result[] = {
/* columns rows colors chars-per-pixel */
"64 64 247 2 ",
"   c #111717",
".  c #1C3E0E",
"X  c #193919",
"o  c #3D2809",
"O  c #0F1F21",
"+  c #191A26",
"@  c #1C1D32",
"#  c #0F2120",
"$  c #182525",
"%  c #1D222B",
"&  c #1E2133",
"*  c #23232A",
"=  c #252829",
"-  c #273627",
";  c #222233",
":  c #252837",
">  c #292B35",
",  c #2A2C3D",
"<  c #312E32",
"1  c #2D373B",
"2  c #33373D",
"3  c #4F3606",
"4  c #422413",
"5  c #662D00",
"6  c #752F00",
"7  c #653100",
"8  c #6B3100",
"9  c #603C00",
"0  c #753000",
"q  c #1C560E",
"w  c #1C4A16",
"e  c #355702",
"r  c #245616",
"t  c #285312",
"y  c #1E6607",
"u  c #2A680B",
"i  c #366B02",
"p  c #277806",
"a  c #367505",
"s  c #2C6A1A",
"d  c #2C7714",
"f  c #317B16",
"g  c #1C4624",
"h  c #2E492E",
"j  c #3A6D2F",
"k  c #387925",
"l  c #4D4E06",
"z  c #7E4604",
"x  c #6C5101",
"c  c #754B15",
"v  c #486A01",
"b  c #596A02",
"n  c #4C730C",
"m  c #6E7107",
"M  c #494B35",
"N  c #6F4E28",
"B  c #497030",
"V  c #2E3342",
"C  c #343442",
"Z  c #393B45",
"A  c #423E47",
"S  c #3C4148",
"D  c #3B5740",
"F  c #49484A",
"G  c #4A564F",
"H  c #474A54",
"J  c #535458",
"K  c #6C5D52",
"L  c #546950",
"P  c #71684B",
"I  c #747749",
"U  c #7A6D57",
"Y  c #4E5262",
"T  c #585964",
"R  c #5C6168",
"E  c #6A6A6F",
"W  c #797879",
"Q  c #894900",
"!  c #985604",
"~  c #A25800",
"^  c #836702",
"/  c #966704",
"(  c #8C7701",
")  c #8D761B",
"_  c #9B7516",
"`  c #A76604",
"'  c #A97705",
"]  c #B97901",
"[  c #AB6910",
"{  c #8D632F",
"}  c #CF7800",
"|  c #83714F",
" . c #887A5C",
".. c #877866",
"X. c #857F71",
"o. c #1F8800",
"O. c #248303",
"+. c #248D00",
"@. c #2B8C02",
"#. c #2B8409",
"$. c #348807",
"%. c #289503",
"&. c #2C9401",
"*. c #269C00",
"=. c #2B9D00",
"-. c #309F00",
";. c #339408",
":. c #2B8611",
">. c #378818",
",. c #399716",
"<. c #26A000",
"1. c #2DA100",
"2. c #31A200",
"3. c #38A803",
"4. c #3EA114",
"5. c #3A8823",
"6. c #518A11",
"7. c #748F15",
"8. c #5A9727",
"9. c #4D8631",
"0. c #76B829",
"q. c #73B033",
"w. c #559040",
"e. c #6A8D4A",
"r. c #728B68",
"t. c #858D00",
"y. c #8D910A",
"u. c #A78F0F",
"i. c #BA8701",
"p. c #B79504",
"a. c #B99915",
"s. c #B6A402",
"d. c #B8A514",
"f. c #978F34",
"g. c #AF9429",
"h. c #A79835",
"j. c #86BD38",
"k. c #B9AF2B",
"l. c #C58902",
"z. c #CA9600",
"x. c #CC990F",
"c. c #D39901",
"v. c #C7A702",
"b. c #D4A302",
"n. c #D6A509",
"m. c #CAB405",
"M. c #D7B30E",
"N. c #D8AA19",
"B. c #E7AB04",
"V. c #E9B702",
"C. c #E6BC18",
"Z. c #C58F33",
"A. c #D1AE2C",
"S. c #D7AA36",
"D. c #EDBB2A",
"F. c #D8C716",
"G. c #ECC601",
"H. c #F4C903",
"J. c #F7D606",
"K. c #FCD401",
"L. c #FEDB03",
"P. c #F4D21A",
"I. c #FEE306",
"U. c #FFE31B",
"Y. c #DFD535",
"T. c #F5D731",
"R. c #FFE42D",
"E. c #FFED37",
"W. c #918850",
"Q. c #A49545",
"!. c #A38955",
"~. c #A3935F",
"^. c #B69857",
"/. c #8B8666",
"(. c #968A67",
"). c #8F8E71",
"_. c #AB9A67",
"`. c #AD9A70",
"'. c #A2A667",
"]. c #B8A66D",
"[. c #A3BB67",
"{. c #BCB46D",
"}. c #ABA477",
"|. c #B7A878",
" X c #BDB17A",
".X c #C1985F",
"XX c #C5A45A",
"oX c #D4AF50",
"OX c #C5A868",
"+X c #CBB569",
"@X c #D5BA6A",
"#X c #C3AD77",
"$X c #C7B67B",
"%X c #CFC956",
"&X c #ECD055",
"*X c #FFEE45",
"=X c #DBC169",
"-X c #E9CF76",
";X c #7B7C86",
":X c #3C4DC6",
">X c #807D83",
",X c #7F8088",
"<X c #73A3E2",
"1X c #91928E",
"2X c #A29E8E",
"3X c #ABA487",
"4X c #B5AA87",
"5X c #BDB389",
"6X c #ABA593",
"7X c #A9A69A",
"8X c #B4AD94",
"9X c #B4B295",
"0X c #BBB397",
"qX c #999BA4",
"wX c #B592BC",
"eX c #9EA2AB",
"rX c #8CB6AF",
"tX c #A4A5A6",
"yX c #ADABA4",
"uX c #A5A6AA",
"iX c #A8A6AC",
"pX c #AAAAAB",
"aX c #B3ADA6",
"sX c #AFB4AC",
"dX c #BBB7A6",
"fX c #A4A5B3",
"gX c #A5A8B7",
"hX c #ABABB4",
"jX c #AAACBB",
"kX c #AEB5BD",
"lX c #B6B8BB",
"zX c #C5B885",
"xX c #D1BD81",
"cX c #C5BB99",
"vX c #D5C387",
"bX c #D8CA97",
"nX c #D2CA9B",
"mX c #E7D39C",
"MX c #CDC9B4",
"NX c #B5B3C6",
"BX c #A2AFEB",
"VX c #EAB0DC",
"CX c #E5A2F0",
"ZX c #B8C3E0",
"AX c #CBCDCE",
"SX c #E2D7E8",
"DX c #FDF6FC",
/* pixels */
"*.=.1.*.=.1.2.2.2.2.2.1.=.=.=.=.1.1.=.1.1.*.=.=.1.=.*.*.%.e.2X:.*.=.2.3.2.-.*.*.=.=.*.=.&.*.*.=.=.=.1.<.1.1.1.=.=.2.2.2.2.=.1.1.",
"=.1.=.=.=.=.1.=.1.1.1.1.=.=.=.=.2.1.1.=.1.*.*.=.-.=.*.*.B SXVXr.+.*.=.2.3.-.=.*.=.=.=.=.*.*.=.=.1.1.1.1.=.=.=.=.=.=.2.1.2.=.=.=.",
"1.1.1.1.-.-.=.=.=.=.=.=.=.2.=.=.2.2.-.=.=.%.*.*.2.1.1.$.aXDXCXBX9.*.*.-.2.2.=.=.=.2.-.1.=.=.1.=.1.1.1.1.=.=.=.=.=.=.1.=.1.=.*.*.",
"<.1.1.2.-.=.*.=.=.1.=.-.2.2.2.1.*.=.=.=.*.*.*.=.1.2.*.r.DXDXVXZXrX:.=.2.2.-.=.=.-.1.2.1.-.-.-.=.=.=.=.1.=.=.=.=.1.*.*.=.=.1.*.*.",
"1.=.1.2.-.=.*.=.=.-.-.-.-.2.2.1.*.*.&.=.*.1.1.<.1.1.p wXCXSXBX<X<Xs &.2.2.-.=.=.2.2.1.1.1.1.2.=.1.1.2.=.-.-.=.=.=.=.=.=.2.2.1.1.",
"-.1.-.1.=.=.*.=.-.-.=.1.=.=.=.=.*.=.=.=.*.1.1.<.@.i u W CXwX>X:XR u v u -.1.1.2.1.2.2.1.1.1.1.=.2.3.3.2.2.=.=.=.2.=.=.2.2.1.2.1.",
"2.=.=.1.1.1.=.=.=.-.2.1.1.1.=.=.<.1.1.2.1.*.%.,.p i b j  .S.V.g.n m l n 8.6.n +.-.2.=.-.2.1.=.-.2.2.2.2.1.=.=.-.-.-.=.=.1.=.=.-.",
"=.=.=.*.=.1.=.1.=.=.1.2.2.1.1.=.<.<.1.1.6.8.k.%X%Xh./ x.C.&XJ.V.l.[ h.Y.F.F.G.u.v &.-.-.=.2.-.-.2.2.2.2.1.=.=.-.-.-.=.=.=.=.-.*.",
"=.*.&.*.*.=.1.1.=.1.=.1.1.1.1.<.*.*.=.6.k.F.i.^ s.L.z.b.I.*XL.V.] S.P.' l v p.L.l.x ;.-.-.-.-.2.1.1.1.2.-.=.=.*.=.-.=.=.=.1.=.=.",
"=.=.*.*.=.=.=.=.*.*.&.*.=.1.1.1.<.1.>.A.G./ _ m v v.V.' I.E.J.B.[ T.z.0 p.s.' F.P.{ l =.=.=.&.&.=.=.=.1.-.-.=.=.1.1.2.2.=.=.-.=.",
"=.-.1.2.2.1.=.=.*.=.=.=.=.&.$.a +.+.f.J.] S.H.B.! v.V.` M.C.V.l.! N.V.~ i.V.N.Z.R.A.N d +.i ( x a =.=.=.=.=.1.1.1.2.1.1.=.=.=.-.",
"=.-.2.2.2.1.1.2.-.2.2.2.@.7.' l +.p F.K.~ g.C.z.z.H.] ' S.N.z.] ! / m.b.z.M._ g.R.R.A.N i a m.} 9 +.1.=.=.=.=.-.1.2.2.=.*.=.=.1.",
"2.-.=.-.2.=.=.=.1.2.3.1.d F.l./ m s.M.G.z.Q b 7.t.m Q l.l.z.l.} ` ! i v n v e x.N.) 7.m.M.m.G.` 3 +.*.*.=.-.=.-.=.=.1.=.1.1.1.<.",
"2.-.-.-.1.=.*.*.=.=.1.1.O.y.U.J.V.' v 6.p.` 3 d f B P ............U G h X X b n.c e %.b J.I.] 7 p 1.*.*.-.=.=.=.=.1.1.<.1.<.=.=.",
"1.-.=.1.1.2.1.1.1.=.*.*.<.d d.I.c.x o.*.B ~.`.1X2X$X$X|.uXpXhXcXvX$X6X1X)...U M < = X . u.K.Q o %.=.1.1.2.=.1.=.=.1.1.*.1.=.=.=.",
"-.-.=.=.1.1.3.3.1.1.=.*.=.+.t.J.] l 9.W.+X-X0XfXcX].2X&X6XpXaX-X4X|.].uXyX-X&X|.~.U A + l J.] 5 u 1.1.2.1.=.=.*.*.=.=.=.=.=.1.=.",
"2.2.2.1.1.1.3.1.2.2.*.&.=.a s.C.{ ].zX8X7XzXzXdX0X$XzX+X7XsXpXxX X XzX0XzX$X4X6X3X}.`.| M p.V.] 9 p =.@.+.1.2.=.*.*.=.=.=.=.=.*.",
"2.2.2.1.2.2.2.2.2.;.8.t.6.t.x.!.+X5XpX0X5XaXpX X{.}.).,X;X,X>X>XX.(._.`.4X7XyX6X|.6X0X4X`.P _ v.v.t.t.u.x i -.1.-.*.*.*.=.=.=.=.",
"2.=.=.=.1.2.2.2.1.9.A.z.z._ ^.=X6XyX9X8X@XxX4X/.R S C : : > = = = > 2 J E 3X X@XOX3X4X7X7X@X .M x / i.c.] 3 &.1.=.=.*.*.=.=.=.1.",
"1.=.=.=.=.2.2.2.=.6.v.i.N ].zXzX9XtXjXiX XW.F < Z H G H S 1 h - - = < 2 C S R '.|.hXjX7X4X$XOX .+   m i.z e =.1.=.=.*.*.=.1.=.1.",
"1.=.1.=.*.*.=.-.=.&.n | 5X0XqXuXeXfXaX4XU Z H T T J R L s #.;.@.$.p p f j J H H X.4XiXfX1XqXfX!.F     + + u =.*.=.*.*.=.2.1.=.-.",
"=.=.=.1.=.*.*.=.-.=.B $XtXgXNXjXjXdX3XF H E T 2 1 L >.<.=.=.1.2.2.2.=.&.;.,.9.H Z ).4XqX;XkXjXpX`.K @ @ + w *.=.1.=.*.*.=.=.=.=.",
"=.=.1.2.1.<.*.*.=.d _.zXiXjXjXjXAXmXY Y ;XJ % % h :.*.*.*.=.=.=.-.-.=.2.-.2.-.5.F G #X6XqXkXNXjXaX^.A @ @ = +.*.*.1.=.<.=.=.1.1.",
"2.1.1.1.3.1.*.*.+.B zX7XpXhXhXhXnXW C ;XR * $ - #.=.*.*.=.=.1.=.=.2.2.2.2.2.-.@.D 1 X.$XfXjXgXjXjXzX| @ @ + y =.*.=.=.=.=.2.-.-.",
"1.=.=.2.2.=.=.=.O.(.zXuXpXpXpXdX$XC * > > q p #.*.<.1.1.1.=.=.=.=.1.2.2.2.-.-.-.:.s h #X8XjXjXjXNXcX!., ; ; y <.1.1.*.*.=.1.1.1.",
"*.*.=.=.-.=.=.1.s xX6XtXtXaXpXvX..@   * r 1.=.=.1.1.1.1.=.*.=.=.1.1.1.2.2.2.2.-.=.*.>./.zXgXjXhXiX0X^.A & & y 1.1.=.=.=.=.<.<.1.",
"*.=.*.=.=.=.2.2.:.}.}.;XlXNXlXxXS   O $ d 1.1.*.*.*.1.=.1.=.=.=.1.*.=.=.=.1.1.2.1.=.1.L $XeXiXtXuXtXOXK ; ; - O.=.*.*.&.=.*.*.*.",
"*.=.*.&.=.*.*.=.,.5XdXgXlXsXdX$X1 # # g %.1.*.*.=.*.=.=.1.1.1.1.=.*.*.*.=.=.1.1.1.1.1.k $X6XfXfXfX7X^.F ; ; ; r 1.=.=.*.&.=.*.*.",
"*.*.=.=.=.*.*.*.w.mXyXjXhXpXcX$X1 O # g <.1.=.1.1.1.=.1.2.1.2.2.=.=.=.1.1.1.*.<.1.1.2.@.'.zXlXNXgXaX|.| C C ; t 1.2.1.=.=.=.=.=.",
"1.=.=.2.2.=.1.=.9.bXyXhXpXpXdX$X1 # $ w 1.1.2.-.=.=.=.=.=.2.2.2.-.*.=.1.2.=.*.*.*.=.2.=.[.5XkXkXjXgXcX!., ; ; t 2.1.1.=.=.=.1.=.",
"1.1.1.-.2.-.2.2.j vXyXhXpXpXdX$X1 O O w 1.1.=.=.*.=.*.*.=.-.-.-.=.*.*.1.1.=.*.*.=.=.1.=.w.bXMXAXNXjX8X ., ; ; q 1.1.1.1.=.1.1.=.",
"1.*.=.-.-.-.-.1.s vXyXpXyXuXdX$Xh $ % w =.1.=.=.=.*.*.*.1.1.=.2.2.-.*.*.1.1.=.-.-.-.1.1.e.mXSXSXAXjXzX!., * > w =.=.=.=.1.=.1.=.",
"=.=.=.1.1.1.1.+.I zX7XqXqX7X6X(.1 = % p 2.1.=.=.1.*.*.=.1.=.1.1.2.2.=.*.=.1.1.2.2.1.1.1.8.cXMXZXkXeX7X^.A * * % y %.=.*.*.=.1.=.",
"1.1.1.1.1.1.1.d |.8XtXiXpXcX`., * % % #.3.1.1.=.1.=.=.=.=.1.1.=.1.1.<.*.=.=.=.2.1.1.*.1.:. X9XkXhXpXyXXXF ; ; ; X *.=.1.<.<.1.=.",
"2.2.2.2.2.2.1.f  X9XiXpXpXcX}.C 2 Z C p 3.<.1.=.1.=.=.=.=.1.2.=.=.=.*.*.=.2.2.2.1.=.%.=.,.{.3XfXpXpXyXXXF ; , , h <.1.2.=.1.=.=.",
"2.2.3.2.1.1.1.f $X9XjXpXaXcX|.H E 1XW :.3.1.1.=.*.=.-.=.2.1.=.=.=.=.*.*.2.2.-.=.=.=.=.2.,.{.3XpXpXpXyXXXG , F Y M 1.2.1.=.=.=.=.",
"3.-.-.-.1.=.=.f zX9XgXsXiXcX(.H 1XjX1X>.2.1.1.=.*.=.2.2.1.2.1.1.*.*.*.=.1.2.=.*.=.=.=.1.;.{.3XsXpXgXhXOXR A J E L 2.1.1.2.=.=.=.",
"-.2.2.2.=.=.*.d zX9XpXeXtX7XR T R T J f 2.-.=.=.*.=.2.2.=.=.=.1.=.=.*.=.=.=.-.=.*.=.-.2.:.|.}.eXuXgXhX$XE C F T B -.=.1.=.1.=.1.",
"2.2.2.1.1.=.<.O.).$XeXeXfXeX2X/.Y > > r 2.=.=.=.*.=.2.2.-.-.1.=.=.=.2.2.1.2.2.2.2.1.-.1.q.}.,XhXhXjXdX].F > , C s *.=.1.1.1.=.=.",
"2.1.=.*.<.1.1.+.e.-XdX0XhXhXbX/., ; ; r =.=.*.*.*.=.=.=.=.-.2.=.=.=.1.1.1.2.3.2.2.2.2.2.[.@X3X0XgXjXnX_., ; ; * y =.=.1.=.=.=.1.",
"=.=.&.*.=.=.1.+.I oX9XdXMXcX@X .: : , w =.1.<.=.=.=.=.=.=.-.=.=.=.=.=.*.*.=.-.=.-.-.-.=.[.zX0X9XaXcX@X!., ; ; ; y 2.=.=.=.=.1.2.",
"-.-.*.=.=.=.=.+.I +X7XdXvX5XXXr.: Z Z r *.1.1.1.2.1.2.2.2.=.=.=.=.=.*.*.*.1.-.-.-.-.2.=.[.vXlX0XxX#XXX!., ; ; ; y *.*.=.1.1.2.1.",
"1.1.2.2.=.=.=.+.I +X2XtX5X3X+X..V ; ; s =.1.1.1.1.=.=.=.1.1.=.=.=.-.-.*.1.1.2.1.*.1.1.1.[.5XgXjXcX4XOX ., ; ; ; y *.*.*.*.=.1.1.",
"1.1.1.1.=.=.1.O.| #XfXfXeX7XXXU @ ; : d *.=.1.1.=.=.=.*.=.=.=.-.-.-.-.=.1.2.1.1.*.1.1.1.q. XeXgXfXtX#X!.C ; ; ; q <.=.*.*.=.=.=.",
"2.=.1.1.=.=.1.d OX4XhXdX8X8XOXJ : & & p 1.=.*.=.*.*.*.*.=.=.=.=.-.1.-.=.=.1.=.=.*.1.-.-.>. X3XjXyX4X3XoXK V @ ; X =.1.1.=.1.*.*.",
"2.1.=.%.*.1.1.d OX$X8XzXzX XXXJ : & % p 1.=.=.=.*.*.&.*.=.1.2.2.2.2.2.=.=.=.=.=.=.-.-.2.f ]. XdXcXzX XXX..: ; ; X =.1.1.1.1.*.*.",
"2.2.=.*.1.1.1.d OX`.3X6X8X#X].K & & , k =.2.1.1.=.=.=.=.=.=.1.2.2.1.=.1.=.=.=.=.-.-.-.2.j {.+X3X6XaX#X.XU @ & ; w *.=.1.<.1.<.<.",
"-.-.*.1.1.1.#.n Q.Q.h.h.h.h.g.) 3 o 4 3 a 1.2.-.-.*.*.=.1.2.-.=.=.=.=.=.=.=.=.1.2.3.2.4.e.^.Q.h.h.h.h.u.) 3 o 4 o e *.<.1.<.<.1.",
"=.-.=.=.1.1.i a.n.n.b.b.b.b.b.c.~ 6 6 6 v -.-.=.-.=.=.1.2.2.2.=.=.=.=.*.=.=.=.2.2.2.2.4.d.n.n.n.n.n.b.b.c.! 8 7 5 3 %.1.1.=.1.1.",
"-.-.=.*.*.=.O.f.N.c.Z.A.c.Z.oXA.` 6 6 6 e -.=.1.1.=.1.2.2.=.=.=.=.=.=.1.=.=.=.1.1.=.1.O.Q.S.x.Z.S.N.Z.oXA.` 7 7 7 e 1.1.1.=.=.2.",
"2.1.=.*.*.*.p k.I.H.D.U.K.B.I.I.l.6 6 6 e =.=.1.*.=.1.2.1.=.=.<.=.1.1.1.1.=.=.=.1.*.*.O.k.R.T.D.U.U.D.R.L.l.8 7 8 e =.=.=.-.-.-.",
"=.*.=.=.*.*.o.d.K.H.B.L.H.B.K.K.] 6 6 6 e =.%.*.%.=.=.=.=.*.*.1.1.1.*.=.=.=.=.=.=.=.*.#.a.L.H.B.K.H.B.J.K.l.8 7 8 e =.=.-.=.=.=.",
"=.*.*.<.1.1.:.f.Z.k.a.a.x.a.a.a._ c c c B =.*.*.=.1.2.=.=.=.1.1.1.2.1.*.=.-.-.-.2.2.=.>.h.Z.d.a.a.a.a.a.a._ c c c a 1.1.=.1.=.=.",
"=.1.=.=.*.*.4.q.0.0.0.0.0.0.0.0.q.8.8.8.8.2.1.=.=.2.-.=.=.1.1.1.2.2.-.=.=.-.=.-.1.-.-.4.j.0.0.0.0.0.0.0.0.q.8.8.8.8.1.1.=.=.1.=.",
"1.1.1.1.1.1.<.<.*.=.=.1.1.1.=.=.=.-.=.=.=.=.=.=.1.=.=.=.=.=.=.1.2.2.-.2.1.1.1.1.1.=.=.1.1.<.<.1.=.&.*.=.*.2.=.1.1.1.1.2.2.2.1.1.",
"=.=.1.1.=.=.*.*.*.=.=.=.2.2.=.*.=.=.=.*.*.=.=.=.1.1.1.=.=.*.*.=.=.=.=.2.1.=.<.*.=.=.=.=.<.<.*.*.*.*.*.=.*.2.2.2.<.1.1.1.2.2.2.1.",
"=.*.*.*.=.=.=.*.*.*.=.2.-.-.=.=.=.2.2.=.=.*.=.-.1.*.<.1.1.1.1.2.=.1.=.=.=.*.*.=.=.=.=.=.*.*.*.*.=.=.=.*.*.=.1.1.=.=.2.=.=.1.1.1.",
"=.=.=.=.*.=.*.*.*.<.*.-.-.=.=.=.=.-.2.1.*.=.=.2.1.*.<.1.1.1.1.2.1.2.1.1.1.=.=.=.=.=.1.1.1.=.*.*.1.1.=.=.*.*.<.*.%.=.*.%.%.1.2.1.",
"1.1.1.<.=.*.*.*.*.1.1.2.1.=.=.=.-.3.2.2.=.1.1.1.1.=.1.1.1.=.=.=.-.2.1.2.=.-.=.*.*.=.1.2.1.1.<.1.1.=.=.=.=.=.=.=.<.<.<.=.<.1.1.1.",
"1.=.=.1.1.=.*.=.*.=.=.=.=.*.*.=.-.2.2.2.=.1.2.1.1.1.1.=.2.=.=.=.-.-.2.2.=.=.=.*.*.=.1.1.1.1.<.1.=.=.=.=.=.1.1.1.2.2.1.=.<.1.<.1.",
"=.=.=.=.=.1.=.=.=.*.*.=.*.*.*.*.-.=.1.=.=.2.=.=.1.=.=.=.-.=.=.*.=.=.2.=.2.1.=.=.=.=.=.2.1.=.*.=.=.=.=.=.1.1.1.1.=.-.-.=.*.*.*.<.",
"=.2.1.=.=.=.=.=.*.*.*.=.=.1.*.*.=.=.*.*.=.=.=.=.=.1.2.1.-.*.*.*.=.=.=.=.*.=.1.1.=.*.=.-.-.=.=.=.=.1.1.2.1.1.<.<.=.-.=.*.*.*.1.*.",
"2.2.=.=.*.*.=.=.=.=.*.1.1.1.*.=.=.=.=.=.*.=.-.=.=.-.2.2.=.*.=.=.1.=.1.*.*.=.1.1.=.=.*.=.-.=.&.*.*.=.2.2.2.=.-.=.=.=.2.=.*.*.1.2.",
"=.-.=.=.=.=.=.2.1.=.1.1.1.1.=.=.=.*.=.=.=.=.-.=.*.=.-.-.=.*.*.1.2.2.1.1.=.=.1.1.=.*.=.*.-.2.-.-.=.*.=.=.=.=.-.-.=.2.2.3.2.*.1.1."
};
