/* XPM */
static char *result[] = {
/* columns rows colors chars-per-pixel */
"60 53 242 2 ",
"   c #171311",
".  c #301907",
"X  c #362812",
"o  c #282923",
"O  c #302C25",
"+  c #38332D",
"@  c #562600",
"#  c #5B321C",
"$  c #4A2C12",
"%  c #642900",
"&  c #6B3802",
"*  c #7B3700",
"=  c #683718",
"-  c #473624",
";  c #523D28",
":  c #5C2D12",
">  c #5A4511",
",  c #6F4E0B",
"<  c #56462B",
"1  c #574732",
"2  c #7D4D23",
"3  c #7D4726",
"4  c #7B5824",
"5  c #64573A",
"6  c #664E33",
"7  c #7F6138",
"8  c #5A5849",
"9  c #585248",
"0  c #6B5A4B",
"q  c #6A6656",
"w  c #716C5A",
"e  c #72715E",
"r  c #7B7B5F",
"t  c #7E754C",
"y  c #767362",
"u  c #796F66",
"i  c #893801",
"p  c #983C05",
"a  c #9D4605",
"s  c #8D4B08",
"d  c #AC4400",
"f  c #AA4901",
"g  c #B44400",
"h  c #BB4500",
"j  c #BC4C00",
"k  c #B84D09",
"l  c #AB5502",
"z  c #BC5300",
"x  c #B95804",
"c  c #B65617",
"v  c #9A6A07",
"b  c #86670D",
"n  c #BB6600",
"m  c #A47C01",
"M  c #B97801",
"N  c #AA6F06",
"B  c #835024",
"V  c #875937",
"C  c #905530",
"Z  c #B15C2B",
"A  c #996E36",
"S  c #A7643B",
"D  c #B86535",
"F  c #C35401",
"G  c #CB5500",
"H  c #CC5A01",
"J  c #C85B0B",
"K  c #D35C00",
"L  c #CB5C13",
"P  c #C85A18",
"I  c #C04F00",
"U  c #C86703",
"Y  c #D36102",
"T  c #DD6501",
"R  c #D66B01",
"E  c #CA7900",
"W  c #DE7805",
"Q  c #CD631B",
"!  c #CF6C19",
"~  c #E36C00",
"^  c #E46C09",
"/  c #ED7503",
"(  c #EC750D",
")  c #ED7805",
"_  c #ED7611",
"`  c #EE7810",
"'  c #F37B11",
"]  c #F87D11",
"[  c #EC7710",
"{  c #C55F23",
"}  c #C7662A",
"|  c #D36A2B",
" . c #D66821",
".. c #C56A38",
"X. c #D56D33",
"o. c #DA773A",
"O. c #D37331",
"+. c #826B4D",
"@. c #8B6242",
"#. c #82734D",
"$. c #897C54",
"%. c #877855",
"&. c #917D5D",
"*. c #846F50",
"=. c #867866",
"-. c #AE724E",
";. c #DD7943",
":. c #C37246",
">. c #BB8300",
",. c #BC8800",
"<. c #AB8308",
"1. c #B88231",
"2. c #C68B00",
"3. c #CB8800",
"4. c #D98602",
"5. c #CC9400",
"6. c #CC9900",
"7. c #C79504",
"8. c #D49C00",
"9. c #D99401",
"0. c #EA8602",
"q. c #FF8C0E",
"w. c #FE8D03",
"e. c #EC980D",
"r. c #FF9503",
"t. c #FF9A02",
"y. c #FF950C",
"u. c #FF990B",
"i. c #F19C0A",
"p. c #FD8511",
"a. c #FF8911",
"s. c #F38411",
"d. c #FF9311",
"f. c #FF9A11",
"g. c #EF8111",
"h. c #DBA402",
"j. c #DDAA01",
"k. c #D6A607",
"l. c #CDA40E",
"z. c #E3AC07",
"x. c #FFA300",
"c. c #FFAB00",
"v. c #FFA70E",
"b. c #ECBA02",
"n. c #EDBA0A",
"m. c #E8B406",
"M. c #FFB301",
"N. c #FFBB00",
"B. c #F8BB09",
"V. c #FBA411",
"C. c #EEBB11",
"Z. c #F2BD11",
"A. c #FEBE11",
"S. c #FFB011",
"D. c #CF8D31",
"F. c #DAA23A",
"G. c #FFCA00",
"H. c #FAC607",
"J. c #FED704",
"K. c #FDC511",
"L. c #FECC11",
"P. c #F6C411",
"I. c #FFD311",
"U. c #FFD811",
"Y. c #EDC500",
"T. c #FFE103",
"R. c #FFED00",
"E. c #FFF800",
"W. c #8F835B",
"Q. c #AB8A4D",
"!. c #998966",
"~. c #9B8B6A",
"^. c #968865",
"/. c #969565",
"(. c #999565",
"). c #9A9966",
"_. c #9E9A69",
"`. c #968D74",
"'. c #A49B6C",
"]. c #AA996D",
"[. c #A69967",
"{. c #AA9B76",
"}. c #A59976",
"|. c #A18A68",
" X c #AAA277",
".X c #AAA977",
"XX c #ACAA7C",
"oX c #ABA57A",
"OX c #B2AA7E",
"+X c #B1A678",
"@X c #DA8B50",
"#X c #E09157",
"$X c #DBA451",
"%X c #9B9283",
"&X c #8E8781",
"*X c #ADA982",
"=X c #B4AB84",
"-X c #BAAE89",
";X c #B5A888",
":X c #BCB38B",
">X c #BEB98F",
",X c #B7AD99",
"<X c #BBB496",
"1X c #AEAC91",
"2X c #B6B1A6",
"3X c #A19788",
"4X c #C3BB95",
"5X c #C5BD9C",
"6X c #C5B899",
"7X c #C7BBA6",
"8X c #CAC39D",
"9X c #CFCB9F",
"0X c #CDC6A8",
"qX c #D6CBA9",
"wX c #D3CDB2",
"eX c #DBCEB9",
"rX c #D6D0B5",
"tX c #DCD5BB",
"yX c #DCD6B9",
"uX c #D6CCAE",
"iX c #E0D6B2",
"pX c #DFDCC2",
"aX c #E3DCC4",
"sX c #E4DAC6",
"dX c #E5E2CC",
"fX c #E7E3C8",
"gX c #EAE6D2",
"hX c #EDEAD5",
"jX c #EEECD9",
"kX c #E5E4D2",
"lX c #F5EDDC",
"zX c #FFEEDD",
"xX c #F4EBD7",
"cX c #F7F0DE",
"vX c #FFEEE2",
"bX c #FCF2E5",
"nX c #FFF5EA",
"mX c #FFFEEE",
"MX c #F7F2E3",
"NX c #FFFFF3",
"BX c #FFFFFE",
"VX c None",
/* pixels */
"VXVXVXVXVXVXVXVXVXVXVXVXVXVXVXVXVXVXVXVXVXVXVXVX. @ * * * s s & . . VXVXVXVXVXVXVXVXVXVXVXVXVXVXVXVXVXVXVXVXVXVXVXVXVXVX",
"VXVXVXVXVXVXVXVXVXVXVXVXVXVXVXVXVXVXVXVXVX@ @ i p h G ~ / ' a.` [ W M 4 $ VXVXVXVXVXVXVXVXVXVXVXVXVXVXVXVXVXVXVXVXVXVXVX",
"VXVXVXVXVXVXVXVXVXVXVXVXVXVXVXVXVXVXVX% i d g j G G T T ( p.p.a.a.a.a.d.9.v VXVXVXVXVXVXVXVXVXVXVXVXVXVXVXVXVXVXVXVXVXVX",
"VXVXVXVXVXVXVXVXVXVXVXVXVXVXVXVXVX@ p d d g j G G K R 0.e.f.a.a.d.d.q.q.a.` Q s VXVXVXVXVXVXVXVXVXVXVXVXVXVXVXVXVXVXVXVX",
"VXVXVXVXVXVXVXVXVXVXVXVXVXVXVXVXi d d d g h G U E 9.h.m.P.K.A.V.f.u.t.t.r.q.s.) l % VXVXVXVXVXVXVXVXVXVXVXVXVXVXVXVXVXVX",
"VXVXVXVXVXVXVXVXVXVXVXVXVXVXVXi j g d g h U 3.5.h.j.m.n.P.L.L.K.u.u.t.t.t.t.q.s.) R & VXVXVXVXVXVXVXVXVXVXVXVXVXVXVXVXVX",
"VXVXVXVXVXVXVXVXVXVXVXVXVXVXs L j g d h x 3.5.6.z.h.m.n.Z.L.L.K.d.u.t.t.t.t.t.u.V.z.W & VXVXVXVXVXVXVXVXVXVXVXVXVXVXVXVX",
"VXVXVXVXVXVXVXVXVXVXVXVXVX= } J j h h j E 5.5.8.j.z.b.n.Z.L.L.A.a.a.t.t.x.t.c.J.I.L.b.8., VXVXVXVXVXVXVXVXVXVXVXVXVXVXVX",
"VXVXVXVXVXVXVXVXVXVXVXVXVX1.D.Q z h j z 3.6.5.8.h.j.b.n.n.P.L.S.a.a.u.t.t.c.J.R.T.I.P.P.6.VXVXVXVXVXVXVXVXVXVXVXVXVXVXVX",
"VXVXVXVXVXVXVXVXVXVXVXVX4 $X! J G F F H 3.5.6.k.j.z.b.n.C.Z.K.d.a.a.y.t.x.c.J.R.R.J.I.P.b.<.VXVXVXVXVXVXVXVXVXVXVXVXVXVX",
"VXVXVXVXVXVXVXVXVXVXVX> D.F.! G G G G G E 5.8.h.j.j.b.n.C.V.d.p.a.a.u.t.t.x.G.R.R.R.T.I.P.b.<.VXVXVXVXVXVXVXVXVXVXVXVXVX",
"VXVXVXVXVXVXVXVXVXVXVXA F.D.Q G G G G G H E 5.8.j.j.b.b.e.g.p.p.p.p.u.t.t.t.x.T.R.E.E.T.J.Y.b.m VXVXVXVXVXVXVXVXVXVXVXVX",
"VXVXVXVXVXVXVXVXVXVX4 $XD.Q J G G G G G G H U 4.9.0.0.0.` ` p.a.p.a.a.u.t.t.t.N.R.E.E.E.R.J.J.Y.m @ VXVXVXVXVXVXVXVXVXVX",
"VXVXVXVXVXVXVXVXVX# ..o.| L G G G G G G G G K T T ~ / ( ` g.p.a.a.a.a.u.t.t.t.x.N.R.E.E.E.R.T.J.M.0.s @ VXVXVXVXVXVXVXVX",
"VXVXVXVXVXVXVXVX# ..;.X.P G G F F G G G G G G T T / ) ` ` ] a.p.a.a.q.u.t.t.x.c.M.N.G.J.J.J.G.N.x.r.w.W s VXVXVXVXVXVXVX",
"VXVXVXVXVXVXVX# ..o.X.Q J z j z z F G G G G K T T / ( ` ' p.a.a.a.a.f.u.t.t.c.x.M.N.G.G.G.N.N.c.c.x.t.w.q.E , VXVXVXVXVX",
"VXVXVXVXVX$ B ..O.} Q F j x n n n n G G G H T T ~ / ` ` p.a.a.p.a.d.u.t.t.c.c.M.N.N.N.G.G.G.G.N.M.c.t.t.V.A.K.7., VXVXVX",
"VXVXVXVX# ..X.|  .P F x M >.>.,.,.>.E U H Y T T / / _ ' p.p.a.a.d.f.t.t.x.c.M.N.N.N.N.N.N.G.N.M.c.c.t.t.L.U.L.L.z., VXVX",
"VXVXVX# ..| Q L F j x M ,.,.,.,.,.>.5.3.R T T / ) ( ' p.a.p.a.a.d.f.u.t.x.c.c.M.N.M.x.c.c.c.c.x.x.t.t.t.A.L.L.L.U.l.VXVX",
"VXVX: D | L H F j x M ,.,.,.>.,.>.5.5.8.4.T ~ / ( ' ] a.a.a.a.p.a.d.f.v.M.B.M.v.t.t.u.t.t.u.r.y.y.q.q.a.y.K.L.L.I.L.b VX",
"VXVXD  .J G F j h n ,.,.,.,.,.,.,.5.5.8.4.~ / _ _ s.p.p.a.a.a.a.V.A.K.L.U.U.U.L.v.a.a.a.s.p.g.g.( ( ( ( ( e.n.Z.P.L.l.VX",
"VX= | Q J z z h j n ,.,.,.,.,.,.2.5.6.8.W ~ _ ` _ ` ] p.p.p.p.V.L.L.L.L.L.P.P.P.Z.e.( ( ^ T T Y G G G G G U 3.h.j.n.m.> ",
"VXZ | L F z j h j x ,.,.,.,.,.,.,.3.5.9.W T ^ ` _ ' _ _ ' ' s.Z.P.P.Z.C.m.z.z.j.h.9.R H J F j g g d d d d d l E 7.h.z.s ",
"$ } | P j h g g g g n >.>.,.,.,.,.2.2.3.Y T T ^ _ _ _ _ ^ _ e.m.k.j.h.h.l.8.8.5.2.2.U j h h h g d d d d g f f l l x E * ",
"3 X.} P h g d d d d d l l N M M >.M M F G H H Y K K Y Y H H 3.5.2.2.7.7.2.2.2.,.,.,.z h h h h h d p p p c } c d d g G * ",
"3 ;.X.P I P k d d f d d f f l f l f d g g h j j I F F z x x n >.,.,.,.,.>.,.,.,.,.n h g p p p B = $ - - < C X.k d g h % ",
"= ;.;.{  .X.D } } c k f g d d d d d d d d g h h h h z z z j n >.2.,.,.>.>.N v v v 2 3 3 *.%.$.~.; - ; < < 0 S  .h I p VX",
"X :.;.X.X.:.S C S D Z O.} J k k h g z j j j j g k k j g a a a v v b 4 2 4 7 #.+.+.^.!.W.$.$.(.}.%.; 1 5 5 1 S  .G G % VX",
"VXS #X@X;.o.o.;.D S V V V V V B B 2 B B 2 2 2 2 3 B 3 B +.+.+.+.+.%.!.^.^.!.!.!.!.!.^.5 + &X^.}.'.5 < 5 5 A @XT G * VXVX",
"VX; Q.$X;.;.o. . .Q |.-X*X X].[.).)./.)././././.%.1 0 =.!.!.~.!.~.!.!.!.!.!.!.!.!.~.&.X o u 8 ~.XX$.b <.D.F.} a % VXVXVX",
"VXVX< Q.$X#X@Xo.O.S :X:XXX{.{.].[.).).).).).).^.- + 2Xu &.!.!.!.!.!.!.!.!.!.^.^.!.!.&.-     - (.{.oXA <.<., X VXVXVXVXVX",
"VXVXVXVX5 -.-.@X:.|.8X:XXX{.{.{.[._./.).).).).&.o   + - &.!.!.!.!.~.%.$.).!././.%.!.).%.; ; $.'.{.*X~.+ VXVXVXVXVXVXVXVX",
"VXVXVXVXVXVXVX; 6 7X4XOX+X{.{.].[.[.).).).).)./.5     5 (.(.(.).)._.#.$._.^.$.}.*.{.=X=XOX+XOX*X*X;X-X^.VXVXVXVXVXVXVXVX",
"VXVXVXVXVXVXVXVX&.qX4X+X{.{.{.].[._.)./.)./.(.)./.t #.(.(.(.'.{.XX-X<X~.&.3X<X`.7XsXsXsXsXtXyXwX0X5X:X;X9 VXVXVXVXVXVXVX",
"VXVXVXVXVXVXVXVX6X9X4X+XoX{.{.{.].[._.).).).).).)._.[. XOX6X8XwXaXfXhXjXxXMXmXMXmXnXNXnXmXMXMXMXhXaXwX7X`.VXVXVXVXVXVXVX",
"VXVXVXVXVXVXVXq 0X5X4X+X.XoX{.{.].[.[.[.).).)._.{.OX>XqXtXgXhXlXzXnXnXmXmXmXmXNXNXmXmXmXNXmXmXmXNXMXhXpX<X8 VXVXVXVXVXVX",
"VXVXVXVXVXVXVX^.qX8X:X=X.X.X{.{.{.{.].].[.'.+X=X8XyXfXlXcXzXzXvXnXmXmXmXmXmXNXNXBXNXNXBXNXNXNXmXmXmXbXgXyXy VXVXVXVXVXVX",
"VXVXVXVXVXVXVX-XqX4X:X=X.X.X{.{.{. X X XoX-X8XyXgXlXzXzXzXzXzXbXmXmXmXNXNXNXBXBXBXBXBXBXBXBXNXNXmXmXmXlXaX1XVXVXVXVXVXVX",
"VXVXVXVXVXVXO 6X9X4X:X=XXX.XoXoXXXOX=X>X0XtXgXcXzXzXzXzXzXzXzXnXmXmXmXNXBXBXBXBXBXBXBXBXBXBXBXNXmXmXmXlXaX5X8 VXVXVXVXVX",
"VXVXVXVXVXVXO 6XqX8X>X-X*X.XoXOX;X:X8XtXgXlXzXzXzXzXzXzXzXzXzXmXmXmXmXNXBXBXBXBXBXBXBXBXBXBXBXBXNXmXNXMXdXwXw VXVXVXVXVX",
"VXVXVXVXVXVXO >XqX9X6X:X-X=X=X-X<X0XaXjXzXzXzXzXzXzXzXzXzXzXvXmXmXmXNXBXBXBXBXBXBXBXBXBXBXBXBXBXNXmXmXMXdXeXw VXVXVXVXVX",
"VXVXVXVXVXVXVX}.qXqX8X4X-X-X:X6XuXdXjXcXzXzXzXzXzXzXzXzXzXvXvXmXmXmXmXBXBXBXBXBXBXBXBXBXBXBXBXNXmXmXmXMXdX5X9 VXVXVXVXVX",
"VXVXVXVXVXVXVXr iXqX9X6X<X>X0X0XaXjXzXzXzXzXzXzXzXzXzXzXzXzXbXNXmXmXmXNXBXBXBXBXBXBXBXBXBXBXNXNXmXmXnXlXpX,XVXVXVXVXVXVX",
"VXVXVXVXVXVXVX8 9XiXqX8X5X0XuXpXhXzXzXzXzXzXzXzXzXzXzXzXzXzXvXnXmXmXNXNXNXBXBXBXBXBXBXBXBXNXNXNXmXmXMXhXtX`.VXVXVXVXVXVX",
"VXVXVXVXVXVXVXVX}.iXuX0X0XuXtXkXMXzXzXzXzXzXzXzXzXzXzXzXzXzXzXbXmXmXmXmXmXNXNXNXNXNXNXmXmXmXNXmXmXmXjXsXwXw VXVXVXVXVXVX",
"VXVXVXVXVXVXVXVX8 5XqX0XwXtXpXgXlXzXzXzXzXzXzXzXzXzXzXzXzXzXzXvXnXNXmXmXmXmXNXmXmXmXmXmXmXmXmXmXnXlXfXtX1XVXVXVXVXVXVXVX",
"VXVXVXVXVXVXVXVXVXy eXeXtXtXaXhXlXzXzXzXzXzXzXzXzXzXzXzXzXzXzXzXvXnXmXmXmXmXNXmXmXmXmXmXmXmXnXMXjXsXaX2X8 VXVXVXVXVXVXVX",
"VXVXVXVXVXVXVXVXVXVX%XeXtXyXpXhXlXzXzXzXzXzXzXzXzXzXzXzXzXzXzXzXzXvXbXnXmXmXmXmXmXmXmXmXbXMXcXgXdXeX1Xq VXVXVXVXVXVXVXVX",
"VXVXVXVXVXVXVXVXVXVXVX%X0XpXtXgXhXlXlXzXzXzXzXzXzXzXzXzXzXzXzXzXzXzXzXzXbXvXbXbXvXvXMXlXjXkXsXaX0X`.VXVXVXVXVXVXVXVXVXVX",
"VXVXVXVXVXVXVXVXVXVXVXVX9 3XtXaXdXgXhXjXlXlXlXlXlXMXlXlXlXlXlXMXlXlXlXlXlXlXlXxXgXgXdXsXaXtX2X=.9 VXVXVXVXVXVXVXVXVXVXVX",
"VXVXVXVXVXVXVXVXVXVXVXVXVXVXu 2X0XsXsXdXfXaXfXfXdXkXkXdXkXgXgXkXkXkXdXfXfXfXsXaXpXtXeX5X%Xw VXVXVXVXVXVXVXVXVXVXVXVXVXVX",
"VXVXVXVXVXVXVXVXVXVXVXVXVXVXVXVX8 u %X,X0XrXwXrXrXrXrXtXtXtXtXtXtXeXeXrX0X<X<X2X%Xe w + VXVXVXVXVXVXVXVXVXVXVXVXVXVXVXVX",
"VXVXVXVXVXVXVXVXVXVXVXVXVXVXVXVXVXVXVXo 9 e e e e e e e y e y e e e e y 9 o o o VXVXVXVXVXVXVXVXVXVXVXVXVXVXVXVXVXVXVXVX"
};
