/* XPM */
static char *result[] = {
/* columns rows colors chars-per-pixel */
"59 63 245 2 ",
"   c #1C1512",
".  c #0F0D0C",
"X  c #311905",
"o  c #352204",
"O  c #322907",
"+  c #2B2925",
"@  c #3A3631",
"#  c #3A2C21",
"$  c #532E0C",
"%  c #612800",
"&  c #743511",
"*  c #4D3524",
"=  c #4E3B26",
"-  c #4E392A",
";  c #523D2B",
":  c #543C26",
">  c #6F3324",
",  c #561E00",
"<  c #4C410D",
"1  c #6A4704",
"2  c #775904",
"3  c #754711",
"4  c #4B4129",
"5  c #53432C",
"6  c #58472D",
"7  c #554433",
"8  c #564C33",
"9  c #5B4B33",
"0  c #564637",
"q  c #565234",
"w  c #595336",
"e  c #5D563A",
"r  c #5C593A",
"t  c #474436",
"y  c #674927",
"u  c #764925",
"i  c #765928",
"p  c #614E36",
"a  c #635B3E",
"s  c #685638",
"d  c #745538",
"f  c #6F5030",
"g  c #7B6039",
"h  c #5B544C",
"j  c #57534F",
"k  c #635E41",
"l  c #6A5945",
"z  c #685E51",
"x  c #656243",
"c  c #6A6444",
"v  c #6E664A",
"b  c #766648",
"n  c #79725E",
"m  c #686558",
"M  c #7A7266",
"N  c #76726C",
"B  c #880000",
"V  c #9A0000",
"C  c #940000",
"Z  c #AB0000",
"A  c #A60201",
"S  c #BC0000",
"D  c #B40201",
"F  c #833602",
"G  c #8A241B",
"H  c #872922",
"J  c #952922",
"K  c #95392F",
"L  c #A53A3A",
"P  c #CA0000",
"I  c #9B4707",
"U  c #8A5705",
"Y  c #8C4A13",
"T  c #AB4400",
"R  c #A94B01",
"E  c #B34500",
"W  c #BB4500",
"Q  c #B34D02",
"!  c #BD4C01",
"~  c #B04D08",
"^  c #BC5200",
"/  c #B75A01",
"(  c #AA5709",
")  c #8B680D",
"_  c #B96702",
"`  c #AB7800",
"'  c #BB7600",
"]  c #A6740B",
"[  c #8E5231",
"{  c #B05C29",
"}  c #856636",
"|  c #987036",
" . c #AA6D36",
".. c #C24E01",
"X. c #C45201",
"o. c #CB5500",
"O. c #CD5C01",
"+. c #C35609",
"@. c #D35D01",
"#. c #C95D17",
"$. c #C96500",
"%. c #D66301",
"&. c #DC6400",
"*. c #DC6900",
"=. c #D96909",
"-. c #DC7403",
";. c #CB6317",
":. c #D1710F",
">. c #E46C02",
",. c #EA7504",
"<. c #F0790C",
"1. c #F67E11",
"2. c #E0701E",
"3. c #CB6627",
"4. c #D96926",
"5. c #D97329",
"6. c #CB6B35",
"7. c #D97434",
"8. c #D27136",
"9. c #E07833",
"0. c #944C45",
"q. c #A84343",
"w. c #887956",
"e. c #8C6F46",
"r. c #BA7444",
"t. c #867A6A",
"y. c #8C7D77",
"u. c #A6786D",
"i. c #DA7C45",
"p. c #898100",
"a. c #BB8400",
"s. c #BA8701",
"d. c #B29306",
"f. c #B8813D",
"g. c #C68B00",
"h. c #D78602",
"j. c #CB9400",
"k. c #CC9900",
"l. c #C59100",
"z. c #D69603",
"x. c #DA9A18",
"c. c #CA971C",
"v. c #F78708",
"b. c #FF9B02",
"n. c #FF9A0B",
"m. c #F79308",
"M. c #FC8511",
"N. c #FF8A11",
"B. c #FE9711",
"V. c #EC8D04",
"C. c #DDAA00",
"Z. c #D8A503",
"A. c #D7A910",
"S. c #E4AA02",
"D. c #FFAA00",
"F. c #FBA604",
"G. c #E7B604",
"H. c #FFBB00",
"J. c #FBB505",
"K. c #FFA811",
"L. c #F9BA11",
"P. c #D38B32",
"I. c #DEA831",
"U. c #E0A83A",
"Y. c #EFC301",
"T. c #F5C601",
"R. c #FCC603",
"E. c #FFD801",
"W. c #FECC11",
"Q. c #FFE500",
"!. c #FFE900",
"~. c #FFFD00",
"^. c #8A8356",
"/. c #93885C",
"(. c #998A66",
"). c #988864",
"_. c #9B9466",
"`. c #9B9966",
"'. c #9B9667",
"]. c #96897B",
"[. c #948A7C",
"{. c #A59A6A",
"}. c #AA9B74",
"|. c #A19270",
" X c #A99776",
".X c #AAA276",
"XX c #ADA77A",
"oX c #B3AB7D",
"OX c #B9904C",
"+X c #C58F46",
"@X c #DAA744",
"#X c #D8A750",
"$X c #E0A543",
"%X c #E08A43",
"&X c #9C9586",
"*X c #AB978A",
"=X c #B5A984",
"-X c #B8B28A",
";X c #BCB696",
":X c #B0A794",
">X c #B7B5AB",
",X c #C4BB98",
"<X c #C0AD9D",
"1X c #C6BBA4",
"2X c #C9C19B",
"3X c #CCC7A9",
"4X c #D4CBAB",
"5X c #D5CBB3",
"6X c #DDD4BB",
"7X c #DEDCBC",
"8X c #D6D2B8",
"9X c #CBC5B5",
"0X c #E0CEAD",
"qX c #E0DABD",
"wX c #DFE0BD",
"eX c #DEDCC2",
"rX c #DDD5C7",
"tX c #DBDAD3",
"yX c #DCCFC6",
"uX c #E3DDC4",
"iX c #E6DBCA",
"pX c #E6E2CB",
"aX c #EBE4CE",
"sX c #E5E0C6",
"dX c #ECE6D3",
"fX c #EDEAD5",
"gX c #EEEDDB",
"hX c #E6E4D9",
"jX c #F2EDDB",
"kX c #FFEEDD",
"lX c #F1E8D6",
"zX c #FDF0DF",
"xX c #E9E8E5",
"cX c #E8E7E5",
"vX c #FFEEE2",
"bX c #F0EFEB",
"nX c #FFF2E4",
"mX c #FFF5EB",
"MX c #FFFEEE",
"NX c #F6F3E3",
"BX c #FFFFF3",
"VX c #FFFFFE",
"CX c #F6F7F8",
"ZX c #EDF0F7",
"AX c None",
/* pixels */
"AXAXAXAXAXAXAXAXAXAXAXAXAXAXAXAXAXAXAXAXAXX o & U U U U U 1 o O AXAXAXAXAXAXAXAXAXAXAXAXAXAXAXAXAXAXAXAXAXAXAXAXAXAXAX",
"AXAXAXAXAXAXAXAXAXAXAXAXAXAXAXAXAXAXAX% U z.A.L.K.B.n.n.n.m.z.S.d.p.p.< AXAXAXAXAXAXAXAXAXAXAXAXAXAXAXAXAXAXAXAXAXAXAX",
"AXAXAXAXAXAXAXAXAXAXAXAXAXAXAXAXAX& _ k.G.W.W.L.B.n.b.b.D.D.H.H.H.R.R.G.C.) $ AXAXAXAXAXAXAXAXAXAXAXAXAXAXAXAXAXAXAXAX",
"AXAXAXAXAXAXAXAXAXAXAXAXAXAXAX% / -.S.T.W.L.K.N.B.n.b.D.D.H.H.H.H.H.R.H.T.H.C.s.U AXAXAXAXAXAXAXAXAXAXAXAXAXAXAXAXAXAX",
"AXAXAXAXAXAXAXAXAXAXAXAXAXAX% ^ *.z.S.S.B.N.M.N.B.n.b.D.D.D.H.R.E.E.!.!.E.E.R.H.J.z.) 1 AXAXAXAXAXAXAXAXAXAXAXAXAXAXAX",
"AXAXAXAXAXAXAXAXAXAXAXAXAX% Q @.*.,.v.<.M.N.M.N.B.n.n.b.F.D.R.!.!.~.~.~.~.~.!.R.D.D.D.V.h._ 1 AXAXAXAXAXAXAXAXAXAXAXAX",
"AXAXAXAXAXAXAXAXAXAXAXAX% Q o.&.*.,.,.<.M.N.M.N.N.N.N.B.B.K.E.!.Q.!.Q.!.!.!.!.!.H.b.b.b.b.n.V.( 3 AXAXAXAXAXAXAXAXAXAX",
"AXAXAXAXAXAXAXAXAXAXAX, R o.O.*.>.,.,.1.M.N.M.N.N.N.M.1.v.L.T.Y.Y.T.T.T.T.T.T.T.J.m.v.v.v.N.N.N.B.A.) AXAXAXAXAXAXAXAX",
"AXAXAXAXAXAXAXAXAXAX, R _ $.$.*.>.,.<.1.1.<.<.<.<.,.>.>.,.S.S.C.C.Z.Z.Z.Z.Z.Z.Z.z.h.-.>.,.>.,.<.v.K.W.d.y AXAXAXAXAXAX",
"AXAXAXAXAXAXAXAXAX% R ' a.l.k.-.&.>.>.<.>.>.>.&.%.%.%.%.-.z.C.C.Z.k.k.k.k.d.l.s.s.' ^ ^ X.X.@.%.*.<.F.W.Y.2 AXAXAXAXAX",
"AXAXAXAXAXAXAXAXF _ ' a.g.k.g.*.&.&.@.@.@.o.@.o.o.o.o.o.$.z.C.C.k.k.k.k.k.k.s.s.g._ W W W W W E X.o.-.S.T.A.2 AXAXAXAX",
"AXAXAXAXAXAXAXF ^ ' ' a.g.j.$.o.o.o...X.X.o.o.o.o.o.o.o.%.g.C.C.Z.k.k.k.k.k.k.k.g.X.^ W W W E T T R ^ $.C.Y.A.1 AXAXAX",
"AXAXAXAXAXAXF +._ ` s.s.:._ ! W W E W W W W X.o.o.o.o.o.$.*.z.S.A.x.I.x.c.c.c.c.c.4.3.;.^ ! ! E E T T E / h.G.d.AXAXAX",
"AXAXAXAXAXY +./ ` ` ' _ Q E T T T E W W W ..X.o.o.o.o.X.O.$._ d.d. .| | i d d f [  .[  .i.6.3.#.! E E T T ^ -.V.) AXAX",
"AXAXAXAX$ #.+.( ` ( Q E T T T T E W W W ..X.o.X.X.I Y u & y p z c l s 5 w v v c a 7 p l d d [  .3.+.W E E E X.&._ AXAX",
"AXAXAX> { #.W T T T T T T T T Q W W ....X.! T Y y l k x w 7 k c c c a 5 r x k a 8 0 b b b c c p [ 6.#...W W ..o.*.& AX",
"AXAXAX{ 3.+.W E T T T T T R _ _ ' -.g.( Y y * 9 k c c k 8 = w r r w 6 = 8 q q 8 4 w x x x a 9 6 p d r.4.+.W W o.*.I AX",
"AXAX[ 6.#...W E T T T T T _ s.g.g.` ) f c x 8 4 5 w w 8 7 * 5 8 7 8 5 - 7 7 8 = = 8 q r w 5 8 x v v d r.7.+.W ..O./ o ",
"AX* 6.3.#...W T T T R T ^ g.l.s.2 y h x c a w 7 = 7 7 7 7 * - ; : ; - * ; ; ; * ; 7 7 8 = 6 e c c c k s r.4.^ ^ o.X.% ",
"AXY i.3.+.W E E T T T E $.g.) d a 5 5 q w q 8 7 ; * ; ; 6 p s w.w.^.w.w.w.w.w.s p ; ; ; * 7 q w 9 6 6 7 d i.;.o.o.O.& ",
"AX .8.#...W W W W W W ..$.) b v c r 5 = 5 7 7 ; 5 9 b w./.'.(._._.(.(.(.(.(.(.(._.w.b : = 7 ; = 5 8 l x s  .P.%.$.$.3 ",
"O +X7.#...W W W W ..o.~ u a c k r w 0 7 * = p b ^.'.`._.(.(.).).).).).).(._.(.).(.(.(./.b : : 7 7 q e x a | $Xx.g.z.U ",
"4 %XP.#.! W W W ..X.E > w 9 9 9 8 7 7 ; 6 g /.`.`._.(.).).(.(.(._.'.{.`.'.{.{.'.'._.(.(.).l ; 7 7 5 5 9 q } @Xx.k.l.1 ",
"i $XP.#.! W W ..o.~ d k s 8 = * ; 7 5 s /.{.`._.(.).(.(._.'.`..XXX=X,X;X,X,X,X-XXX{.'.(.).).b ; - * 5 8 a w P.x.k.s.o ",
"} U.P.#.W W X.o.~ f b v k q 7 7 : 6 b `.'.(.).).w.b w.{.{.=X2X5XiXaXdXlXlXjXhXaXuX3X=Xs h w.).b - 7 7 e v d @Xx.k.` AX",
"i %X8.#.W X.o.Q i c x k w 0 7 7 p ).`.`._.).(.w.* m &X].3XiXfXzXuXlXnXnXkXdXmXmXiXlX].  N :Xb (.: * * 6 a | U.k.k.2 AX",
"Y i.7.#.o.o.o.3 a r w 6 ; - - p ).{.'.(.(.(.(.s . j N ].jXkXzXzX<X1XxXcX:X&XyXgX*XjX&X.   + l `.b 5 7 5 5 P.x.k.l.$ AX",
"& 9.7.;.O.o.Q p r 5 4 4 : - 6 (.{.{._.(.).(._.b   .   *XnXkXkXmXnX*Xt.&XtXZX>Xt.9XBXtXj   - _.{./.6 7 5 [ 7.=.h.U AXAX",
"& 8.4.4.;.$.Y 9 5 5 q q 7 6 w.oX{.{._.).).(.'.{.w.l &XkXkXvXmXMXBXiX:XZXVXVXZXy.rXMXBXaX9X5X3X.X`.s > [ 7.>.@.Q AXAXAX",
"X 6.9.2.2.%.Y 9 k k w 4 * : XX.X}.{.`._.'.'.`.-XuXlXkXkXkXmXMXMXBXhX0.q.q.q.L H rXBXMXBXBXmXdX,X.Xe.{ 4.=.>.^ AXAXAXAX",
"AX{ 9.4.4.>.R l b l 6 ; ; b oX.X{.`.`.`.`.{.=X8XlXvXkXkXnXMXMXMXBXhX> B B B B > tXVXBXMXMXMXNXuX;X_.) >.%.R AXAXAXAXAX",
"AXy 7.9.4.2.O.u l p e 9 * w.oX}.}.{.`.`.{.=X5XlXkXkXkXvXMXMXMXMXmXcX> B B B B & tXVXVXBXBXMXMXNX8X-X} Q & AXAXAXAXAXAX",
"AXAXf.U.I.x.>./ u k r 4 6 .XoX.X}.{.{.{.oX1XdXkXkXkXkXnXMXMXMXBXVXxXH C B C C > iXVXVXVXVXBXMXmXgX4X(.O AXAXAXAXAXAXAX",
"AXAXf #XI.I.x.,.O.Y > * b oXoX.X}.}.}.oX3XpXkXkXkXkXvXMXMXMXMXBXVXxXH C V V V G tXVXVXVXVXVXBXMXmXfX-X@ AXAXAXAXAXAXAX",
"AXAXAX} +X@XI.h.>.&.%.R w.oXXX.X}.}..X,XqXkXkXkXkXkXvXMXMXMXBXVXVXxXH C V V V G tXVXVXVXVXVXBXMXMXjXuXM AXAXAXAXAXAXAX",
"AXAXAXAX: OX$XI.=.&.>.( {.oXXX}.}..X;X6XlXkXkXkXkXkXnXMXMXMXBXVXVXxXH A A Z Z G tXVXVXVXVXVXVXBXMXMXjXN AXAXAXAXAXAXAX",
"AXAXAXAXAXAX} r.i.4.@.e.-X.X.X.XXX;X5XfXkXkXkXkXkXkXmXMXMXMXBXVXVXxXH Z Z Z Z K hXVXVXVXVXVXVXBXMXMXnX&XAXAXAXAXAXAXAX",
"AXAXAXAXAXAXAX* >  .r.XX,X.XXXoX;X5XfXjXkXkXkXkXkXvXmXMXMXMXBXVXVXxXH Z Z D D u.VXVXVXVXVXVXVXBXMXMXMXyXAXAXAXAXAXAXAX",
"AXAXAXAXAXAXAXAXAXAXw.,X-XoXoX;X3XiXjXkXkXkXkXkXkXkXmXMXMXMXBXVXVXxXJ D S S Z ].VXVXVXVXVXVXVXBXMXMXBXrX@ AXAXAXAXAXAX",
"AXAXAXAXAXAXAXAXAXt -X,X,X-X,X3XpXjXkXkXkXkXkXkXkXkXnXMXMXMXBXVXVXxXJ S S S A *XVXVXVXVXVXVXVXBXMXMXBXrXAXAXAXAXAXAXAX",
"AXAXAXAXAXAXAXAXAXM 3X2X2X,X3XwXgXkXkXkXkXkXkXkXkXkXvXMXMXMXMXVXVXcXJ S P P J tXVXVXVXVXVXVXVXBXBXMXMXiXj AXAXAXAXAXAX",
"AXAXAXAXAXAXAXAXAX*X4X3X2X2X8XfXkXkXkXkXkXkXkXkXkXkXvXmXMXMXMXBXVXcXJ P P P J tXVXVXVXVXVXVXBXMXMXMXmXvX[.AXAXAXAXAXAX",
"AXAXAXAXAXAXAXAX+ ,X4X3X3X5XsXjXkXkXkXkXkXkXkXkXkXkXkXmXMXMXMXMXBXCXu.P P D *XVXVXVXVXVXVXVXBXBXMXMXnXnX[.AXAXAXAXAXAX",
"AXAXAXAXAXAXAXAXt ,X4X3X4X7XfXzXkXkXkXkXkXkXkXkXkXkXkXvXMXMXMXMXBXVXyXq.[ u.bXVXVXVXVXVXVXBXMXMXMXMXvXkX[.AXAXAXAXAXAX",
"AXAXAXAXAXAXAXAXn 0X4X4X8XpXgXnXkXkXkXkXkXkXkXkXkXkXkXkXnXMXMXMXMXBXBXCXCXVXVXVXVXVXVXVXBXMXMXMXMXmXkXnX[.AXAXAXAXAXAX",
"AXAXAXAXAXAXAXAXn 0X0X5XeXfXjXkXkXkXkXkXkXkXkXkXkXkXkXkXkXnXMXMXMXMXMXBXBXBXVXVXVXBXBXMXMXMXMXMXmXvXkXiXz AXAXAXAXAXAX",
"AXAXAXAXAXAXAXAXw.5X5X6XpXgXkXkXkXkXkXkXkXkXkXkXkXkXkXkXkXvXvXMXMXMXMXMXMXMXBXMXMXMXMXMXMXMXMXMXvXkXzXyXAXAXAXAXAXAXAX",
"AXAXAXAXAXAXAXAXn 0X8X7XaXgXkXkXkXkXkXkXkXkXkXkXkXkXkXkXkXkXkXnXMXMXMXMXMXMXMXMXMXMXMXMXMXBXmXvXkXkXzXyX@ AXAXAXAXAXAX",
"AXAXAXAXAXAXAXAXn 4X6XqXdXjXkXkXkXkXkXkXkXkXkXkXkXkXkXkXkXkXkXkXnXmXMXMXMXMXMXMXBXMXMXMXmXmXkXkXkXkXnXyX@ AXAXAXAXAXAX",
"AXAXAXAXAXAXAXAXh 3X7XwXfXjXkXkXkXkXkXkXkXkXkXkXkXkXkXkXkXkXkXkXkXvXvXmXmXmXMXmXmXmXmXnXvXkXkXkXkXkXmX:XAXAXAXAXAXAXAX",
"AXAXAXAXAXAXAXAXAX2XwXeXdXjXjXzXkXkXkXkXkXkXkXkXkXkXkXkXkXkXkXkXkXkXkXkXkXkXkXvXkXkXkXkXkXkXkXkXkXkXjXN AXAXAXAXAXAXAX",
"AXAXAXAXAXAXAXAXAX&XwXwXiXfXjXzXkXkXkXkXkXkXkXkXkXkXkXkXkXkXkXkXkXkXkXkXkXkXkXkXkXkXkXkXkXkXkXkXkXjX9XAXAXAXAXAXAXAXAX",
"AXAXAXAXAXAXAXAXAXn 7XwXuXdXgXjXkXkXkXkXkXkXkXkXkXkXkXkXkXkXkXkXkXkXkXkXkXkXkXkXkXkXkXkXkXkXkXkXzXgXt.AXAXAXAXAXAXAXAX",
"AXAXAXAXAXAXAXAXAXAX;XwX7XpXgXgXgXkXkXkXkXkXkXkXkXkXkXkXkXkXkXkXkXkXkXkXkXkXkXkXkXkXkXkXkXkXkXjXfX>XAXAXAXAXAXAXAXAXAX",
"AXAXAXAXAXAXAXAXAXAXm 4X7XeXpXjXgXjXkXkXkXkXkXkXkXkXkXkXkXkXkXkXkXkXkXkXkXkXkXkXkXkXkXkXkXkXjXgX8Xm AXAXAXAXAXAXAXAXAX",
"AXAXAXAXAXAXAXAXAXAXAX].6X6XqXpXgXgXgXkXkXkXkXkXkXkXkXkXkXkXkXkXkXkXkXkXkXkXkXkXkXkXkXkXkXjXfXuX&XAXAXAXAXAXAXAXAXAXAX",
"AXAXAXAXAXAXAXAXAXAXAXAX[.1XiXeXpXfXgXgXjXzXzXzXzXkXkXkXkXkXkXkXkXkXkXkXkXkXkXkXkXkXkXkXjXdXuX&XAXAXAXAXAXAXAXAXAXAXAX",
"AXAXAXAXAXAXAXAXAXAXAXAXAXm 1XuXeXpXfXfXgXgXjXzXkXkXkXkXkXkXkXkXkXkXkXkXkXkXkXkXkXjXjXfXiXuX&XAXAXAXAXAXAXAXAXAXAXAXAX",
"AXAXAXAXAXAXAXAXAXAXAXAXAXAXl &X4XeXsXaXfXfXgXgXgXjXzXkXkXkXkXkXkXvXkXkXkXkXjXjXgXdXsXsX3XM AXAXAXAXAXAXAXAXAXAXAXAXAX",
"AXAXAXAXAXAXAXAXAXAXAXAXAXAXAXAXj &X5XeXpXaXaXfXfXfXfXfXgXgXjXjXgXgXlXgXjXfXdXpXuXuX3X&Xj AXAXAXAXAXAXAXAXAXAXAXAXAXAX",
"AXAXAXAXAXAXAXAXAXAXAXAXAXAXAXAXAXAXh [.;X>XwXsXqXuXsXsXsXsXiXuXiXuXiXuXuXuXiX5X;Xt.j AXAXAXAXAXAXAXAXAXAXAXAXAXAXAXAX",
"AXAXAXAXAXAXAXAXAXAXAXAXAXAXAXAXAXAXAXAXAX@ M M &X;X;X1X6X6X6X6X6X6X1X1X1X&XM h AXAXAXAXAXAXAXAXAXAXAXAXAXAXAXAXAXAXAX",
"AXAXAXAXAXAXAXAXAXAXAXAXAXAXAXAXAXAXAXAXAXAXAXAXAX+ + @ N M M M M M @ + + AXAXAXAXAXAXAXAXAXAXAXAXAXAXAXAXAXAXAXAXAXAX"
};
