/* XPM */
static char *result[] = {
/* columns rows colors chars-per-pixel */
"59 51 238 2 ",
"   c #151211",
".  c #371903",
"X  c #271910",
"o  c #3A2416",
"O  c #2B210D",
"+  c #2C2922",
"@  c #2F2F28",
"#  c #312C26",
"$  c #3C3A31",
"%  c #39352F",
"&  c #482E02",
"*  c #672900",
"=  c #793600",
"-  c #6A370E",
";  c #4B3524",
":  c #6D3C22",
">  c #521E00",
",  c #6C5406",
"<  c #795D00",
"1  c #6E480E",
"2  c #52432B",
"3  c #534834",
"4  c #7D4D31",
"5  c #6B5938",
"6  c #714E2C",
"7  c #7D6639",
"8  c #6D603F",
"9  c #7F6201",
"0  c #5A594B",
"q  c #645949",
"w  c #605951",
"e  c #755F42",
"r  c #7A6746",
"t  c #6D695A",
"y  c #75725F",
"u  c #726856",
"i  c #797466",
"p  c #696A6B",
"a  c #843E05",
"s  c #913C06",
"d  c #A23E00",
"f  c #864306",
"g  c #8B4712",
"h  c #944406",
"j  c #AC4400",
"k  c #AC4C01",
"l  c #B34400",
"z  c #BB4500",
"x  c #BC4C00",
"c  c #B44C02",
"v  c #BD5300",
"b  c #B75409",
"n  c #AD5802",
"m  c #896213",
"M  c #916C04",
"N  c #BA6507",
"B  c #AD7702",
"V  c #B87B00",
"C  c #A66909",
"Z  c #975528",
"A  c #8D542C",
"S  c #A25527",
"D  c #946C35",
"F  c #B8622E",
"G  c #C24D00",
"H  c #CB4D00",
"J  c #C45400",
"K  c #CC5500",
"L  c #CD5B01",
"P  c #C65907",
"I  c #D45E00",
"U  c #C85D13",
"Y  c #D15B11",
"T  c #CC6B00",
"R  c #C76500",
"E  c #D36100",
"W  c #DC6600",
"Q  c #DC6C00",
"!  c #D56805",
"~  c #CB7800",
"^  c #DB7701",
"/  c #C96118",
"(  c #D46516",
")  c #DF791E",
"_  c #E46D00",
"`  c #E16A0C",
"'  c #EC7502",
"]  c #EE770B",
"[  c #E77704",
"{  c #F27C0B",
"}  c #EE7711",
"|  c #EE7910",
" . c #F47C11",
".. c #F77B11",
"X. c #D76B29",
"o. c #DE732A",
"O. c #C86C37",
"+. c #D97436",
"@. c #C76B31",
"#. c #E07A39",
"$. c #856443",
"%. c #816C4E",
"&. c #897A56",
"*. c #8F744F",
"=. c #B87045",
"-. c #857C6B",
";. c #D77E4D",
":. c #E07F45",
">. c #B68605",
",. c #B18D0A",
"<. c #BE9039",
"1. c #CB8A00",
"2. c #C78700",
"3. c #D98904",
"4. c #CD9400",
"5. c #CD9B01",
"6. c #D79900",
"7. c #CA991A",
"8. c #E88804",
"9. c #F98804",
"0. c #FF9702",
"q. c #FF9A02",
"w. c #FF950D",
"e. c #FF990B",
"r. c #EB8C10",
"t. c #F48211",
"y. c #FE8611",
"u. c #FF8A11",
"i. c #F48810",
"p. c #FF9311",
"a. c #FF9911",
"s. c #F49E10",
"d. c #EC9A09",
"f. c #D6A200",
"g. c #DCA500",
"h. c #DDAA00",
"j. c #D4AA0A",
"k. c #D5A409",
"l. c #E3AE00",
"z. c #EDAA07",
"x. c #FFA301",
"c. c #FFAA00",
"v. c #FFAA09",
"b. c #E5B301",
"n. c #EBB402",
"m. c #EEBB02",
"M. c #EEBB0B",
"N. c #EABB06",
"B. c #FFB500",
"V. c #FFBC00",
"C. c #F1BE02",
"Z. c #FDA811",
"A. c #EEBB11",
"S. c #EFB410",
"D. c #FEBC11",
"F. c #F9B711",
"G. c #EFA411",
"H. c #D48F36",
"J. c #E0993C",
"K. c #EDC305",
"L. c #FFC300",
"P. c #F7C706",
"I. c #FDD503",
"U. c #F5C211",
"Y. c #FFC511",
"T. c #FFCC11",
"R. c #F7CB11",
"E. c #FFD311",
"W. c #FFDC11",
"Q. c #FFEA00",
"!. c #FEE601",
"~. c #FFFD00",
"^. c #8D855B",
"/. c #95895D",
"(. c #998A66",
"). c #9A9366",
"_. c #9A9966",
"`. c #989765",
"'. c #9C9579",
"]. c #8F8770",
"[. c #AA996B",
"{. c #A49968",
"}. c #AA9A76",
"|. c #AB9B79",
" X c #A29677",
".X c #ABA376",
"XX c #AAA977",
"oX c #ACA37B",
"OX c #ACAA7B",
"+X c #A7A37B",
"@X c #B2AB7F",
"#X c #DD844F",
"$X c #E0814B",
"%X c #989289",
"&X c #ADA985",
"*X c #B3AB83",
"=X c #BBAC89",
"-X c #B3A989",
";X c #BCB28C",
":X c #B5AE92",
">X c #BBB794",
",X c #ADA594",
"<X c #C4BD9A",
"1X c #C6B997",
"2X c #C6BCA6",
"3X c #C7C298",
"4X c #CBC4A4",
"5X c #CDCBAA",
"6X c #CAC5A8",
"7X c #D3CDAD",
"8X c #D8CCA6",
"9X c #D3CDB3",
"0X c #DACCB8",
"qX c #DBD5BB",
"wX c #DAD4B8",
"eX c #D1D0AF",
"rX c #E0CFAC",
"tX c #DEDAC2",
"yX c #E2DDC4",
"uX c #E6DFCB",
"iX c #E6E4CC",
"pX c #E6E2C9",
"aX c #EBE6D2",
"sX c #EDEBD5",
"dX c #ECE9D7",
"fX c #F4EDDC",
"gX c #FEEEDD",
"hX c #F1E9D5",
"jX c #F9F0DF",
"kX c #FEEEE2",
"lX c #F6EFE0",
"zX c #FCF3E5",
"xX c #FEF6EB",
"cX c #FFFFEE",
"vX c #F6F4E2",
"bX c #FFFFF4",
"nX c #FFFFFE",
"mX c None",
/* pixels */
"mXmXmXmXmXmXmXmXmXmXmXmXmXmXmXmXmXmXmXmXmXmXmXmXmX. . * = = = a f f - . mXmXmXmXmXmXmXmXmXmXmXmXmXmXmXmXmXmXmXmXmXmXmX",
"mXmXmXmXmXmXmXmXmXmXmXmXmXmXmXmXmXmXmXmXmXmX> * a j c L I _ _ '  ...{ [ N g & mXmXmXmXmXmXmXmXmXmXmXmXmXmXmXmXmXmXmXmX",
"mXmXmXmXmXmXmXmXmXmXmXmXmXmXmXmXmXmXmX. * d l z J K L E W W ' ] ..y.y.u.y.y.r.>.mXmXmXmXmXmXmXmXmXmXmXmXmXmXmXmXmXmXmX",
"mXmXmXmXmXmXmXmXmXmXmXmXmXmXmXmXmXmX* d z z z x J K I W _ 8.t.y.p.p.p.u.p.p.y.u.r.m mXmXmXmXmXmXmXmXmXmXmXmXmXmXmXmXmX",
"mXmXmXmXmXmXmXmXmXmXmXmXmXmXmXmXmXh x z z z G K K I Q 8.z.S.D.Y.Y.Y.T.D.Z.a.p.w.p.u.N mXmXmXmXmXmXmXmXmXmXmXmXmXmXmXmX",
"mXmXmXmXmXmXmXmXmXmXmXmXmXmXmXmXM ~ V v z G K K I Q 6.n.A.A.T.T.T.T.W.W.E.Z.e.0.w.p.y.N mXmXmXmXmXmXmXmXmXmXmXmXmXmXmX",
"mXmXmXmXmXmXmXmXmXmXmXmXmXmXmXM 4.2.>.N G K K L E ^ l.M.A.T.T.T.T.E.W.W.W.E.Z.0.q.w.u.t.1 mXmXmXmXmXmXmXmXmXmXmXmXmXmX",
"mXmXmXmXmXmXmXmXmXmXmXmXmXmXB 5.4.2.>.N K K K E _ 3.n.A.A.T.T.T.T.E.W.W.W.W.Z.e.x.q.p.y.i., mXmXmXmXmXmXmXmXmXmXmXmXmX",
"mXmXmXmXmXmXmXmXmXmXmXmXmXm h.5.4.2.V J K K L E W _ z.A.U.T.T.T.T.E.W.W.W.T.a.e.c.x.a.u.Y.,.mXmXmXmXmXmXmXmXmXmXmXmXmX",
"mXmXmXmXmXmXmXmXmXmXmXmX, 5.f.5.1.V R K K L E W W _ d.A.U.T.T.T.T.T.W.W.W.Z.a.e.c.x.e.p.D.U.M mXmXmXmXmXmXmXmXmXmXmXmX",
"mXmXmXmXmXmXmXmXmXmXmX, 7.h.5.4.~ v J K K L E W W _ { G.U.T.T.T.T.T.W.E.F.a.e.x.c.x.q.p.Y.U.h.< mXmXmXmXmXmXmXmXmXmXmX",
"mXmXmXmXmXmXmXmXmXmX6 7.j.5.2.T L L K K K E W W W ' } t.Z.Y.Y.T.Y.Y.D.Z.a.e.q.q.c.c.q.w.F.R.K.5.& mXmXmXmXmXmXmXmXmXmX",
"mXmXmXmXmXmXmXmXmX: X.) ^ R K K K K K K L W W _ _ ' } } ..u.p.a.p.p.u.p.a.e.q.q.c.c.x.w.a.U.M.m.M mXmXmXmXmXmXmXmXmXmX",
"mXmXmXmXmXmXmXmX: @.o.( L K K K K K K K E W W W _ ' } } y.y.y.y.y.u.y.p.a.a.q.q.x.c.c.q.u.Z.U.m.h., mXmXmXmXmXmXmXmXmX",
"mXmXmXmXmXmXmX: O.o.( L K K K K K K K L Q W W _ ' ] } } y.y.y.y.y.y.y.p.a.a.e.q.c.c.c.x.a.p.Z.M.m.,.mXmXmXmXmXmXmXmXmX",
"mXmXmXmXmXmX: O.o.( L K K K K K K R T ^ ^ ^ Q _ ' ] } }  .y.u.y.y.y.y.p.p.a.e.x.c.c.c.x.q.w.u.G.n.n.>.mXmXmXmXmXmXmXmX",
"mXmXmXmXo : O.o.( L K K K K K L ~ 4.g.g.g.h.6.8.' { } }  .y.y.y.y.u.u.a.a.a.e.x.c.c.c.c.c.x.w.u.i.9.8.n mXmXmXmXmXmXmX",
"mXmXmX: O.:.X.U K G z J K K K 2.6.h.h.h.h.g.l.n.d.] } }  .y.y.y.u.u.a.a.a.a.q.x.c.c.c.B.V.V.c.q.p.t.{ ] n mXmXmXmXmXmX",
"mXmX6 H.#.X.Y K x z G K K K ^ 6.g.h.h.h.h.h.l.m.M.r.} } y.u.y.u.p.p.e.a.a.e.x.c.c.c.c.B.V.V.V.B.c.e.y.i. .b - mXmXmXmX",
"mXmXH.J.X.Y K H z z J K K E 3.h.h.h.l.h.l.l.m.M.M.s.}  .y.y.u.e.q.q.q.a.e.x.c.c.c.c.B.L.L.I.L.V.B.B.v.a.y.i.r.>.mXmXmX",
"mXD J.H.Y K H z z x K K L Q g.h.h.h.h.h.n.m.A.A.A.G. .y.y.u.e.q.q.0.q.q.x.x.B.I.I.I.I.L.L.V.V.V.B.c.x.e.y.y.Z.T.,.mXmX",
"1 H.H./ P K H z z x K K E ^ g.h.g.l.b.n.M.M.A.A.U.Z.y.y.y.w.q.q.x.x.x.x.c.L.Q.~.~.~.~.!.V.c.c.x.q.e.w.y.y.y.p.D.U., mX",
"m #XX.K K K z z z z J K E ^ g.h.h.n.m.M.M.A.S.A.R.F.y.u.w.q.q.q.x.c.c.c.L.!.Q.Q.Q.!.!.!.I.q.0.8.' 8.[ [ _ [ { r.E.,.mX",
"4 ;.X.H K K z z z z x J J E 3.h.h.l.b.b.M.M.K.K.P.v.9.9.0.0.0.q.q.x.q.q.L.I.I.R.P.P.K.K.N.8.Q ! E E J J J J E E d.j.& ",
"4 #Xo.Y K G l l j l l z x J P 1.6.g.h.g.h.b.m.K.K.0.9.9.9.9.9.9.9.9.' 8.b.b.b.b.f.f.g.5.4.~ J J v x z z x z x G T g.9 ",
"4 $Xo.! L H l j j j j l l z z v ~ 1.4.4.6.f.f.h.3._ _ _ _ Q T ! E I E 3.5.4.4.4.1.1.1.1.1.N v x x P U U U b v z J 3.< ",
"6 #XO.F X.( U b z l l j j l z z l x v R T T T T I K K K K K L K K K L 1.1.1.2.1.1.2.V B B g g a a g A A O.O./ v J R 1 ",
"o ;.;.F S F @.@.@./ U G z z z z z z z x v J K K K K K K K K K K K L T 1.2.V B m m m 7 7 6 ^.(.2 ; ; ; ; 3 =.+.J K l . ",
"mXA #X;.O.F S S Z A S b j l x v v v v v v J K K K K K K K K K x c v C m m 7 7 ^.^.^.-.3 0 -.(.e ; 2 3 2 6 =.X.L K = mX",
"mXmXD ;.:.o.( U D  X&.$.$.A g g g k k k c c x x x c g g g g A 7 7 7 &.^.^._._._._._.8   p %X%.&.2 ; 6 Z O.+.( J s mXmX",
"mXmXmX6 ;.$X+.Z |.@X.X|.}. X(.'.(.$.$.$.$.$.$.: . o % 5 /./.`.`._._._._._._._.`._._.8     + 8 .X5 M R Q ` ! h > mXmXmX",
"mXmXmXmXo 4 Z (.1X*X.X}.}. X|.|.|.|.|.|.|.|.|.&.+   O *.[._.`.(.).`./.`.`._._.`._.{./.2 O 2 `. X^.,.V f = * mXmXmXmXmX",
"mXmXmXmXmXmX# *X3X*XXX}.}.}.}.}.|. X|.|.}.[.[.[.*.e *.[.[.{._.(.(.&.$.(.).)._.^.y _._.`.^.`._.}.|.5 O mXmXmXmXmXmXmXmX",
"mXmXmXmXmXmX; >X3X;XOXXX.X}.}.}.}.}.|. X}.[.}.}.}.}. X[.{._._./.).^.e /.&.r &.&.7 _._._._.{.[..XoX XmXmXmXmXmXmXmXmXmX",
"mXmXmXmXmXmXy 4X1X=X*XXXXX+X}.}.}.}.}.}.}.}.}.}.}.}.[.[.{._._._.{.{.&.%.%.{.(.&..XOX+X.X.X.XOX&X-X=Xu mXmXmXmXmXmXmXmX",
"mXmXmXmXmXmX-.8X1X*X-X*XXXXX|.}.}.}.}.}.}.}.}.}.[.[.[.[.[..X.X@X=X1X2X6X5X7X0XqXwX9X9X5X6X3X>X;X=X=X'.mXmXmXmXmXmXmXmX",
"mXmXmXmXmXmX=X8X1X=X=X=X&XXXXXXX}.}.}.}.}.}.}.}.[.|.*X;X2X5XwXtXpXaXfXvXvXvXzXxXxXvXvXvXfXiXqX6X>X=X&X3 mXmXmXmXmXmXmX",
"mXmXmXmXmX@ 1X4X1X=X=X=X*X*XOXXXXXXXXX.X}.|..X*X1X6XwXuXhXfXjXxXcXcXcXcXcXbXbXcXbXcXcXcXcXxXvXiX9X4X1Xq mXmXmXmXmXmXmX",
"mXmXmXmXmX@ 1X8X3X;X>X=X=X=X=X*X*X@XOXOX*X;X4XwXiXhXgXxXxXcXcXcXcXcXcXcXcXcXcXcXcXcXcXcXcXcXbXzXdXtX<X].mXmXmXmXmXmXmX",
"mXmXmXmXmX@ 1X0X3X3X>X>X>X>X;X=X=X=X;X1X6XyXaXgXkXgXkXxXcXcXcXcXcXcXcXcXcXcXbXbXbXcXbXcXcXcXcXcXvXdXqX&X+ mXmXmXmXmXmX",
"mXmXmXmXmXmX XrX4X3X1X<X<X<X<X1X<X<X5XtXhXgXgXgXgXgXkXcXcXcXcXcXcXcXcXcXcXbXnXnXbXcXcXcXcXcXbXcXzXfXyX:X+ mXmXmXmXmXmX",
"mXmXmXmXmXmXi rX8X4X2X3X4X4X5X7X5XwXiXfXgXgXgXgXgXkXzXcXcXbXcXcXcXcXcXcXcXbXbXbXcXcXcXcXcXcXcXcXxXdXyX-XmXmXmXmXmXmXmX",
"mXmXmXmXmXmXq 4XrX5X5X5X5X7X7X0XtXaXfXgXgXgXgXgXgXgXzXcXcXcXcXcXcXcXcXcXcXcXcXcXcXcXcXcXcXcXcXcXxXfXyX-.mXmXmXmXmXmXmX",
"mXmXmXmXmXmXmX'.rX5X5X5X5X0X0XqXiXfXgXgXgXgXgXgXgXgXkXxXcXcXcXcXcXcXcXcXcXcXcXcXcXcXcXcXcXcXcXxXlXaX9X0 mXmXmXmXmXmXmX",
"mXmXmXmXmXmXmXq <X7X5X5X7X0XtXuXsXfXgXgXgXgXgXgXgXgXgXzXcXcXcXcXcXcXcXcXcXcXcXcXcXcXcXcXcXcXvXjXfXuX%XmXmXmXmXmXmXmXmX",
"mXmXmXmXmXmXmXmXu <XeX5X9X0XqXuXsXgXgXgXgXgXgXgXgXgXkXkXxXcXcXcXcXcXcXbXcXcXcXcXcXcXcXcXzXjXsXaXuX2Xw mXmXmXmXmXmXmXmX",
"mXmXmXmXmXmXmXmXmXq '.eX9X0XqXyXaXfXfXkXgXgXgXgXgXgXgXgXkXxXxXcXcXcXcXcXcXxXcXxXzXzXvXvXfXaXpXyX2Xp mXmXmXmXmXmXmXmXmX",
"mXmXmXmXmXmXmXmXmXmXmXi :X7X0XrXtXyXaXaXaXfXgXfXfXfXgXgXgXgXkXvXgXgXjXfXlXlXfXfXfXfXhXaXiXyX9X%Xw mXmXmXmXmXmXmXmXmXmX",
"mXmXmXmXmXmXmXmXmXmXmXmX% t '.>X5XeXwXwXqXtXpXpXdXiXdXdXdXdXdXsXsXsXsXaXaXdXaXiXdXuXuX9X2Xi w mXmXmXmXmXmXmXmXmXmXmXmX",
"mXmXmXmXmXmXmXmXmXmXmXmXmXmXmX$ t y ].:X:X:X:X6X9XwXtXqXtXyXpXpXyXpXpXtX6X6X2X2X:X].i w mXmXmXmXmXmXmXmXmXmXmXmXmXmXmX",
"mXmXmXmXmXmXmXmXmXmXmXmXmXmXmXmXmXmXmX@ + + + 0 y y y y i i i i i i i i $ @ @ @ @ mXmXmXmXmXmXmXmXmXmXmXmXmXmXmXmXmXmX"
};
