/* XPM */
static char *result[] = {
/* columns rows colors chars-per-pixel */
"59 51 238 2 ",
"   c #151211",
".  c #371903",
"X  c #271910",
"o  c #3A2416",
"O  c #2B210D",
"+  c #2C2922",
"@  c #2F2F28",
"#  c #312C26",
"$  c #3C3A31",
"%  c #39352F",
"&  c #482E02",
"*  c #672900",
"=  c #793600",
"-  c #6A370E",
";  c #4B3524",
":  c #6D3C22",
">  c #521E00",
",  c #6C5406",
"<  c #795D00",
"1  c #6E480E",
"2  c #52432B",
"3  c #534834",
"4  c #7D4D31",
"5  c #6B5938",
"6  c #714E2C",
"7  c #7D6639",
"8  c #6D603F",
"9  c #7F6201",
"0  c #5A594B",
"q  c #645949",
"w  c #605951",
"e  c #755F42",
"r  c #7A6746",
"t  c #6D695A",
"y  c #75725F",
"u  c #726856",
"i  c #797466",
"p  c #696A6B",
"a  c #843E05",
"s  c #913C06",
"d  c #A23E00",
"f  c #864306",
"g  c #8B4712",
"h  c #944406",
"j  c #AC4400",
"k  c #AC4C01",
"l  c #B34400",
"z  c #BB4500",
"x  c #BC4C00",
"c  c #B44C02",
"v  c #BD5300",
"b  c #B75409",
"n  c #AD5802",
"m  c #896213",
"M  c #916C04",
"N  c #BA6507",
"B  c #AD7702",
"V  c #B87B00",
"C  c #A66909",
"Z  c #975528",
"A  c #8D542C",
"S  c #A25527",
"D  c #946C35",
"F  c #B8622E",
"G  c #C24D00",
"H  c #CB4D00",
"J  c #C45400",
"K  c #CC5500",
"L  c #CD5B01",
"P  c #C65907",
"I  c #D45E00",
"U  c #C85D13",
"Y  c #D15B11",
"T  c #CC6B00",
"R  c #C76500",
"E  c #D36100",
"W  c #DC6600",
"Q  c #DC6C00",
"!  c #D56805",
"~  c #CB7800",
"^  c #DB7701",
"/  c #C96118",
"(  c #D46516",
")  c #DF791E",
"_  c #E46D00",
"`  c #E16A0C",
"'  c #EC7502",
"]  c #EE770B",
"[  c #E77704",
"{  c #F27C0B",
"}  c #EE7711",
"|  c #EE7910",
" . c #F47C11",
".. c #F77B11",
"X. c #D76B29",
"o. c #DE732A",
"O. c #C86C37",
"+. c #D97436",
"@. c #C76B31",
"#. c #E07A39",
"$. c #856443",
"%. c #816C4E",
"&. c #897A56",
"*. c #8F744F",
"=. c #B87045",
"-. c #857C6B",
";. c #D77E4D",
":. c #E07F45",
">. c #B68605",
",. c #B18D0A",
"<. c #BE9039",
"1. c #CB8A00",
"2. c #C78700",
"3. c #D98904",
"4. c #CD9400",
"5. c #CD9B01",
"6. c #D79900",
"7. c #CA991A",
"8. c #E88804",
"9. c #F98804",
"0. c #FF9702",
"q. c #FF9A02",
"w. c #FF950D",
"e. c #FF990B",
"r. c #EB8C10",
"t. c #F48211",
"y. c #FE8611",
"u. c #FF8A11",
"i. c #F48810",
"p. c #FF9311",
"a. c #FF9911",
"s. c #F49E10",
"d. c #EC9A09",
"f. c #D6A200",
"g. c #DCA500",
"h. c #DDAA00",
"j. c #D4AA0A",
"k. c #D5A409",
"l. c #E3AE00",
"z. c #EDAA07",
"x. c #FFA301",
"c. c #FFAA00",
"v. c #FFAA09",
"b. c #E5B301",
"n. c #EBB402",
"m. c #EEBB02",
"M. c #EEBB0B",
"N. c #EABB06",
"B. c #FFB500",
"V. c #FFBC00",
"C. c #F1BE02",
"Z. c #FDA811",
"A. c #EEBB11",
"S. c #EFB410",
"D. c #FEBC11",
"F. c #F9B711",
"G. c #EFA411",
"H. c #D48F36",
"J. c #E0993C",
"K. c #EDC305",
"L. c #FFC300",
"P. c #F7C706",
"I. c #FDD503",
"U. c #F5C211",
"Y. c #FFC511",
"T. c #FFCC11",
"R. c #F7CB11",
"E. c #FFD311",
"W. c #FFDC11",
"Q. c #FFEA00",
"!. c #FEE601",
"~. c #FFFD00",
"^. c #8D855B",
"/. c #95895D",
"(. c #998A66",
"). c #9A9366",
"_. c #9A9966",
"`. c #989765",
"'. c #9C9579",
"]. c #8F8770",
"[. c #AA996B",
"{. c #A49968",
"}. c #AA9A76",
"|. c #AB9B79",
" X c #A29677",
".X c #ABA376",
"XX c #AAA977",
"oX c #ACA37B",
"OX c #ACAA7B",
"+X c #A7A37B",
"@X c #B2AB7F",
"#X c #DD844F",
"$X c #E0814B",
"%X c #989289",
"&X c #ADA985",
"*X c #B3AB83",
"=X c #BBAC89",
"-X c #B3A989",
";X c #BCB28C",
":X c #B5AE92",
">X c #BBB794",
",X c #ADA594",
"<X c #C4BD9A",
"1X c #C6B997",
"2X c #C6BCA6",
"3X c #C7C298",
"4X c #CBC4A4",
"5X c #CDCBAA",
"6X c #CAC5A8",
"7X c #D3CDAD",
"8X c #D8CCA6",
"9X c #D3CDB3",
"0X c #DACCB8",
"qX c #DBD5BB",
"wX c #DAD4B8",
"eX c #D1D0AF",
"rX c #E0CFAC",
"tX c #DEDAC2",
"yX c #E2DDC4",
"uX c #E6DFCB",
"iX c #E6E4CC",
"pX c #E6E2C9",
"aX c #EBE6D2",
"sX c #EDEBD5",
"dX c #ECE9D7",
"fX c #F4EDDC",
"gX c #FEEEDD",
"hX c #F1E9D5",
"jX c #F9F0DF",
"kX c #FEEEE2",
"lX c #F6EFE0",
"zX c #FCF3E5",
"xX c #FEF6EB",
"cX c #FFFFEE",
"vX c #F6F4E2",
"bX c #FFFFF4",
"nX c #FFFFFE",
"mX c None",
/* pixels */
"mXmXmXmXmXmXmXmXmXmXmXmXmXmXmXmXmXmXmXmXmXmXmXO - a f a = = = * . . mXmXmXmXmXmXmXmXmXmXmXmXmXmXmXmXmXmXmXmXmXmXmXmXmX",
"mXmXmXmXmXmXmXmXmXmXmXmXmXmXmXmXmXmXmXmX& f N } { ..| [ _ _ E K c c a * > mXmXmXmXmXmXmXmXmXmXmXmXmXmXmXmXmXmXmXmXmXmX",
"mXmXmXmXmXmXmXmXmXmXmXmXmXmXmXmXmXmXmX>.r.y.u.u.u.y...| ' _ W E K K J x l d * . mXmXmXmXmXmXmXmXmXmXmXmXmXmXmXmXmXmXmX",
"mXmXmXmXmXmXmXmXmXmXmXmXmXmXmXmXmXm r.p.u.p.u.u.u.p.p.u. .8._ W E K J x z z z d * mXmXmXmXmXmXmXmXmXmXmXmXmXmXmXmXmXmX",
"mXmXmXmXmXmXmXmXmXmXmXmXmXmXmXmXN u.p.p.p.a.Z.Y.T.Y.Y.Y.F.S.z.8._ E K K G z z z c s mXmXmXmXmXmXmXmXmXmXmXmXmXmXmXmXmX",
"mXmXmXmXmXmXmXmXmXmXmXmXmXmXmXb y.p.e.q.e.Z.E.W.W.T.T.T.T.U.A.b.6.Q E K K G z x V ~ M mXmXmXmXmXmXmXmXmXmXmXmXmXmXmXmX",
"mXmXmXmXmXmXmXmXmXmXmXmXmXmX1 t.u.e.q.q.Z.T.W.W.W.E.T.T.T.R.A.M.h.^ E L K K J N >.2.5.M mXmXmXmXmXmXmXmXmXmXmXmXmXmXmX",
"mXmXmXmXmXmXmXmXmXmXmXmXmX, r.u.p.e.x.e.Z.E.W.W.W.E.T.T.T.T.A.M.m.[ W E K K L N >.2.4.5.B mXmXmXmXmXmXmXmXmXmXmXmXmXmX",
"mXmXmXmXmXmXmXmXmXmXmXmXmX,.D.u.p.x.c.e.a.T.W.W.W.E.T.T.T.T.U.A.z._ _ W K K K J V 2.1.5.g.9 mXmXmXmXmXmXmXmXmXmXmXmXmX",
"mXmXmXmXmXmXmXmXmXmXmXmXM U.Y.p.e.x.c.e.a.Z.W.W.W.T.T.T.T.T.U.A.d._ W W T K K K R >.1.5.f.k., mXmXmXmXmXmXmXmXmXmXmXmX",
"mXmXmXmXmXmXmXmXmXmXmX< h.U.Y.w.q.c.c.x.e.a.F.E.W.T.T.T.T.T.U.G.| _ W W E L K K J J ~ 4.5.j.7.1 mXmXmXmXmXmXmXmXmXmXmX",
"mXmXmXmXmXmXmXmXmXmXo 5.C.U.F.w.0.c.c.x.0.e.a.Z.F.Y.Y.Y.Y.Y.Z.t.} _ _ W Q E K K K K L T 1.5.j.7.1 mXmXmXmXmXmXmXmXmXmX",
"mXmXmXmXmXmXmXmXmXmXM m.N.U.a.e.x.c.c.0.0.e.a.p.u.p.p.a.p.p.y.} ] ' _ W W W L K K K K K K T ^ ) @.1 mXmXmXmXmXmXmXmXmX",
"mXmXmXmXmXmXmXmXmX, h.C.K.Z.u.e.c.c.c.0.e.a.a.p.y.y.y.y.y.y...} | ' _ _ W W E K K K K K K K K ( o.O.: mXmXmXmXmXmXmXmX",
"mXmXmXmXmXmXmXmXmX,.m.m.Z.u.a.x.c.c.c.0.e.a.a.p.y.y.u.y.y.y... .| ] ' Q W W Q E K K K K K K K L ( o.O.: mXmXmXmXmXmXmX",
"mXmXmXmXmXmXmXmX,.m.n.s.p.p.x.c.c.c.c.x.a.a.a.p.y.u.y.y.y.y...} | ] ' _ Q ^ ^ Q T R K K K K K K Y ( o.O.: mXmXmXmXmXmX",
"mXmXmXmXmXmXmXn 8.r.i.y.w.c.B.c.c.c.c.c.e.a.a.p.u.u.y.y.u.y. .} } ] ' 8.g.g.g.g.f.4.~ E K K K K H P ( +.O.: o mXmXmXmX",
"mXmXmXmXmXmXn ] { i.u.q.c.B.V.c.c.c.c.c.q.w.a.a.a.u.u.u.y.y. .} } } d.b.l.h.h.h.h.g.f.~ K K K J G H K U o.:.F 6 mXmXmX",
"mXmXmXmX- n | i.u.q.c.B.V.V.V.V.c.c.c.c.c.e.a.a.e.a.p.u.y.y...} } r.S.m.l.h.h.h.h.h.l.6.Q K K K G z H H Y X.+.H.6 mXmX",
"mXmXmX,.r.y.y.w.x.B.V.L.L.L.P.V.B.c.c.c.c.x.e.p.q.q.q.w.p.y.y...} s.M.m.m.l.l.g.h.h.h.h.6.E K K G z z H H Y o.J.<.mXmX",
"mXmX,.T.Z.u.u.w.x.c.B.B.V.L.L.L.I.I.I.L.V.c.c.q.0.0.q.0.e.u.u.u. .G.A.A.M.m.b.h.h.h.h.h.6._ R K J x z z H K Y o.J.D mX",
"mX, U.Y.u.y.y.u.p.e.q.x.c.c.V.!.~.~.~.~.Q.L.c.c.c.x.x.q.0.w.u.y.y.Z.U.A.A.A.m.n.l.l.h.h.h.^ E K K x z z H K K / H.H.1 ",
"mX,.U.i.] ' _ [ 8.[ 9.9.0.q.I.!.!.!.!.Q.Q.Q.L.c.c.c.c.q.0.0.w.u.u.F.R.A.A.A.A.M.m.m.h.h.g.Q E K K z z z x K K Y X.J.7 ",
"& j.d.W L J J J K L I T Q 8.N.K.K.L.P.R.I.I.P.q.0.q.q.0.0.0.0.9.9.v.R.K.M.M.M.b.l.l.h.h.3.E K J x z z z z J K P X.$X6 ",
"9 h.T J x x z z z z x J J ~ 4.6.f.f.f.b.b.b.m.8.9.9.9.9.9.9.9.9.9.0.C.K.m.b.h.h.g.g.f.1.R x x z z j j j l x K Y X.:.A ",
"< 4.J z x b U / U P x b v R 1.1.1.1.1.1.4.5.5.~ I L E W T Q _ _ _ [ 3.g.f.f.6.4.5.2.T v z z z l j j j j z H L ( o.$X4 ",
"1 R J v / O.F A A a a g g g B B V 2.2.1.1.1.4.2.L K K K L K K K K K L T T T T L v v z z l l j j j l c b U ( X.F +.#X4 ",
". l K K +.=.6 2 ; ; ; ; ^.^.5 7 7 m m m B V >.4.T K K K K K K K K K K K L J v x z z z z z z z z U U X.@.@.F S F ;.=.o ",
"mX= K L X.=.5 ; 2 2 ; 7 (.].0 3 &.^.^.^.r 7 m m C v x x J K K K H K K K K v v v v b v v x l j c S Z Z Z Z F X.:.$XA mX",
"mXmXs x ! +.O.Z 2 2 2 ^.r %Xp   e _._._._._././.&.7 7 7 A g g f g c x x x x c k k k g g g A $.$.&. X$./ ( o.:.#X*.mXmX",
"mXmXmX* h R Q ( N M 5 }.r X     q _._._._._.`.`.`.`.`.`.`./.(.5 % o . 6 $.$.$.$.$.$.(.(.(.}.|.|.*X=XoXS +.:.=.6 mXmXmX",
"mXmXmXmXmX* a f B ,./..X(.2 o 2 `.`.`.`.`.`.).)./.`.).(.`.{.[.*.X   + &.|.|.|.|.|.|.|.|.|.}.}.}..X@X1X(.Z 6 o mXmXmXmX",
"mXmXmXmXmXmXmXmXO 5 +X}.{.`.^.`._._.&.^.`./.).(.r (.(.(.`.{.{.[.*.8 *.[.[.}.}.}.}.}.}.}.}.}.|.}.XX*X3X*X# mXmXmXmXmXmX",
"mXmXmXmXmXmXmXmXmX'.&X.X{.{._._.`.`.r ^.y 7 &.^.e &.(.(.`.{.{.[.[.|.|.}.[.[.}.}.}.}.|. X|.}.}.}.OX;X3X;X; mXmXmXmXmXmX",
"mXmXmXmXmXmXmXmXu =X-X-XOX.XXXXX+X&X X&./.{.&.%.&._.{.`.`._.{.[.[.}.|.}.}.}.}.}.}.}.}.}.|..XoXOX@X=X3X3Xi mXmXmXmXmXmX",
"mXmXmXmXmXmXmXmX(.=X=X;X>X<X4X6X9X0XqXqXwX7X5X6X<X1X=X*X.XXX[.[.[.[.[.|.}.}.}.}.}.}.}.}..XXX+X*X*X@X1X8Xi mXmXmXmXmXmX",
"mXmXmXmXmXmXmX3 &X=X>X6XqXiXfXvXvXvXxXxXzXvXvXvXjXhXiXyX9X5X<X>X*X|.[.|.}.}.}.}.}.|.|.XXXXXXOX-X=X=X1X8X;XmXmXmXmXmXmX",
"mXmXmXmXmXmXmXq =X3XwXaXjXxXcXbXcXcXcXcXcXcXbXcXcXcXcXxXzXfXhXpXwX5X>X@XoX.X}.|.XXXXXXXXOX*X-X=X=X;X1X8X1X# mXmXmXmXmX",
"mXmXmXmXmXmXmX].4XtXdXxXcXcXcXcXcXcXcXbXcXcXcXcXcXcXcXcXcXcXzXzXgXhXiXqX4X;X*XOXOX@X@X*X=X=X=X=X>X>X1X8X1X+ mXmXmXmXmX",
"mXmXmXmXmXmX+ &XqXdXlXcXcXcXcXcXcXcXbXbXbXcXcXcXcXcXcXcXcXcXcXxXkXgXjXgXhXyX4X>X;X=X=X;X;X;X>X>X>X1X2X8X1X# mXmXmXmXmX",
"mXmXmXmXmXmX+ :XuXfXzXcXcXcXcXcXcXcXbXnXnXbXcXcXcXcXcXcXcXcXcXcXzXgXgXgXgXjXhXqX4X<X<X<X<X<X<X1X1X<X8XrX XmXmXmXmXmXmX",
"mXmXmXmXmXmXmX-XpXdXzXcXcXcXcXcXcXcXbXbXbXbXcXcXcXcXcXcXcXcXcXbXkXgXgXgXgXgXgXfXaXqX7X5X4X6X4X<X2X6X8XrXi mXmXmXmXmXmX",
"mXmXmXmXmXmXmXi yXdXzXbXcXcXcXcXcXcXcXcXcXcXcXcXcXcXcXcXcXcXcXxXzXgXgXgXgXgXgXgXfXiXtXwX7X7X5X5X5X5X8X4Xq mXmXmXmXmXmX",
"mXmXmXmXmXmXmXw 9XdXkXxXcXcXcXcXcXcXcXcXcXcXcXcXcXcXcXcXcXcXbXxXkXgXgXgXgXgXgXgXgXfXaXqX0X0X5X5X5X7XrX XmXmXmXmXmXmXmX",
"mXmXmXmXmXmXmXmX%XuXsXfXxXcXcXcXcXcXcXcXcXcXcXcXcXcXcXbXcXcXcXzXgXgXgXgXgXgXgXgXgXfXsXyXqX0X7X7X5X7X1Xq mXmXmXmXmXmXmX",
"mXmXmXmXmXmXmXmXw 6XyXaXsXvXzXxXcXcXcXcXcXcXcXcXcXcXcXcXcXcXxXkXgXgXgXgXgXgXgXgXgXfXfXpXqXqX9X5XeX3Xu mXmXmXmXmXmXmXmX",
"mXmXmXmXmXmXmXmXmXt 2XuXpXaXfXjXvXxXzXxXzXxXcXcXcXcXcXxXxXxXkXgXgXgXgXgXgXgXgXgXfXfXaXyXqX0X9X7X'.w mXmXmXmXmXmXmXmXmX",
"mXmXmXmXmXmXmXmXmXmXw %X5XpXiXaXsXfXfXfXjXjXjXfXjXjXjXzXkXgXgXjXgXgXfXfXgXfXsXaXaXpXqXwX0X7X:Xy mXmXmXmXmXmXmXmXmXmXmX",
"mXmXmXmXmXmXmXmXmXmXmXmXw -.>XwXiXuXaXaXaXaXdXdXdXdXdXsXsXsXsXsXaXaXiXiXyXuXtXeXwXeX5X>X%Xt $ mXmXmXmXmXmXmXmXmXmXmXmX",
"mXmXmXmXmXmXmXmXmXmXmXmXmXmXmXw i ].>X2X2X2X2XtXuXaXyXyXyXiXtXtXqX0XeX6X:X:X:X:X].y y % mXmXmXmXmXmXmXmXmXmXmXmXmXmXmX",
"mXmXmXmXmXmXmXmXmXmXmXmXmXmXmXmXmXmX@ @ @ @ $ p i i i i i i i i i y y 0 + + + + mXmXmXmXmXmXmXmXmXmXmXmXmXmXmXmXmXmXmX"
};
