/* XPM */
static char *result[] = {
/* columns rows colors chars-per-pixel */
"59 63 245 2 ",
"   c #1C1512",
".  c #0F0D0C",
"X  c #311905",
"o  c #352204",
"O  c #322907",
"+  c #2B2925",
"@  c #3A3631",
"#  c #3A2C21",
"$  c #532E0C",
"%  c #612800",
"&  c #743511",
"*  c #4D3524",
"=  c #4E3B26",
"-  c #4E392A",
";  c #523D2B",
":  c #543C26",
">  c #6F3324",
",  c #561E00",
"<  c #4C410D",
"1  c #6A4704",
"2  c #775904",
"3  c #754711",
"4  c #4B4129",
"5  c #53432C",
"6  c #58472D",
"7  c #554433",
"8  c #564C33",
"9  c #5B4B33",
"0  c #564637",
"q  c #565234",
"w  c #595336",
"e  c #5D563A",
"r  c #5C593A",
"t  c #474436",
"y  c #674927",
"u  c #764925",
"i  c #765928",
"p  c #614E36",
"a  c #635B3E",
"s  c #685638",
"d  c #745538",
"f  c #6F5030",
"g  c #7B6039",
"h  c #5B544C",
"j  c #57534F",
"k  c #635E41",
"l  c #6A5945",
"z  c #685E51",
"x  c #656243",
"c  c #6A6444",
"v  c #6E664A",
"b  c #766648",
"n  c #79725E",
"m  c #686558",
"M  c #7A7266",
"N  c #76726C",
"B  c #880000",
"V  c #9A0000",
"C  c #940000",
"Z  c #AB0000",
"A  c #A60201",
"S  c #BC0000",
"D  c #B40201",
"F  c #833602",
"G  c #8A241B",
"H  c #872922",
"J  c #952922",
"K  c #95392F",
"L  c #A53A3A",
"P  c #CA0000",
"I  c #9B4707",
"U  c #8A5705",
"Y  c #8C4A13",
"T  c #AB4400",
"R  c #A94B01",
"E  c #B34500",
"W  c #BB4500",
"Q  c #B34D02",
"!  c #BD4C01",
"~  c #B04D08",
"^  c #BC5200",
"/  c #B75A01",
"(  c #AA5709",
")  c #8B680D",
"_  c #B96702",
"`  c #AB7800",
"'  c #BB7600",
"]  c #A6740B",
"[  c #8E5231",
"{  c #B05C29",
"}  c #856636",
"|  c #987036",
" . c #AA6D36",
".. c #C24E01",
"X. c #C45201",
"o. c #CB5500",
"O. c #CD5C01",
"+. c #C35609",
"@. c #D35D01",
"#. c #C95D17",
"$. c #C96500",
"%. c #D66301",
"&. c #DC6400",
"*. c #DC6900",
"=. c #D96909",
"-. c #DC7403",
";. c #CB6317",
":. c #D1710F",
">. c #E46C02",
",. c #EA7504",
"<. c #F0790C",
"1. c #F67E11",
"2. c #E0701E",
"3. c #CB6627",
"4. c #D96926",
"5. c #D97329",
"6. c #CB6B35",
"7. c #D97434",
"8. c #D27136",
"9. c #E07833",
"0. c #944C45",
"q. c #A84343",
"w. c #887956",
"e. c #8C6F46",
"r. c #BA7444",
"t. c #867A6A",
"y. c #8C7D77",
"u. c #A6786D",
"i. c #DA7C45",
"p. c #898100",
"a. c #BB8400",
"s. c #BA8701",
"d. c #B29306",
"f. c #B8813D",
"g. c #C68B00",
"h. c #D78602",
"j. c #CB9400",
"k. c #CC9900",
"l. c #C59100",
"z. c #D69603",
"x. c #DA9A18",
"c. c #CA971C",
"v. c #F78708",
"b. c #FF9B02",
"n. c #FF9A0B",
"m. c #F79308",
"M. c #FC8511",
"N. c #FF8A11",
"B. c #FE9711",
"V. c #EC8D04",
"C. c #DDAA00",
"Z. c #D8A503",
"A. c #D7A910",
"S. c #E4AA02",
"D. c #FFAA00",
"F. c #FBA604",
"G. c #E7B604",
"H. c #FFBB00",
"J. c #FBB505",
"K. c #FFA811",
"L. c #F9BA11",
"P. c #D38B32",
"I. c #DEA831",
"U. c #E0A83A",
"Y. c #EFC301",
"T. c #F5C601",
"R. c #FCC603",
"E. c #FFD801",
"W. c #FECC11",
"Q. c #FFE500",
"!. c #FFE900",
"~. c #FFFD00",
"^. c #8A8356",
"/. c #93885C",
"(. c #998A66",
"). c #988864",
"_. c #9B9466",
"`. c #9B9966",
"'. c #9B9667",
"]. c #96897B",
"[. c #948A7C",
"{. c #A59A6A",
"}. c #AA9B74",
"|. c #A19270",
" X c #A99776",
".X c #AAA276",
"XX c #ADA77A",
"oX c #B3AB7D",
"OX c #B9904C",
"+X c #C58F46",
"@X c #DAA744",
"#X c #D8A750",
"$X c #E0A543",
"%X c #E08A43",
"&X c #9C9586",
"*X c #AB978A",
"=X c #B5A984",
"-X c #B8B28A",
";X c #BCB696",
":X c #B0A794",
">X c #B7B5AB",
",X c #C4BB98",
"<X c #C0AD9D",
"1X c #C6BBA4",
"2X c #C9C19B",
"3X c #CCC7A9",
"4X c #D4CBAB",
"5X c #D5CBB3",
"6X c #DDD4BB",
"7X c #DEDCBC",
"8X c #D6D2B8",
"9X c #CBC5B5",
"0X c #E0CEAD",
"qX c #E0DABD",
"wX c #DFE0BD",
"eX c #DEDCC2",
"rX c #DDD5C7",
"tX c #DBDAD3",
"yX c #DCCFC6",
"uX c #E3DDC4",
"iX c #E6DBCA",
"pX c #E6E2CB",
"aX c #EBE4CE",
"sX c #E5E0C6",
"dX c #ECE6D3",
"fX c #EDEAD5",
"gX c #EEEDDB",
"hX c #E6E4D9",
"jX c #F2EDDB",
"kX c #FFEEDD",
"lX c #F1E8D6",
"zX c #FDF0DF",
"xX c #E9E8E5",
"cX c #E8E7E5",
"vX c #FFEEE2",
"bX c #F0EFEB",
"nX c #FFF2E4",
"mX c #FFF5EB",
"MX c #FFFEEE",
"NX c #F6F3E3",
"BX c #FFFFF3",
"VX c #FFFFFE",
"CX c #F6F7F8",
"ZX c #EDF0F7",
"AX c None",
/* pixels */
"AXAXAXAXAXAXAXAXAXAXAXAXAXAXAXAXAXAXAXAXAXAXAXAXAXAXAXO o 1 U U U Y U 1 X X AXAXAXAXAXAXAXAXAXAXAXAXAXAXAXAXAXAXAXAXAX",
"AXAXAXAXAXAXAXAXAXAXAXAXAXAXAXAXAXAXAXAXAXAXAX< p.p.d.C.z.b.b.n.n.B.K.L.x.z.U % AXAXAXAXAXAXAXAXAXAXAXAXAXAXAXAXAXAXAX",
"AXAXAXAXAXAXAXAXAXAXAXAXAXAXAXAXAXAXAXAXO ) C.G.E.R.R.H.D.D.D.b.b.n.K.L.W.W.L.z.$.1 AXAXAXAXAXAXAXAXAXAXAXAXAXAXAXAXAX",
"AXAXAXAXAXAXAXAXAXAXAXAXAXAXAXAXAXAXU s.C.H.H.H.H.H.H.H.R.H.D.D.b.n.B.N.K.L.Y.G.S.-._ % AXAXAXAXAXAXAXAXAXAXAXAXAXAXAX",
"AXAXAXAXAXAXAXAXAXAXAXAXAXAXAX1 U z.H.H.R.R.E.!.Q.E.E.R.H.D.D.D.b.n.B.N.N.N.B.S.S.z.*.Q % AXAXAXAXAXAXAXAXAXAXAXAXAXAX",
"AXAXAXAXAXAXAXAXAXAXAXAX1 _ h.V.D.D.D.R.!.~.~.~.~.~.~.!.R.D.D.b.n.B.B.N.N.M.1.<.,.,.*.@.Q % AXAXAXAXAXAXAXAXAXAXAXAXAX",
"AXAXAXAXAXAXAXAXAXAX3 _ V.B.b.b.b.b.H.Q.!.!.!.!.Q.Q.!.!.E.K.N.B.B.N.N.N.N.M.M.1.,.,.>.%.o.! % AXAXAXAXAXAXAXAXAXAXAXAX",
"AXAXAXAXAXAXAXAX) A.B.N.N.M.m.v.v.m.J.T.T.T.T.T.T.T.Y.Y.Y.J.M.M.M.M.M.N.M.N.M.1.,.,.>.&.o.o.R , AXAXAXAXAXAXAXAXAXAXAX",
"AXAXAXAXAXAX1 d.W.L.v.<.,.>.>.>.>.h.Z.Z.Z.Z.Z.Z.Z.Z.C.C.C.S.,.>.,.<.<.<.<.1.1.1.,.,.*.*.$.$._ R , AXAXAXAXAXAXAXAXAXAX",
"AXAXAXAXAX2 G.W.L.2.*.%.@...o.! ^ _ s.s.s.l.k.k.k.k.k.C.C.C.-.$.@.@.@.&.&.>.>.,.,.>.&.-.k.j.' ' R % AXAXAXAXAXAXAXAXAX",
"AXAXAXAX2 G.R.G.-.O.^ E E W W W ! _ a.s.g.j.k.k.k.k.k.C.C.z.$.O.o.o.o.o.o.o.@.@.@.>.&.*.j.k.g.s.' _ F AXAXAXAXAXAXAXAX",
"AXAXAX1 A.J.Z.$.! E T T E W W W ^ O.g.j.k.k.k.j.k.k.Z.C.C.h.$.o.o.o.o.o.o.o.o.X...o.o.O.$.j.l.s.' ' / F AXAXAXAXAXAXAX",
"AXAXAXd.G.h./ E T T E W W ..+.#.;.4.P.c.c.c.c.A.A.A.A.G.z.-.O.o.o.o.o.o.o.! W W W E E W ! $.:.s.a.` ' Q F AXAXAXAXAXAX",
"AXAX2 V.-.! T T E E ..#.3.6.i. . .| [ f d d i | | f. .] $.$.$.X.o.o.o.o.X.W W W W E T T T E Q _ ' ` ` / +.Y AXAXAXAXAX",
"AXAX$.>.^ E E W W +.3. .[ f d z 9 7 r x v v a 5 a x l c f y : 3 I I ..X.o.o...W W W T T T T T E Q ( ` / ..{ $ AXAXAXAX",
"AX1 >.o.! W W ! #.6.[ p x c v b c 9 8 r k k w 5 a c v c a 7 e x l s y Y I ..o.X.! W W E T T T T T R T T W #.{ > AXAXAX",
"AXR %.X...W ^ 5. .d p 8 9 a x c x w 4 8 q w 8 = 8 q w r q = q r c c k 9 : y Y Q :.g.' _ / Q T T T T T E W +.3.{ AXAXAX",
"X / O.X.W +.8.r.l b v x 9 5 w w w 8 : : 8 7 7 * 7 7 8 8 5 * 7 q w w 7 4 q k c s 2 d.j.l.s._ T T T T T E W ..#.6.[ AXAX",
", O.o.! ! 8.r.p l b x x r 5 : 0 7 7 ; * 5 : : * : = ; = ; * 7 7 7 ; * 8 q k c c a s ) ` l.s.^ T T T T T W ..#.6.6.$ AX",
"& O.o.X.#.i.[ 5 6 6 9 w q 8 * ; ; 5 p s w.w.w.w.w.w.^.w.s p 9 ; 5 * ; 0 8 8 w q 5 5 p s ) l.$.E T T E E W W +.3.6.[ AX",
"2 %.O.$.P.f.s c s 8 5 = : 0 - 6 b w._.).(.(.(.(.(.(._.(.(._./.^.b p 5 5 7 7 ; : 5 r c v b ) $.X.W W W W W W +.#.8. .AX",
"2 z.g.h.U.| x c a 8 7 7 - * b w.(.(.).(.(.(.).).(.).).(.).(.(._._._.^.g 6 - * 0 8 q r k c l u ~ o...W W W W W #.7.P.X ",
"1 j.k.x.@X} 9 9 5 5 7 7 ; b ).).(._._.'.{.`.'.`._._.(.(.(.).).).(._.`.`./.b 6 ; 7 7 7 8 8 9 p > E o...W W W ! #.P.U.4 ",
"O s.k.x.+Xy p 8 5 = - ; b ).).).'.{.XX-X,X2X2X;X,X-X=X.X`._._.(.(.(.(._._.{./.s 5 5 ; * = 8 a l d ~ ....W W ! #.P.$Xi ",
"AX` k.x.@Xg x e 6 7 - c /.w.h d =X3XuXdXlXgXjXlXdXaXuX5X,X=X}.`.t.b w.u.).(.`._.e.: : 7 0 w x v z f Q o...W ! +.7.$X} ",
"AX2 k.Z.U.| a 5 * * 5 ).n *XN . ].dXiXnXmXdXkXmXvXlXiXjXfXiX4X|.&Xm # w.(.(._.`._.).p ; 7 8 q r l b f R o.X.^ #.8.%Xi ",
"AX$ s.k.x.P.6 5 6 5 b `.s + + . ].kX:XxX8X&X:XhXjX1X<XnXkXkXjX(.N j . s (.(.(.(._.{.).p * ; ; 8 e a r Y o.o.o.#.8.9.u ",
"AXAXU h.:.9.[ 5 8 6 /.`.|.-   j iXBX1Xy.>XZXtX&Xt.*XNXmXkXkXvX:X  .   b (.(.(.(._.`.}._.6 - ; ; = 5 r p ~ o.O.3.8.7.Y ",
"AXAXAXQ @.=.5.[ : s {..X3XyX1XaXBXMXrXy.ZXVXVXCX:XpXBXMXmXvXkXjX].l w.{.`.(.).).`.`.{.oXw.; 9 9 q 5 ; 0 Y $.;.4.5.7.& ",
"AXAXAXAX^ >.>.2.{ } }.2XaXmXVXBXMXMXiX> L q.q.q.0.hXMXMXMXmXkXkXkXjXuX-X{.`._._.`.{.}.XX.X: * 5 w k c 0 Y %.;.2.P.6.X ",
"AXAXAXAXAXI &.=.[ {.;XuXNXBXMXMXCXVXtX> B B B B > cXMXMXMXMXnXkXkXkXjX7XoX{.`.`.`.{.{..XoXb ; 5 5 a b l ~ &.2.4.7.{ AX",
"AXAXAXAXAXAXF Q } -X8XNXMXMXBXCXVXVXyX& B B B B > cXBXMXMXMXBXvXkXkXkXfX5XoX{.`.`.{.}.}.oXw.* 8 e p z u @.2.2.5.7.> AX",
"AXAXAXAXAXAXAXo (.4XgXMXMXMXVXVXVXVXtX> V C B C H cXVXMXMXMXMXnXkXkXkXzXdX3XoX{.{.{.}..XoXXX6 : h a u +.-.x.I.I.f.AXAX",
"AXAXAXAXAXAXAXt -XdXmXMXBXVXVXVXVXVXtXG V V V V H cXVXBXMXMXMXMXvXkXkXkXkXpX1XoX}.{. X.XXX=Xb * & Y $.-.x.I.U.#Xi AXAX",
"AXAXAXAXAXAXAXM rXjXMXMXVXVXVXVXVXVXiX> A V V V H cXVXVXBXMXMXMXnXkXkXkXkXjXuX,XXX}. X.XXX=Xe.R @.>.&.V.I.U.+X} AXAXAX",
"AXAXAXAXAXAXAXN jXMXMXBXVXVXVXVXVXVXtXG Z A A A H cXVXVXBXMXMXMXnXkXkXkXkXkXlX8X,X}.}.}.XX=X{.( >.=.=.P.$XOX5 AXAXAXAX",
"AXAXAXAXAXAXAX&XnXMXMXBXVXVXVXVXVXVXhXK Z Z Z Z H xXVXVXVXMXMXMXmXkXkXkXkXkXkXfX5X;XXX.XXXXXoX| =.9.i.r.} AXAXAXAXAXAX",
"AXAXAXAXAXAXAXyXMXMXMXVXVXVXVXVXVXVXVXu.Z D Z Z H xXVXVXBXMXBXMXmXkXkXkXkXkXkXkXaX4X;XoXXXXX-XoX .e.> * AXAXAXAXAXAXAX",
"AXAXAXAXAXAX@ iXBXMXMXBXVXVXVXVXVXVXVX].Z S D D J cXVXVXBXMXMXMXmXzXkXkXkXkXkXkXjXaX9X;X=X=X-X2X^.AXAXAXAXAXAXAXAXAXAX",
"AXAXAXAXAXAXAXrXMXMXBXBXVXVXVXVXVXVXVX*XA S S S J cXVXVXBXMXMXMXnXzXkXkXkXkXkXkXkXjXiX4X;X-X,X,X-Xt AXAXAXAXAXAXAXAXAX",
"AXAXAXAXAXAXj iXMXMXMXBXVXVXVXVXVXVXVXtXJ P S S J xXVXVXMXMXMXMXnXkXkXkXkXkXkXkXkXkXgXeX3X,X,X2X3Xn AXAXAXAXAXAXAXAXAX",
"AXAXAXAXAXAXy.vXMXMXMXMXVXVXVXVXVXVXVXhXK P P P J cXVXBXMXMXMXMXkXkXkXkXkXkXkXkXkXkXkXfX8X2X,X3X3X*XAXAXAXAXAXAXAXAXAX",
"AXAXAXAXAXAX[.vXvXBXBXMXBXVXVXVXVXVXVXVX*XS P P u.mXVXMXMXMXMXnXkXkXkXkXkXkXkXkXkXkXkXjXpX5X4X3X4X,X+ AXAXAXAXAXAXAXAX",
"AXAXAXAXAXAX[.nXvXmXMXMXMXBXVXVXVXVXVXVXbXu.L 0.yXVXBXMXMXMXmXvXkXkXkXkXkXkXkXkXkXkXkXkXfX7X5X3X4X,Xt AXAXAXAXAXAXAXAX",
"AXAXAXAXAXAX[.vXkXmXMXMXMXMXBXVXVXVXVXVXVXCXCXCXVXMXMXMXMXMXvXkXkXkXkXkXkXkXkXkXkXkXkXkXgXpX6X3X4X0Xw.AXAXAXAXAXAXAXAX",
"AXAXAXAXAXAXz iXkXvXmXBXMXMXMXMXBXBXVXVXVXVXBXBXMXMXMXMXMXmXkXkXkXkXkXkXkXkXkXkXkXkXkXkXjXfXeX6X4X0Xn AXAXAXAXAXAXAXAX",
"AXAXAXAXAXAXAXuXvXkXvXmXMXMXMXMXMXMXBXMXMXMXMXMXMXBXMXMXvXvXkXkXkXkXkXkXkXkXkXkXkXkXkXkXkXgXsX6X0X0Xn AXAXAXAXAXAXAXAX",
"AXAXAXAXAXAX@ yXkXkXkXvXMXMXMXMXMXMXMXMXMXMXMXMXMXMXMXnXkXkXkXkXkXkXkXkXkXkXkXkXkXkXkXkXkXgXdX7X6X0XM AXAXAXAXAXAXAXAX",
"AXAXAXAXAXAX@ yXkXkXkXkXvXnXMXMXMXMXMXMXMXMXMXMXMXmXnXvXkXkXkXkXkXkXkXkXkXkXkXkXkXkXkXkXkXgXdXuX6X4Xn AXAXAXAXAXAXAXAX",
"AXAXAXAXAXAXAX:XnXkXkXkXkXkXvXvXmXmXmXmXMXmXmXvXvXkXkXkXkXkXkXkXkXkXkXkXkXkXkXkXkXkXkXkXzXjXdXeXqX3Xh AXAXAXAXAXAXAXAX",
"AXAXAXAXAXAXAXN jXkXkXkXkXkXkXkXkXkXvXvXkXkXvXkXkXkXkXkXkXkXkXkXkXkXkXkXkXkXkXkXkXkXkXkXjXgXaXeXqX,XAXAXAXAXAXAXAXAXAX",
"AXAXAXAXAXAXAXAX9XjXkXkXkXkXkXkXkXkXkXkXkXkXkXkXkXkXkXkXkXkXkXkXkXkXkXkXkXkXkXkXkXkXkXzXjXgXpXuXwX XAXAXAXAXAXAXAXAXAX",
"AXAXAXAXAXAXAXAXt.fXNXkXkXkXkXkXkXkXkXkXkXkXkXkXkXkXkXkXkXkXkXkXkXkXkXkXkXkXkXkXkXkXkXjXgXfXuX7X7Xn AXAXAXAXAXAXAXAXAX",
"AXAXAXAXAXAXAXAXAX>XgXjXkXkXkXkXkXkXkXkXkXkXkXkXkXkXkXkXkXkXkXkXkXkXkXkXkXkXkXkXzXzXjXgXfXaX7XwX;XAXAXAXAXAXAXAXAXAXAX",
"AXAXAXAXAXAXAXAXAXm 8XgXjXkXkXkXkXkXkXkXkXkXkXkXkXkXkXkXkXkXkXkXkXkXkXkXkXkXkXkXnXjXgXgXpXeXwX4Xm AXAXAXAXAXAXAXAXAXAX",
"AXAXAXAXAXAXAXAXAXAX&XuXfXjXkXkXkXkXkXkXkXkXkXkXkXkXkXkXkXkXkXkXkXkXkXkXkXkXkXkXjXgXfXpX7X6X6X].AXAXAXAXAXAXAXAXAXAXAX",
"AXAXAXAXAXAXAXAXAXAXAX&XqXfXjXkXkXkXkXkXkXkXkXkXkXkXkXkXkXkXkXkXkXkXkXkXzXkXjXjXgXfXpX7XrX9X].AXAXAXAXAXAXAXAXAXAXAXAX",
"AXAXAXAXAXAXAXAXAXAXAXAX&XrXsXfXjXjXkXkXkXkXkXkXkXkXkXkXkXkXkXkXkXkXkXkXjXgXgXgXfXpXeX7X1Xz AXAXAXAXAXAXAXAXAXAXAXAXAX",
"AXAXAXAXAXAXAXAXAXAXAXAXAXM 3XsXsXfXgXjXjXkXkXkXkXkXkXkXkXkXkXkXkXjXgXgXgXfXfXpXpXeX3X&Xh AXAXAXAXAXAXAXAXAXAXAXAXAXAX",
"AXAXAXAXAXAXAXAXAXAXAXAXAXAXh &X4XuXpXpXdXdXgXjXgXgXjXgXgXjXfXlXfXdXdXaXaXaXpXeX5X&Xh AXAXAXAXAXAXAXAXAXAXAXAXAXAXAXAX",
"AXAXAXAXAXAXAXAXAXAXAXAXAXAXAXAXh t.>X4XuXuXuXiXiXuXiXiXsXuXuXuXeXeXsXuXeX3X;X[.h AXAXAXAXAXAXAXAXAXAXAXAXAXAXAXAXAXAX",
"AXAXAXAXAXAXAXAXAXAXAXAXAXAXAXAXAXAXAXh M &X1X1X1X6X6X6XqXqX6X1X>X;X&XM N @ AXAXAXAXAXAXAXAXAXAXAXAXAXAXAXAXAXAXAXAXAX",
"AXAXAXAXAXAXAXAXAXAXAXAXAXAXAXAXAXAXAXAXAXAX+ + @ M M M M M M @ + + AXAXAXAXAXAXAXAXAXAXAXAXAXAXAXAXAXAXAXAXAXAXAXAXAX"
};
