/* XPM */
static char *result[] = {
/* columns rows colors chars-per-pixel */
"60 55 236 2 ",
"   c #171515",
".  c #110D0C",
"X  c #2C1306",
"o  c #371701",
"O  c #231C18",
"+  c #32290D",
"@  c #2C2B24",
"#  c #352F2A",
"$  c #492101",
"%  c #572902",
"&  c #5C361F",
"*  c #483115",
"=  c #662904",
"-  c #763600",
";  c #673313",
":  c #4B3625",
">  c #5A3A23",
",  c #6A3B23",
"<  c #5C431D",
"1  c #5B4906",
"2  c #71510B",
"3  c #53452D",
"4  c #4B493C",
"5  c #594B31",
"6  c #544932",
"7  c #624C39",
"8  c #67573B",
"9  c #745B3C",
"0  c #704B26",
"q  c #7E633A",
"w  c #7E6C39",
"e  c #534E45",
"r  c #565446",
"t  c #4E4E48",
"y  c #685A44",
"u  c #645E51",
"i  c #725942",
"p  c #696446",
"a  c #746549",
"s  c #6D6759",
"d  c #786A53",
"f  c #79715F",
"g  c #7C7369",
"h  c #767263",
"j  c #7B7C76",
"k  c #6C6960",
"l  c #8B3B03",
"z  c #854305",
"x  c #9A4C0A",
"c  c #8A4719",
"v  c #964915",
"b  c #9A5306",
"n  c #AC4400",
"m  c #A94906",
"M  c #B44400",
"N  c #BB4500",
"B  c #BC4C01",
"V  c #B44B06",
"C  c #A35508",
"Z  c #BC5702",
"A  c #B85417",
"S  c #AA4F18",
"D  c #8C6B1C",
"F  c #8F6E08",
"G  c #BC7400",
"H  c #AE6B05",
"J  c #89532D",
"K  c #865C36",
"L  c #9C5733",
"P  c #8D4925",
"I  c #B15B2D",
"U  c #8C6735",
"Y  c #B96639",
"T  c #AD6F33",
"R  c #C44600",
"E  c #C44D00",
"W  c #CA4D00",
"Q  c #C55201",
"!  c #CC5501",
"~  c #CC5B00",
"^  c #CB560B",
"/  c #D35C00",
"(  c #D45800",
")  c #CC5B15",
"_  c #C2581A",
"`  c #C96806",
"'  c #DD6600",
"]  c #DE6B00",
"[  c #D26906",
"{  c #CC7803",
"}  c #DC7702",
"|  c #CC621D",
" . c #D46C1A",
".. c #E46C01",
"X. c #E06400",
"o. c #E57500",
"O. c #ED7602",
"+. c #EE770C",
"@. c #EC7B05",
"#. c #F47A09",
"$. c #F37A11",
"%. c #FA7D11",
"&. c #CC6528",
"*. c #CD6933",
"=. c #C86939",
"-. c #CE753A",
";. c #D86C2F",
":. c #866944",
">. c #887954",
",. c #8B724A",
"<. c #897964",
"1. c #CE7241",
"2. c #B78B05",
"3. c #B7920C",
"4. c #B9863A",
"5. c #CC8301",
"6. c #CC8B00",
"7. c #C38802",
"8. c #D88500",
"9. c #CB9401",
"0. c #CD9900",
"q. c #D49B00",
"w. c #D99800",
"e. c #D28E19",
"r. c #EC8803",
"t. c #FD8B02",
"y. c #F7800E",
"u. c #F98706",
"i. c #EC9D01",
"p. c #FF9402",
"a. c #FF9A01",
"s. c #FF930D",
"d. c #FD9B0B",
"f. c #FD8511",
"g. c #FF8811",
"h. c #F48011",
"j. c #FC9411",
"k. c #DCA400",
"l. c #DDAA00",
"z. c #D7A403",
"x. c #DEB30F",
"c. c #E4AE00",
"v. c #EBA901",
"b. c #FFA300",
"n. c #FFAB00",
"m. c #FFAA0B",
"M. c #E4B300",
"N. c #ECBB02",
"B. c #ECB606",
"V. c #FEB300",
"C. c #FFBA01",
"Z. c #FAAB11",
"A. c #FBB411",
"S. c #ECBE10",
"D. c #D09535",
"F. c #D8A12E",
"G. c #FECB00",
"H. c #F7C507",
"J. c #FED501",
"K. c #FFDC00",
"L. c #FFD10E",
"P. c #FECD11",
"I. c #F1C010",
"U. c #EEC001",
"Y. c #FFE400",
"T. c #FFEC00",
"R. c #FFF400",
"E. c #8D865B",
"W. c #9C8A5B",
"Q. c #898769",
"!. c #998B66",
"~. c #968666",
"^. c #9A9466",
"/. c #9A9966",
"(. c #9B9B68",
"). c #979463",
"_. c #938C7B",
"`. c #8E897D",
"'. c #A49966",
"]. c #A99966",
"[. c #AA9A6C",
"{. c #A3976B",
"}. c #AA9B75",
"|. c #A89A76",
" X c #A08E6A",
".X c #ABA678",
"XX c #B3A97D",
"oX c #D58E43",
"OX c #E0A945",
"+X c #969188",
"@X c #ACA983",
"#X c #B5AC84",
"$X c #B7AA88",
"%X c #BCB48C",
"&X c #BDB88C",
"*X c #BCB797",
"=X c #B6A998",
"-X c #BCB9A5",
";X c #C5BD94",
":X c #CABD9A",
">X c #C6BB99",
",X c #C0B88C",
"<X c #C4BAA7",
"1X c #CCC39B",
"2X c #CAC598",
"3X c #CBC3A3",
"4X c #CBC5AC",
"5X c #CCCBA9",
"6X c #D4CCA7",
"7X c #CBC5B4",
"8X c #D8CBB8",
"9X c #DDD3BD",
"0X c #D9D3B7",
"qX c #DDD7C5",
"wX c #DBD4D0",
"eX c #E3DDC5",
"rX c #E3DDCA",
"tX c #E6E3CC",
"yX c #E7E2CA",
"uX c #ECE6D2",
"iX c #EDEAD5",
"pX c #EEEBDA",
"aX c #E7E3D2",
"sX c #F4EDDB",
"dX c #FFEEDD",
"fX c #F1E9D6",
"gX c #F9F0DF",
"hX c #FFEEE2",
"jX c #F3EFE0",
"kX c #FEF2E5",
"lX c #FEF5EB",
"zX c #FFFEEE",
"xX c #F5F1E1",
"cX c #FFFFF2",
"vX c #FFFFFE",
"bX c None",
/* pixels */
"bXbXbXbXbXbXbXbXbXbXbXbXbXbXbXbXbXbXbXbXbXbXbXX o - l z F F 1 + + bXbXbXbXbXbXbXbXbXbXbXbXbXbXbXbXbXbXbXbXbXbXbXbXbXbXbX",
"bXbXbXbXbXbXbXbXbXbXbXbXbXbXbXbXbXbXbXbX$ - n V B ' O.y.A.P.I.x.x.H z o bXbXbXbXbXbXbXbXbXbXbXbXbXbXbXbXbXbXbXbXbXbXbXbX",
"bXbXbXbXbXbXbXbXbXbXbXbXbXbXbXbXbXbX$ l B ! ! ( / ..+.%.g.m.A.A.m.s.u. .C % bXbXbXbXbXbXbXbXbXbXbXbXbXbXbXbXbXbXbXbXbXbX",
"bXbXbXbXbXbXbXbXbXbXbXbXbXbXbXbX$ l B Q ! ! ! / ' O.$.%.g.g.g.d.a.p.d.s.f. .x bXbXbXbXbXbXbXbXbXbXbXbXbXbXbXbXbXbXbXbXbX",
"bXbXbXbXbXbXbXbXbXbXbXbXbXbXbX; V ( ! ! ~ ` { } @.+.%.g.g.g.g.d.a.a.p.p.s.f.$.` ; bXbXbXbXbXbXbXbXbXbXbXbXbXbXbXbXbXbXbX",
"bXbXbXbXbXbXbXbXbXbXbXbXbXbXc _ ^ ! ~ { 5.9.q.c.v.r.f.g.g.g.g.g.d.a.a.a.p.u.f.f.[ 2 bXbXbXbXbXbXbXbXbXbXbXbXbXbXbXbXbXbX",
"bXbXbXbXbXbXbXbXbXbXbXbXbXP &.) ! [ { 6.9.q.k.c.B.Z.g.g.g.g.g.g.d.a.a.V.V.n.b.s.t.@.C bXbXbXbXbXbXbXbXbXbXbXbXbXbXbXbXbX",
"bXbXbXbXbXbXbXbXbXbXbXbXJ *.&.^ ` { 6.9.q.k.l.M.B.S.g.g.g.g.g.g.s.a.G.Y.T.T.Y.J.G.b.r.b bXbXbXbXbXbXbXbXbXbXbXbXbXbXbXbX",
"bXbXbXbXbXbXbXbXbXbXbX* Y *.&. .5.6.9.0.q.l.M.N.S.Z.g.g.g.g.f.g.g.V.T.T.T.T.T.Y.K.K.G.i.b bXbXbXbXbXbXbXbXbXbXbXbXbXbXbX",
"bXbXbXbXbXbXbXbXbXbXbXJ 1.&.| 5.9.9.0.0.k.c.c.N.S.j.f.g.g.g.g.g.g.m.T.T.T.T.T.T.Y.K.K.G.B.H bXbXbXbXbXbXbXbXbXbXbXbXbXbX",
"bXbXbXbXbXbXbXbXbXbX* Y -.*.) { 0.0.q.k.l.l.M.N.i.+.%.g.g.g.g.g.g.d.G.T.R.T.T.R.T.Y.K.K.J.v.C = bXbXbXbXbXbXbXbXbXbXbXbX",
"bXbXbXbXbXbXbXbXbXbXU oX*.&.^ ~ 6.w.w.k.k.k.i.r.o.+.$.f.g.g.f.g.g.g.a.C.Y.T.R.R.R.T.T.K.J.C.y.[ z bXbXbXbXbXbXbXbXbXbXbX",
"bXbXbXbXbXbXbXbXbX3 4.-.&.) ! / ] } } 8.} ] o.O.O.+.$.f.g.f.g.g.g.g.a.a.b.V.G.J.K.T.T.Y.G.b.t.y.@.` z bXbXbXbXbXbXbXbXbX",
"bXbXbXbXbXbXbXbXbXT -.&.| ^ / ' ' ' ' X.' ' o.O.O.+.$.f.g.g.g.g.g.g.a.a.a.a.a.b.n.V.V.V.b.a.b.a.t.t.t.9.F * bXbXbXbXbXbX",
"bXbXbXbXbXbXbXbXJ 1.*.| ! ! / ' ' ] ' X.' ..o.O.O.+.%.f.g.g.g.g.g.g.a.a.a.p.a.b.n.n.n.V.V.n.n.b.a.p.C.L.H.x.3.2 bXbXbXbX",
"bXbXbXbXbXbXbX& Y *.| ^ ! ! / ' ' ' ' ' ..o.O.O.+.$.f.g.g.g.g.f.g.s.d.a.a.a.a.n.n.C.C.C.C.n.n.a.a.p.V.L.L.L.P.I.3.bXbXbX",
"bXbXbXbXbXbX& Y *.&.^ ~ ! ! [ ' ' ' ' ..o.O.O.+.$.f.g.g.g.g.g.g.f.s.a.a.a.a.b.n.n.C.C.V.n.a.a.p.p.t.d.H.I.I.I.P.P.3.bXbX",
"bXbXbXbXbX& Y *.| ` { 5.6.6.{ } ' ' ] o.O.@.#.%.f.f.g.g.g.g.g.g.s.a.p.a.a.n.n.n.n.n.n.a.p.t.u.@.o...o.z.z.k.M.B.I.I.2 bX",
"bXbXbXbX, I *.| { 6.9.9.0.0.z.k.8.] o.O.+.$.y.g.g.g.g.g.g.g.j.d.b.b.b.a.b.n.b.b.a.a.t.u.o...' / ( Q Q G 7.7.9.9.z.B.H bX",
"bXbXbX; _ &.) { 9.9.0.0.0.0.l.l.c.o.O.+.$.f.g.g.g.g.f.g.s.m.G.K.Y.Y.Y.K.C.b.a.p.t.#.../ ( ! ! ! ! E N B Z { G { { [ ` $ ",
"bXbX= A ) ^ ! { 0.0.0.0.0.z.l.l.c.r.+.#.f.f.g.g.g.g.g.d.C.K.Y.Y.T.T.Y.Y.K.V.u.O.../ ! ! ! ! ^ ! B E B B N E ! W B B ' - ",
"bX% V ^ ! ! ! { 0.0.0.0.q.l.l.M.v.@.+.f.g.g.g.f.g.g.j.H.K.K.K.K.K.J.G.U.N.c.} / ( ! ! ! B B c l & > & 3 0 0 S | Q N ~ - ",
"bXl ! W E E E [ 7.9.0.0.q.l.M.N.v.#.$.f.g.g.g.f.g.g.d.P.J.J.G.U.U.N.M.k.z.q.{ ! ! ( E m K 0 : : : : 5 5 y a 9 I &.Q ! - ",
"o M R R N N M B Z 7.6.0.z.l.c.M.v.#.+.%.%.y.f.%.y.y.d.H.N.N.M.M.k.k.q.0.0.0.{ ! B x J E.[.!.> : > 3 3 5 5 y y L ;.! B o ",
"= R N M M n n n M Z G { 7.q.w.8.} ] ................r.k.c.k.w.q.q.0.0.k.0.2.C c q >.).(.[.|.:.: : : 5 8 p y 7 L ;.! l bX",
"= N n n n n V n n M M N B Z Q E Q ! ! Q Q Q ! ~ / / ' w.q.q.0.q.0.9.2.F D U >.E.).(.(./.{.|. X7 6 5 5 5 p d 8 D.e.` % bX",
"; _ M n n V _ A _ A B M M N N N N N N N B B Q ! ^ ! ( [ 6.9.2.2.F D w >.Q.!.!.!.!././.(.!.W.|.>.5 p p 8 5 w T F.9.F bXbX",
", ;.V n n V _ I v I _ ) E E R R R R R W ! ! ! ! ! Q B m v D w :.~.>.!.!.!.!.!.)././.(.E.> u <.|.a 8 p 8 0 T e.q.F bXbXbX",
"> 1._ M n M N ^ A v v c S E B N B V B B B B x c v J q d E.E.!.!.!.!.!.!.^./.(..X.XXX#X8   j +X>.|.q c m ^ ` H 2 bXbXbXbX",
"X Y -.H Z N N W ! ( E K !.:.:.:.K U q q q q E.E.E.a a Q./.!.!.!.^.^.[..X#X,X<X6X9XyXyXf .     ~.5X*XL Q B - bXbXbXbXbXbX",
"bX0 oXF.7.` W ! ! ! M !.,X$X.X[.'.(.(.(.(.(.).!.7 @ +X+XE.).^.{..X%X1X0XeXiXsXxXpXlXzXrXu # g qXtXqX3XK X bXbXbXbXbXbXbX",
"bXbX4.OXF.e.` ! ! ! v $X,XXX}.'.(./.(.(././.).).: . t : >..X#X1X9XaXuXsXkXlXzXzX7XqXcXcXxXaXzXzXlXpXiX7Xs bXbXbXbXbXbXbX",
"bXbX0 oXOXD. ./ ^ Q U :X,X.X[.]./././.(.)./.!.).8 O . : .X3XqXfXgXkX8X<XcXlX<X8X<XwXvXcXvXcXcXcXzXlXjXiX7Xk bXbXbXbXbXbX",
"bXbXbX< T OXoX-.&.A  X2X#X.X[.]./.(.).(.(.).!./.^.d d @X0XaXsXdXdXdXkX<X=X=XqX<XwXvXvXvXvXvXvXvXcXzXzXpXiX-XbXbXbXbXbXbX",
"bXbXbXbXbX< 0 L =.L %X;XXX}.[.].].'.)././././.'..X;X0XyXfXdXdXdXhXlXcXlXaXpXvXvXvXvXvXvXvXvXvXvXvXzXzXlXsXrXj bXbXbXbXbX",
"bXbXbXbXbXbXbXbXX a 2X2X#X|.[.].]./.(./.).(.{.#X3XeXfXsXdXdXdXdXkXzXzXzXzXcXvXvXvXvXvXvXvXvXvXvXvXcXzXzXjXuX-XbXbXbXbXbX",
"bXbXbXbXbXbXbXbXbXs 1X;X#X}.}.[.].]././.'.}.$X4XyXsXdXdXdXdXdXhXlXzXzXzXcXvXvXvXvXvXvXvXvXvXvXvXvXvXzXzXkXiXwXh bXbXbXbX",
"bXbXbXbXbXbXbXbXbXd 6X;X#X.X}.|.[.{.].].[.$X6XuXsXdXdXdXdXdXdXhXzXzXzXzXcXvXvXvXvXvXvXvXvXvXvXvXvXvXzXzXlXsXtXj bXbXbXbX",
"bXbXbXbXbXbXbXbXbXs 6X2X%XXX}.|.}.[.[.|.#X4XuXdXdXdXdXdXdXdXdXhXzXzXzXcXvXvXvXvXvXvXvXvXvXvXvXvXvXvXzXcXlXpXaX-XbXbXbXbX",
"bXbXbXbXbXbXbXbXbXs 6X1X%X#X.X}.|..X}.XX:XeXsXdXdXdXdXdXdXdXdXhXlXzXzXzXvXvXvXvXvXvXvXvXvXvXvXvXvXcXzXcXlXpXtX-XbXbXbXbX",
"bXbXbXbXbXbXbXbXbXd 6X1X%X#X.X.X.X.X.X*X0XpXdXdXdXdXdXdXdXdXdXkXzXzXzXzXcXvXvXvXvXvXvXvXvXvXvXvXcXzXzXzXkXsXrX-XbXbXbXbX",
"bXbXbXbXbXbXbXbXbXe >X1X,X$XXX.X.X@X%X5XuXgXdXdXdXdXdXdXdXdXdXdXzXzXzXzXcXvXvXvXvXvXvXvXvXvXvXvXzXzXzXzXkXfXrX=XbXbXbXbX",
"bXbXbXbXbXbXbXbXbXbX@X1X&X%X#X.X@X$X*XqXsXdXdXdXdXdXdXdXdXdXdXdXkXcXzXzXzXcXcXvXvXvXvXvXvXvXcXzXzXzXzXzXgXiXeX<.bXbXbXbX",
"bXbXbXbXbXbXbXbXbXbXQ.1X>X&X%X#X%X&X1XaXdXdXdXdXdXdXdXdXdXdXdXdXhXzXzXzXzXzXzXcXcXzXzXcXzXzXzXzXzXzXzXkXsXtX4Xr bXbXbXbX",
"bXbXbXbXbXbXbXbXbXbX4 *X>X*X%X$X*X*X6XiXdXdXdXdXdXdXdXdXdXdXdXdXdXkXcXzXzXzXcXzXcXzXzXzXzXzXzXzXzXzXkXgXiX9X_.bXbXbXbXbX",
"bXbXbXbXbXbXbXbXbXbXbXQ.1X>X*X*X*X:X0XpXsXdXdXdXdXdXdXdXdXdXdXdXdXhXlXlXzXzXzXzXzXzXzXzXzXzXzXzXlXkXgXiXyX-Xr bXbXbXbXbX",
"bXbXbXbXbXbXbXbXbXbXbX4 #X:X;X*X>X3X9XpXdXdXdXdXdXdXdXdXdXdXdXdXdXdXhXhXlXzXzXzXzXzXzXzXcXzXlXkXgXgXiXyX<Xu bXbXbXbXbXbX",
"bXbXbXbXbXbXbXbXbXbXbXbXp 2X:X:X3X5X9XiXdXdXdXdXdXdXdXdXdXdXdXdXdXdXdXhXhXhXlXlXlXzXlXlXlXkXkXdXsXiXyX-Xu bXbXbXbXbXbXbX",
"bXbXbXbXbXbXbXbXbXbXbXbXbXQ.;X:X3X6X0XaXsXdXdXdXdXdXdXdXdXdXdXdXdXdXdXdXdXdXdXdXdXdXdXkXdXdXsXiXuX9X*Xu bXbXbXbXbXbXbXbX",
"bXbXbXbXbXbXbXbXbXbXbXbXbXbXQ.%X6X5X8XeXiXxXdXdXdXdXdXdXdXdXdXdXdXdXdXdXdXdXdXdXdXdXdXdXsXsXiXyX5X_.r bXbXbXbXbXbXbXbXbX",
"bXbXbXbXbXbXbXbXbXbXbXbXbXbXbXr @X4X8X9XyXuXpXxXdXdXdXdXdXdXdXdXdXdXdXdXdXdXdXdXsXsXfXfXuXrX4X_.r bXbXbXbXbXbXbXbXbXbXbX",
"bXbXbXbXbXbXbXbXbXbXbXbXbXbXbXbXbXQ.-X9X0X9XyXuXiXpXpXsXsXgXsXsXsXsXsXsXpXsXpXiXiXtXyXeX<X_.t bXbXbXbXbXbXbXbXbXbXbXbXbX",
"bXbXbXbXbXbXbXbXbXbXbXbXbXbXbXbXbXbXe _.<X8X9XqXqXeXeXeXyXyXtXtXyXrXyXrXeXeXeXeX7X<X+Xk # bXbXbXbXbXbXbXbXbXbXbXbXbXbXbX",
"bXbXbXbXbXbXbXbXbXbXbXbXbXbXbXbXbXbXbXbX# s _.=X*X-X0X0X0X9XqX9X9XeX9X<X<X<X_.g e bXbXbXbXbXbXbXbXbXbXbXbXbXbXbXbXbXbXbX",
"bXbXbXbXbXbXbXbXbXbXbXbXbXbXbXbXbXbXbXbXbXbXbX@ @ 4 f f f g g g <.g g t @ # bXbXbXbXbXbXbXbXbXbXbXbXbXbXbXbXbXbXbXbXbXbX"
};
