/* XPM */
static char *result[] = {
/* columns rows colors chars-per-pixel */
"60 55 236 2 ",
"   c #171515",
".  c #110D0C",
"X  c #2C1306",
"o  c #371701",
"O  c #231C18",
"+  c #32290D",
"@  c #2C2B24",
"#  c #352F2A",
"$  c #492101",
"%  c #572902",
"&  c #5C361F",
"*  c #483115",
"=  c #662904",
"-  c #763600",
";  c #673313",
":  c #4B3625",
">  c #5A3A23",
",  c #6A3B23",
"<  c #5C431D",
"1  c #5B4906",
"2  c #71510B",
"3  c #53452D",
"4  c #4B493C",
"5  c #594B31",
"6  c #544932",
"7  c #624C39",
"8  c #67573B",
"9  c #745B3C",
"0  c #704B26",
"q  c #7E633A",
"w  c #7E6C39",
"e  c #534E45",
"r  c #565446",
"t  c #4E4E48",
"y  c #685A44",
"u  c #645E51",
"i  c #725942",
"p  c #696446",
"a  c #746549",
"s  c #6D6759",
"d  c #786A53",
"f  c #79715F",
"g  c #7C7369",
"h  c #767263",
"j  c #7B7C76",
"k  c #6C6960",
"l  c #8B3B03",
"z  c #854305",
"x  c #9A4C0A",
"c  c #8A4719",
"v  c #964915",
"b  c #9A5306",
"n  c #AC4400",
"m  c #A94906",
"M  c #B44400",
"N  c #BB4500",
"B  c #BC4C01",
"V  c #B44B06",
"C  c #A35508",
"Z  c #BC5702",
"A  c #B85417",
"S  c #AA4F18",
"D  c #8C6B1C",
"F  c #8F6E08",
"G  c #BC7400",
"H  c #AE6B05",
"J  c #89532D",
"K  c #865C36",
"L  c #9C5733",
"P  c #8D4925",
"I  c #B15B2D",
"U  c #8C6735",
"Y  c #B96639",
"T  c #AD6F33",
"R  c #C44600",
"E  c #C44D00",
"W  c #CA4D00",
"Q  c #C55201",
"!  c #CC5501",
"~  c #CC5B00",
"^  c #CB560B",
"/  c #D35C00",
"(  c #D45800",
")  c #CC5B15",
"_  c #C2581A",
"`  c #C96806",
"'  c #DD6600",
"]  c #DE6B00",
"[  c #D26906",
"{  c #CC7803",
"}  c #DC7702",
"|  c #CC621D",
" . c #D46C1A",
".. c #E46C01",
"X. c #E06400",
"o. c #E57500",
"O. c #ED7602",
"+. c #EE770C",
"@. c #EC7B05",
"#. c #F47A09",
"$. c #F37A11",
"%. c #FA7D11",
"&. c #CC6528",
"*. c #CD6933",
"=. c #C86939",
"-. c #CE753A",
";. c #D86C2F",
":. c #866944",
">. c #887954",
",. c #8B724A",
"<. c #897964",
"1. c #CE7241",
"2. c #B78B05",
"3. c #B7920C",
"4. c #B9863A",
"5. c #CC8301",
"6. c #CC8B00",
"7. c #C38802",
"8. c #D88500",
"9. c #CB9401",
"0. c #CD9900",
"q. c #D49B00",
"w. c #D99800",
"e. c #D28E19",
"r. c #EC8803",
"t. c #FD8B02",
"y. c #F7800E",
"u. c #F98706",
"i. c #EC9D01",
"p. c #FF9402",
"a. c #FF9A01",
"s. c #FF930D",
"d. c #FD9B0B",
"f. c #FD8511",
"g. c #FF8811",
"h. c #F48011",
"j. c #FC9411",
"k. c #DCA400",
"l. c #DDAA00",
"z. c #D7A403",
"x. c #DEB30F",
"c. c #E4AE00",
"v. c #EBA901",
"b. c #FFA300",
"n. c #FFAB00",
"m. c #FFAA0B",
"M. c #E4B300",
"N. c #ECBB02",
"B. c #ECB606",
"V. c #FEB300",
"C. c #FFBA01",
"Z. c #FAAB11",
"A. c #FBB411",
"S. c #ECBE10",
"D. c #D09535",
"F. c #D8A12E",
"G. c #FECB00",
"H. c #F7C507",
"J. c #FED501",
"K. c #FFDC00",
"L. c #FFD10E",
"P. c #FECD11",
"I. c #F1C010",
"U. c #EEC001",
"Y. c #FFE400",
"T. c #FFEC00",
"R. c #FFF400",
"E. c #8D865B",
"W. c #9C8A5B",
"Q. c #898769",
"!. c #998B66",
"~. c #968666",
"^. c #9A9466",
"/. c #9A9966",
"(. c #9B9B68",
"). c #979463",
"_. c #938C7B",
"`. c #8E897D",
"'. c #A49966",
"]. c #A99966",
"[. c #AA9A6C",
"{. c #A3976B",
"}. c #AA9B75",
"|. c #A89A76",
" X c #A08E6A",
".X c #ABA678",
"XX c #B3A97D",
"oX c #D58E43",
"OX c #E0A945",
"+X c #969188",
"@X c #ACA983",
"#X c #B5AC84",
"$X c #B7AA88",
"%X c #BCB48C",
"&X c #BDB88C",
"*X c #BCB797",
"=X c #B6A998",
"-X c #BCB9A5",
";X c #C5BD94",
":X c #CABD9A",
">X c #C6BB99",
",X c #C0B88C",
"<X c #C4BAA7",
"1X c #CCC39B",
"2X c #CAC598",
"3X c #CBC3A3",
"4X c #CBC5AC",
"5X c #CCCBA9",
"6X c #D4CCA7",
"7X c #CBC5B4",
"8X c #D8CBB8",
"9X c #DDD3BD",
"0X c #D9D3B7",
"qX c #DDD7C5",
"wX c #DBD4D0",
"eX c #E3DDC5",
"rX c #E3DDCA",
"tX c #E6E3CC",
"yX c #E7E2CA",
"uX c #ECE6D2",
"iX c #EDEAD5",
"pX c #EEEBDA",
"aX c #E7E3D2",
"sX c #F4EDDB",
"dX c #FFEEDD",
"fX c #F1E9D6",
"gX c #F9F0DF",
"hX c #FFEEE2",
"jX c #F3EFE0",
"kX c #FEF2E5",
"lX c #FEF5EB",
"zX c #FFFEEE",
"xX c #F5F1E1",
"cX c #FFFFF2",
"vX c #FFFFFE",
"bX c None",
/* pixels */
"bXbXbXbXbXbXbXbXbXbXbXbXbXbXbXbXbXbXbXbXbXbXbXbXbXbXbX+ + 1 F F z z - o X bXbXbXbXbXbXbXbXbXbXbXbXbXbXbXbXbXbXbXbXbXbXbX",
"bXbXbXbXbXbXbXbXbXbXbXbXbXbXbXbXbXbXbXbXbXbXbXbXo z H x.B.S.P.A.$.#.' B n n - $ bXbXbXbXbXbXbXbXbXbXbXbXbXbXbXbXbXbXbXbX",
"bXbXbXbXbXbXbXbXbXbXbXbXbXbXbXbXbXbXbXbXbXbX% C } f.j.m.A.A.Z.g.%.#.../ ! ( ! B l $ bXbXbXbXbXbXbXbXbXbXbXbXbXbXbXbXbXbX",
"bXbXbXbXbXbXbXbXbXbXbXbXbXbXbXbXbXbXbXbXbXx  .g.j.s.p.a.d.g.f.f.y.$.+.' / ! ! ! Q E l $ bXbXbXbXbXbXbXbXbXbXbXbXbXbXbXbX",
"bXbXbXbXbXbXbXbXbXbXbXbXbXbXbXbXbXbXbX; ` $.f.g.p.a.p.a.j.g.g.g.f.%.+.o.8.{ ` ~ ! ! ! M ; bXbXbXbXbXbXbXbXbXbXbXbXbXbXbX",
"bXbXbXbXbXbXbXbXbXbXbXbXbXbXbXbXbXbX- [ y.f.t.p.a.a.a.d.j.f.g.g.f.f.r.B.v.q.0.5.{ ` ( ^ ) c bXbXbXbXbXbXbXbXbXbXbXbXbXbX",
"bXbXbXbXbXbXbXbXbXbXbXbXbXbXbXbXbXC @.t.a.b.n.V.V.a.a.d.g.g.g.f.g.g.Z.N.c.k.q.9.5.5.` ! ) &.P bXbXbXbXbXbXbXbXbXbXbXbXbX",
"bXbXbXbXbXbXbXbXbXbXbXbXbXbXbXbXb r.V.G.J.K.T.T.T.G.a.s.g.g.g.g.g.g.A.B.M.l.k.0.6.6.{ ` ) &.=.P bXbXbXbXbXbXbXbXbXbXbXbX",
"bXbXbXbXbXbXbXbXbXbXbXbXbXbXbXC v.G.J.K.T.T.T.T.T.T.V.g.g.g.g.g.g.g.Z.N.N.l.l.q.0.9.6.5.[ &.*.Y * bXbXbXbXbXbXbXbXbXbXbX",
"bXbXbXbXbXbXbXbXbXbXbXbXbXbXH v.G.J.Y.T.T.T.T.T.T.T.m.g.g.g.g.g.g.f.j.S.N.M.l.k.q.0.0.6.5.| *.1.J bXbXbXbXbXbXbXbXbXbXbX",
"bXbXbXbXbXbXbXbXbXbXbXbX% C v.J.J.K.T.T.T.T.T.T.T.G.d.g.g.g.g.g.f.%.+.i.N.N.l.l.q.0.0.0.{ ) &.-.1.* bXbXbXbXbXbXbXbXbXbX",
"bXbXbXbXbXbXbXbXbXbXbXz [ y.C.J.K.T.T.R.R.R.T.Y.C.a.g.g.g.g.g.g.f.$.+.O.r.i.k.k.k.k.w.6.~ ) &.=.oXU bXbXbXbXbXbXbXbXbXbX",
"bXbXbXbXbXbXbXbXbXz ` @.y.t.b.G.K.T.T.J.J.G.V.b.a.a.g.g.g.f.g.g.f.$.O.O.O.o.] } } 8.o.] / ! ) &.=.4.3 bXbXbXbXbXbXbXbXbX",
"bXbXbXbXbXbX+ F 9.t.u.p.a.a.b.b.V.C.V.n.b.b.p.a.a.d.g.g.g.g.g.g.f.$.+.O.O.o.' ' ] ' ' ' ' / ^ ) *.1.T bXbXbXbXbXbXbXbXbX",
"bXbXbXbX2 3.x.P.L.C.p.a.n.n.n.n.V.V.n.n.b.a.a.a.a.a.g.g.g.g.g.g.g.$.$.O.O.o...' ' ' ' ' ' / ! ! | *.=.J bXbXbXbXbXbXbXbX",
"bXbXbX3.I.L.L.P.L.V.a.a.a.n.n.C.C.C.C.n.b.a.a.a.p.a.j.g.g.g.g.f.f.f.$.#.O.O.o.] ' ' ' ' ' / ! ! ^ | =.Y & bXbXbXbXbXbXbX",
"bXbX3.P.P.I.H.I.P.a.t.t.p.p.b.n.V.C.C.n.n.b.a.a.a.a.s.g.g.f.g.g.g.g.f.$.+.@.O.o.] ' ' ' ] ~ ~ ~ ~ ) &.*.Y > bXbXbXbXbXbX",
"bX2 S.I.B.c.c.z.z.o...o.O.u.t.p.a.n.n.n.n.n.n.b.a.p.a.s.g.g.g.g.g.g.g.f.$.+.+.O.o.] ' ' } 5.5.5.5.{ [ &.*.Y , bXbXbXbXbX",
"bXH B.z.0.7.7.7.G B Q / ' ' ..o.u.p.p.a.b.b.n.b.a.b.b.a.a.s.g.g.g.g.g.g.f.f.$.+.O.o...8.k.z.0.0.9.9.5.{ ) *.Y ; bXbXbXbX",
"$ [ { { G G G Q B N R ! ! ! ! ~ / ..@.t.p.a.b.C.J.T.Y.Y.J.G.m.s.g.g.g.g.g.g.f.$.+.O.@.k.l.l.0.0.0.9.9.9.{ ) | I ; bXbXbX",
"- [ R B W ! R N B B Q B ^ ^ ! ! ! ( / ..o.u.V.J.Y.Y.T.T.T.Y.K.C.d.g.g.g.g.g.g.f.$.O.r.v.l.l.z.0.0.0.0.0.{ ~ ^ ) A = bXbX",
"- ~ N Q | A 0 0 < > > > l l M E ! ! ! ( / } M.N.U.G.J.K.J.Y.K.K.H.j.g.g.g.f.g.g.f.$.u.v.M.l.l.0.0.0.0.0.{ ! ! ! ! B % bX",
"- ! ^ | I i a p 5 6 : > : : 0 J m Q ( ! ! { w.q.l.M.M.H.H.H.J.J.L.j.f.g.g.g.g.g.f.$.+.v.N.M.l.z.0.0.9.7.~ Q R W W W l bX",
"o B ! ;.L u y 5 6 3 3 : : 7 !.[.>.J m V ! { 0.0.0.q.k.k.M.M.N.U.I.b.%.y.h.h.y.y.$.+.@.v.M.l.l.z.0.9.7.Z N M N N R R N o ",
"bXl ! ;.L 7 i y p 3 : : : ,.}.].'.).>.q c C 2.0.0.0.0.q.q.w.l.c.c.r.X...............X.} 8.w.9.6.7.G Z M n n n M M M N = ",
"bX% ` e.D.7 d a 5 5 5 6 7 ^.}.{./././.^.Q.>.U D F 2.9.0.q.0.q.q.w.' / ~ ~ ! Q ! Q ! ! ! Q E Q B M M M M n V m n n n N = ",
"bXbXF 0.F.4.9 5 8 p 8 5 >.|.W.^././.^.!.!.!.!.<.E.U D F 2.2.9.6.[ ( ! ! ! Q B N B N N N N N N N M B V _ A _ V n n n ) , ",
"bXbXbXF 0.e.T 0 8 p 8 p  X~.u : E./././.^.^.!.~.!.!.E.E.a w D v m B B ! ! ! ! ! E R R R R R E R ) _ I v I _ V n n N *., ",
"bXbXbXbX2 G { ^ m c q .X>.+Xj   8 &X.X.X.X{././.).!.!.~.!.!.~.E.:.w K v c x B V B B B B N B B S c v v A Q N M n m _ =.& ",
"bXbXbXbXbXbX- n Q L =X5X<.O   . f tXyX9X5X1X*X#X.X|.^.^.!.!.!.^.Q.a i E.E.E.w q q q U K :.:.,. XK B ( ! W R N Z ` -.Y O ",
"bXbXbXbXbXbXbXX K 4XqXaXwX<.# y rXzXzXiXxXsXuXeX8X1X&X.X'.^.^.E._.+X@ 7 !.^.(.(.(.(.(.{.[.}.$X,X!.V ! ! ! E ` 7.F.D.q bX",
"bXbXbXbXbXbXbXs 7XaXjXlXcXlXiXxXcXzXqX4XcXzXlXlXfXuXaX0X1X#X.X,.4 t . : ^.!././.(././.(.{.[.#X,X$Xv ! ! ! ` e.F.OX4.bXbX",
"bXbXbXbXbXbXs 7XpXjXlXzXzXcXvXcXcXvXqX<X8X<XlXcX<X8XhXdXfX9X3X.X: .   8 ).!.)./././././.'.[..X%X>XU Q ! ^  .D.OXD.0 bXbX",
"bXbXbXbXbXbX-XfXjXlXzXzXcXvXvXvXvXvXvXwX<XqX=X=X<XlXhXdXdXsXuX0X=Xd d ^./.!.^./././././.'.[..X#X2X^.A ;.;.oXoXT 3 bXbXbX",
"bXbXbXbXbXj tXpXlXzXzXvXvXvXvXvXvXvXvXvXvXvXiXaXlXzXlXdXdXdXdXsXyX0X,XXX{./.)./././.(.].].[.}.#X2X#XL =.L J < bXbXbXbXbX",
"bXbXbXbXbX-XuXjXzXzXvXvXvXvXvXvXvXvXvXvXvXvXcXcXzXcXzXhXdXdXdXdXgXiXqX2X#X{.(././././.].].[.}.XX1X2Xa X bXbXbXbXbXbXbXbX",
"bXbXbXbXh wXpXkXzXzXvXvXvXvXvXvXvXvXvXvXvXvXvXzXzXzXzXlXdXdXdXdXdXdXsXyX6X$X[.'././.{.].[.}.}.#X;X6Xa bXbXbXbXbXbXbXbXbX",
"bXbXbXbXj tXpXlXzXzXvXvXvXvXvXvXvXvXvXvXvXvXvXcXzXzXzXlXkXdXdXdXdXdXdXsXuX6X$X[.].].].[.}.}..X$X;X6Xd bXbXbXbXbXbXbXbXbX",
"bXbXbXbX-XaXsXlXzXzXvXvXvXvXvXvXvXvXvXvXvXvXvXvXzXzXzXcXhXdXdXdXdXdXdXdXjXuX4X#X}.[.}.[.|.}.XX%X2X6Xs bXbXbXbXbXbXbXbXbX",
"bXbXbXbX-XtXpXlXzXzXcXvXvXvXvXvXvXvXvXvXvXvXvXvXzXzXzXlXhXhXdXdXdXdXdXdXhXdXeX>X#X}.}.}.}..XXX,X2X6Xs bXbXbXbXbXbXbXbXbX",
"bXbXbXbX*XyXsXkXzXzXcXcXvXvXvXvXvXvXvXvXvXvXvXcXzXzXzXlXdXdXdXdXdXdXdXdXdXdXsX0X*X.X.X.X.X.X#X&X2X6Xs bXbXbXbXbXbXbXbXbX",
"bXbXbXbX=XyXfXkXzXzXzXzXvXvXvXvXvXvXvXvXvXvXvXcXzXzXzXzXdXdXdXdXdXdXdXdXdXdXdXaX4X$X@X.X.XXX#X&X1X*Xr bXbXbXbXbXbXbXbXbX",
"bXbXbXbX<.wXiXjXzXzXzXzXzXcXvXvXvXvXvXvXvXcXcXzXzXzXzXlXdXdXdXdXdXdXdXdXdXdXdXsXeX;X$X@X.X#X&X&X1X#XbXbXbXbXbXbXbXbXbXbX",
"bXbXbXbXr 4XtXsXkXzXzXzXzXzXzXzXzXcXzXcXcXzXcXzXzXzXlXkXdXdXdXdXdXdXdXdXdXdXdXdXyX3X%X$X$X$X&X2X1XQ.bXbXbXbXbXbXbXbXbXbX",
"bXbXbXbXbX_.qXiXdXkXlXcXzXzXzXzXzXzXzXzXzXzXzXcXzXlXlXdXdXdXdXdXdXdXdXdXdXdXdXdXiX5X*X*X$X%X*X1X&X4 bXbXbXbXbXbXbXbXbXbX",
"bXbXbXbXbXr *XtXiXxXkXlXzXzXzXzXzXzXzXzXzXzXzXlXzXlXhXdXdXdXdXdXdXdXdXdXdXdXdXdXpX0X1X*X*X*X>X1XQ.bXbXbXbXbXbXbXbXbXbXbX",
"bXbXbXbXbXbXs *XtXiXdXhXkXcXzXzXcXzXzXzXcXzXcXlXkXdXdXdXdXdXdXdXdXdXdXdXdXdXdXdXpXqX4X>X*X>X:X#X4 bXbXbXbXbXbXbXbXbXbXbX",
"bXbXbXbXbXbXbXu -XtXuXsXhXhXkXlXlXlXlXlXlXlXhXhXdXdXdXdXdXdXdXdXdXdXdXdXdXdXdXjXpX0X5X3X:X:X2Xp bXbXbXbXbXbXbXbXbXbXbXbX",
"bXbXbXbXbXbXbXbXu *XqXaXpXgXdXdXdXdXdXdXdXdXdXdXdXdXdXdXdXdXdXdXdXdXdXdXdXdXdXsXyX9X5X5X:X:X~.bXbXbXbXbXbXbXbXbXbXbXbXbX",
"bXbXbXbXbXbXbXbXbXr _.4XyXaXsXxXgXdXdXdXdXdXdXdXdXdXdXdXdXdXdXdXdXdXdXdXdXdXsXiXqX8X5X5X,XQ.bXbXbXbXbXbXbXbXbXbXbXbXbXbX",
"bXbXbXbXbXbXbXbXbXbXbXr _.5XrXaXiXsXsXsXdXdXdXdXdXdXdXdXdXdXdXdXdXdXdXdXsXsXiXeX9X8X5X@X4 bXbXbXbXbXbXbXbXbXbXbXbXbXbXbX",
"bXbXbXbXbXbXbXbXbXbXbXbXbXe _.-X9XyXuXiXpXpXpXsXsXsXsXdXsXsXsXgXsXpXpXiXuXtXqX9X9X-XQ.bXbXbXbXbXbXbXbXbXbXbXbXbXbXbXbXbX",
"bXbXbXbXbXbXbXbXbXbXbXbXbXbXbX# f +X<X7XyXyXeXeXeXyXyXyXtXtXyXyXyXeXrXeX9XqX8X<X_.e bXbXbXbXbXbXbXbXbXbXbXbXbXbXbXbXbXbX",
"bXbXbXbXbXbXbXbXbXbXbXbXbXbXbXbXbXbXbXe h _.-X<X<X9XeX9X9X9X9X9X0X8X<X*X*X_.k @ bXbXbXbXbXbXbXbXbXbXbXbXbXbXbXbXbXbXbXbX",
"bXbXbXbXbXbXbXbXbXbXbXbXbXbXbXbXbXbXbXbXbXbX@ @ e g g g g g g f f k 4 @ @ bXbXbXbXbXbXbXbXbXbXbXbXbXbXbXbXbXbXbXbXbXbXbX"
};
