/* XPM */
static char *result[] = {
/* columns rows colors chars-per-pixel */
"59 63 245 2 ",
"   c #1C1512",
".  c #0F0D0C",
"X  c #311905",
"o  c #352204",
"O  c #322907",
"+  c #2B2925",
"@  c #3A3631",
"#  c #3A2C21",
"$  c #542E0C",
"%  c #612800",
"&  c #6B3D1C",
"*  c #76310C",
"=  c #4E3B26",
"-  c #4D3726",
";  c #523D2B",
":  c #553E26",
">  c #7A2922",
",  c #663F29",
"<  c #561E00",
"1  c #4C410D",
"2  c #6A4704",
"3  c #775904",
"4  c #744811",
"5  c #53442C",
"6  c #59462D",
"7  c #544432",
"8  c #564B33",
"9  c #5A4C33",
"0  c #574737",
"q  c #565334",
"w  c #5A5336",
"e  c #5D563A",
"r  c #5F5A3D",
"t  c #49432F",
"y  c #674727",
"u  c #764925",
"i  c #775928",
"p  c #634C37",
"a  c #66563A",
"s  c #745539",
"d  c #6F4F32",
"f  c #6C603C",
"g  c #5B544C",
"h  c #57534F",
"j  c #645E41",
"k  c #6C5946",
"l  c #695E54",
"z  c #666143",
"x  c #6A6344",
"c  c #6E6648",
"v  c #746445",
"b  c #72664B",
"n  c #7A6947",
"m  c #766754",
"M  c #79725E",
"N  c #656257",
"B  c #7A7266",
"V  c #76726C",
"C  c #850000",
"Z  c #880000",
"A  c #960000",
"S  c #831912",
"D  c #833602",
"F  c #842A23",
"G  c #863830",
"H  c #A53C3C",
"J  c #9B4808",
"K  c #8A5705",
"L  c #874516",
"P  c #924F12",
"I  c #AB4400",
"U  c #AA4B01",
"Y  c #B34500",
"T  c #BB4500",
"R  c #B34D03",
"E  c #BD4C01",
"W  c #B95701",
"Q  c #AA5709",
"!  c #876714",
"~  c #8F6A03",
"^  c #B96602",
"/  c #AB7800",
"(  c #BB7600",
")  c #A6740B",
"_  c #8E5533",
"`  c #B05C2A",
"'  c #8C6A36",
"]  c #AA6D38",
"[  c #C24E01",
"{  c #C45201",
"}  c #CB5500",
"|  c #CC5C01",
" . c #C3560A",
".. c #D35D01",
"X. c #C95D17",
"o. c #C96500",
"O. c #D66301",
"+. c #DC6400",
"@. c #DD6900",
"#. c #D86908",
"$. c #DB7503",
"%. c #CC6317",
"&. c #D1720D",
"*. c #E46C02",
"=. c #E57301",
"-. c #EC7502",
";. c #EC7708",
":. c #F0790C",
">. c #F67E11",
",. c #E06F1E",
"<. c #CB6627",
"1. c #D86925",
"2. c #D97329",
"3. c #CB6B35",
"4. c #D97434",
"5. c #D27136",
"6. c #E07833",
"7. c #A84545",
"8. c #887956",
"9. c #8E6C4A",
"0. c #BB7444",
"q. c #867A6A",
"w. c #947971",
"e. c #8B4C45",
"r. c #D97C45",
"t. c #898100",
"y. c #BB8400",
"u. c #BA8701",
"i. c #B29306",
"p. c #B8813D",
"a. c #C48C00",
"s. c #CA8A00",
"d. c #D98603",
"f. c #CB9400",
"g. c #CD9A00",
"h. c #C39000",
"j. c #D59603",
"k. c #DA9A18",
"l. c #F88708",
"z. c #FF9B02",
"x. c #FF9A0B",
"c. c #F89308",
"v. c #FC8511",
"b. c #FF8A11",
"n. c #FE9711",
"m. c #EC8D04",
"M. c #D9A703",
"N. c #DAB00E",
"B. c #E6A802",
"V. c #FFAA00",
"C. c #FBA604",
"Z. c #E7B604",
"A. c #FFBB00",
"S. c #FCB404",
"D. c #FFA811",
"F. c #F9BA11",
"G. c #D49929",
"H. c #D18A36",
"J. c #DBA727",
"K. c #DFA93D",
"L. c #E0A83A",
"P. c #EFC401",
"I. c #F9C703",
"U. c #FDD701",
"Y. c #FECC11",
"T. c #FEE500",
"R. c #FFE900",
"E. c #FFFC00",
"W. c #8A8356",
"Q. c #93885C",
"!. c #998A66",
"~. c #988864",
"^. c #9B9466",
"/. c #9B9966",
"(. c #9B9667",
"). c #978779",
"_. c #948A7C",
"`. c #A39B6A",
"'. c #A6996A",
"]. c #AA9B74",
"[. c #A19270",
"{. c #A99776",
"}. c #AAA276",
"|. c #AEA47B",
" X c #ACAA79",
".X c #B3AB7D",
"XX c #B9904C",
"oX c #C58F46",
"OX c #DAA744",
"+X c #D8A750",
"@X c #E0A543",
"#X c #E08A43",
"$X c #9C9586",
"%X c #A99A8C",
"&X c #AEA389",
"*X c #B6AA83",
"=X c #B8B28A",
"-X c #BCB696",
";X c #B1A79A",
":X c #BAB3A8",
">X c #C4BB98",
",X c #C5BAA5",
"<X c #C8BEB3",
"1X c #C9C19B",
"2X c #CCC7A9",
"3X c #D4CBAB",
"4X c #D3CCB2",
"5X c #D7CBB6",
"6X c #DDD4BB",
"7X c #DEDCBC",
"8X c #D6D3B8",
"9X c #CBC5B5",
"0X c #E0CEAD",
"qX c #E0DABD",
"wX c #DFE0BD",
"eX c #DEDCC2",
"rX c #DDD3C8",
"tX c #DBD9D4",
"yX c #DECFC3",
"uX c #E3DDC4",
"iX c #E5DBCB",
"pX c #ECDCD4",
"aX c #E6E2CB",
"sX c #EBE4CE",
"dX c #E5E0C6",
"fX c #ECE6D3",
"gX c #EDEAD5",
"hX c #EEEDDB",
"jX c #E7E4D9",
"kX c #F2EDDB",
"lX c #FFEEDD",
"zX c #F1EAD5",
"xX c #FAF0DF",
"cX c #E9E8E5",
"vX c #FFEEE3",
"bX c #FFEFE9",
"nX c #FEF3E4",
"mX c #FFF4EC",
"MX c #FFFFEE",
"NX c #F6F4E3",
"BX c #FFFFF3",
"VX c #FFFFFE",
"CX c #F3F4F6",
"ZX c #E8EFF7",
"AX c None",
/* pixels */
"AXAXAXAXAXAXAXAXAXAXAXAXAXAXAXAXAXAXAXAXAXAXAXAXAXAXAXO o 2 K K K P K * O X AXAXAXAXAXAXAXAXAXAXAXAXAXAXAXAXAXAXAXAXAX",
"AXAXAXAXAXAXAXAXAXAXAXAXAXAXAXAXAXAXAXAXAXAXAX1 t.t.i.M.B.c.z.x.x.n.D.F.N.f.K % AXAXAXAXAXAXAXAXAXAXAXAXAXAXAXAXAXAXAX",
"AXAXAXAXAXAXAXAXAXAXAXAXAXAXAXAXAXAXAXAX$ ~ M.Z.U.I.A.A.S.V.V.z.z.x.D.F.Y.Y.F.j.^ * AXAXAXAXAXAXAXAXAXAXAXAXAXAXAXAXAX",
"AXAXAXAXAXAXAXAXAXAXAXAXAXAXAXAXAXAXK u.M.A.I.A.A.A.A.A.A.S.V.V.z.x.n.b.n.F.P.Z.Z.$.^ % AXAXAXAXAXAXAXAXAXAXAXAXAXAXAX",
"AXAXAXAXAXAXAXAXAXAXAXAXAXAXAX2 ~ j.A.A.I.U.U.R.T.U.U.I.A.V.V.V.z.x.n.b.v.b.n.C.Z.j.@.R % AXAXAXAXAXAXAXAXAXAXAXAXAXAX",
"AXAXAXAXAXAXAXAXAXAXAXAX2 ^ d.m.V.V.V.I.T.E.E.E.E.E.E.R.I.V.V.z.x.n.n.b.b.v.v.:.-.=.+.O.R % AXAXAXAXAXAXAXAXAXAXAXAXAX",
"AXAXAXAXAXAXAXAXAXAX4 ^ m.n.z.z.z.z.A.U.T.R.R.R.R.T.T.T.U.S.b.n.n.b.b.b.v.b.v.:.-.-.*.O.| E % AXAXAXAXAXAXAXAXAXAXAXAX",
"AXAXAXAXAXAXAXAX~ k.n.b.b.v.l.l.l.c.I.U.U.I.I.P.P.P.P.P.P.F.v.>.v.v.b.b.b.v.v.>.-.-.@.+.} } U < AXAXAXAXAXAXAXAXAXAXAX",
"AXAXAXAXAXAX2 i.Y.D.m.:.;.*.*.-.-.d.M.M.M.M.M.M.M.M.M.M.M.B.=.=.-.;.:.;.:.>.>.>.;.-.@.@.o.o.^ I < AXAXAXAXAXAXAXAXAXAX",
"AXAXAXAXAX3 N.Y.F.:.#.O...[ [ [ [ ( u.u.u.u.g.g.g.g.g.g.M.j.#.O.....+.+.+.*.*.;.-.*.+.$.g.s.y.( U % AXAXAXAXAXAXAXAXAX",
"AXAXAXAX3 N.I.Z.$.| { Y Y T T T T ^ u.a.h.h.g.g.g.g.g.g.g.s.o.| } } } } } } ......*.+.@.g.g.a.u.( ^ D AXAXAXAXAXAXAXAX",
"AXAXAX2 N.S.M.o.E Y I I Y T T T { } g.g.g.g.g.g.g.g.g.g.g.s.o.} } } } } } } } [ [ } } | o.s.a.u.( ( W D AXAXAXAXAXAXAX",
"AXAXAXi.Z.d.W Y I I Y T T [ [ X.1.2.G.G.J.G.J.J.J.N.N.N.j.#.o.} } } } } } [ T T T Y Y Y E o.&.u.y./ ( W D AXAXAXAXAXAX",
"AXAX3 m.$.E I I Y Y [ X.<.3.r.] ] _ _ s s s y ' ' p.] ) ( ..o.{ }  .} } { T T T T Y I I I Y R ^ ( / / W  .L AXAXAXAXAX",
"AXAXo.*.W Y Y T T  .<.] _ s s k p 9 x m b c e 5 r c k k d y & u J U E } } } [ T T T I I I I I Y R Q / Q  .X.$ AXAXAXAX",
"AX2 *.} E T T E X.3._ d c b m m c q e z x z e 6 z b b b z 8 a x k k y L J [ } [ [ T T Y I I I I I I I I T X.` , AXAXAX",
"AXJ ..} E T  .3.] s a 6 w x c b z w ; q e w q = q j z j e 5 w x b c c w 5 u L R &.s.( ( W U I I I I I Y T  .<.` AXAXAX",
"o { | [ T  .5.0.k b c z 9 7 e e w 8 ; ; 8 7 8 ; 7 8 8 q 8 = q a x a w 8 j b b a 3 i.s.a.y.^ I I I I I Y T  .X.3._ AXAX",
"< | } W E 1.0.s v k r r w 5 ; 7 7 7 ; - = : : - = = ; = : - 8 q 8 8 5 w j c c x r y ! / f.a.W I I I I I T [ X.<.3.$ AX",
"* | { { <.r._ 6 6 : 5 8 8 7 - ; ; : p a 8.8.8.8.8.W.W.8.a p 0 ; ; - ; 8 e z r w 5 5 q s ! a.o.T I I Y Y T T  .<.r.L AX",
"3 O.| o.H.p.s c a 8 5 - ; 7 - : v 8.^.!.!.!.!.!.!.!.!.!.!.^.Q.8.n p : ; 8 8 5 : q w x c x ! o.W T T T T T T  .X.3.] AX",
"3 j.s.j.@X' j j e 9 7 7 - : v ~.!.!.!.!.!.!.!.~.!.!.!.~.!.!.!.(././.W.n 6 - = 7 q e j z x a u R [ [ T T T T E X.5.H.X ",
"2 h.f.k.OXi 8 5 5 ; 7 7 ; v !.~.!.^.(.(././.(.`.(.(.^.!.~.~.~.!.!.!././.Q.n 6 5 q 8 w q 8 8 8 & I } [ T T T E X.H.K.5 ",
"o u.g.k.K.6 w 6 5 ; - ; v ~.~.!.(.`.|.=X>X1X>X>X>X=X.X}.(.(.(.~.!.!.!.^.(./.Q.d 5 5 ; = 5 8 e a s Y } [ T T T X.H.@Xi ",
"AX/ g.k.K.s c z 8 7 ; v ~.8.g p *X2X7XfXgXkXkXzXfXaXuX4X>X*X].(.8.b 8.w.!.!./.`.9.: ; 7 q z x b m d R } { T E  .H.@X_ ",
"AX3 g.j.K.' k w - - : ~.m %XV   _.kXvXvXmXnXnXvXlXlXlXkXgXiX3X^.$XN # 8.!.!.!./.(.Q.p 5 q r z z k c d R } { W X.5.#Xi ",
"AX$ u.g.k.oXy 9 8 5 n /.j + + . ).mXpXMXmXzXnXBXmXNXiXlXlXlXkX).V h   a !.!.!.!.(./.~.p = 5 5 8 e z z L } }  .X.5.6.u ",
"AXAX~ d.#.6._ e q 6 Q.(.!.;   h aXkX&XzX5X$X;XjXkX,X,XbXvXlXvX&X  .   v !.!.!.!.(.`.].^.6 = ; 5 : 5 z d R } ..%.1.6.u ",
"AXAXAXW ..*.4._ 6 a (. X2XyX9XaXBXMX9Xw.:XZXtX$Xq.&XNXMXmXlXlXkX{.k M [./.!.~.Q.^.`.'..X8.; w q w 0 p p L | %.1.4.4.4 ",
"AXAXAXAXW *.*.,.Q 9.].>XaXmXBXMXMXMXrX).ZXVXCXCX;XiXBXMXMXmXlXlXlXkXuX=X/././.^././.'.}.|.: : 7 a b k k P #.,.1.4.<.X ",
"AXAXAXAXAXU ..*._ ^.-XeXNXBXMXMXBXBXtX> H 7.7.7.e.cXMXMXMXMXnXlXlXlXkX6X=X/./././.'.].}..Xv 5 8 6 k m k R #.%.,.4.` AX",
"AXAXAXAXAXAX* Y ' =X6XNXMXMXMXVXVXVXtX> C C C C > cXBXMXMXMXBXvXlXlXlXzX4X.X'././.'.].}..X8.= q f a k u X.,.,.2.4.u AX",
"AXAXAXAXAXAXAXO !.4XhXMXMXMXVXVXVXVXtX> C Z Z Z > cXVXMXMXMXMXmXlXlXlXxXsX2X.X`.'.'.].}..X}.6 5 a k y  .$.k.J.L.p.AXAX",
"AXAXAXAXAXAXAXt =XfXmXMXMXVXVXVXVXVXtX> Z Z Z Z > cXVXBXMXMXMXmXlXlXlXlXlXiX,X.X].'.].|. X*Xv - u P | $.k.J.K.+Xd AXAX",
"AXAXAXAXAXAXAXB uXNXMXMXVXVXVXVXVXVXcXG C Z Z Z > cXVXVXBXMXMXMXbXnXlXlXlXkXuX>X|.].{.]. X=X9.U O.+.+.$.J.@XoX' AXAXAX",
"AXAXAXAXAXAXAXV hXmXMXBXVXVXVXVXVXVXVXw.% A Z A F cXVXVXBXMXMXMXmXnXlXlXlXlXkX8X>X}.].]. X*X'.Q *.+.#.H.+XoX5 AXAXAXAX",
"AXAXAXAXAXAXAX$XnXMXMXBXVXVXVXVXVXVXVXw.A A A A F cXVXVXBXBXMXMXmXmXvXlXlXlXlXgX8X=X.X].}. X=X] #.6.r.r.' AXAXAXAXAXAX",
"AXAXAXAXAXAXAXyXMXMXMXVXVXVXVXVXVXVXVX<XS A A A F cXVXVXBXMXMXMXBXmXvXlXlXlXlXlXfX5X=X|. X X=X].] 9., - AXAXAXAXAXAXAX",
"AXAXAXAXAXAX@ rXBXMXMXBXVXVXVXVXVXVXVXCX9.A A A w.CXVXVXMXMXMXMXMXMXmXvXlXlXlXlXkXiX9X>X*X=X=X1XW.AXAXAXAXAXAXAXAXAXAX",
"AXAXAXAXAXAXAXrXMXMXBXBXVXVXVXVXVXVXVXVXyXF Z G yXVXVXVXBXMXMXMXMXMXBXmXvXlXlXlXlXkXuX4X-X=X-X>X=Xt AXAXAXAXAXAXAXAXAX",
"AXAXAXAXAXAXh iXMXMXMXBXVXVXVXVXVXVXVXVXVXtX,XtXVXVXVXVXBXMXMXMXMXMXMXmXvXlXlXlXlXlXhXuX2X>X>X1X2XM AXAXAXAXAXAXAXAXAX",
"AXAXAXAXAXAXq.vXmXMXMXMXBXBXBXVXVXVXVXVXVXVXVXVXBXMXMXMXBXMXMXMXMXMXMXBXbXlXlXlXlXlXlXzX8X1X>X2X2X%XAXAXAXAXAXAXAXAXAX",
"AXAXAXAXAXAX_.vXmXMXMXMXMXMXMXMXMXBXBXVXVXBXBXBXMXMXMXMXMXMXMXMXMXMXMXmXvXlXlXlXlXlXlXkXaX4X3X2X4X>X+ AXAXAXAXAXAXAXAX",
"AXAXAXAXAXAX_.vXmXBXMXMXMXMXMXMXMXMXMXMXMXMXMXMXMXMXMXMXMXMXMXMXMXMXMXmXvXlXlXlXlXlXlXxXgXeX4X2X3X>Xt AXAXAXAXAXAXAXAX",
"AXAXAXAXAXAX_.bXmXMXMXMXMXMXMXMXMXMXMXMXMXMXMXMXMXMXMXMXMXMXMXMXMXMXMXmXlXlXlXlXlXlXlXlXhXaX8X3X3X0X8.AXAXAXAXAXAXAXAX",
"AXAXAXAXAXAXN pXmXMXMXMXMXMXMXMXMXMXMXMXMXMXMXMXMXMXMXMXMXMXMXMXMXMXBXvXlXlXlXlXlXlXlXlXxXgX7X8X3X0XM AXAXAXAXAXAXAXAX",
"AXAXAXAXAXAXAXyXmXBXMXMXMXMXMXMXMXMXMXMXMXMXMXMXMXMXMXMXMXMXMXMXMXMXbXvXlXlXlXlXlXlXlXlXvXgXaX6X0X0XM AXAXAXAXAXAXAXAX",
"AXAXAXAXAXAX@ yXmXMXMXMXMXMXMXMXMXMXMXMXMXMXMXMXMXMXMXMXMXMXMXMXMXmXvXlXlXlXlXlXlXlXlXlXlXhXfX7X6X0XB AXAXAXAXAXAXAXAX",
"AXAXAXAXAXAX@ rXvXmXMXMXMXMXMXMXMXMXMXMXMXMXMXMXMXMXMXMXMXMXMXMXmXmXlXlXlXlXlXlXlXlXlXlXlXkXfXeX6X0XB AXAXAXAXAXAXAXAX",
"AXAXAXAXAXAXAX;XlXvXmXMXMXMXMXMXMXMXMXMXMXMXMXMXMXMXMXMXMXMXMXmXmXvXlXlXlXlXlXlXlXlXlXlXlXhXfXeX6X2Xg AXAXAXAXAXAXAXAX",
"AXAXAXAXAXAXAXV gXvXvXbXMXBXMXMXMXMXMXMXMXMXMXMXMXMXMXMXMXMXMXmXvXlXlXlXlXlXlXlXlXlXlXlXxXhXsXuXwX>XAXAXAXAXAXAXAXAXAX",
"AXAXAXAXAXAXAXAX9XNXlXvXbXmXMXMXMXMXMXMXMXMXMXMXMXMXMXmXMXmXbXvXlXlXlXlXlXlXlXlXlXlXlXxXhXhXaXeXwX{.AXAXAXAXAXAXAXAXAX",
"AXAXAXAXAXAXAXAX_.aXkXlXlXvXmXmXMXmXMXMXMXMXMXMXmXmXmXvXvXlXlXlXlXlXlXlXlXlXlXlXlXlXxXkXhXgXuX7X7XM AXAXAXAXAXAXAXAXAX",
"AXAXAXAXAXAXAXAXAX:XgXNXlXlXlXlXvXvXmXmXmXmXvXvXvXlXlXlXlXlXlXlXlXlXlXlXlXlXlXlXlXlXkXhXgXaXeXwX-XAXAXAXAXAXAXAXAXAXAX",
"AXAXAXAXAXAXAXAXAXN 8XgXkXlXlXlXlXlXlXvXlXlXlXlXlXlXlXlXlXlXlXlXlXlXlXlXlXlXlXlXnXkXhXgXsX7XwX3XN AXAXAXAXAXAXAXAXAXAX",
"AXAXAXAXAXAXAXAXAXAX$XuXgXkXlXlXlXlXlXlXlXlXlXlXlXlXlXlXlXlXlXlXlXlXlXlXlXlXlXlXkXhXgXsXeX6X6X_.AXAXAXAXAXAXAXAXAXAXAX",
"AXAXAXAXAXAXAXAXAXAXAX$XuXfXkXlXlXlXlXlXlXlXlXlXlXlXlXlXlXlXlXlXlXlXlXlXlXlXkXhXhXgXdXeXqX<X).AXAXAXAXAXAXAXAXAXAXAXAX",
"AXAXAXAXAXAXAXAXAXAXAXAX$XeXdXfXkXkXlXlXlXlXlXlXlXlXlXlXlXlXlXlXlXlXlXlXxXhXhXhXgXuXeX7X,XN AXAXAXAXAXAXAXAXAXAXAXAXAX",
"AXAXAXAXAXAXAXAXAXAXAXAXAXB 2XdXdXgXhXkXkXlXlXlXlXvXlXlXlXlXlXlXlXkXhXhXhXhXgXaXdXeX4X$Xg AXAXAXAXAXAXAXAXAXAXAXAXAXAX",
"AXAXAXAXAXAXAXAXAXAXAXAXAXAXh $X4XuXdXsXfXgXhXkXhXhXkXgXkXhXkXzXgXfXfXsXsXaXaXeX4X$Xg AXAXAXAXAXAXAXAXAXAXAXAXAXAXAXAX",
"AXAXAXAXAXAXAXAXAXAXAXAXAXAXAXAXg q.:X4XqXuXuXuXiXuXuXuXuXiXuXuXeXeXdXeXeX2X-X_.g AXAXAXAXAXAXAXAXAXAXAXAXAXAXAXAXAXAX",
"AXAXAXAXAXAXAXAXAXAXAXAXAXAXAXAXAXAXAXg B $X,X,X,X6XuX6X6X6X5X,X:X-X$XB V @ AXAXAXAXAXAXAXAXAXAXAXAXAXAXAXAXAXAXAXAXAX",
"AXAXAXAXAXAXAXAXAXAXAXAXAXAXAXAXAXAXAXAXAXAX+ + @ B B B q.B B @ + + AXAXAXAXAXAXAXAXAXAXAXAXAXAXAXAXAXAXAXAXAXAXAXAXAX"
};
