/* XPM */
static char *result[] = {
/* columns rows colors chars-per-pixel */
"60 53 242 2 ",
"   c #171311",
".  c #301907",
"X  c #362812",
"o  c #282923",
"O  c #302C25",
"+  c #38332D",
"@  c #562600",
"#  c #5B321C",
"$  c #4A2C12",
"%  c #642900",
"&  c #6B3802",
"*  c #7B3700",
"=  c #683718",
"-  c #473624",
";  c #523D28",
":  c #5C2D12",
">  c #5A4511",
",  c #6F4E0B",
"<  c #56462B",
"1  c #574732",
"2  c #7D4D23",
"3  c #7D4726",
"4  c #7B5824",
"5  c #64573A",
"6  c #664E33",
"7  c #7F6138",
"8  c #5A5849",
"9  c #585248",
"0  c #6B5A4B",
"q  c #6A6656",
"w  c #716C5A",
"e  c #72715E",
"r  c #7B7B5F",
"t  c #7E754C",
"y  c #767362",
"u  c #796F66",
"i  c #893801",
"p  c #983C05",
"a  c #9D4605",
"s  c #8D4B08",
"d  c #AC4400",
"f  c #AA4901",
"g  c #B44400",
"h  c #BB4500",
"j  c #BC4C00",
"k  c #B84D09",
"l  c #AB5502",
"z  c #BC5300",
"x  c #B95804",
"c  c #B65617",
"v  c #9A6A07",
"b  c #86670D",
"n  c #BB6600",
"m  c #A47C01",
"M  c #B97801",
"N  c #AA6F06",
"B  c #835024",
"V  c #875937",
"C  c #905530",
"Z  c #B15C2B",
"A  c #996E36",
"S  c #A7643B",
"D  c #B86535",
"F  c #C35401",
"G  c #CB5500",
"H  c #CC5A01",
"J  c #C85B0B",
"K  c #D35C00",
"L  c #CB5C13",
"P  c #C85A18",
"I  c #C04F00",
"U  c #C86703",
"Y  c #D36102",
"T  c #DD6501",
"R  c #D66B01",
"E  c #CA7900",
"W  c #DE7805",
"Q  c #CD631B",
"!  c #CF6C19",
"~  c #E36C00",
"^  c #E46C09",
"/  c #ED7503",
"(  c #EC750D",
")  c #ED7805",
"_  c #ED7611",
"`  c #EE7810",
"'  c #F37B11",
"]  c #F87D11",
"[  c #EC7710",
"{  c #C55F23",
"}  c #C7662A",
"|  c #D36A2B",
" . c #D66821",
".. c #C56A38",
"X. c #D56D33",
"o. c #DA773A",
"O. c #D37331",
"+. c #826B4D",
"@. c #8B6242",
"#. c #82734D",
"$. c #897C54",
"%. c #877855",
"&. c #917D5D",
"*. c #846F50",
"=. c #867866",
"-. c #AE724E",
";. c #DD7943",
":. c #C37246",
">. c #BB8300",
",. c #BC8800",
"<. c #AB8308",
"1. c #B88231",
"2. c #C68B00",
"3. c #CB8800",
"4. c #D98602",
"5. c #CC9400",
"6. c #CC9900",
"7. c #C79504",
"8. c #D49C00",
"9. c #D99401",
"0. c #EA8602",
"q. c #FF8C0E",
"w. c #FE8D03",
"e. c #EC980D",
"r. c #FF9503",
"t. c #FF9A02",
"y. c #FF950C",
"u. c #FF990B",
"i. c #F19C0A",
"p. c #FD8511",
"a. c #FF8911",
"s. c #F38411",
"d. c #FF9311",
"f. c #FF9A11",
"g. c #EF8111",
"h. c #DBA402",
"j. c #DDAA01",
"k. c #D6A607",
"l. c #CDA40E",
"z. c #E3AC07",
"x. c #FFA300",
"c. c #FFAB00",
"v. c #FFA70E",
"b. c #ECBA02",
"n. c #EDBA0A",
"m. c #E8B406",
"M. c #FFB301",
"N. c #FFBB00",
"B. c #F8BB09",
"V. c #FBA411",
"C. c #EEBB11",
"Z. c #F2BD11",
"A. c #FEBE11",
"S. c #FFB011",
"D. c #CF8D31",
"F. c #DAA23A",
"G. c #FFCA00",
"H. c #FAC607",
"J. c #FED704",
"K. c #FDC511",
"L. c #FECC11",
"P. c #F6C411",
"I. c #FFD311",
"U. c #FFD811",
"Y. c #EDC500",
"T. c #FFE103",
"R. c #FFED00",
"E. c #FFF800",
"W. c #8F835B",
"Q. c #AB8A4D",
"!. c #998966",
"~. c #9B8B6A",
"^. c #968865",
"/. c #969565",
"(. c #999565",
"). c #9A9966",
"_. c #9E9A69",
"`. c #968D74",
"'. c #A49B6C",
"]. c #AA996D",
"[. c #A69967",
"{. c #AA9B76",
"}. c #A59976",
"|. c #A18A68",
" X c #AAA277",
".X c #AAA977",
"XX c #ACAA7C",
"oX c #ABA57A",
"OX c #B2AA7E",
"+X c #B1A678",
"@X c #DA8B50",
"#X c #E09157",
"$X c #DBA451",
"%X c #9B9283",
"&X c #8E8781",
"*X c #ADA982",
"=X c #B4AB84",
"-X c #BAAE89",
";X c #B5A888",
":X c #BCB38B",
">X c #BEB98F",
",X c #B7AD99",
"<X c #BBB496",
"1X c #AEAC91",
"2X c #B6B1A6",
"3X c #A19788",
"4X c #C3BB95",
"5X c #C5BD9C",
"6X c #C5B899",
"7X c #C7BBA6",
"8X c #CAC39D",
"9X c #CFCB9F",
"0X c #CDC6A8",
"qX c #D6CBA9",
"wX c #D3CDB2",
"eX c #DBCEB9",
"rX c #D6D0B5",
"tX c #DCD5BB",
"yX c #DCD6B9",
"uX c #D6CCAE",
"iX c #E0D6B2",
"pX c #DFDCC2",
"aX c #E3DCC4",
"sX c #E4DAC6",
"dX c #E5E2CC",
"fX c #E7E3C8",
"gX c #EAE6D2",
"hX c #EDEAD5",
"jX c #EEECD9",
"kX c #E5E4D2",
"lX c #F5EDDC",
"zX c #FFEEDD",
"xX c #F4EBD7",
"cX c #F7F0DE",
"vX c #FFEEE2",
"bX c #FCF2E5",
"nX c #FFF5EA",
"mX c #FFFEEE",
"MX c #F7F2E3",
"NX c #FFFFF3",
"BX c #FFFFFE",
"VX c None",
/* pixels */
"VXVXVXVXVXVXVXVXVXVXVXVXVXVXVXVXVXVXVXVXVXVXVXVXVXVX. . & s s * * & @ . VXVXVXVXVXVXVXVXVXVXVXVXVXVXVXVXVXVXVXVXVXVXVXVX",
"VXVXVXVXVXVXVXVXVXVXVXVXVXVXVXVXVXVXVXVXVXVXVXX b M [ W s.a.' ( ~ K I d i @ @ VXVXVXVXVXVXVXVXVXVXVXVXVXVXVXVXVXVXVXVXVX",
"VXVXVXVXVXVXVXVXVXVXVXVXVXVXVXVXVXVXVXVXVXVXv 4.d.a.a.a.a.p.] ( ~ K H G h g p i % VXVXVXVXVXVXVXVXVXVXVXVXVXVXVXVXVXVXVX",
"VXVXVXVXVXVXVXVXVXVXVXVXVXVXVXVXVXVXVXVXs Q ' p.a.d.d.d.p.d.f.e.0.R K G G h h g d p @ VXVXVXVXVXVXVXVXVXVXVXVXVXVXVXVXVX",
"VXVXVXVXVXVXVXVXVXVXVXVXVXVXVXVXVXVX@ l ) q.q.r.r.t.u.f.V.A.L.P.b.h.9.E U G j g d g g i VXVXVXVXVXVXVXVXVXVXVXVXVXVXVXVX",
"VXVXVXVXVXVXVXVXVXVXVXVXVXVXVXVXVX& R / ' q.t.t.t.t.u.f.K.L.L.P.b.m.j.h.6.E U j d d g j i VXVXVXVXVXVXVXVXVXVXVXVXVXVXVX",
"VXVXVXVXVXVXVXVXVXVXVXVXVXVXVXVX& 4.i.V.u.t.t.t.t.t.y.d.K.L.K.Z.n.m.z.h.8.6.3.x g g g j L s VXVXVXVXVXVXVXVXVXVXVXVXVXVX",
"VXVXVXVXVXVXVXVXVXVXVXVXVXVXVX, 8.H.H.I.J.M.t.x.t.r.d.a.K.L.L.Z.n.b.j.h.8.6.5.U h h g j Q } # VXVXVXVXVXVXVXVXVXVXVXVXVX",
"VXVXVXVXVXVXVXVXVXVXVXVXVXVXVX6.P.P.L.T.E.G.c.x.t.u.a.a.S.L.P.C.n.b.z.h.8.6.5.3.x h h F G D.1.VXVXVXVXVXVXVXVXVXVXVXVXVX",
"VXVXVXVXVXVXVXVXVXVXVXVXVXVX<.b.H.I.T.R.R.J.c.x.t.y.a.p.d.K.Z.C.n.b.z.j.8.6.5.3.H F F G J D.F.4 VXVXVXVXVXVXVXVXVXVXVXVX",
"VXVXVXVXVXVXVXVXVXVXVXVXVX<.b.P.I.T.R.R.R.G.x.t.r.u.p.a.a.d.V.P.b.b.z.j.h.6.5.E G G G G G ! F.D.> VXVXVXVXVXVXVXVXVXVXVX",
"VXVXVXVXVXVXVXVXVXVXVXVX<.b.Y.J.T.R.E.E.J.x.t.r.t.u.a.p.a.] ` z.b.m.j.j.h.5.3.G G G G G G L O.$XA VXVXVXVXVXVXVXVXVXVXVX",
"VXVXVXVXVXVXVXVXVXVX@ m Y.J.J.R.E.E.E.E.N.t.r.t.y.a.a.p.a.] ' ' 0.0.0.9.4.R G G G G G G G J Q D.F.4 VXVXVXVXVXVXVXVXVXVX",
"VXVXVXVXVXVXVXVX@ l W b.J.T.E.E.E.E.T.N.c.t.t.t.u.a.a.a.a.p.' _ ) / R ~ T G G G G G G G G G L | @X:.; VXVXVXVXVXVXVXVXVX",
"VXVXVXVXVXVXVXa 4.w.r.x.N.H.J.J.J.G.N.M.c.x.t.t.f.a.a.a.a.p.] _ ' / ~ T T H G G G G G G F G G Q | o...# VXVXVXVXVXVXVXVX",
"VXVXVXVXVX, ! p.w.t.x.c.M.M.N.G.G.N.N.M.c.c.t.t.u.f.a.a.a.a.a.' _ / / ~ T H G G G G z x z j z F Q | o...# VXVXVXVXVXVXVX",
"VXVXVX, 7.A.A.v.t.x.c.M.N.H.G.G.G.N.N.N.M.c.c.t.t.u.d.a.a.a.p.p._ ` / ~ T T H G G H U n n n z h J P } o...C $ VXVXVXVXVX",
"VXVX, z.I.L.U.H.t.t.x.c.M.N.H.N.N.N.N.N.N.c.c.x.t.t.u.d.a.a.a.p.' _ ) / ~ T R H U E >.>.,.,.>.M z F L P | X.D # VXVXVXVX",
"VXVXl.I.L.L.L.A.t.t.t.t.x.c.M.c.c.M.c.M.M.c.c.x.t.u.u.d.a.p.a.p.p.' _ ) ~ ~ T U 2.5.2.>.,.,.,.,.M x F J L P X.} # VXVXVX",
"VXb L.L.L.L.K.f.q.q.q.y.r.r.u.u.t.u.t.t.x.B.N.S.v.f.d.a.a.a.a.a.p.] ] _ / ~ T W 8.5.2.,.,.,.,.,.2.M x j F G L | ..# VXVX",
"VXl.I.P.Z.n.e.( ( ( ( ( g.s.p.p.a.a.a.v.L.U.U.U.L.K.A.V.a.a.a.a.a.a.' _ _ / T 9.8.6.5.,.,.,.,.,.,.,.n h j F G L | Z VXVX",
"> m.m.m.h.5.H G G G F G Y T T ^ ( [ e.C.P.P.P.P.L.L.L.K.V.p.p.p.p.' ' _ _ ( ~ W 8.6.2.,.,.,.,.,.,.,.M h h z x G Q | = VX",
"s z.k.7.M x d d d d d g g h I G U Y 9.j.j.z.z.C.C.Z.P.P.Z.s.' ' _ _ _ _ _ ^ T W 8.5.2.2.,.,.,.>.,.>.x h h j z F P | Z VX",
"* R n l l d d g d d d d g h h h j U 2.2.5.5.8.k.k.j.j.k.z.e.( _ _ _ _ _ ^ T T Y 3.3.2.,.,.,.>.>.>.n g g h g h I P } } : ",
"* G g d d k { c i p p d g h h I h x >.,.,.2.2.2.7.2.2.7.5.3.H H K Y Y T K H H G x M M M M M N l l d d d d d g j P } ;.= ",
"% j g d k X.C 1 ; - - = B p p p g h n ,.,.,.2.,.,.,.,.,.>.n x x z x F j j j h g g f f l l l f d d d d d f k J F P } ;.B ",
"VXa I I } S 0 < < - ; < ~.$.%.+.3 3 2 v v v m M >.>.,.2.,.x z z x z h h h h g d g d d d d d d d f k c { } ..} } } ;.;.= ",
"VX% I G  .S 6 5 5 < ; %.].(.$.$.^.^.^.*.+.#.7 2 4 4 b v v a a f g j j j h j j j z j j g j k P } } Z D -.C S :.X.X.;.:.X ",
"VXVX* G ^ ;.A 5 1 < 5 '.[.=.&XO 5 !.!.!.!.~.!.^.^.^.%.+.+.+.+.+.B 3 3 3 4 2 2 2 B 2 B B B C V V V V S ..o.o.D.o.;.#X@.VX",
"VXVXVX% p } F.D.<.v $.+X!.9 &Xo X =.!.!.!.!.!.!.!.!.~.~.!.!.!.!.=.0 1 %././././.(./.(.).[.}. X*X-X|.}  . .o.;.;.$X@X; VX",
"VXVXVXVXVX$ , <.<.A  X{.(.-     - W.!.~.!.!.!.!.!.^.!.!.!.!.!.&.=.2X+ + W.).).).).).).[.].{. X+X:X:XS | ;.#X#X$XQ.< VXVX",
"VXVXVXVXVXVXVXVX+ `.XX{.[.$.; ; $._.(.#.^.(.(.!.%.&.!.!.!.!.!.&.+ +   X W._.).).).).[.[.{.{.{. X:X8X}.:.;.-.Q.5 VXVXVXVX",
"VXVXVXVXVXVXVXVX^.-X=X*X*XXX+XXX-X=X{.%.}.%.^.'.W.t (.).(.(.(.(.5     5 (.).(.)./.).).[.].{.{. XOX4X6X6 # VXVXVXVXVXVXVX",
"VXVXVXVXVXVXVX9 ;X<X6X0XwXyXtXsXsXsXsX7X`.,X}.=.~.:X-XOX X{.).).^.t #.).).(.).).).)._.[.].{.{. X+X4XqX^.VXVXVXVXVXVXVXVX",
"VXVXVXVXVXVXVX`.5XwXsXhXMXMXnXnXmXnXnXmXnXnXMXlXhXgXfXpXwX8X<XOX X'.[.).).(.).).)._.[.].{.{.{.XX+X4X8X6XVXVXVXVXVXVXVXVX",
"VXVXVXVXVXVX8 6XtXjXnXmXmXmXmXmXmXmXNXNXmXmXmXmXmXmXnXvXlXhXfXtXqX4XOX'._.).).)._.[.[.].{.{..X.X+X4X5X9Xq VXVXVXVXVXVXVX",
"VXVXVXVXVXVXy yXkXnXmXmXmXmXNXBXBXNXBXNXNXNXmXmXmXmXmXnXvXzXzXzXxXdXyX8X=X X'.[.[.].{.{.{.{. XXX=X4X4XqX^.VXVXVXVXVXVXVX",
"VXVXVXVXVXVX1XpXlXnXmXmXNXBXBXBXBXBXBXBXBXBXNXNXmXNXmXNXbXzXzXzXzXzXlXhXyX8X:X XoX.X{.{.{.{..X.XOX-X4X9X<XVXVXVXVXVXVXVX",
"VXVXVXVXVX8 8XaXMXmXmXmXBXBXBXBXBXBXBXBXBXBXBXBXmXmXmXmXnXzXzXzXzXzXzXzXcXhXtX0X<X=XOXXX X X.XXX=X4X4XqX<XO VXVXVXVXVXVX",
"VXVXVXVXVXw wXdXMXmXmXmXBXBXBXBXBXBXBXBXBXBXBXBXNXNXmXmXmXvXzXzXzXzXzXzXzXzXzXgXeX8X<X=XXX.X.X=X=X4X6XqX6XO VXVXVXVXVXVX",
"VXVXVXVXVXq rXkXMXmXmXNXBXBXBXBXBXBXBXBXBXBXBXBXBXmXmXmXmXbXzXzXzXzXzXzXzXzXzXzXhXpX0X>X:X=X*X=X:X8X8XqX4XO VXVXVXVXVXVX",
"VXVXVXVXVX9 5XdXMXmXmXmXNXBXBXBXBXBXBXBXBXBXBXBXBXNXmXmXmXvXzXzXzXzXzXzXzXzXzXzXzXjXaXwX6X<X-X:X4X8X0XqX}.VXVXVXVXVXVXVX",
"VXVXVXVXVXVX<XpXjXmXmXmXNXNXBXBXBXBXBXBXBXBXBXBXNXmXmXmXmXvXzXzXzXzXzXzXzXzXzXzXzXzXjXfXuX5X>X<X4X0XqXiXr VXVXVXVXVXVXVX",
"VXVXVXVXVXVX`.yXgXMXmXmXNXNXNXBXBXBXBXBXBXBXBXNXNXmXNXNXnXvXzXzXzXzXzXzXzXzXzXzXzXzXzXjXpXuX0X8X0X0XiX9X8 VXVXVXVXVXVXVX",
"VXVXVXVXVXVXe wXfXlXnXmXmXmXmXmXmXNXNXNXNXNXNXmXmXmXmXmXnXzXzXzXzXzXzXzXzXzXzXzXzXzXzXcXkXtXwX0X0XqXiX_.VXVXVXVXVXVXVXVX",
"VXVXVXVXVXVXVX1XyXfXjXnXmXmXmXmXmXmXNXmXNXmXmXmXmXmXmXnXvXzXzXzXzXzXzXzXzXzXzXzXzXzXzXlXgXaXeXwXqXuX8X8 VXVXVXVXVXVXVXVX",
"VXVXVXVXVXVXVX8 2XtXsXlXcXmXmXmXmXmXmXmXNXmXmXmXmXNXnXvXzXzXzXzXzXzXzXzXzXzXzXzXzXzXzXcXhXpXtXeXeXeXy VXVXVXVXVXVXVXVXVX",
"VXVXVXVXVXVXVXVX0 ,XrXfXhXlXMXnXmXmXmXmXmXmXNXnXnXvXvXzXzXzXzXzXzXzXzXzXzXzXzXzXzXzXcXjXhXfXtXeXeX%XVXVXVXVXVXVXVXVXVXVX",
"VXVXVXVXVXVXVXVXVXVX`.wXpXsXkXjXlXMXvXvXbXbXbXvXzXzXzXzXzXzXzXzXzXzXzXzXzXzXzXzXzXlXlXjXdXpXaX0X%XVXVXVXVXVXVXVXVXVXVXVX",
"VXVXVXVXVXVXVXVXVXVXVX8 =.2XtXsXaXdXgXgXjXlXlXlXlXlXlXlXMXlXcXlXlXlXlXlXlXlXlXlXjXjXkXsXaXtX3X8 VXVXVXVXVXVXVXVXVXVXVXVX",
"VXVXVXVXVXVXVXVXVXVXVXVXVXVXw %X6XeXpXpXsXsXsXfXdXdXdXkXkXkXgXkXkXkXkXdXfXfXaXaXpXaXsXwX,Xu VXVXVXVXVXVXVXVXVXVXVXVXVXVX",
"VXVXVXVXVXVXVXVXVXVXVXVXVXVXVXVX+ w e %X2X<X,X0XyXwXeXyXtXtXtXtXyXyXrXrXwXrXwX0X,X%Xu 8 VXVXVXVXVXVXVXVXVXVXVXVXVXVXVXVX",
"VXVXVXVXVXVXVXVXVXVXVXVXVXVXVXVXVXVXVXVXO O o 8 e e e y e y e y e e e e e e e 8 o VXVXVXVXVXVXVXVXVXVXVXVXVXVXVXVXVXVXVX"
};
