/* XPM */
static char *result[] = {
/* columns rows colors chars-per-pixel */
"59 63 245 2 ",
"   c #1C1512",
".  c #0F0D0C",
"X  c #311905",
"o  c #352204",
"O  c #322907",
"+  c #2B2925",
"@  c #3A3631",
"#  c #3A2C21",
"$  c #542E0C",
"%  c #612800",
"&  c #6B3D1C",
"*  c #76310C",
"=  c #4E3B26",
"-  c #4D3726",
";  c #523D2B",
":  c #553E26",
">  c #7A2922",
",  c #663F29",
"<  c #561E00",
"1  c #4C410D",
"2  c #6A4704",
"3  c #775904",
"4  c #744811",
"5  c #53442C",
"6  c #59462D",
"7  c #544432",
"8  c #564B33",
"9  c #5A4C33",
"0  c #574737",
"q  c #565334",
"w  c #5A5336",
"e  c #5D563A",
"r  c #5F5A3D",
"t  c #49432F",
"y  c #674727",
"u  c #764925",
"i  c #775928",
"p  c #634C37",
"a  c #66563A",
"s  c #745539",
"d  c #6F4F32",
"f  c #6C603C",
"g  c #5B544C",
"h  c #57534F",
"j  c #645E41",
"k  c #6C5946",
"l  c #695E54",
"z  c #666143",
"x  c #6A6344",
"c  c #6E6648",
"v  c #746445",
"b  c #72664B",
"n  c #7A6947",
"m  c #766754",
"M  c #79725E",
"N  c #656257",
"B  c #7A7266",
"V  c #76726C",
"C  c #850000",
"Z  c #880000",
"A  c #960000",
"S  c #831912",
"D  c #833602",
"F  c #842A23",
"G  c #863830",
"H  c #A53C3C",
"J  c #9B4808",
"K  c #8A5705",
"L  c #874516",
"P  c #924F12",
"I  c #AB4400",
"U  c #AA4B01",
"Y  c #B34500",
"T  c #BB4500",
"R  c #B34D03",
"E  c #BD4C01",
"W  c #B95701",
"Q  c #AA5709",
"!  c #876714",
"~  c #8F6A03",
"^  c #B96602",
"/  c #AB7800",
"(  c #BB7600",
")  c #A6740B",
"_  c #8E5533",
"`  c #B05C2A",
"'  c #8C6A36",
"]  c #AA6D38",
"[  c #C24E01",
"{  c #C45201",
"}  c #CB5500",
"|  c #CC5C01",
" . c #C3560A",
".. c #D35D01",
"X. c #C95D17",
"o. c #C96500",
"O. c #D66301",
"+. c #DC6400",
"@. c #DD6900",
"#. c #D86908",
"$. c #DB7503",
"%. c #CC6317",
"&. c #D1720D",
"*. c #E46C02",
"=. c #E57301",
"-. c #EC7502",
";. c #EC7708",
":. c #F0790C",
">. c #F67E11",
",. c #E06F1E",
"<. c #CB6627",
"1. c #D86925",
"2. c #D97329",
"3. c #CB6B35",
"4. c #D97434",
"5. c #D27136",
"6. c #E07833",
"7. c #A84545",
"8. c #887956",
"9. c #8E6C4A",
"0. c #BB7444",
"q. c #867A6A",
"w. c #947971",
"e. c #8B4C45",
"r. c #D97C45",
"t. c #898100",
"y. c #BB8400",
"u. c #BA8701",
"i. c #B29306",
"p. c #B8813D",
"a. c #C48C00",
"s. c #CA8A00",
"d. c #D98603",
"f. c #CB9400",
"g. c #CD9A00",
"h. c #C39000",
"j. c #D59603",
"k. c #DA9A18",
"l. c #F88708",
"z. c #FF9B02",
"x. c #FF9A0B",
"c. c #F89308",
"v. c #FC8511",
"b. c #FF8A11",
"n. c #FE9711",
"m. c #EC8D04",
"M. c #D9A703",
"N. c #DAB00E",
"B. c #E6A802",
"V. c #FFAA00",
"C. c #FBA604",
"Z. c #E7B604",
"A. c #FFBB00",
"S. c #FCB404",
"D. c #FFA811",
"F. c #F9BA11",
"G. c #D49929",
"H. c #D18A36",
"J. c #DBA727",
"K. c #DFA93D",
"L. c #E0A83A",
"P. c #EFC401",
"I. c #F9C703",
"U. c #FDD701",
"Y. c #FECC11",
"T. c #FEE500",
"R. c #FFE900",
"E. c #FFFC00",
"W. c #8A8356",
"Q. c #93885C",
"!. c #998A66",
"~. c #988864",
"^. c #9B9466",
"/. c #9B9966",
"(. c #9B9667",
"). c #978779",
"_. c #948A7C",
"`. c #A39B6A",
"'. c #A6996A",
"]. c #AA9B74",
"[. c #A19270",
"{. c #A99776",
"}. c #AAA276",
"|. c #AEA47B",
" X c #ACAA79",
".X c #B3AB7D",
"XX c #B9904C",
"oX c #C58F46",
"OX c #DAA744",
"+X c #D8A750",
"@X c #E0A543",
"#X c #E08A43",
"$X c #9C9586",
"%X c #A99A8C",
"&X c #AEA389",
"*X c #B6AA83",
"=X c #B8B28A",
"-X c #BCB696",
";X c #B1A79A",
":X c #BAB3A8",
">X c #C4BB98",
",X c #C5BAA5",
"<X c #C8BEB3",
"1X c #C9C19B",
"2X c #CCC7A9",
"3X c #D4CBAB",
"4X c #D3CCB2",
"5X c #D7CBB6",
"6X c #DDD4BB",
"7X c #DEDCBC",
"8X c #D6D3B8",
"9X c #CBC5B5",
"0X c #E0CEAD",
"qX c #E0DABD",
"wX c #DFE0BD",
"eX c #DEDCC2",
"rX c #DDD3C8",
"tX c #DBD9D4",
"yX c #DECFC3",
"uX c #E3DDC4",
"iX c #E5DBCB",
"pX c #ECDCD4",
"aX c #E6E2CB",
"sX c #EBE4CE",
"dX c #E5E0C6",
"fX c #ECE6D3",
"gX c #EDEAD5",
"hX c #EEEDDB",
"jX c #E7E4D9",
"kX c #F2EDDB",
"lX c #FFEEDD",
"zX c #F1EAD5",
"xX c #FAF0DF",
"cX c #E9E8E5",
"vX c #FFEEE3",
"bX c #FFEFE9",
"nX c #FEF3E4",
"mX c #FFF4EC",
"MX c #FFFFEE",
"NX c #F6F4E3",
"BX c #FFFFF3",
"VX c #FFFFFE",
"CX c #F3F4F6",
"ZX c #E8EFF7",
"AX c None",
/* pixels */
"AXAXAXAXAXAXAXAXAXAXAXAXAXAXAXAXAXAXAXAXAXX o 2 P K P K K 2 o O AXAXAXAXAXAXAXAXAXAXAXAXAXAXAXAXAXAXAXAXAXAXAXAXAXAXAX",
"AXAXAXAXAXAXAXAXAXAXAXAXAXAXAXAXAXAXAX% K j.k.F.D.n.x.z.z.c.j.B.i.t.t.1 AXAXAXAXAXAXAXAXAXAXAXAXAXAXAXAXAXAXAXAXAXAXAX",
"AXAXAXAXAXAXAXAXAXAXAXAXAXAXAXAXAX* ( j.Z.Y.Y.F.D.x.z.z.V.V.A.A.A.I.I.Z.M.~ $ AXAXAXAXAXAXAXAXAXAXAXAXAXAXAXAXAXAXAXAX",
"AXAXAXAXAXAXAXAXAXAXAXAXAXAXAX% W d.B.Z.Y.F.D.b.n.x.z.C.V.A.A.A.A.A.I.A.I.A.M.u.K AXAXAXAXAXAXAXAXAXAXAXAXAXAXAXAXAXAX",
"AXAXAXAXAXAXAXAXAXAXAXAXAXAX% R @.j.B.C.n.n.v.b.n.x.C.C.V.V.A.I.U.U.T.T.U.U.I.A.S.j.~ 2 AXAXAXAXAXAXAXAXAXAXAXAXAXAXAX",
"AXAXAXAXAXAXAXAXAXAXAXAXAX% E O.*.=.m.:.>.v.v.b.n.n.z.z.C.C.I.R.E.E.E.E.E.E.R.I.V.V.V.m.d.^ 2 AXAXAXAXAXAXAXAXAXAXAXAX",
"AXAXAXAXAXAXAXAXAXAXAXAX% R } +.@.-.-.:.v.b.v.b.v.b.n.b.b.S.U.T.R.R.R.R.T.R.R.T.A.z.z.z.z.x.m.Q 3 AXAXAXAXAXAXAXAXAXAX",
"AXAXAXAXAXAXAXAXAXAXAX< U } } @.@.-.-.>.v.b.v.b.v.b.v.v.v.F.I.P.P.P.P.I.I.I.U.U.I.c.l.l.l.b.b.b.b.N.! AXAXAXAXAXAXAXAX",
"AXAXAXAXAXAXAXAXAXAX< U ^ o.o.@.*.-.;.>.>.>.:.;.:.;.=.=.=.B.Z.M.M.M.M.M.M.M.M.M.M.d.=.=.=.=.-.:.v.D.Y.i.3 AXAXAXAXAXAX",
"AXAXAXAXAXAXAXAXAX% U ( y.h.g.$.+.*.-.:.*.*.@.+.O.O.O.O.#.j.g.g.g.f.f.g.f.u.u.u.a.^ [ [ { } ....@.;.C.Y.N.3 AXAXAXAXAX",
"AXAXAXAXAXAXAXAXD ^ ( y.a.g.s.@.+.+.......} ..} } } } } o.f.g.g.g.g.g.g.f.h.h.a.u.^ T T T T T Y { } $.M.P.N.3 AXAXAXAX",
"AXAXAXAXAXAXAXD W ( ( y.s.f.o.} } } [ { { } } } } } } } o.s.g.g.g.g.g.M.g.g.g.g.s.| { T T T Y I U R E o.M.P.N.2 AXAXAX",
"AXAXAXAXAXAXD  .^ / y.u.&.^ E T Y Y T T T E } } } } } } | #.j.M.M.N.J.J.J.G.G.G.G.,.1.%. .[ T Y Y I I Y W d.Z.i.AXAXAX",
"AXAXAXAXAXL  .W / / ( ^ R Y I I I Y T T T T { } } } } { o.| ^ i.p.] W.' w i s s _ 9.` ] r.3.<.X.E Y Y I U E $.m.K AXAX",
"AXAXAXAX$ X. .Q / Q R Y I I I I Y T T T [ { } } E J J u & y p l x k r 5 e c b m k 9 0 k s s _ ] <.{ T Y Y Y { *.^ AXAX",
"AXAXAX& ` X.T I I I I I I U I Y T T [ [ } [ J L u k k b a 8 z b m c f 5 e f x z e 9 m m m m k d _ 3.X.[ T T E } #.4 AX",
"AXAXAX` <. .T Y I I I I U R W ( ( &.s.Q L y : a x c b c e 5 e a z j w = q e r q = w z b c x w 9 p s ] 3. .T E  .@.J AX",
"AXAX_ 3.X.[ T Y I I I I I ^ u.u.s./ ! d b m j 9 w a z j w = 7 q q 8 7 - 8 8 8 - - 8 w r e 6 9 x c b e.0.4. .T { | W X ",
"AX$ 3.<.X.[ Y I I I I I W a.f.u.3 y r z c c j q ; 8 q 8 5 = ; ; : : : - ; = ; - ; 0 7 8 = 5 w e a x j s 0.1.[ E | { % ",
"AX_ r.<. .T T Y I I Y Y o.a.! a r 5 5 q r r r 8 ; - ; ; 6 a a M 8.W.8.8.8.8.8.a a ; ; ; - 0 7 8 5 5 7 7 _ r.%. .} | * ",
"AX] 4.X.[ T T T T T [ [ o.! f c c r 5 = 5 q 5 ; 5 9 v W.Q.^.^.~.!.!.!.!.!.!.!.!.~.8.v : ; 7 ; - t 8 j x f p.H.o.o.o.2 ",
"X oX4.X.E T T T T E [ R u a z z z r q 7 - - 6 9.W.^./.^.!.~.!.!.~.~.!.!.!.!.!.~.!.!.!.Q.v ; ; 7 5 q e j f ' @Xj.s.j.K ",
"= K.H.X.[ T T T [ [ R & w 6 8 q q q 8 7 6 f ^././.!.!.!.~.~.!.~.^.(.(./.(.`.'.^.(.^.!.!.~.s 5 7 7 5 5 5 8 i K.k.g.f.2 ",
"i @XH.X.T T T [ } R d k w 8 5 = ; 7 ; a Q.`.^.^.!.!.!.~.^.^.`.}.|.*X>X-X1X>X>X=X X`.^.!.~.~.b ; - = 5 8 e y oXk.g.y.o ",
"i L.H.X.T T { } Q d b n c j q 7 - 6 n /.^.!.!.!.8.9.8.(.].*X1X8XyXaXgXzXzXkXzXfX6X2X*Xa e q.~.x - 7 8 j c ' OXk.g./ AX",
"i #X5.X.[ { } Y d x c j f g q 5 p Q././.!.!.!.8.# N $X[.2XuXgXkXlXlXvXnXnXnXmXvXvXlX$X. V %Xn ^.: - - 9 k ' K.f.M.3 AX",
"L 6.5.X.} } } L f j e 5 8 5 5 p ~.'.(.!.!.!.!.a . h V ).kXlXlXnXuXlXmXBXNXzXMXMXiXnX$X. + + a `.n 5 8 w p p.G.j.u.$ AX",
"u 6.4.X.X.} U d f 6 t 5 = - 6 !.].`.^.!.!.!.^.n   .   %XnXlXlXmX:X<XkXpX;X$X5XzX&XhXrXh   - [./.Q.5 8 a _ 2.#.d.K AXAX",
"* 5.6.1.%.O.P j 9 9 q q 9 6 8..X'./.^.Q.!.!.(.`.8.k ).lXlXlXmXMXNX%Xq.$XtXZX;X).9XBXBXsX<X5X3X}.`.a 6 ` 2.#.*.Y AXAXAX",
"X <.6.1.#.#.L 0 b x a 8 = : |.|.].'./.`.^.(./.=XuXkXnXlXlXmXMXMXBXiX;XCXVXVXZXw.rXBXMXBXBXMXpX>X}.f ` 2.*.*.R AXAXAXAX",
"AX` 6.1.1.#.U k m k 9 6 5 v .X}.'./././.(./.*X6XzXlXlXlXnXMXMXMXBXjXe.7.7.7.H > tXVXBXMXMXMXnXuX>X^.P #.O.U AXAXAXAXAX",
"AX, 6.6.,.,...u k a f w - 8..X].].'././.'.*X4XzXlXlXlXvXBXMXMXMXBXcX> Z A % C > tXVXVXVXBXMXMXNX8X.X' W * AXAXAXAXAXAX",
"AXAXp.@XJ.k.=.W d k x 6 6 ]..X|.].'.'.'.*X2XfXlXlXlXlXnXMXMXMXBXVXcX> Z Z Z Z > rXVXVXVXVXBXMXMXkX3X!.O AXAXAXAXAXAXAX",
"AXAXi +XK.J.k.=.| P & - v *X X}.].'.]..X2XiXlXlXlXlXvXMXMXMXMXBXVXcX> Z Z Z Z > tXVXVXVXVXVXMXMXmXaX=Xt AXAXAXAXAXAXAX",
"AXAXAXi oXK.L.d.*...O.U 9.*X X}.].].|.>X6XkXlXlXlXvXbXMXMXMXBXVXVXcX> Z Z Z Z G jXVXVXVXVXVXBXBXMXNXuXB AXAXAXAXAXAXAX",
"AXAXAXAX5 oX+XG.#.*.*.Q '.*X X].].}.-X6XkXlXlXlXlXvXmXMXMXMXBXVXVXcX> A Z Z Z w.VXVXVXVXVXVXVXBXMXMXhXV AXAXAXAXAXAXAX",
"AXAXAXAXAXAX' 0.r.2.O.9.=X X X}.|.-X4XgXlXlXlXlXvXbXMXMXMXMXBXVXVXcXF A A A Z w.VXVXVXVXVXVXVXBXMXMXnX$XAXAXAXAXAXAXAX",
"AXAXAXAXAXAXAX- , ] ] *X=X X X.X-X4XaXxXlXlXlXlXbXmXMXMXMXMXBXVXVXcXF A A A S <XVXVXVXVXVXVXVXVXMXMXMXyXAXAXAXAXAXAXAX",
"AXAXAXAXAXAXAXAXAXAX8.>X=X*X*X-X4XiXkXlXlXlXvXvXmXMXMXMXMXMXBXVXVXVXw.A A A 9.CXVXVXVXVXVXVXVXBXMXMXBXrX@ AXAXAXAXAXAX",
"AXAXAXAXAXAXAXAXAXt =X>X-X*X>X9XaXkXlXlXlXlXvXmXMXMXMXMXMXMXBXVXVXVXyXF Z G yXVXVXVXVXVXVXVXVXBXMXMXBXrXAXAXAXAXAXAXAX",
"AXAXAXAXAXAXAXAXAXB 2X1X1X-X2XdXkXlXlXlXlXlXvXmXMXMXMXMXMXMXBXVXVXVXVXtX:XrXVXVXVXVXVXVXVXVXVXMXMXMXMXiXg AXAXAXAXAXAX",
"AXAXAXAXAXAXAXAXAX%X3X2X1X1X8XgXkXlXlXlXlXlXvXBXMXMXMXMXMXMXMXBXMXBXBXVXVXVXVXVXVXVXVXVXBXBXBXMXMXMXmXnX_.AXAXAXAXAXAX",
"AXAXAXAXAXAXAXAX+ >X3X2X2X4XaXkXlXlXlXlXlXlXvXmXMXMXMXMXMXMXMXMXMXMXMXMXBXVXVXVXBXBXMXMXMXMXMXMXMXMXmXnX_.AXAXAXAXAXAX",
"AXAXAXAXAXAXAXAXt >X3X2X3X7XgXlXlXlXlXlXlXlXvXmXMXMXMXMXMXMXMXMXMXMXMXMXMXMXMXBXBXMXMXMXMXMXMXMXMXBXmXvX_.AXAXAXAXAXAX",
"AXAXAXAXAXAXAXAX8.0X3X3X8XaXhXlXlXlXlXlXlXlXlXmXMXMXMXMXMXMXMXMXMXMXMXMXMXMXMXMXMXMXMXMXMXMXMXMXMXMXmXbX_.AXAXAXAXAXAX",
"AXAXAXAXAXAXAXAXM 0X3X8XeXgXxXlXlXlXlXlXlXlXlXvXMXMXMXMXMXMXMXMXMXMXMXMXMXMXMXMXMXMXMXMXMXMXMXMXMXMXMXpXN AXAXAXAXAXAX",
"AXAXAXAXAXAXAXAXM 0X5X6XaXkXkXlXlXlXlXlXlXlXlXvXmXMXMXMXMXMXMXMXMXMXMXMXMXMXMXMXMXMXMXMXMXMXMXMXMXMXmXyXAXAXAXAXAXAXAX",
"AXAXAXAXAXAXAXAXM 0X5X7XfXhXlXlXlXlXlXlXlXlXlXlXvXmXMXMXMXMXMXMXMXMXMXMXMXMXMXMXMXMXMXMXMXMXMXMXMXMXmXyX@ AXAXAXAXAXAX",
"AXAXAXAXAXAXAXAXM 0X6XeXfXhXlXlXlXlXlXlXlXlXlXlXlXvXMXMXMXMXMXMXMXMXMXMXMXMXMXMXMXMXMXMXMXMXMXMXMXmXnXyX@ AXAXAXAXAXAX",
"AXAXAXAXAXAXAXAXg 1X7XeXgXhXlXlXlXlXlXlXlXlXlXlXlXvXbXBXMXMXMXMXMXMXMXMXMXMXMXMXMXMXMXMXMXMXMXMXmXvXnX;XAXAXAXAXAXAXAX",
"AXAXAXAXAXAXAXAXAX1XwXeXfXhXxXlXlXlXlXlXlXlXlXlXlXlXvXmXMXMXMXMXMXMXMXMXMXMXMXMXMXMXMXMXMXMXMXmXvXlXkXV AXAXAXAXAXAXAX",
"AXAXAXAXAXAXAXAXAX$XwXeXiXzXhXlXlXlXlXlXlXlXlXlXlXlXlXvXbXmXMXMXMXMXMXMXMXMXMXMXMXMXMXMXMXmXbXvXlXkX9XAXAXAXAXAXAXAXAX",
"AXAXAXAXAXAXAXAXAXM 7XwXuXgXhXhXxXlXlXlXlXlXlXlXlXlXlXlXlXvXvXvXvXmXmXMXMXMXMXMXBXMXmXmXnXvXlXvXxXhXq.AXAXAXAXAXAXAXAX",
"AXAXAXAXAXAXAXAXAXAX-XwX7XaXkXhXkXlXlXlXlXlXlXlXlXlXlXlXlXlXlXlXlXlXnXvXnXmXmXmXmXvXvXvXlXlXlXkXhX:XAXAXAXAXAXAXAXAXAX",
"AXAXAXAXAXAXAXAXAXAXN 3X7XeXsXzXhXhXlXlXlXlXlXlXlXlXlXlXlXlXlXlXlXlXlXlXlXlXlXlXlXlXlXlXlXlXxXgX8XN AXAXAXAXAXAXAXAXAX",
"AXAXAXAXAXAXAXAXAXAXAX_.6X7XqXiXkXhXkXxXlXlXlXlXlXlXlXlXlXlXlXlXlXlXlXlXlXlXlXlXlXlXlXlXlXkXfXuX$XAXAXAXAXAXAXAXAXAXAX",
"AXAXAXAXAXAXAXAXAXAXAXAX_.9XqXuXaXfXhXhXkXxXlXlXlXlXlXlXlXlXlXlXlXlXlXlXlXlXlXlXlXlXlXkXkXgXuX$XAXAXAXAXAXAXAXAXAXAXAX",
"AXAXAXAXAXAXAXAXAXAXAXAXAXl ,XqXeXaXfXhXhXhXkXxXlXlXlXlXlXlXlXlXlXlXlXlXlXlXlXlXlXkXkXzXaX6X$XAXAXAXAXAXAXAXAXAXAXAXAX",
"AXAXAXAXAXAXAXAXAXAXAXAXAXAXg $X4XwXdXsXgXhXhXhXkXkXxXlXlXlXlXlXlXlXlXlXlXlXkXkXhXfXsXqX9XB AXAXAXAXAXAXAXAXAXAXAXAXAX",
"AXAXAXAXAXAXAXAXAXAXAXAXAXAXAXAXh $X2XdXdXfXsXgXfXgXgXgXzXhXkXkXhXhXkXhXkXzXfXaXuXuX3X$Xg AXAXAXAXAXAXAXAXAXAXAXAXAXAX",
"AXAXAXAXAXAXAXAXAXAXAXAXAXAXAXAXAXAXg _.-X:XwXdXdXeXdXdXdXdXiXuXiXuXiXuXuXuXiX4X-Xq.h AXAXAXAXAXAXAXAXAXAXAXAXAXAXAXAX",
"AXAXAXAXAXAXAXAXAXAXAXAXAXAXAXAXAXAXAXAXAX@ B B $X-X-X,X6X7X6X6X6X6X,X,X,X$XB g AXAXAXAXAXAXAXAXAXAXAXAXAXAXAXAXAXAXAX",
"AXAXAXAXAXAXAXAXAXAXAXAXAXAXAXAXAXAXAXAXAXAXAXAXAX+ + @ B B V B B M @ + + AXAXAXAXAXAXAXAXAXAXAXAXAXAXAXAXAXAXAXAXAXAX"
};
