/* XPM */
static char *result[] = {
/* columns rows colors chars-per-pixel */
"16 16 4 1 ",
"  c #63CE08",
". c #B5FF52",
"X c #297300",
"o c white",
/* pixels */
" . . . . . . . .",
". .X.X. . .X.X. ",
" X . . X X . . X",
". . . . . . . . ",
" . . . . . . . .",
". . . . . . . . ",
" . . . . . . . .",
". . . . . . . . ",
" . . . . . . . .",
". .X.X. . .X.X. ",
" X . . X X . . X",
". . . . . . . . ",
" . . . . . . . .",
". . . . . . . . ",
" . . . . . . . .",
". . . . . . . . "
};
