/* XPM */
static char *result[] = {
/* columns rows colors chars-per-pixel */
"64 64 15 1 ",
"  c #269605",
". c #2A9706",
"X c #269A05",
"o c #2D9C06",
"O c #2F9908",
"+ c #309D07",
"@ c #339D08",
"# c #389E09",
"$ c #2EA106",
"% c #31A207",
"& c #33A807",
"* c #35A208",
"= c #39A409",
"- c #37A808",
"; c #3CA909",
/* pixels */
"*%++X%ooX@%o%--%o%OO%o*$o%%o.+ oo+#=o.$.o@@o+oX$&@+==+o%=@@O.o$$",
"+@.@.@$o$oo.@oo$&+@o&%o%X.*..+o.oo==+X+%o..o&$$$@.@%*@.@@%%@@.o$",
"....%*$o$o$@%.O@.@#o%%@o O*o**o$..*=*.%+@o*$$-%.O$oo+%Xo@%%%*.++",
".-o$%@*%$o%-+oO#@@-%.@@..o%*&-.$o%**%o#+%$#...#O+$$.o+o$%oo@%%*o",
"%&%o$o$o@$%#.o*o@+**..@o$$$%*=.o%.#@.+**$o%o*++@oo%.#-$.%%o%%+#@",
"%%*o+...#@@@$.%#++o+@.o.%@$@@%o+*@*+-+&+*%+%;;*%o%@.+%%#oo-%.%-+",
"%+@%+%$@%o%%%.O@+%%o.&%$@%%@@OO+*--*+%@+@*+@=**%.#@+$$+=o.$%ooo@",
"*@@@oo%%oooo@*.@&*%o$.@-$$o%@O@O%o*=**#+++@+#%=o.#*@oo+.Xo.%...+",
"%.@@@.oo@...o&$$+*$$X.*--=O@%ooo@.@%=%o@%+#%$%*+.O@@oo#o OO@.o%&",
"Xoo%%o.+o@.o%Oo...%$o+%$@****ooX@.@@-@%o@@+#@.#@ooo*%o@ooo@@$@oo",
"Xoo$*@o$o-*%%o.OO@.@++*.O.O*@ooX.%%%o+%$@@#o@oo%$%%%%O@*-o@%%*%.",
"oo+O-%ooo*%#%%%%-%@#++%%$o.@@%@o%$O@o%O.*++oo$oO%@**oXo%@o%%%%-o",
"oXO@$*-o@@@%O.%%-$$o+++$oo$+#%%o%%oo$%o.#$%@oX.%@@#@o$$o.o%-o.+*",
"$$.$%-%%*%@#.Oo@%X%$o%...@*=-$%@$@O$oo$.+$o-%X.@o@ooo%o%$$&*%%*o",
"$o%%oo*%@@o***o$oooX.o$%oo*=#@oo@oO@o.oo+$o*$o-#oo$%o%O%o$Xo%%-.",
"oooO+o#o+oO@-&&ooO@%$Xooo*.@%%o.O@@@oo%*o.$$o@*o$ooo@oooo&$&%@*$",
".ooo@%#@=**%%-#@oo++@.$oOO.oooX.%%-%%-**$.@o @*.#O.Ooo%Xo%$$o@@o",
".oo.o$%o-**%%*$%O*%@@.$%$.o&$.Xo*-@@o%*@.+*o%*oo*%oXoooo$o...#@@",
"$XX$$+.o+@.@#*-@.%@o*oo@$o.o$.Xo#*@oO@oo$%*++&.$-oo.o@@%o*@oo**@",
"XX.$o.%$$ooo%##%%&o%&$@%o-o.oO.o@#*%o..$$$++.$%@=$$oO%o#o-$o@++@",
"..+*o.+$+%o.oo.#@o%$*=%@X*.o%o+o%-@@*$o$%o.o%%*@O.ooo%o@#*++@@.@",
"..%*%++o++#oo.#Ooo@o@#*%X.*Xo+.*=oO.@+o$@oXo..#+o.$o.@o%o@#*$*$%",
"o$%o+%%=+.%&$oo%ooOXo=@%$o% X.%@@@+%*%%o@oOoX.@o%ooo$.%o$-==@-%+",
"&%+%+o+=-%%&$X.@#%% o=o@@%.++.o+O=*#*@@o@%o%o.$+oX%oo-#@o-&%o%*@",
".+.%*+@#.+#*ooo@%#@oooo##oo$+@ooo%=%#+O.@%%%%%$ooo%$X%$*@@%@.%@@",
"@*+&&o+...o@o%+-@@Oo$o.Ooo%%$@o$$$*$##@.o%-%%@o%$%+o+o$%%.%..%.@",
"*=%+#o.o.oo.%%#%-$o$X oo$XXooOOo$X++%*oo%%-o$o.**&.....oO@@o.@.o",
".o@.+..o$o.@.o@=*$o@XXoo$ooo@-$ooo.@o%%o.OO%oOX+#+@.o+.Oo*#.**%@",
"@....+o.oXo@..$=@oo%oooO@$$%@*$-o@%%oX$%@+*%.*-%+.=+ooo%$o@$@@oo",
"*%-O.&$o$o+%%%$#@o@#oXo**%o@o@**@.&%o o%%o@+#-o#@%&%$o%ooo$*#o@$",
"*#%$$*%%&&@+*=.o@.@*o o%@@OoXO@#O.o$.oo#@o.O=+.O.#@@$o%oo.#.@.oo",
"@@@@o*%%oo@#+#%-%oo%o  OoOoXX%@%%oo%%*@@o#%.#+O%%*.o@%%o.o@o.+%%",
"Ooo@.$%@...@oo@-%%%$+o%&$o%ooo@%-% .*#*o$$@%=$o&oo.$.ooo-%$$%@@+",
"o$o$$O@$%-%@%$%$O.#O%-&-$o%o$o$o@%o+%*$$o$.%*.$$oX.+X$$@#@*.%##.",
"o@OX%@@@*=*-@--.o+@%-$&*$$$@.%%@OoXo-*oOO%%o#@$$%.o%#$oo@.*%%@o$",
"$.#o$o@#*#*%$%o%o%$*=$o*$o.+o##oooX-@@oO#*%.o*+.%o+*#@+@@+##o%$$",
"$o.@o%%%###@ooX%%$o$%%.*%oO%*%%$O.o*@.o+%%oOo%%X+%*%++++%@=@o%%%",
"*oooo@OO**@*.X.o.oXo@o=#@@oo#+@+ooOO@.o@@%oo+%%..o*+++o+#O=%oo%o",
".%-$%@Oo-=$%@..X@o%o@o=%o@X$=+@oo$%%-=+@@-%o*@#..o$%$&.+@O*o.o.o",
" @*+@$$@o%Xo$@%o$++%oO@%.o.o@+%%o%#$--*-%##@==*o%$.ooo+*+*@%$%o$",
"X.+..%%%@..o$O#$.o.@%o$$%o@@O@++ooO.#O@*o@@@#=#@%+@@@o@-%*+%$o**",
"%oO%%%+o#o.@$o%%.$$#*%$$$%*%%@+.ooXo.@O#o*%oo@@*@O.o$$%#@#o$o.+o",
"%o%@$o.o&$%@oo*@$oo@@@.+o%%$o%%+*%.$&%%$%*@o$+o**.X ..*ooo$%@@. ",
"oo$$o.oo@@%%.@#+ooX.#=+.@$o@Xoo@@+@%-%.%$&$.+$$-;%ooo.$o&oo%@@O.",
"++O.%%oo@oo$%o%%.@X$%-%o.@..o.oo#+oo*+o+@ooo%*o$*@o%%$oX@o&%%o+.",
"-=..@=o$-@..o$o..o.o+=%o++..o.-#*%+ooo.##o.@@@ooo-oo%$$X+ooo@X%%",
"$@@%%*@%-#oo@o$o$o*@.#@o=%$o@oo-%@@+oo##@o$%.o%X.o*o$$$$$o...o@*",
"$o@-%@%o@#o$$%.$$o**o@+o*%%.o%*o@ooo@%*=*@*%o$@oo.#@o$Xoo%$ooo.+",
"+.o@Ooo.o*o$$=o%&o.@@oo&@O@.o-=.@#oo@+==*#@@.oo%-%o@$%@@.@o%%XOo",
"o$$oo..O@@ooo-@@O$&.*oo%@%%%**#O.ooo%%ooo#*OoooO*$o%$@O=@O@#%o@$",
"%%%oo@o$=oo .$*o.%o$%o.O@%oo*o.$%$%%.+oXo%--%$$%o.o%o@@%$$%.oO*-",
"%%.o$-@o+o%o+.*@@oX$o-%o.X.oooo$%o.++oo@o%*&@O@$X@O@O@OOo@#%oo#*",
"$=oXo*%oooo$oo%@#oO.%%o@%XO*o%oo-*.@+@%*@o+=*$%OX%&&%o$o.#=*%$**",
"+=o..*oo.$o.$o.+-*@o@oX%*.o*@$%&%*.@@*+@oo%%$o.@ O%$$$ooX#=%@@#o",
".*%$%#.o$-%o$$.+@o%@O@o$%o%@@Oo%=%#%&$@o%$$@...*#o$%$-#%@%=%%%O.",
"o$%.X**@oo%+oXo+o%*oo@Oo@o@$oo..@o%+oooo$$Xoo.$&-oo@%*-o@$=oo%o$",
"$%#Oo@%oo.o.%$Xoo*#o$%@O.*oX$o@%@.o+..@o..oXo$.X$$o@OO&$Oo@ooo@$",
".+o$@oooo%oo@.Xo@#@.o%%o.@%o&$$-%%$*+o$%%ooo&o*.oo.O.o%%o%%@$o%@",
"o$$oo#oX$$$$. o$%%$$*##o%*%o%@o%%#%%%o.o-&$$%.#.oo$$$$%$$%-=Oo%@",
"%%$O%*X.ooo$$oo@@.X.=**o%%%oo%oo@**.o..$*%Xo@.+%%&%ooo$o.#=@o%o*",
"=@o.%%.@@.o&$%ooO.OX@%o%%o@o.%oo.%#%$.o%%@.$oOo%o$%@.Xo$.o@@@*.%",
"#o+.o.o;@#%Oo@o.o%$X%+.o+++*+#..o.+.&%@.#*.$o#-%$o@@.X%ooo..o#+o",
"$$.$X.o*%-o..oooo$$$ooo.@++*=+.o*$o.o@O.o#.@.%-o@@O@$.@@%%$-=*+%",
"-@$$$XOo@@oo@*%$@%%oo.@+o@.+*oX@*=$$$$$$.@*@o.oo@@o-=%o$-o@=**%."
};
