/* XPM */
static char *_966b9e9d8934a6d99cc49b50945dae9UKGVlNZEyCuJu36A[] = {
/* columns rows colors chars-per-pixel */
"15 15 4 1 ",
"  c #B5FF52",
". c #63CE08",
"X c #297300",
"o c white",
/* pixels */
" . . . . . . . ",
"X . . X X . . X",
" .X.X. . .X.X. ",
". . . . . . . .",
" . . . . . . . ",
". . . . . . . .",
" . . . . . . . ",
". . . . . . . .",
" . . . . . . . ",
"X . . X X . . X",
" .X.X. . .X.X. ",
". . . . . . . .",
" . . . . . . . ",
". . . . . . . .",
" . . . . . . . "
};
