/* XPM */
static char *result[] = {
/* columns rows colors chars-per-pixel */
"64 64 132 2 ",
"   c #3C3C3C",
".  c #3E423C",
"X  c #40443F",
"o  c #424F3D",
"O  c #445A3D",
"+  c #485E3E",
"@  c #4C743E",
"#  c #444444",
"$  c #474C46",
"%  c #484F45",
"&  c #4C4C4C",
"*  c #485743",
"=  c #4B5944",
"-  c #545454",
";  c #575B55",
":  c #585C56",
">  c #5B5B5B",
",  c #4C6245",
"<  c #516A47",
"1  c #566B4F",
"2  c #557D44",
"3  c #55734B",
"4  c #566350",
"5  c #5B6557",
"6  c #5D6E57",
"7  c #5C6558",
"8  c #5D7055",
"9  c #617F54",
"0  c #66785E",
"q  c #636363",
"w  c #686E66",
"e  c #6C6C6C",
"r  c #667760",
"t  c #6A7465",
"y  c #727272",
"u  c #7B7B7B",
"i  c #1D9700",
"p  c #1D9900",
"a  c #259700",
"s  c #269B00",
"d  c #2C9D00",
"f  c #329E00",
"g  c #329C0B",
"h  c #3A9E17",
"j  c #27A100",
"k  c #2DA200",
"l  c #2FA900",
"z  c #2BA10A",
"x  c #33A300",
"c  c #38A401",
"v  c #32A800",
"b  c #3AA900",
"n  c #32A108",
"m  c #39A50C",
"M  c #3CA80D",
"N  c #35A213",
"B  c #3AA412",
"V  c #3BA31B",
"C  c #38A81B",
"Z  c #3DA521",
"A  c #43A415",
"S  c #44A61B",
"D  c #46AC1A",
"F  c #529D37",
"G  c #55973D",
"H  c #599E3E",
"J  c #44A422",
"K  c #48A524",
"L  c #45AB22",
"P  c #4AAD25",
"I  c #46A42D",
"U  c #4CA52B",
"Y  c #49A82B",
"T  c #54A434",
"R  c #56AE33",
"E  c #59AC36",
"W  c #5CA73F",
"Q  c #5CAA3C",
"!  c #62B43E",
"~  c #558942",
"^  c #578149",
"/  c #5D8F49",
"(  c #5C9743",
")  c #579B44",
"_  c #5A9B42",
"`  c #618950",
"'  c #68855E",
"]  c #6C955E",
"[  c #6E9B5B",
"{  c #5BA142",
"}  c #5CA843",
"|  c #5CB444",
" . c #62A743",
".. c #62AD46",
"X. c #62A34A",
"o. c #64B543",
"O. c #6DBC4A",
"+. c #6AA454",
"@. c #6DA458",
"#. c #6DB357",
"$. c #70BC53",
"%. c #6F8963",
"&. c #759E66",
"*. c #7B8279",
"=. c #7BC162",
"-. c #80AC6F",
";. c #82A475",
":. c #8DC674",
">. c #848484",
",. c #8E8E8E",
"<. c #8B9188",
"1. c #8F9D8A",
"2. c #91968F",
"3. c #929B8F",
"4. c #919191",
"5. c #9C9C9C",
"6. c #A4A4A4",
"7. c #ADADAD",
"8. c #B3B3B3",
"9. c #BBBBBB",
"0. c #98CB87",
"q. c #A2CF8C",
"w. c #B2D7A2",
"e. c #B8D9AC",
"r. c #BCDAB1",
"t. c #C3DCB9",
"y. c #C4C4C4",
"u. c #CBCBCB",
"i. c #D3D3D3",
"p. c #DCDCDC",
"a. c #E4E4E4",
"s. c #EDEDED",
/* pixels */
"x k d k s k k j a s x s x v v l k d d s x d k k s k k d s d i s d f c c s s k s s s f d f d p l k s f c c d k x x d d d a d d k ",
"d f a d a d j s k k s s d d d d l d d d l k d k a d k a a d a s d s x x d a d d d a s s k l l s d d d k k d a d d x l f d s k d ",
"a s s s k x k s k d k d f s s f s f k s k v d d i a x d k l k s a a x v v a x d k d k k k v k a a k s k d k s s d k x k k d s d ",
"a v d d k d v k j s l v d d s f d f c k a d f a a d k l v b p k d k x x k d f x x k f s a s f d d k k a d k p j l s a x x k x s ",
"x l d k k d d d d k x x a d k d f d v x a a s k k k k k x x a s x a x d s d x l d d k s k d f f d j d a k v k d k d k k k d x d ",
"k k k k d a s a f d d d k a k f d d d f d d d a k k k d d x k f x f x d x f l d k l k k b b k k d k d d k x x f s d v d a k v k ",
"l f d x d k k d x d k l f d s f d k k d d k v d k k l d f d a d c l v x d x d d f x d f x x x k a d x f k k d x j a k l d s d d ",
"x s f d d s l k d s s d d d d d l l k d j a d v k j d d f d f d k d k c x x x f d d k d f v v d s f f d s d d s p d a k a a s d ",
"k d d d d a s d d a a a d l k k d x k k a s f v v c a f f a a g d s x k c l d d k d x d k k f d d s d f d d x a p d d f s a k l ",
"a a k k k d a d d f a s f d d a a s k k s d l k f x x U q.s.s.s.s.s.t.:.D d k d d f x f d s x f d s k x k d d d s d s f d x k d ",
"s s d k v d a l j x l v k d a a s f s f k d x Z r.s.s.s.a.p.i.i.i.i.p.a.a.s.s.e.m d f d d k k x s x l d x a d x v k d d k v k a ",
"s k d s x v d k d x d x d k v v v d f f d e.s.s.s.p.u.9.8.7.7.7.7.7.7.8.9.9.y.u.p.s.o.d s d s d x d k k k s k k d d v x k k v d ",
"k s s d k l l d f d d x s s x k v l =.s.s.s.a.i.9.8.7.7.7.7.7.7.7.7.7.7.7.7.7.7.8.9.p.s.C s s f d d f d s j l d s d v v d a k x ",
"j s d k k v x d x x d f a s s d f s.s.s.p.y.8.7.7.7.7.7.7.7.7.7.7.7.7.7.7.7.7.7.7.7.9.s.s.| a d d f d k j k a k d k k k f k k d ",
"j d k k d s x k f d d x x v d 0.s.s.i.9.7.7.7.7.7.7.7.7.7.7.7.7.7.7.7.7.7.7.7.8.8.y.a.s.s.s.O.d k s k k d d d k j k p d x k l s ",
"d s d s d d f k d d s d v v e.s.a.y.7.7.7.7.7.7.7.7.7.7.7.7.7.7.7.7.8.9.9.u.i.p.a.s.s.a.s.s.s.o.k s a d d d d d s l l l k k x k ",
"a d d d d k x d x v x l k w.s.a.9.7.7.7.7.7.7.7.7.7.7.7.7.7.8.9.u.p.a.s.a.a.p.i.u.9.9.9.9.9.y.u.! s a d s k k s d k k k s d x d ",
"a s s a d k k d v x f k | s.a.9.7.7.7.7.7.7.7.7.7.7.7.7.8.u.a.s.s.s.a.y.9.8.7.7.7.7.7.7.7.7.7.7.6.o.d a d d s s k s a a a f x d ",
"j j p s k k s d k f d x s.s.y.7.7.7.7.7.7.7.7.7.7.7.8.u.a.s.s.s.s.s.u.7.7.7.7.7.7.7.7.7.7.7.7.7.6.*.E a s f d k s x d s d x x d ",
"s a s l s a k d d d a s.s.i.7.7.7.7.7.7.7.7.7.7.7.9.p.i.y.y.y.u.a.s.p.7.7.7.7.7.7.7.7.7.7.7.7.7.7.y w X.d k d x d v l s k d f d ",
"a a d x s s f s k d $.s.p.8.7.7.7.7.7.7.7.7.7.8.u.u.6.5.4.4.4.4.5.9.p.i.8.7.7.7.7.7.7.7.7.7.7.8.8.e - > / v s f f x x d d d s f ",
"s a k k k k d d d d s.a.9.7.7.7.7.7.7.7.7.7.8.r.7.5.5.6.6.7.6.7.6.5.6.y.u.8.7.7.7.7.7.7.7.7.7.y.5.> > > 7 X.s k d d f f k k k k ",
"j k k d d k l x d e.a.9.7.7.7.7.7.7.7.7.7.7.7.6.6.7.7.7.7.7.7.7.7.7.7.6.7.8.7.7.7.7.7.7.7.7.7.i.y > > > > q E k k v x x k x k d ",
"l k k f k d d c D a.a.8.7.7.7.7.7.7.7.7.7.7.7.7.7.7.7.7.7.7.7.7.7.7.7.7.7.7.7.7.7.7.7.7.8.7.y.9.q > > > > > w J k v l v d v x d ",
"s d a k x s f f 2.u.s.p.7.7.7.7.7.7.7.7.7.7.7.7.7.7.7.7.7.7.7.7.7.7.7.7.7.7.7.7.7.7.7.y.9.8.a.4.> > > > > > - %.m d k d a k f d ",
"f x d l l d d Q >.6.p.s.y.7.7.7.7.7.7.7.7.7.7.7.7.7.7.7.7.7.7.7.7.7.7.7.7.7.7.7.7.7.u.i.7.u.i.y > > > q > > > > [ s k a d k s d ",
"x x k d f a s ;.,.,.8.s.i.7.7.7.7.7.7.7.7.7.7.7.7.7.7.7.7.7.8.8.8.9.8.8.8.7.8.8.y.p.p.8.8.a.8.e > > > q e > > > >  .d d d d s d ",
"s d d d d s V 4.,.,.5.a.p.8.7.7.7.7.8.7.7.7.7.7.7.7.7.8.y.i.p.a.a.a.a.a.a.a.p.s.s.i.8.7.i.a.4.y > > > q y > > > > 0 A d x d f d ",
"d d s s a d ..,.<.4.,.u.a.8.7.7.7.7.7.7.7.7.7.7.7.7.7.8.9.9.8.9.8.9.y.y.u.u.i.y.9.7.7.u.s.p.u y q > > e y q > > > : +.d d d f d ",
"k f v d s c -.,.4.,.,.9.s.9.7.7.7.7.7.7.7.7.7.7.7.7.7.7.7.7.7.7.7.7.7.7.7.7.7.7.7.8.u.a.s.y.y y y > > e y e > > > : r B x d d d ",
"x f x k d M 3.,.,.,.,.8.a.8.7.7.7.6.4.7.7.7.7.7.7.7.7.7.7.7.7.7.7.7.7.7.7.8.9.y.u.p.s.s.s.9.y y y q > q y y > > > > > W d a d d ",
"f s f d s R <.4.,.,.,.8.a.8.7.7.7.u q 5.6.5.5.6.7.7.7.7.7.7.7.7.8.9.y.u.p.a.a.s.a.a.s.s.s.8.y y y e q e y y q > > > : ] d d k k ",
"d d d d s #.,.4.,.,.,.7.p.7.7.7.5.> e 4.,.,.,.,.>.,.4.5.7.8.9.9.9.y.a.s.s.s.y.5.>.>.5.u.s.8.y y y y e y y y e > > > > t m d f d ",
"d j s j k 1.,.,.,.,.,.8.i.7.7.7.u > u ,.,.,.4.,.,.u y y u u u y y q 6.s.i.5.y y y y y u 9.9.y y y y y y y y e > > > > q K f d a ",
"s d d s P 2.,.,.,.,.,.8.u.7.7.7.e q ,.,.,.4.,.,.,.>.y y e y y y q q 8.y.5.>.y y y e y y >.9.y y y y y y y y y > > > > > } d k s ",
"s d f s #.<.<.>.,.4.,.7.9.7.7.6.q y ,.,.,.,.4.,.,.,.u y y y y e q 4.9.,.,.>.y y y y y y y u y y y y y y u u y q > > > > +.k l k ",
"j d d d 1.<.>.y ,.,.,.7.8.7.7.4.q >.4.,.,.,.,.,.,.,.>.y y y y q >.9.4.,.,.>.y y y y y y y e y y y y u u ,.u y q > > > > [ k k x ",
"v d a N <.,.w u ,.,.,.4.7.7.7.>.y ,.,.4.,.4.4.,.,.4.,.y y y e y 7.4.,.,.,.,.y y e y y y y y y y y u ,.,.,.u y e > > > > ' d d k ",
"s k v R <.y > ,.4.,.,.4.6.7.7.,.>.4.,.,.,.,.,.,.,.,.4.u y y y 6.4.,.,.,.,.,.u y y y y y y y y y y ,.,.,.,.u y q > > > > 8 N p d ",
"p d x ..u > q ,.,.,.,.,.5.7.7.4.,.,.4.,.,.4.,.,.4.4.4.>.y u 5.4.,.4.4.,.,.,.,.>.u u y y y y y y y >.,.,.,.u y e > > > > 7 L d k ",
"a a d } e > q ,.,.,.,.,.4.5.4.4.,.u >.,.,.4.,.,.4.,.,.,.,.4.4.,.,.,.,.,.4.,.,.,.,.,.,.>.u y y y y ,.4.,.,.u y q > > > > 5 J v k ",
"l j d R q > > >.,.,.4.,.,.,.,.,.,.q >.4.,.,.4.,.,.,.,.4.,.,.4.,.,.4.,.4.,.,.,.4.,.,.,.4.,.y y y y >.,.,.4.u y q > > > > 6 h d s ",
"d j x B t > > y ,.,.4.,.,.,.,.,.y q >.4.,.4.,.,.,.,.,.4.,.,.,.,.,.,.,.,.,.,.,.4.,.,.,.4.,.u y y y ,.,.,.,.u y e > q > - 0 g d i ",
"d s d k &.> > q >.4.,.,.,.,.,.,.q q >.,.u ,.,.,.4.,.,.,.,.,.4.,.4.,.4.,.4.,.,.,.,.,.,.,.,.u y y y ,.,.,.,.y y e e y q > @.f d a ",
"f x s d @.- > > q >.,.,.,.,.4.u > q >.>.e ,.,.,.,.,.4.,.4.,.4.,.,.,.,.,.,.,.,.,.>.u y u >.u y y u ,.,.4.>.y y y y e q : +.j d d ",
"x f s g 8 X > > > q u 4.4.,.,.q > > y q e 4.,.,.,.4.,.,.,.,.,.,.,.,.,.,.4.,.,.,.u y y y y y y y u 4.,.,.u y y y e q > & 9 a k k ",
"l d d } X   X - > > q u ,.>.y > > > > > >.,.4.,.,.,.,.,.,.,.,.,.,.u ,.,.,.,.4.u y y e y y y y y u ,.>.u y y y e q > &   * V k k ",
"k d k  .      # - > > > q q > > > > e u ,.4.,.,.,.,.4.,.4.,.4.4.u q >.,.,.,.,.u y y y y y y y e u u y y y y e q > - #   o Z d s ",
"s a d S <       # - > > > > > > > u ,.4.,.,.,.,.,.,.,.,.,.,.,.,.e > >.,.,.,.,.y y y e y y y y y y y y y e e > : - #     2 z s d ",
"d k j d U 3       # - > > > > > q >.,.,.,.,.4.,.,.4.,.4.,.,.,.>.q > u 4.,.4.>.y y e q e y y y y y y e q q > > > #     + I a f k ",
"l k k s k B { <     X & > > > > > q y >.,.,.,.4.4.4.,.,.,.,.,.e > - y 4.4.,.>.y e > > e y y e e q q q > > > ; $   . 2 K a d x v ",
"l k s s s v d B { ,     # & > > > > > > q q e y u >.>.,.,.u e > > > q >.4.4.>.e > > - > q q > > > > > > : - # . * H m f k s x f ",
"d f s s p c k s d N ) < #   X & & - ; ; - > > : > q q q q > > > > > > e >.u e > > > > > > > > > > > : - &   . ~ J f x x k k x x ",
"d c d a a v d d a k s s Y _ ^ , = % & # # & # & & & - - - > > > > > > > q q > > > > > > > : - - & $ o O @ G J d a x v k d f d d ",
"s x k j k f s s k v v d k j a d z B S K T T F _ ( / ` 9 8 6 7 7 > : > > - : > - > ; ; 4 1 3 ^ / ( F J B x v x d d k c d d x d a ",
"s k k d a l x d d d k d s s s d d k v a d f d d d d f d k d s d g N J J U I U U Y J N n d p d l x d d d f x c k d k v d d l d j ",
"j x f s a k k s s a s d k k p k f x f s d v x s a x d p k s d k f d d d a a d d a a s a d k a s k l d f a d l s d d x s d d d k ",
"a d d k d d d j j k d a d a p s d d d s d x k s a x k s l k k l d l k k d j k k v d s k l s f d d s a s s a l l k d k x k s x d ",
"d k k s f x s s j k k s s a d j l k k j f c f s k x d j k k d k x x d k k d a d x k j k k a d a s s s d k k l s d l c x a k d d ",
"x l k s x x s a s k s l k s d f d s a s x x x s l k k k d k d s f x x d d a s k l l p d d d k k k l l k s s k k a x k f d k s c ",
"f d d a k k a d f s d l j l d s a d d p k j k k k d d d d f s d s x f x j a d k x d s d d s d k k k k f a a k s a d f d k x s d ",
"f k d a d d d b d f k d d d d a a x k p d d a d s d k x d x a s d a d s l k d a f x s k d f l l j s f d d p k d s s d a d f k d ",
"k k s k p a d v k v d a a d s d s k l j k d d a d x d k x s a d x d s i d k d s d f a d a v x d d k s f d p d d x k k v v x d k ",
"c d j k j s a s d f d s d x k j s l d d d a d d d d a d x k p k k c k k k k s k a x f f s a s d f d k c c k k l v s d x x x d d "
};
